<?xml version="1.0" encoding="UTF-8"?>
<svg width="662px" height="466px" viewBox="0 0 662 466" version="1.1" xmlns="http://www.w3.org/2000/svg" xmlns:xlink="http://www.w3.org/1999/xlink">
    <!-- Generator: Sketch 52.6 (67491) - http://www.bohemiancoding.com/sketch -->
    <title>ap-04-chrome-ext</title>
    <desc>Created with Sketch.</desc>
    <defs>
        <path d="M568,385 L0,385 L0,8 C-5.41083001e-16,3.581722 3.581722,8.8817842e-16 8,0 L560,0 C564.418278,2.22044605e-16 568,3.581722 568,8 L568,385 Z" id="path-1"></path>
        <filter x="-2.3%" y="-2.9%" width="104.6%" height="106.8%" filterUnits="objectBoundingBox" id="filter-2">
            <feOffset dx="0" dy="2" in="SourceAlpha" result="shadowOffsetOuter1"></feOffset>
            <feGaussianBlur stdDeviation="4" in="shadowOffsetOuter1" result="shadowBlurOuter1"></feGaussianBlur>
            <feColorMatrix values="0 0 0 0 0.11372549   0 0 0 0 0.109803922   0 0 0 0 0.223529412  0 0 0 0.1 0" type="matrix" in="shadowBlurOuter1"></feColorMatrix>
        </filter>
        <rect id="path-3" x="0" y="0" width="216" height="255" rx="8"></rect>
        <filter x="-6.0%" y="-4.3%" width="112.0%" height="110.2%" filterUnits="objectBoundingBox" id="filter-4">
            <feOffset dx="0" dy="2" in="SourceAlpha" result="shadowOffsetOuter1"></feOffset>
            <feGaussianBlur stdDeviation="4" in="shadowOffsetOuter1" result="shadowBlurOuter1"></feGaussianBlur>
            <feColorMatrix values="0 0 0 0 0.11372549   0 0 0 0 0.109803922   0 0 0 0 0.223529412  0 0 0 0.1 0" type="matrix" in="shadowBlurOuter1"></feColorMatrix>
        </filter>
    </defs>
    <g id="Page-1" stroke="none" stroke-width="1" fill="none" fill-rule="evenodd">
        <g id="GUIs-adaptaion" transform="translate(-670.000000, -17554.000000)">
            <g id="section-copy-18" transform="translate(186.000000, 17554.000000)">
                <g id="GUI" transform="translate(484.000000, 0.000000)">
                    <g id="GUI-details" transform="translate(32.000000, 25.000000)">
                        <circle id="Oval-Copy-8" fill="#C3CFFA" cx="556.5" cy="319.428571" r="60.8928571"></circle>
                        <polygon id="Rectangle" fill="#FEDE88" fill-rule="nonzero" points="-4.08562073e-14 -3.89652468e-14 204 -3.89652468e-14 204 101 -4.26325641e-14 101"></polygon>
                        <polygon id="Rectangle" fill="#FFEAB6" fill-rule="nonzero" points="153 4.62998815e-14 204 4.62998815e-14 204 101 153 101"></polygon>
                        <path d="M159,415 C160.65625,415 162,416.342973 162,417.998265 C162,419.657027 160.65625,421 159,421 C157.340278,421 156,419.657027 156,417.998265 C156,416.342973 157.340278,415 159,415 Z M159,435 C160.65625,435 162,436.342973 162,437.998265 C162,439.657027 160.65625,441 159,441 C157.340278,441 156,439.657027 156,437.998265 C156,436.342973 157.340278,435 159,435 Z M98,415 C99.6597222,415 101,416.342973 101,417.998265 C101,419.657027 99.6597222,421 98,421 C96.3402778,421 95,419.657027 95,417.998265 C95,416.342973 96.3402778,415 98,415 Z M98,435 C99.6597222,435 101,436.342973 101,437.998265 C101,439.657027 99.6597222,441 98,441 C96.3402778,441 95,439.657027 95,437.998265 C95,436.342973 96.3402778,435 98,435 Z M139,435 C140.659722,435 142,436.342973 142,437.998265 C142,439.657027 140.659722,441 139,441 C137.34375,441 136,439.657027 136,437.998265 C136,436.342973 137.34375,435 139,435 Z M119,435 C120.659722,435 122,436.342973 122,437.998265 C122,439.657027 120.659722,441 119,441 C117.340278,441 116,439.657027 116,437.998265 C116,436.342973 117.340278,435 119,435 Z M139,415 C140.659722,415 142,416.342973 142,417.998265 C142,419.657027 140.659722,421 139,421 C137.34375,421 136,419.657027 136,417.998265 C136,416.342973 137.34375,415 139,415 Z M119,415 C120.659722,415 122,416.342973 122,417.998265 C122,419.657027 120.659722,421 119,421 C117.340278,421 116,419.657027 116,417.998265 C116,416.342973 117.340278,415 119,415 Z M37,415 C38.6597222,415 40,416.342973 40,417.998265 C40,419.657027 38.6597222,421 37,421 C35.34375,421 34,419.657027 34,417.998265 C34,416.342973 35.34375,415 37,415 Z M37,435 C38.6597222,435 40,436.342973 40,437.998265 C40,439.657027 38.6597222,441 37,441 C35.34375,441 34,439.657027 34,437.998265 C34,436.342973 35.34375,435 37,435 Z M77,435 C78.6597222,435 80,436.342973 80,437.998265 C80,439.657027 78.6597222,441 77,441 C75.3402778,441 74,439.657027 74,437.998265 C74,436.342973 75.3402778,435 77,435 Z M57,435 C58.65625,435 60,436.342973 60,437.998265 C60,439.657027 58.65625,441 57,441 C55.3402778,441 54,439.657027 54,437.998265 C54,436.342973 55.3402778,435 57,435 Z M77,415 C78.6597222,415 80,416.342973 80,417.998265 C80,419.657027 78.6597222,421 77,421 C75.3402778,421 74,419.657027 74,417.998265 C74,416.342973 75.3402778,415 77,415 Z M57,415 C58.65625,415 60,416.342973 60,417.998265 C60,419.657027 58.65625,421 57,421 C55.3402778,421 54,419.657027 54,417.998265 C54,416.342973 55.3402778,415 57,415 Z" id="Combined-Shape" fill="#E7EBF1"></path>
                    </g>
                    <g id="ap-04-chrome-ext" transform="translate(47.000000, 40.000000)">
                        <g id="background" transform="translate(0.000000, 1.000000)">
                            <g id="Path">
                                <use fill="black" fill-opacity="1" filter="url(#filter-2)" xlink:href="#path-1"></use>
                                <use fill="#FFFFFF" fill-rule="evenodd" xlink:href="#path-1"></use>
                            </g>
                        </g>
                        <path d="M8,0 L560,0 C564.418278,2.705415e-16 568,3.581722 568,8 L568,27 L0,27 L0,8 C-5.41083001e-16,3.581722 3.581722,8.11624501e-16 8,0 Z" id="Path" fill="#F5F6FA"></path>
                        <circle id="Oval" fill="#FD7E98" cx="15" cy="14" r="3.5"></circle>
                        <circle id="Oval" fill="#FCD56B" cx="30" cy="14" r="3.5"></circle>
                        <circle id="Oval" fill="#79E2AA" cx="45" cy="14" r="3.5"></circle>
                        <polygon id="Rectangle" fill="#AA8DF7" points="0 72 568 72 568 283 0 283"></polygon>
                        <rect id="Rectangle" fill="#FFFFFF" x="194" y="174" width="110" height="23" rx="4"></rect>
                        <rect id="Rectangle" fill="#79E2AA" x="309" y="174" width="55" height="23" rx="4"></rect>
                        <rect id="Rectangle" fill="#E7EBF1" x="203.32" y="184" width="50" height="3" rx="1"></rect>
                        <rect id="Rectangle" fill="#E7EBF1" x="136.39" y="219.71" width="289" height="140.04" rx="6"></rect>
                        <circle id="Oval" fill="#FFFFFF" cx="280.89" cy="287.73" r="26.78"></circle>
                        <path d="M277.17,285.22 L277.17,290.22 C277.167761,290.863267 277.512767,291.457694 278.072427,291.774835 C278.632087,292.091976 279.319315,292.082481 279.87,291.75 L283.74,289.43 C284.263248,289.120367 284.592261,288.565078 284.612517,287.957417 C284.632772,287.349757 284.341467,286.773791 283.84,286.43 L280,283.75 C279.452424,283.359083 278.731892,283.30823 278.134837,283.61836 C277.537783,283.928491 277.165056,284.547222 277.17,285.22 Z" id="Path" fill="#79E2AA"></path>
                        <rect id="Rectangle" fill="#FFFFFF" x="65" y="6" width="127" height="34" rx="6"></rect>
                        <rect id="Rectangle" fill="#FFFFFF" opacity="0.5" x="166.5" y="133.13" width="234" height="5" rx="2.3"></rect>
                        <rect id="Rectangle" fill="#FFFFFF" opacity="0.5" x="218.5" y="149" width="130" height="5" rx="2.3"></rect>
                        <rect id="Rectangle" fill="#FFFFFF" x="188.5" y="106" width="190" height="11" rx="5.5"></rect>
                        <rect id="Rectangle" fill="#E7EBF1" x="75.32" y="15" width="50" height="3" rx="1"></rect>
                        <circle id="Oval" fill="#FD7E98" cx="520.35" cy="50.58" r="13"></circle>
                        <g id="character" transform="translate(511.000000, 40.000000)">
                            <path d="M3,18.45 C6.58306226,19.5749101 10.427312,19.5574362 14,18.4 C17.37,16.99 17.8,15.94 17.41,9 C16.98,1.31 12.61,2.64 4.28,2.75 C1.99,2.75 0.77,6.75 0.78,10.15 C0.84,12.76 0.75,17.59 3,18.45 Z" id="Path" fill="#F9BBA5"></path>
                            <path d="M2.58,2.83 C1.31,3.44 -0.42,9.26 0.84,12.01 C0.84,12.01 9.17,10.75 13.4,6.41 C14.62,7.41 15.95,9.63 17.4,10.14 C17.4,10.14 18.76,2.42 12.9,2.45 C12.94,2.45 9.13,-0.3 2.58,2.83 Z" id="Path" fill="#3F4164"></path>
                            <path d="M12.91,2.81 L12.85,2.81 C12.7484313,2.7815953 12.681309,2.68510711 12.69,2.58 C12.7319555,2.12301184 12.6380278,1.66380974 12.42,1.26 C12.3673752,1.14640108 12.410913,1.01143385 12.52,0.95 C12.5755855,0.922752987 12.6398077,0.919063115 12.6981481,0.939764541 C12.7564884,0.960465966 12.8040209,1.00381071 12.83,1.06 C12.9920322,1.37148695 13.0938139,1.71075924 13.13,2.06 C13.3920274,1.87906877 13.682806,1.74382291 13.99,1.66 C14.1086611,1.61992311 14.2375757,1.68215778 14.28,1.8 C14.2988075,1.85834478 14.2935455,1.92178347 14.2653824,1.97623225 C14.2372192,2.03068104 14.1884853,2.07163425 14.13,2.09 C13.7308392,2.18288933 13.3769396,2.41292407 13.13,2.74 C13.0734431,2.79938893 12.9904766,2.82578737 12.91,2.81 Z" id="Path" fill="#3F4164"></path>
                            <path d="M9.34,13.62 C9.25069723,13.6211137 9.16882336,13.5704299 9.13,13.49 C9.10363663,13.434604 9.10160168,13.370716 9.12438627,13.3137545 C9.14717085,13.2567931 9.19270514,13.2119327 9.25,13.19 C9.48618511,13.0691964 9.70764853,12.9215541 9.91,12.75 C9.67476055,12.226218 9.39366586,11.7242632 9.07,11.25 C8.98851392,11.1588958 8.98851392,11.0211042 9.07,10.93 C9.12037313,10.8954642 9.18241398,10.8823818 9.24244302,10.8936372 C9.30247206,10.9048927 9.35555952,10.9395617 9.39,10.99 C9.77376649,11.536005 10.1084079,12.1149346 10.39,12.72 C10.4436845,12.7983531 10.4436845,12.9016469 10.39,12.98 C10.1130698,13.22769 9.80352815,13.4362941 9.47,13.6 C9.43205576,13.6263229 9.38410167,13.6337004 9.34,13.62 Z" id="Path" fill="#D26E63" opacity="0.4"></path>
                            <path d="M9.25,16.71 C8.89114602,16.7122106 8.540904,16.6001331 8.25,16.39 C7.93900741,16.1518521 7.75763061,15.7816953 7.76,15.39 C7.76,15.2684974 7.85849736,15.17 7.98,15.17 C8.04006018,15.1672671 8.09862219,15.1892335 8.1420691,15.2307914 C8.18551601,15.2723493 8.21006214,15.3298777 8.21,15.39 C8.1985302,15.6526683 8.31848823,15.9038304 8.53,16.06 C8.75284981,16.2146668 9.01878539,16.2951473 9.29,16.29 C9.59007084,16.3265351 9.89226985,16.2413191 10.1290478,16.0534002 C10.3658257,15.8654812 10.5174396,15.5905281 10.55,15.29 C10.5305631,15.1983106 10.5687076,15.1039983 10.6464203,15.051601 C10.724133,14.9992037 10.825867,14.9992037 10.9035797,15.051601 C10.9812924,15.1039983 11.0194369,15.1983106 11,15.29 C10.9624263,15.7129589 10.7551318,16.1026615 10.425402,16.3702137 C10.0956721,16.6377659 9.67162897,16.7603487 9.25,16.71 Z" id="Path" fill="#60342B"></path>
                            <path d="M4.33,13 C4.20936991,12.9798029 4.12322468,12.8721214 4.13,12.75 C4.12465293,12.4485814 4.23996931,12.1575224 4.45030239,11.9415554 C4.66063547,11.7255884 4.94854539,11.6026204 5.25,11.6 C5.84623101,11.5885461 6.3430036,12.0542704 6.37,12.65 C6.37553131,12.7100261 6.35618994,12.7696925 6.31649501,12.8150581 C6.27680008,12.8604238 6.22022914,12.8875143 6.16,12.89 C6.0999739,12.8955313 6.0403075,12.8761899 5.99494186,12.836495 C5.94957623,12.7968001 5.92248571,12.7402291 5.92,12.68 C5.90381879,12.3233522 5.606968,12.0442238 5.25,12.05 C4.96,12.05 4.63,12.25 4.58,12.79 C4.57492043,12.8510904 4.54566376,12.9076253 4.49872515,12.9470538 C4.45178654,12.9864822 4.39105021,13.0055414 4.33,13 Z" id="Path" fill="#C1564D"></path>
                            <path d="M12.31,13 C12.185368,12.9844533 12.0938008,12.8754448 12.1,12.75 C12.0946529,12.4485814 12.2099693,12.1575224 12.4203024,11.9415554 C12.6306355,11.7255884 12.9185454,11.6026204 13.22,11.6 C13.8123751,11.5940036 14.3031028,12.0582055 14.33,12.65 C14.3355313,12.7100261 14.3161899,12.7696925 14.276495,12.8150581 C14.2368001,12.8604238 14.1802291,12.8875143 14.12,12.89 C14.0599739,12.8955313 14.0003075,12.8761899 13.9549419,12.836495 C13.9095762,12.7968001 13.8824857,12.7402291 13.88,12.68 C13.8639499,12.3272583 13.5731065,12.049635 13.22,12.05 C12.93,12.05 12.6,12.25 12.55,12.79 C12.5393934,12.9131016 12.4334201,13.0058282 12.31,13 Z" id="Path" fill="#C1564D"></path>
                            <path d="M14.42,10.32 L14.35,10.32 L11.35,9.74 C11.2609892,9.72306857 11.1824183,9.67130916 11.1317262,9.5962098 C11.0810342,9.52111043 11.0624145,9.42888392 11.08,9.34 C11.120053,9.1577693 11.2960136,9.03899589 11.48,9.07 L14.48,9.64 C14.6014703,9.65071797 14.7079955,9.72542541 14.7594486,9.83598076 C14.8109018,9.94653611 14.7994658,10.0761434 14.7294486,10.1759808 C14.6594315,10.2758181 14.5414703,10.330718 14.42,10.32 Z" id="Path" fill="#3F4164"></path>
                            <g id="Group" opacity="0.2" transform="translate(2.000000, 3.000000)" fill="#FFFFFF">
                                <path d="M2.4,2.29 C1.81460464,2.29019007 1.22989007,2.25009535 0.65,2.17 C0.525267577,2.14952343 0.437796916,2.03581157 0.45,1.91 C0.47047855,1.78643934 0.586057207,1.70197801 0.71,1.72 C3.10079426,2.05638164 5.53760843,1.6734537 7.71,0.62 C7.8261646,0.56895527 7.96199098,0.617151727 8.02,0.73 C8.07011912,0.843305028 8.02148297,0.975949073 7.91,1.03 C6.19210464,1.86086045 4.30826907,2.2916468 2.4,2.29 Z" id="Path"></path>
                                <path d="M2.86,5.06 C2.75018702,5.06262002 2.65384793,4.98722421 2.63,4.88 C2.61153915,4.75381394 2.69499037,4.63522536 2.82,4.61 C4.48994878,4.29166714 6.08254255,3.65327135 7.51,2.73 C7.56002533,2.69686507 7.62141425,2.68560105 7.67994443,2.69881754 C7.7384746,2.71203403 7.78906679,2.74858411 7.82,2.8 C7.85404098,2.84878876 7.86687216,2.90928384 7.85556764,2.96769051 C7.84426312,3.02609719 7.80978669,3.07743595 7.76,3.11 C6.28665874,4.0886004 4.63537481,4.76814112 2.9,5.11 L2.86,5.06 Z" id="Path"></path>
                                <path d="M14,3.82 C13.9442002,3.81974659 13.8905815,3.79829912 13.85,3.76 C13.2469007,3.20433305 12.7754377,2.52105343 12.47,1.76 C12.4362041,1.64424137 12.4975537,1.52203524 12.6105743,1.47998104 C12.723595,1.43792684 12.8499064,1.49030563 12.9,1.6 C13.1682553,2.31315035 13.5997739,2.95357866 14.16,3.47 C14.247621,3.56255127 14.247621,3.70744873 14.16,3.8 C14.1097816,3.82221134 14.0541407,3.82916646 14,3.82 Z" id="Path"></path>
                            </g>
                        </g>
                        <rect id="Rectangle" fill="#D1D5DB" transform="translate(204.500000, 15.500000) rotate(-90.000000) translate(-204.500000, -15.500000) " x="203" y="11" width="3" height="9" rx="1.5"></rect>
                        <rect id="Rectangle" fill="#D1D5DB" x="203" y="11" width="3" height="9" rx="1.5"></rect>
                        <circle id="Oval" fill="#D1D5DB" cx="549.5" cy="50.5" r="1.5"></circle>
                        <circle id="Oval" fill="#D1D5DB" cx="549.5" cy="56.5" r="1.5"></circle>
                        <circle id="Oval" fill="#D1D5DB" cx="549.5" cy="44.5" r="1.5"></circle>
                        <path d="M23.63,55.72 C23.3268632,55.7220711 23.0353846,55.6033206 22.82,55.39 L18.36,50.93 C17.9216857,50.48283 17.9216857,49.76717 18.36,49.32 L22.82,44.86 C23.26717,44.4216857 23.98283,44.4216857 24.43,44.86 C24.6455919,45.0723825 24.7669836,45.3623679 24.7669836,45.665 C24.7669836,45.9676321 24.6455919,46.2576175 24.43,46.47 L21.92,49 L28.86,49 C29.4510456,49.0552958 29.9028786,49.5513734 29.9028786,50.145 C29.9028786,50.7386266 29.4510456,51.2347042 28.86,51.29 L21.92,51.29 L24.43,53.8 C24.7509661,54.1257923 24.8461648,54.6118634 24.6718135,55.0346653 C24.4974621,55.4574673 24.0873143,55.735148 23.63,55.74 L23.63,55.72 Z" id="Path" fill="#D1D5DB"></path>
                        <path d="M53.4,55.72 C53.7027159,55.7199034 53.9934016,55.6014758 54.21,55.39 L58.67,50.93 C59.1083143,50.48283 59.1083143,49.76717 58.67,49.32 L54.21,44.86 C53.9934016,44.6485242 53.7027159,44.5300966 53.4,44.53 C52.9426857,44.534852 52.5325379,44.8125327 52.3581865,45.2353347 C52.1838352,45.6581366 52.2790339,46.1442077 52.6,46.47 L55.11,49 L48.17,49 C47.5789544,49.0552958 47.1271214,49.5513734 47.1271214,50.145 C47.1271214,50.7386266 47.5789544,51.2347042 48.17,51.29 L55.11,51.29 L52.6,53.78 C52.2790339,54.1057923 52.1838352,54.5918634 52.3581865,55.0146653 C52.5325379,55.4374673 52.9426857,55.715148 53.4,55.72 Z" id="Path" fill="#D1D5DB"></path>
                        <path d="M86,48 L85.92,48 C85.669863,47.8754892 85.3712489,47.9003509 85.145146,48.0645122 C84.919043,48.2286735 84.8029418,48.5049143 84.8438826,48.7813114 C84.8848233,49.0577084 85.0760176,49.2884316 85.34,49.38 L87.18,50.16 C87.3665513,50.2422952 87.5785681,50.2450901 87.7672239,50.1677412 C87.9558797,50.0903923 88.1049122,49.9395672 88.18,49.75 L88.95,47.91 C89.0745108,47.659863 89.0496491,47.3612489 88.8854878,47.135146 C88.7213265,46.909043 88.4450857,46.7929418 88.1686886,46.8338826 C87.8922916,46.8748233 87.6615684,47.0660176 87.57,47.33 L87.46,47.59 C86.8431759,46.2375199 85.7401167,45.1665887 84.37,44.59 C82.1331483,43.6461853 79.5479717,44.1433991 77.8208089,45.8496232 C76.0936461,47.5558472 75.5649388,50.1347672 76.4814011,52.3829639 C77.3978635,54.6311606 79.5788514,56.1054914 82.0066355,56.1179791 C84.4344197,56.1304668 86.6304588,54.67865 87.57,52.44 C87.6945108,52.189863 87.6696491,51.8912489 87.5054878,51.665146 C87.3413265,51.439043 87.0650857,51.3229418 86.7886886,51.3638826 C86.5122916,51.4048233 86.2815684,51.5960176 86.19,51.86 C85.3812511,53.795966 83.3395942,54.9137387 81.2729052,54.5520266 C79.2062162,54.1903145 77.6655583,52.4455646 77.5624087,50.349998 C77.4592591,48.2544315 78.8211215,46.3668114 80.8422971,45.8038831 C82.8634727,45.2409549 85.005034,46.1528179 86,48 Z" id="Path" fill="#D1D5DB"></path>
                        <rect id="Rectangle" fill="#E7EBF1" x="107" y="38.75" width="352" height="22" rx="11"></rect>
                        <g id="Extention" transform="translate(276.000000, 66.000000)">
                            <g id="Rectangle">
                                <use fill="black" fill-opacity="1" filter="url(#filter-4)" xlink:href="#path-3"></use>
                                <use fill="#FFFFFF" fill-rule="evenodd" xlink:href="#path-3"></use>
                            </g>
                            <path d="M8,0 L208,0 C212.418278,0 216,3.581722 216,8 L216,47 L0,47 L0,8 C0,3.581722 3.581722,0 8,0 Z" id="Path" fill="#6A84ED"></path>
                            <rect id="Rectangle" fill="#FFFFFF" opacity="0.6" x="10" y="11" width="28" height="25" rx="4"></rect>
                            <path d="M198.1,25.1 L198.05,25.1 C197.979577,25.0398824 197.943429,24.9488373 197.953434,24.8567863 C197.96344,24.7647353 198.018305,24.6835831 198.1,24.64 C199.146136,24.0306652 199.507289,22.6930595 198.91,21.64 L198.23,20.46 C197.617274,19.4174926 196.280459,19.0610087 195.23,19.66 C195.142198,19.7107419 195.033823,19.7100434 194.946682,19.658174 C194.859542,19.6063047 194.807258,19.5113725 194.81,19.41 C194.81,18.1894507 193.820549,17.2 192.6,17.2 L191.24,17.2 C190.02707,17.1832254 189.027328,18.147262 189,19.36 C189.002742,19.4613725 188.950458,19.5563047 188.863318,19.608174 C188.776177,19.6600434 188.667802,19.6607419 188.58,19.61 C188.072171,19.3219661 187.470678,19.2475985 186.90799,19.4032757 C186.345301,19.5589528 185.867567,19.9319066 185.58,20.44 L184.9,21.62 C184.302711,22.6730595 184.663864,24.0106652 185.71,24.62 L185.76,24.62 C185.830423,24.6801176 185.866571,24.7711627 185.856566,24.8632137 C185.84656,24.9552647 185.791695,25.0364169 185.71,25.08 C184.659182,25.6857406 184.296856,27.0276895 184.9,28.08 L185.58,29.26 C186.189335,30.3061357 187.52694,30.6672892 188.58,30.07 C188.667802,30.0192581 188.776177,30.0199566 188.863318,30.071826 C188.950458,30.1236953 189.002742,30.2186275 189,30.32 C189,31.5405493 189.989451,32.53 191.21,32.53 L192.57,32.53 C193.157865,32.530006 193.721508,32.2957952 194.136252,31.8791745 C194.550996,31.4625537 194.78266,30.8978592 194.78,30.31 C194.780882,30.2104103 194.834599,30.118785 194.92107,30.0693727 C195.007542,30.0199604 195.113752,30.0201993 195.2,30.07 L195.26,30.07 C195.768438,30.359966 196.371792,30.4343382 196.935426,30.2765208 C197.49906,30.1187033 197.976065,29.7418304 198.26,29.23 L198.94,28.05 C199.504641,27.0013976 199.132329,25.6938721 198.1,25.1 Z M191.9,27.33 C190.530334,27.33 189.42,26.2196662 189.42,24.85 C189.42,23.4803338 190.530334,22.37 191.9,22.37 C193.269666,22.37 194.38,23.4803338 194.38,24.85 C194.382672,25.5085523 194.122245,26.1409035 193.656574,26.6065741 C193.190903,27.0722447 192.558552,27.3326716 191.9,27.33 Z" id="Shape" fill="#FFFFFF" fill-rule="nonzero" opacity="0.6"></path>
                            <rect id="Rectangle" fill="#F4F6F9" x="0" y="115.5" width="216" height="2"></rect>
                            <rect id="Rectangle" fill="#F4F6F9" x="0" y="185" width="216" height="2"></rect>
                            <g id="Chat-screen-conversation-gui" transform="translate(16.000000, 18.000000)" fill="#6A84ED">
                                <path d="M12.08,10.07 L0,10.07 L3.67,5.36 C3.76686373,5.24850499 3.90730532,5.1844772 4.055,5.1844772 C4.20269468,5.1844772 4.34313627,5.24850499 4.44,5.36 L6.36,7.27 C6.42257224,7.33934328 6.51159884,7.37892309 6.605,7.37892309 C6.69840116,7.37892309 6.78742776,7.33934328 6.85,7.27 L9.65,4 C9.74871014,3.87742638 9.89762152,3.80615181 10.055,3.80615181 C10.2123785,3.80615181 10.3612899,3.87742638 10.46,4 L15.25,10.12 L12.08,10.07 Z" id="Path"></path>
                                <circle id="Oval" cx="4.6" cy="1.15" r="1.15"></circle>
                            </g>
                            <rect id="Rectangle" fill="#CCD5E2" x="50" y="17" width="68" height="4" rx="2"></rect>
                            <rect id="Rectangle" fill="#D6DDE7" opacity="0.6" x="50.5" y="29" width="45" height="4" rx="2"></rect>
                            <rect id="Rectangle" fill="#D6DDE7" opacity="0.6" x="16.8" y="96.87" width="37.37" height="4.33" rx="2.16"></rect>
                            <circle id="Oval" fill="#79E2AA" cx="35.48" cy="74" r="13"></circle>
                            <rect id="Rectangle" fill="#D6DDE7" opacity="0.6" x="89.8" y="96.87" width="37.37" height="4.33" rx="2.16"></rect>
                            <circle id="Oval" fill="#E8B78C" cx="108.48" cy="74" r="13"></circle>
                            <rect id="Rectangle" fill="#D6DDE7" opacity="0.6" x="160.8" y="96.87" width="37.37" height="4.33" rx="2.16"></rect>
                            <circle id="Oval" fill="#FD7E98" cx="179.48" cy="74" r="13"></circle>
                            <rect id="Rectangle" fill="#D6DDE7" opacity="0.6" x="16.8" y="164.87" width="37.37" height="4.33" rx="2.16"></rect>
                            <circle id="Oval" fill="#AA8DF7" cx="35.48" cy="142" r="13"></circle>
                            <rect id="Rectangle" fill="#D6DDE7" opacity="0.6" x="89.8" y="164.87" width="37.37" height="4.33" rx="2.16"></rect>
                            <circle id="Oval" fill="#FE97DA" cx="108.48" cy="142" r="13"></circle>
                            <rect id="Rectangle" fill="#D6DDE7" opacity="0.6" x="160.8" y="164.87" width="37.37" height="4.33" rx="2.16"></rect>
                            <circle id="Oval" fill="#63C0F9" cx="179.48" cy="142" r="13"></circle>
                            <rect id="Rectangle" fill="#D6DDE7" opacity="0.6" x="16.8" y="233.87" width="37.37" height="4.33" rx="2.16"></rect>
                            <circle id="Oval" fill="#FE9C73" cx="35.48" cy="211" r="13"></circle>
                            <rect id="Rectangle" fill="#D6DDE7" opacity="0.6" x="89.8" y="233.87" width="37.37" height="4.33" rx="2.16"></rect>
                            <circle id="Oval" fill="#81EBF1" cx="108.48" cy="211" r="13"></circle>
                            <rect id="Rectangle" fill="#D6DDE7" opacity="0.6" x="160.8" y="233.87" width="37.37" height="4.33" rx="2.16"></rect>
                            <circle id="Oval" fill="#FCD56B" cx="179.48" cy="211" r="13"></circle>
                        </g>
                        <g id="teamworklPillBlue" transform="translate(473.000000, 40.000000)">
                            <g id="PillShortform">
                                <rect id="guide" fill="#1D1C39" x="0.32" y="0.25" width="19" height="19" rx="4"></rect>
                                <path d="M9.69,8.59 C9.90955841,8.61819624 10.1300512,8.54524429 10.2894664,8.39166136 C10.4488816,8.23807842 10.5299972,8.02045643 10.51,7.8 C10.5219715,7.58526168 10.4411792,7.37571718 10.288147,7.22459794 C10.1351149,7.07347869 9.92457075,6.99532844 9.71,7.01 L8.51,7.01 L8.51,6.13 C8.54642515,5.78395978 8.3823373,5.44744056 8.08726686,5.26303864 C7.79219643,5.07863673 7.41780357,5.07863673 7.12273314,5.26303864 C6.8276627,5.44744056 6.66357485,5.78395978 6.7,6.13 L6.7,12.22 C6.7,13.69 7.28,14.34 8.59,14.34 C9.08310989,14.3667049 9.57325495,14.2485139 10,14 C10.2062543,13.866849 10.327681,13.6353794 10.32,13.39 C10.32,13 10.05,12.56 9.68,12.56 C9.62709486,12.5504424 9.57290514,12.5504424 9.52,12.56 L9.45,12.56 C9.31671623,12.6284144 9.16976362,12.6660069 9.02,12.67 C8.78,12.67 8.51,12.58 8.51,11.94 L8.51,8.59 L9.69,8.59 Z" id="Path" fill="#FFFFFF"></path>
                                <path d="M13.59,11.15 C12.9900122,11.1024553 12.4141008,11.3956368 12.0995334,11.9087578 C11.7849659,12.4218788 11.7849659,13.0681212 12.0995334,13.5812422 C12.4141008,14.0943632 12.9900122,14.3875447 13.59,14.34 C14.4220316,14.2740675 15.0636078,13.5796399 15.0636078,12.745 C15.0636078,11.9103601 14.4220316,11.2159325 13.59,11.15 Z" id="Path" fill="#FF22B1"></path>
                            </g>
                        </g>
                        <rect id="Rectangle" fill="#F4F6F9" x="346" y="113" width="2" height="208"></rect>
                        <rect id="Rectangle" fill="#F4F6F9" x="418" y="113" width="2" height="208"></rect>
                    </g>
                </g>
            </g>
        </g>
    </g>
</svg>