<?xml version="1.0" encoding="UTF-8"?>
<svg width="22px" height="22px" viewBox="0 0 22 22" version="1.1" xmlns="http://www.w3.org/2000/svg" xmlns:xlink="http://www.w3.org/1999/xlink">
    <!-- Generator: Sketch 55.1 (78136) - https://sketchapp.com -->
    <title>Oval</title>
    <desc>Created with Sketch.</desc>
    <g id="Page-1" stroke="none" stroke-width="1" fill="none" fill-rule="evenodd">
        <g id="Oval" fill="#000000" fill-rule="nonzero">
            <path d="M4.16562667,19.8140533 C5.27016,19.8140533 6.16562667,18.9188533 6.16562667,17.8140533 C6.16562667,16.70952 5.27016,15.8140533 4.16562667,15.8140533 C3.06082667,15.8140533 2.16562667,16.70952 2.16562667,17.8140533 C2.16562667,18.9188533 3.06082667,19.8140533 4.16562667,19.8140533" id="Path"></path>
            <path d="M15.7809867,11 C15.7809867,10.4109333 15.3033867,9.9333333 14.71432,9.9333333 C14.1249867,9.9333333 13.6476533,10.4109333 13.6476533,11 C13.6476533,11.5890667 14.1249867,12.0666667 14.71432,12.0666667 C15.3033867,12.0666667 15.7809867,11.5890667 15.7809867,11" id="Fill-5"></path>
            <path d="M12.0471467,11 C12.0471467,10.4109333 11.5695467,9.9333333 10.98048,9.9333333 C10.3914133,9.9333333 9.9138133,10.4109333 9.9138133,11 C9.9138133,11.5890667 10.3914133,12.0666667 10.98048,12.0666667 C11.5695467,12.0666667 12.0471467,11.5890667 12.0471467,11" id="Fill-7"></path>
            <path d="M8.31328,11 C8.31328,10.4109333 7.83568,9.9333333 7.2466133,9.9333333 C6.6575467,9.9333333 6.1799467,10.4109333 6.1799467,11 C6.1799467,11.5890667 6.6575467,12.0666667 7.2466133,12.0666667 C7.83568,12.0666667 8.31328,11.5890667 8.31328,11" id="Fill-9"></path>
            <path d="M10.98048,0.33333333 C5.09888,0.33333333 0.31381333,5.1184 0.31381333,11 C0.31381333,11.9058667 0.42794667,12.8061333 0.65248,13.6752 C0.79994667,14.2461333 1.38208,14.5864 1.95221333,14.4410667 C2.52234667,14.2936 2.86528,13.7117333 2.71808,13.1413333 C2.53834667,12.4466667 2.44714667,11.7261333 2.44714667,11 C2.44714667,6.2946667 6.2751467,2.46666667 10.98048,2.46666667 C15.6858133,2.46666667 19.5138133,6.2946667 19.5138133,11 C19.5138133,15.7053333 15.6858133,19.5333333 10.98048,19.5333333 C10.2234133,19.5333333 9.47328,19.4344 8.7506133,19.2392 C8.1807467,19.0845333 7.59648,19.4224 7.4426133,19.9909333 C7.2890133,20.5597333 7.6255467,21.1453333 8.1943467,21.2986667 C9.09808,21.5429333 10.03568,21.6666667 10.98048,21.6666667 C16.86208,21.6666667 21.6471467,16.8816 21.6471467,11 C21.6471467,5.1184 16.86208,0.33333333 10.98048,0.33333333" id="Fill-11"></path>
            <path d="M4.16536,15.8140533 C3.06269333,15.8140533 2.16562667,16.71112 2.16562667,17.8140533 C2.16562667,18.9169867 3.06269333,19.81432 4.16536,19.81432 C5.2682933,19.81432 6.16562667,18.9169867 6.16562667,17.8140533 C6.16562667,16.71112 5.2682933,15.8140533 4.16536,15.8140533" id="Fill-13"></path>
        </g>
    </g>
</svg>