<?xml version="1.0" encoding="UTF-8"?>
<svg width="26px" height="25px" viewBox="0 0 26 25" version="1.1" xmlns="http://www.w3.org/2000/svg" xmlns:xlink="http://www.w3.org/1999/xlink">
    <!-- Generator: Sketch 55.1 (78136) - https://sketchapp.com -->
    <title>Oval</title>
    <desc>Created with Sketch.</desc>
    <g id="Page-1" stroke="none" stroke-width="1" fill="none" fill-rule="evenodd">
        <g id="Oval" fill="#1D1C39" fill-rule="nonzero">
            <path d="M22.3220653,9 C20.4617087,9 19,10.4617087 19,12.3220653 C19,14.1824219 20.4617087,15.6441306 22.3220653,15.6441306 C24.1824219,15.6441306 25.6441306,14.1824219 25.6441306,12.3220653 C25.6441306,10.4617087 24.0495393,9 22.3220653,9 Z" id="Path"></path>
            <path d="M17.2048613,15.4686299 L10.4760922,22.0919325 C9.8413026,22.7167724 9.8413026,23.8414841 10.4760922,24.466324 C10.8569659,24.8412279 11.2378396,24.9661959 11.6187133,24.9661959 C11.9995871,24.9661959 12.5074188,24.8412279 12.7613346,24.466324 L19.4901038,17.8430214 C20.1248933,17.2181815 20.1248933,16.0934697 19.4901038,15.4686299 C18.9822721,14.84379 17.9666089,14.84379 17.2048613,15.4686299 Z" id="Path"></path>
            <path d="M2.80904546,7.64413061 C3.20374629,7.64413061 3.73001406,7.5132118 3.99314795,7.12045532 L7.15075454,3.97840338 C7.80858932,3.32380923 7.80858932,2.14553976 7.15075454,1.49094561 C6.49291986,0.83635146 5.30881737,0.83635146 4.65098266,1.49094561 L1.49337604,4.63299753 C0.83554132,5.28759167 0.83554132,6.46586114 1.49337604,7.12045532 C1.88807686,7.5132118 2.41434463,7.64413061 2.80904546,7.64413061 Z" id="Path"></path>
            <path d="M16.7186502,0.47720275 C16.0841663,-0.15906758 14.9420953,-0.15906758 14.3076114,0.47720275 L0.47586291,14.3478961 C-0.158620969,14.9841664 -0.158620969,16.129453 0.47586291,16.7657233 C0.85655323,17.1474855 1.23724356,17.2747396 1.61793388,17.2747396 C1.99862421,17.2747396 2.50621131,17.1474855 2.76000486,16.7657233 L16.5917534,2.89503002 C17.4800308,2.25875969 17.4800308,1.11347309 16.7186502,0.47720275 Z" id="Path"></path>
            <path d="M22.4779846,3.46789652 C21.8526881,2.84403449 20.7271545,2.84403449 20.101858,3.46789652 L3.46897234,20.0626265 C2.84367589,20.6864885 2.84367589,21.8094402 3.46897234,22.4333022 C3.84415022,22.8076194 4.21932809,22.9323918 4.59450596,22.9323918 C4.96968383,22.9323918 5.469921,22.8076194 5.72003958,22.4333022 L22.3529253,5.83857223 C23.1032811,5.2147102 23.1032811,4.21653096 22.4779846,3.46789652 Z" id="Path"></path>
        </g>
    </g>
</svg>