<?xml version="1.0" encoding="UTF-8"?>
<svg width="662px" height="466px" viewBox="0 0 662 466" version="1.1" xmlns="http://www.w3.org/2000/svg" xmlns:xlink="http://www.w3.org/1999/xlink">
    <!-- Generator: Sketch 53 (72520) - https://sketchapp.com -->
    <title>projects-gmail-addon-gui</title>
    <desc>Created with Sketch.</desc>
    <defs>
        <path d="M3.66935484,16.4830943 C3.66935484,17.4944237 2.84796976,18.3145492 1.83467742,18.3145492 C0.821385081,18.3145492 0,17.4944237 0,16.4830943 C0,15.4717649 0.821385081,14.6516393 1.83467742,14.6516393 C2.84796976,14.6516393 3.66935484,15.4717649 3.66935484,16.4830943 Z M3.66935484,41.7571721 C3.66935484,42.7685015 2.84796976,43.588627 1.83467742,43.588627 C0.821385081,43.588627 0,42.7685015 0,41.7571721 C0,40.7458427 0.821385081,39.9257172 1.83467742,39.9257172 C2.84796976,39.9257172 3.66935484,40.7458427 3.66935484,41.7571721 Z M3.66935484,67.397541 C3.66935484,68.4088704 2.84796976,69.2289959 1.83467742,69.2289959 C0.821385081,69.2289959 0,68.4088704 0,67.397541 C0,66.3862116 0.821385081,65.5660861 1.83467742,65.5660861 C2.84796976,65.5660861 3.66935484,66.3862116 3.66935484,67.397541 Z M3.66935484,92.6716189 C3.66935484,93.6829483 2.84796976,94.5030738 1.83467742,94.5030738 C0.821385081,94.5030738 0,93.6829483 0,92.6716189 C0,91.6602894 0.821385081,90.8401639 1.83467742,90.8401639 C2.84796976,90.8401639 3.66935484,91.6602894 3.66935484,92.6716189 Z M3.66935484,118.311988 C3.66935484,119.323317 2.84796976,120.143443 1.83467742,120.143443 C0.821385081,120.143443 0,119.323317 0,118.311988 C0,117.300658 0.821385081,116.480533 1.83467742,116.480533 C2.84796976,116.480533 3.66935484,117.300658 3.66935484,118.311988 Z M3.66935484,143.586066 C3.66935484,144.597395 2.84796976,145.41752 1.83467742,145.41752 C0.821385081,145.41752 0,144.597395 0,143.586066 C0,142.574736 0.821385081,141.754611 1.83467742,141.754611 C2.84796976,141.754611 3.66935484,142.574736 3.66935484,143.586066 Z M29.3548387,1.83145492 C29.3548387,2.84278432 28.5334536,3.66290984 27.5201613,3.66290984 C26.506869,3.66290984 25.6854839,2.84278432 25.6854839,1.83145492 C25.6854839,0.820125512 26.506869,0 27.5201613,0 C28.5334536,0 29.3548387,0.820125512 29.3548387,1.83145492 Z M29.3548387,27.4718238 C29.3548387,28.4831532 28.5334536,29.3032787 27.5201613,29.3032787 C26.506869,29.3032787 25.6854839,28.4831532 25.6854839,27.4718238 C25.6854839,26.4604944 26.506869,25.6403689 27.5201613,25.6403689 C28.5334536,25.6403689 29.3548387,26.4604944 29.3548387,27.4718238 Z M29.3548387,52.7459016 C29.3548387,53.757231 28.5334536,54.5773566 27.5201613,54.5773566 C26.506869,54.5773566 25.6854839,53.757231 25.6854839,52.7459016 C25.6854839,51.7345722 26.506869,50.9144467 27.5201613,50.9144467 C28.5334536,50.9144467 29.3548387,51.7345722 29.3548387,52.7459016 Z M29.3548387,78.3862705 C29.3548387,79.3975999 28.5334536,80.2177254 27.5201613,80.2177254 C26.506869,80.2177254 25.6854839,79.3975999 25.6854839,78.3862705 C25.6854839,77.3749411 26.506869,76.5548156 27.5201613,76.5548156 C28.5334536,76.5548156 29.3548387,77.3749411 29.3548387,78.3862705 Z M29.3548387,103.660348 C29.3548387,104.671678 28.5334536,105.491803 27.5201613,105.491803 C26.506869,105.491803 25.6854839,104.671678 25.6854839,103.660348 C25.6854839,102.649019 26.506869,101.828893 27.5201613,101.828893 C28.5334536,101.828893 29.3548387,102.649019 29.3548387,103.660348 Z M29.3548387,128.934426 C29.3548387,129.945756 28.5334536,130.765881 27.5201613,130.765881 C26.506869,130.765881 25.6854839,129.945756 25.6854839,128.934426 C25.6854839,127.923097 26.506869,127.102971 27.5201613,127.102971 C28.5334536,127.102971 29.3548387,127.923097 29.3548387,128.934426 Z M29.3548387,154.574795 C29.3548387,155.586124 28.5334536,156.40625 27.5201613,156.40625 C26.506869,156.40625 25.6854839,155.586124 25.6854839,154.574795 C25.6854839,153.563466 26.506869,152.74334 27.5201613,152.74334 C28.5334536,152.74334 29.3548387,153.563466 29.3548387,154.574795 Z M54.6733871,16.4830943 C54.6733871,17.4944237 53.852002,18.3145492 52.8387097,18.3145492 C51.8254173,18.3145492 51.0040323,17.4944237 51.0040323,16.4830943 C51.0040323,15.4717649 51.8254173,14.6516393 52.8387097,14.6516393 C53.852002,14.6516393 54.6733871,15.4717649 54.6733871,16.4830943 Z M54.6733871,41.7571721 C54.6733871,42.7685015 53.852002,43.588627 52.8387097,43.588627 C51.8254173,43.588627 51.0040323,42.7685015 51.0040323,41.7571721 C51.0040323,40.7458427 51.8254173,39.9257172 52.8387097,39.9257172 C53.852002,39.9257172 54.6733871,40.7458427 54.6733871,41.7571721 Z M54.6733871,67.397541 C54.6733871,68.4088704 53.852002,69.2289959 52.8387097,69.2289959 C51.8254173,69.2289959 51.0040323,68.4088704 51.0040323,67.397541 C51.0040323,66.3862116 51.8254173,65.5660861 52.8387097,65.5660861 C53.852002,65.5660861 54.6733871,66.3862116 54.6733871,67.397541 Z M54.6733871,92.6716189 C54.6733871,93.6829483 53.852002,94.5030738 52.8387097,94.5030738 C51.8254173,94.5030738 51.0040323,93.6829483 51.0040323,92.6716189 C51.0040323,91.6602894 51.8254173,90.8401639 52.8387097,90.8401639 C53.852002,90.8401639 54.6733871,91.6602894 54.6733871,92.6716189 Z M54.6733871,118.311988 C54.6733871,119.323317 53.852002,120.143443 52.8387097,120.143443 C51.8254173,120.143443 51.0040323,119.323317 51.0040323,118.311988 C51.0040323,117.300658 51.8254173,116.480533 52.8387097,116.480533 C53.852002,116.480533 54.6733871,117.300658 54.6733871,118.311988 Z M54.6733871,143.586066 C54.6733871,144.597395 53.852002,145.41752 52.8387097,145.41752 C51.8254173,145.41752 51.0040323,144.597395 51.0040323,143.586066 C51.0040323,142.574736 51.8254173,141.754611 52.8387097,141.754611 C53.852002,141.754611 54.6733871,142.574736 54.6733871,143.586066 Z M79.9919355,1.83145492 C79.9919355,2.84278432 79.1705504,3.66290984 78.1572581,3.66290984 C77.1439657,3.66290984 76.3225806,2.84278432 76.3225806,1.83145492 C76.3225806,0.820125512 77.1439657,0 78.1572581,0 C79.1705504,0 79.9919355,0.820125512 79.9919355,1.83145492 Z M79.9919355,27.4718238 C79.9919355,28.4831532 79.1705504,29.3032787 78.1572581,29.3032787 C77.1439657,29.3032787 76.3225806,28.4831532 76.3225806,27.4718238 C76.3225806,26.4604944 77.1439657,25.6403689 78.1572581,25.6403689 C79.1705504,25.6403689 79.9919355,26.4604944 79.9919355,27.4718238 Z M79.9919355,52.7459016 C79.9919355,53.757231 79.1705504,54.5773566 78.1572581,54.5773566 C77.1439657,54.5773566 76.3225806,53.757231 76.3225806,52.7459016 C76.3225806,51.7345722 77.1439657,50.9144467 78.1572581,50.9144467 C79.1705504,50.9144467 79.9919355,51.7345722 79.9919355,52.7459016 Z M79.9919355,78.3862705 C79.9919355,79.3975999 79.1705504,80.2177254 78.1572581,80.2177254 C77.1439657,80.2177254 76.3225806,79.3975999 76.3225806,78.3862705 C76.3225806,77.3749411 77.1439657,76.5548156 78.1572581,76.5548156 C79.1705504,76.5548156 79.9919355,77.3749411 79.9919355,78.3862705 Z M79.9919355,103.660348 C79.9919355,104.671678 79.1705504,105.491803 78.1572581,105.491803 C77.1439657,105.491803 76.3225806,104.671678 76.3225806,103.660348 C76.3225806,102.649019 77.1439657,101.828893 78.1572581,101.828893 C79.1705504,101.828893 79.9919355,102.649019 79.9919355,103.660348 Z M79.9919355,128.934426 C79.9919355,129.945756 79.1705504,130.765881 78.1572581,130.765881 C77.1439657,130.765881 76.3225806,129.945756 76.3225806,128.934426 C76.3225806,127.923097 77.1439657,127.102971 78.1572581,127.102971 C79.1705504,127.102971 79.9919355,127.923097 79.9919355,128.934426 Z M79.9919355,154.574795 C79.9919355,155.586124 79.1705504,156.40625 78.1572581,156.40625 C77.1439657,156.40625 76.3225806,155.586124 76.3225806,154.574795 C76.3225806,153.563466 77.1439657,152.74334 78.1572581,152.74334 C79.1705504,152.74334 79.9919355,153.563466 79.9919355,154.574795 Z M105.677419,16.4830943 C105.677419,17.4944237 104.856034,18.3145492 103.842742,18.3145492 C102.82945,18.3145492 102.008065,17.4944237 102.008065,16.4830943 C102.008065,15.4717649 102.82945,14.6516393 103.842742,14.6516393 C104.856034,14.6516393 105.677419,15.4717649 105.677419,16.4830943 Z M105.677419,41.7571721 C105.677419,42.7685015 104.856034,43.588627 103.842742,43.588627 C102.82945,43.588627 102.008065,42.7685015 102.008065,41.7571721 C102.008065,40.7458427 102.82945,39.9257172 103.842742,39.9257172 C104.856034,39.9257172 105.677419,40.7458427 105.677419,41.7571721 Z M105.677419,67.397541 C105.677419,68.4088704 104.856034,69.2289959 103.842742,69.2289959 C102.82945,69.2289959 102.008065,68.4088704 102.008065,67.397541 C102.008065,66.3862116 102.82945,65.5660861 103.842742,65.5660861 C104.856034,65.5660861 105.677419,66.3862116 105.677419,67.397541 Z M105.677419,92.6716189 C105.677419,93.6829483 104.856034,94.5030738 103.842742,94.5030738 C102.82945,94.5030738 102.008065,93.6829483 102.008065,92.6716189 C102.008065,91.6602894 102.82945,90.8401639 103.842742,90.8401639 C104.856034,90.8401639 105.677419,91.6602894 105.677419,92.6716189 Z M105.677419,118.311988 C105.677419,119.323317 104.856034,120.143443 103.842742,120.143443 C102.82945,120.143443 102.008065,119.323317 102.008065,118.311988 C102.008065,117.300658 102.82945,116.480533 103.842742,116.480533 C104.856034,116.480533 105.677419,117.300658 105.677419,118.311988 Z M105.677419,143.586066 C105.677419,144.597395 104.856034,145.41752 103.842742,145.41752 C102.82945,145.41752 102.008065,144.597395 102.008065,143.586066 C102.008065,142.574736 102.82945,141.754611 103.842742,141.754611 C104.856034,141.754611 105.677419,142.574736 105.677419,143.586066 Z M130.995968,1.83145492 C130.995968,2.84278432 130.174583,3.66290984 129.16129,3.66290984 C128.147998,3.66290984 127.326613,2.84278432 127.326613,1.83145492 C127.326613,0.820125512 128.147998,0 129.16129,0 C130.174583,0 130.995968,0.820125512 130.995968,1.83145492 Z M130.995968,27.4718238 C130.995968,28.4831532 130.174583,29.3032787 129.16129,29.3032787 C128.147998,29.3032787 127.326613,28.4831532 127.326613,27.4718238 C127.326613,26.4604944 128.147998,25.6403689 129.16129,25.6403689 C130.174583,25.6403689 130.995968,26.4604944 130.995968,27.4718238 Z M130.995968,52.7459016 C130.995968,53.757231 130.174583,54.5773566 129.16129,54.5773566 C128.147998,54.5773566 127.326613,53.757231 127.326613,52.7459016 C127.326613,51.7345722 128.147998,50.9144467 129.16129,50.9144467 C130.174583,50.9144467 130.995968,51.7345722 130.995968,52.7459016 Z M130.995968,78.3862705 C130.995968,79.3975999 130.174583,80.2177254 129.16129,80.2177254 C128.147998,80.2177254 127.326613,79.3975999 127.326613,78.3862705 C127.326613,77.3749411 128.147998,76.5548156 129.16129,76.5548156 C130.174583,76.5548156 130.995968,77.3749411 130.995968,78.3862705 Z M130.995968,103.660348 C130.995968,104.671678 130.174583,105.491803 129.16129,105.491803 C128.147998,105.491803 127.326613,104.671678 127.326613,103.660348 C127.326613,102.649019 128.147998,101.828893 129.16129,101.828893 C130.174583,101.828893 130.995968,102.649019 130.995968,103.660348 Z M130.995968,128.934426 C130.995968,129.945756 130.174583,130.765881 129.16129,130.765881 C128.147998,130.765881 127.326613,129.945756 127.326613,128.934426 C127.326613,127.923097 128.147998,127.102971 129.16129,127.102971 C130.174583,127.102971 130.995968,127.923097 130.995968,128.934426 Z M130.995968,154.574795 C130.995968,155.586124 130.174583,156.40625 129.16129,156.40625 C128.147998,156.40625 127.326613,155.586124 127.326613,154.574795 C127.326613,153.563466 128.147998,152.74334 129.16129,152.74334 C130.174583,152.74334 130.995968,153.563466 130.995968,154.574795 Z M156.314516,16.4830943 C156.314516,17.4944237 155.493131,18.3145492 154.479839,18.3145492 C153.466546,18.3145492 152.645161,17.4944237 152.645161,16.4830943 C152.645161,15.4717649 153.466546,14.6516393 154.479839,14.6516393 C155.493131,14.6516393 156.314516,15.4717649 156.314516,16.4830943 Z M156.314516,41.7571721 C156.314516,42.7685015 155.493131,43.588627 154.479839,43.588627 C153.466546,43.588627 152.645161,42.7685015 152.645161,41.7571721 C152.645161,40.7458427 153.466546,39.9257172 154.479839,39.9257172 C155.493131,39.9257172 156.314516,40.7458427 156.314516,41.7571721 Z M156.314516,67.397541 C156.314516,68.4088704 155.493131,69.2289959 154.479839,69.2289959 C153.466546,69.2289959 152.645161,68.4088704 152.645161,67.397541 C152.645161,66.3862116 153.466546,65.5660861 154.479839,65.5660861 C155.493131,65.5660861 156.314516,66.3862116 156.314516,67.397541 Z M156.314516,92.6716189 C156.314516,93.6829483 155.493131,94.5030738 154.479839,94.5030738 C153.466546,94.5030738 152.645161,93.6829483 152.645161,92.6716189 C152.645161,91.6602894 153.466546,90.8401639 154.479839,90.8401639 C155.493131,90.8401639 156.314516,91.6602894 156.314516,92.6716189 Z M156.314516,118.311988 C156.314516,119.323317 155.493131,120.143443 154.479839,120.143443 C153.466546,120.143443 152.645161,119.323317 152.645161,118.311988 C152.645161,117.300658 153.466546,116.480533 154.479839,116.480533 C155.493131,116.480533 156.314516,117.300658 156.314516,118.311988 Z M156.314516,143.586066 C156.314516,144.597395 155.493131,145.41752 154.479839,145.41752 C153.466546,145.41752 152.645161,144.597395 152.645161,143.586066 C152.645161,142.574736 153.466546,141.754611 154.479839,141.754611 C155.493131,141.754611 156.314516,142.574736 156.314516,143.586066 Z M182,1.83145492 C182,2.84278432 181.178615,3.66290984 180.165323,3.66290984 C179.15203,3.66290984 178.330645,2.84278432 178.330645,1.83145492 C178.330645,0.820125512 179.15203,0 180.165323,0 C181.178615,0 182,0.820125512 182,1.83145492 Z M182,27.4718238 C182,28.4831532 181.178615,29.3032787 180.165323,29.3032787 C179.15203,29.3032787 178.330645,28.4831532 178.330645,27.4718238 C178.330645,26.4604944 179.15203,25.6403689 180.165323,25.6403689 C181.178615,25.6403689 182,26.4604944 182,27.4718238 Z M182,52.7459016 C182,53.757231 181.178615,54.5773566 180.165323,54.5773566 C179.15203,54.5773566 178.330645,53.757231 178.330645,52.7459016 C178.330645,51.7345722 179.15203,50.9144467 180.165323,50.9144467 C181.178615,50.9144467 182,51.7345722 182,52.7459016 Z M182,78.3862705 C182,79.3975999 181.178615,80.2177254 180.165323,80.2177254 C179.15203,80.2177254 178.330645,79.3975999 178.330645,78.3862705 C178.330645,77.3749411 179.15203,76.5548156 180.165323,76.5548156 C181.178615,76.5548156 182,77.3749411 182,78.3862705 Z M182,103.660348 C182,104.671678 181.178615,105.491803 180.165323,105.491803 C179.15203,105.491803 178.330645,104.671678 178.330645,103.660348 C178.330645,102.649019 179.15203,101.828893 180.165323,101.828893 C181.178615,101.828893 182,102.649019 182,103.660348 Z M182,128.934426 C182,129.945756 181.178615,130.765881 180.165323,130.765881 C179.15203,130.765881 178.330645,129.945756 178.330645,128.934426 C178.330645,127.923097 179.15203,127.102971 180.165323,127.102971 C181.178615,127.102971 182,127.923097 182,128.934426 Z M182,154.574795 C182,155.586124 181.178615,156.40625 180.165323,156.40625 C179.15203,156.40625 178.330645,155.586124 178.330645,154.574795 C178.330645,153.563466 179.15203,152.74334 180.165323,152.74334 C181.178615,152.74334 182,153.563466 182,154.574795 Z" id="path-1"></path>
        <path d="M568,385 L0,385 L0,8.61938477 C-5.55111512e-16,4.20110677 3.581722,0.619384766 8,0.619384766 L560,0.619384766 C564.418278,0.619384766 568,4.20110677 568,8.61938477 L568,385 Z" id="path-3"></path>
        <filter x="-2.3%" y="-2.9%" width="104.6%" height="106.8%" filterUnits="objectBoundingBox" id="filter-4">
            <feOffset dx="0" dy="2" in="SourceAlpha" result="shadowOffsetOuter1"></feOffset>
            <feGaussianBlur stdDeviation="4" in="shadowOffsetOuter1" result="shadowBlurOuter1"></feGaussianBlur>
            <feColorMatrix values="0 0 0 0 0.11372549   0 0 0 0 0.109803922   0 0 0 0 0.223529412  0 0 0 0.1 0" type="matrix" in="shadowBlurOuter1"></feColorMatrix>
        </filter>
    </defs>
    <g id="Page-1" stroke="none" stroke-width="1" fill="none" fill-rule="evenodd">
        <g id="GUIs-adaptaion" transform="translate(-731.000000, -24875.000000)">
            <g id="section-copy-13" transform="translate(0.000000, 24564.000000)">
                <g id="GUI" transform="translate(731.000000, 311.000000)">
                    <g id="GUI-details" transform="translate(8.000000, 6.000000)">
                        <path d="M552,388.5 C552,423.569859 523.569859,452 488.5,452 C453.430141,452 425,423.569859 425,388.5 C425,353.430141 453.430141,325 488.5,325 C523.569859,325 552,353.430141 552,388.5" id="Fill-1" fill="#C3CFFA"></path>
                        <polygon id="Fill-1" fill="#BAF8DD" points="34 0 7 27 34 27"></polygon>
                        <g id="06-Simple-Shapes-&amp;-Details/Details/Dots-1" transform="translate(0.000000, 299.000000)">
                            <mask id="mask-2" fill="white">
                                <use xlink:href="#path-1"></use>
                            </mask>
                            <use id="Combined-Shape" fill="#4CA1F8" fill-rule="evenodd" xlink:href="#path-1"></use>
                            <g id="01-Colours/Neutral/Neutral-40" mask="url(#mask-2)" fill="#E7EBF1" fill-rule="nonzero">
                                <polygon id="Rectangle" points="-4.10477752e-14 -1.375244e-14 182 -1.375244e-14 182 156 -4.26325641e-14 156"></polygon>
                            </g>
                        </g>
                        <polygon id="Fill-3" fill="#FFEAB6" points="431.723948 78.67 587.028191 78.685 587.029 14.014 431.724757 14"></polygon>
                        <polygon id="Fill-1" fill="#FEDE88" points="291.000809 14 291 78.67 549.825308 78.686 549.826117 14.015"></polygon>
                    </g>
                    <g id="projects-gmail-addon-gui" transform="translate(47.000000, 40.000000)">
                        <g id="background">
                            <g id="Path">
                                <use fill="black" fill-opacity="1" filter="url(#filter-4)" xlink:href="#path-3"></use>
                                <use fill="#FFFFFF" fill-rule="evenodd" xlink:href="#path-3"></use>
                            </g>
                        </g>
                        <polygon id="Rectangle" fill="#CCD5E2" fill-rule="nonzero" opacity="0.400000006" points="0.0466308594 23.27 398.31 23.27 398.31 67.27 0.0466308594 67.27"></polygon>
                        <rect id="Rectangle" fill="#131439" fill-rule="nonzero" x="397.35" y="23.27" width="170.61" height="44"></rect>
                        <path d="M8,0.5 L560,0.5 C564.418278,0.5 568,4.081722 568,8.5 L568,27.5 L0,27.5 L0,8.5 C-5.55111512e-16,4.081722 3.581722,0.5 8,0.5 Z" id="Path" fill="#484E6A" fill-rule="nonzero"></path>
                        <circle id="Oval" fill="#FFFFFF" fill-rule="nonzero" cx="15.96" cy="13" r="3.5"></circle>
                        <circle id="Oval" fill="#FFFFFF" fill-rule="nonzero" cx="30.96" cy="13" r="3.5"></circle>
                        <circle id="Oval" fill="#FFFFFF" fill-rule="nonzero" cx="45.96" cy="13" r="3.5"></circle>
                        <g id="header" opacity="0.4" transform="translate(0.000000, 27.000000)"></g>
                        <g id="header-2" transform="translate(397.000000, 27.000000)"></g>
                        <rect id="Rectangle" fill="#FFFFFF" fill-rule="nonzero" x="113.96" y="35" width="184.3" height="22.89" rx="11.445"></rect>
                        <path d="M129.19,49.82 C127.214836,49.8239517 125.432899,48.634504 124.67898,46.8088819 C123.925061,44.9832597 124.348491,42.8830712 125.750906,41.4921995 C127.15332,40.1013277 129.256936,39.6952681 131.076265,40.4642488 C132.895594,41.2332296 134.070275,43.0249357 134.05,45 C134.02263,47.666188 131.856323,49.8146655 129.19,49.82 L129.19,49.82 Z M129.19,41.98 C127.533146,41.98 126.19,43.3231458 126.19,44.98 C126.19,46.6368542 127.533146,47.98 129.19,47.98 C130.846854,47.98 132.19,46.6368542 132.19,44.98 C132.179006,43.3309616 130.839075,41.9999634 129.19,42 L129.19,41.98 Z" id="Shape" fill="#CCD5E2" fill-rule="nonzero"></path>
                        <path d="M132.39,52.67 C132.034144,52.6696396 131.708999,52.4683597 131.55,52.15 L130.12,49.3 C129.94149,48.8433024 130.139891,48.3257788 130.57795,48.1054535 C131.016009,47.8851282 131.54978,48.034399 131.81,48.45 L133.24,51.3 C133.443738,51.7709572 133.257946,52.3196919 132.81,52.57 C132.680187,52.6369168 132.53604,52.6712376 132.39,52.67 L132.39,52.67 Z" id="Path" fill="#CCD5E2" fill-rule="nonzero"></path>
                        <rect id="Rectangle" fill="#E7EBF1" fill-rule="nonzero" x="145.69" y="44.69" width="50.65" height="3.78" rx="1.89"></rect>
                        <path d="M47.41,43.12 L82.79,43.12 C83.6536849,43.1173425 84.4829065,43.4585787 85.0945642,44.0683602 C85.706222,44.6781417 86.0500041,45.506311 86.05,46.37 L86.05,46.37 C86.05,47.2346058 85.7065367,48.0637995 85.0951681,48.6751681 C84.4837995,49.2865367 83.6546058,49.63 82.79,49.63 L47.41,49.63 C46.546311,49.6300041 45.7181417,49.286222 45.1083602,48.6745642 C44.4985787,48.0629065 44.1573425,47.2336849 44.16,46.37 L44.16,46.37 C44.157333,45.5072316 44.4988862,44.6790309 45.1089585,44.0689585 C45.7190309,43.4588862 46.5472316,43.117333 47.41,43.12 Z" id="Rectangle-10" fill="#FF5854" fill-rule="nonzero"></path>
                        <rect id="Rectangle" fill="#CCD5E2" fill-rule="nonzero" x="12.46" y="39.07" width="17.03" height="3.52" rx="1.76"></rect>
                        <rect id="Rectangle" fill="#CCD5E2" fill-rule="nonzero" x="12.46" y="45.24" width="17.03" height="3.52" rx="1.76"></rect>
                        <rect id="Rectangle" fill="#CCD5E2" fill-rule="nonzero" x="12.46" y="51.24" width="17.03" height="3.52" rx="1.76"></rect>
                        <path d="M416.55,43.12 L451.93,43.12 C452.793685,43.1173425 453.622906,43.4585787 454.234564,44.0683602 C454.846222,44.6781417 455.190004,45.506311 455.19,46.37 L455.19,46.37 C455.19,48.1704483 453.730448,49.63 451.93,49.63 L416.55,49.63 C414.749552,49.63 413.29,48.1704483 413.29,46.37 L413.29,46.37 C413.289996,45.506311 413.633778,44.6781417 414.245436,44.0683602 C414.857094,43.4585787 415.686315,43.1173425 416.55,43.12 L416.55,43.12 Z" id="Rectangle-10-2" fill="#FFFFFF" fill-rule="nonzero"></path>
                        <circle id="Oval" fill="#6A84ED" fill-rule="nonzero" cx="378.89" cy="87.28" r="4.5"></circle>
                        <circle id="Oval" fill="#FEB51F" fill-rule="nonzero" cx="378.89" cy="113.28" r="4.5"></circle>
                        <circle id="Oval" fill="#6A84ED" fill-rule="nonzero" cx="378.89" cy="138.28" r="4.5"></circle>
                        <circle id="Oval" fill="#FFFFFF" fill-rule="nonzero" cx="378.89" cy="186.28" r="10.28"></circle>
                        <rect id="Rectangle" fill="#A6B0BE" fill-rule="nonzero" opacity="0.3" x="371.39" y="160.28" width="15" height="2" rx="1"></rect>
                        <rect id="Rectangle" fill="#A6B0BE" fill-rule="nonzero" x="374.39" y="213.15" width="9" height="2.25" rx="1.12"></rect>
                        <rect id="Rectangle" fill="#A6B0BE" fill-rule="nonzero" transform="translate(378.885000, 214.280000) rotate(-90.000000) translate(-378.885000, -214.280000) " x="374.385" y="213.155" width="9" height="2.25" rx="1.12"></rect>
                        <circle id="Oval" fill="#FF22B1" fill-rule="nonzero" cx="381.73" cy="187.92" r="1.12"></circle>
                        <path d="M384.89,185.08 C384.89,183.754517 383.815483,182.68 382.49,182.68 L377.66,182.68 C377.513932,181.983615 376.901529,181.483695 376.19,181.48 L374.39,181.48 C373.561573,181.48 372.89,182.151573 372.89,182.98 L372.89,188.68 C372.895479,190.003207 373.966793,191.074521 375.29,191.08 L382.49,191.08 C383.813207,191.074521 384.884521,190.003207 384.89,188.68 L384.89,185.08 Z M382.49,189.88 L375.29,189.88 C374.627258,189.88 374.09,189.342742 374.09,188.68 L374.09,183.88 L382.49,183.88 C383.152742,183.88 383.69,184.417258 383.69,185.08 L383.69,188.68 C383.69,189.342742 383.152742,189.88 382.49,189.88 L382.49,189.88 Z" id="Shape" fill="#131439" fill-rule="nonzero"></path>
                        <rect id="Rectangle" fill="#FFFFFF" fill-rule="nonzero" transform="translate(549.782350, 46.371804) rotate(-45.000000) translate(-549.782350, -46.371804) " x="548.12235" y="41.396804" width="3.32" height="9.95" rx="1.66"></rect>
                        <rect id="Rectangle" fill="#FFFFFF" fill-rule="nonzero" transform="translate(549.778196, 46.382350) rotate(45.000000) translate(-549.778196, -46.382350) " x="548.118196" y="41.4073499" width="3.32" height="9.95" rx="1.66"></rect>
                        <circle id="Oval" fill="#79E2AA" fill-rule="nonzero" cx="153.11" cy="141.03" r="14"></circle>
                        <g id="head" transform="translate(134.000000, 129.000000)">
                            <path d="M19,0.23 C13,0.72 10.86,2.96 10.57,9.08 C10.28,14.95 12.57,15.58 18.9,15.35 C23.79,15.18 26.9,14.73 26.9,9.42 C26.77,3.33 24,-0.18 19,0.23 Z" id="Path" fill="#F9BBA5" fill-rule="nonzero"></path>
                            <path d="M18.66,10.21 C18.5521581,10.2082461 18.4600197,10.1317899 18.4384058,10.0261215 C18.4167918,9.92045324 18.4715084,9.81395852 18.57,9.77 C18.8113781,9.65284845 19.0365815,9.50495372 19.24,9.33 C18.9950108,8.80602383 18.7108724,8.30126046 18.39,7.82 C18.3160069,7.71769099 18.3383241,7.57486073 18.44,7.5 C18.4881548,7.46166939 18.5501643,7.44526337 18.6109742,7.45476492 C18.6717841,7.46426646 18.7258333,7.49880665 18.76,7.55 C19.1499072,8.09913356 19.4848532,8.68528903 19.76,9.3 C19.820101,9.37624705 19.820101,9.48375295 19.76,9.56 C19.4778995,9.81127797 19.165474,10.0262805 18.83,10.2 L18.66,10.21 Z" id="Path" fill="#D26E63" fill-rule="nonzero" opacity="0.4"></path>
                            <path d="M10.38,19.55 C12.38,23.07 18.08,23.93 22.03,23.29 C33.46,21.43 26.97,6.57 26.34,5.79 C25.95,5.32 25.17,5.34 24.93,6.39 C24.73,7.25 25.48,10.72 25.34,11.13 C24.98,12.18 21.99,12.55 20.88,12.67 C17.34,13.08 13.27,13 12.45,12.24 C11.63,11.48 11.81,9.62 11.92,7.78 C11.98,6.86 10.83,5.9 10.28,7.66 C10.07,8.31 8.81,16.73 10.38,19.55 Z" id="Path" fill="#B16D60" fill-rule="nonzero"></path>
                            <path d="M15.47,10.43 C16.09,9.83 20.56,9.62 21.37,10.03 C22.5095957,10.7111368 23.2533919,11.8974917 23.37,13.22 C23.29,13.48 15.7,14.43 14.53,13.22 C14,12.63 15.31,10.57 15.47,10.43 Z" id="Path" fill="#B16D60" fill-rule="nonzero"></path>
                            <g id="Group" transform="translate(0.000000, 4.000000)" fill="#FFFFFF" fill-rule="nonzero" opacity="0.1">
                                <path d="M8.41,19.67 C8.24013374,19.6718454 8.09497178,19.5480308 8.07,19.38 C8.03999716,19.1895511 8.16966255,19.0107022 8.36,18.98 C13.3679857,18.2257977 18.2207949,16.6656044 22.73,14.36 C25.8709405,12.848476 28.6894831,10.7430587 31.03,8.16 C31.1660952,8.02659999 31.3839048,8.02659999 31.52,8.16 C31.6522241,8.29268246 31.6522241,8.50731754 31.52,8.64 C28.18,12.78 19.52,18.02 8.41,19.72 L8.41,19.67 Z" id="Path"></path>
                                <path d="M7.26,17 L7.15,17 C6.95670034,17 6.8,16.8432997 6.8,16.65 C6.80541315,16.4606165 6.96053918,16.3099227 7.15,16.31 L7.26,16.31 C12.2181235,16.2234327 17.0678595,14.8446876 21.33,12.31 C24.19,10.65 27.71,7.91 29.15,5.53 C29.2024606,5.40192313 29.3254678,5.31678972 29.4638149,5.31280826 C29.6021621,5.3088268 29.7298617,5.38674519 29.7896012,5.51159308 C29.8493406,5.63644097 29.8298983,5.78476647 29.74,5.89 C28.74,7.55 26.03,10.38 21.68,12.89 C17.3117281,15.488812 12.341993,16.9052899 7.26,17 L7.26,17 Z" id="Path"></path>
                                <path d="M4.87,12.17 L2.75,12.17 C2.55902828,12.1593743 2.40970462,12.0012669 2.41,11.81 C2.42075262,11.6206222 2.58040358,11.4742755 2.77,11.48 C14.69,11.78 23.15,9.54 29.38,4.43 C29.5294078,4.30947312 29.7480153,4.33178 29.87,4.48 C29.9273443,4.55015148 29.9543159,4.64028999 29.9449285,4.73040922 C29.9355411,4.82052845 29.8905712,4.90317306 29.82,4.96 C23.83,9.86 15.86,12.17 4.87,12.17 Z" id="Path"></path>
                                <path d="M0.71,11 C0.54188309,10.9712744 0.418949131,10.8255534 0.418949131,10.655 C0.418949131,10.4844466 0.54188309,10.3387256 0.71,10.31 C19.71,9.16 22.5,6.98 29.34,1.72 L29.93,1.27 C30.082026,1.15179187 30.3009869,1.17860341 30.42,1.33 C30.5304622,1.48601323 30.4997274,1.70115671 30.35,1.82 L29.76,2.27 C22.76,7.62 19.92,9.83 0.76,11 L0.71,11 Z" id="Path"></path>
                                <path d="M4.65,6.2 C3.79,6.2 2.93,6.2 2.07,6.13 C1.93272769,6.15345531 1.79461071,6.09329774 1.7182908,5.97681121 C1.64197089,5.86032469 1.64197089,5.70967531 1.7182908,5.59318879 C1.79461071,5.47670226 1.93272769,5.41654469 2.07,5.44 C13.32,6 25.55,2.49 27.92,0.79 C28.0753985,0.682883128 28.287742,0.718273724 28.4,0.87 C28.4541412,0.943888862 28.4761775,1.03649793 28.4611184,1.12685306 C28.4460592,1.21720819 28.3951786,1.29766442 28.32,1.35 C26.21,2.89 15.66,6.2 4.65,6.2 Z" id="Path"></path>
                                <path d="M19.21,20.66 C19.0711156,20.6596902 18.9455536,20.5772902 18.89,20.45 C18.8196387,20.2760007 18.8990492,20.0774745 19.07,20 C23.4536101,18.0900693 27.4086037,15.3185131 30.7,11.85 C30.8297869,11.7119288 31.0469288,11.7052131 31.185,11.835 C31.3230712,11.9647869 31.3297869,12.1819288 31.2,12.32 C27.8493044,15.8590299 23.8188498,18.6854499 19.35,20.63 L19.21,20.66 Z" id="Path"></path>
                            </g>
                            <path d="M26.34,5.79 C25.95,5.32 25.17,5.34 24.93,6.39 C24.73,7.25 25.48,10.72 25.34,11.13 C25.2,11.54 24.23,12.05 23.23,12.29 C22.8918715,11.3431811 22.2340933,10.5439453 21.37,10.03 C20.56,9.62 16.09,9.83 15.47,10.43 C14.9499311,11.1275175 14.6067902,11.9407616 14.47,12.8 C13.7656552,12.7926851 13.0757312,12.5995064 12.47,12.24 C11.65,11.48 11.83,9.62 11.94,7.78 C12,6.86 10.85,5.9 10.3,7.66 C10.09,8.31 8.83,16.73 10.4,19.55 C12.4,23.07 18.1,23.93 22.05,23.29 C33.46,21.43 27,6.57 26.34,5.79 Z" id="Path"></path>
                            <path d="M18.57,12.87 C18.2116685,12.8688473 17.8624311,12.7570914 17.57,12.55 C17.2588707,12.3109221 17.0745848,11.9423502 17.07,11.55 C17.07,11.4229745 17.1729745,11.32 17.3,11.32 C17.4270255,11.32 17.53,11.4229745 17.53,11.55 C17.5219979,11.81195 17.6412264,12.0615847 17.85,12.22 C18.0753208,12.3773389 18.3452979,12.4579814 18.62,12.45 C18.921169,12.4866271 19.2245151,12.4016947 19.4628791,12.2140065 C19.7012432,12.0263182 19.8549609,11.7513578 19.89,11.45 C19.89,11.3229745 19.9929745,11.22 20.12,11.22 C20.2470255,11.22 20.35,11.3229745 20.35,11.45 C20.3074949,11.8765938 20.0945257,12.2679473 19.7593954,12.5352984 C19.4242651,12.8026496 18.9953747,12.9233414 18.57,12.87 Z" id="Path" fill="#60342B" fill-rule="nonzero"></path>
                            <path d="M13.61,9.56 L13.61,9.56 C13.5489096,9.55492043 13.4923747,9.52566376 13.4529462,9.47872515 C13.4135178,9.43178654 13.3944586,9.37105021 13.4,9.31 C13.3999059,8.67707959 13.9071737,8.16091241 14.54,8.15 L14.54,8.15 C15.1397231,8.14378553 15.6379025,8.61110426 15.67,9.21 C15.67,9.33702549 15.5670255,9.44 15.44,9.44 C15.3129745,9.44 15.21,9.33702549 15.21,9.21 C15.1991119,8.84940821 14.9007122,8.56436965 14.54,8.57 C14.24,8.57 13.91,8.76 13.86,9.31 C13.8662238,9.37802213 13.8418911,9.44529147 13.7935913,9.4935913 C13.7452915,9.54189113 13.6780221,9.56622381 13.61,9.56 Z" id="Path" fill="#C1564D" fill-rule="nonzero"></path>
                            <path d="M21.67,9.56 L21.67,9.56 C21.6089096,9.55492043 21.5523747,9.52566376 21.5129462,9.47872515 C21.4735178,9.43178654 21.4544586,9.37105021 21.46,9.31 C21.4544153,8.67871428 21.9587846,8.16095461 22.59,8.15 L22.59,8.15 C23.1917501,8.13854968 23.6929982,8.608747 23.72,9.21 C23.7255414,9.27105021 23.7064822,9.33178654 23.6670538,9.37872515 C23.6276253,9.42566376 23.5710904,9.45492043 23.51,9.46 C23.3845552,9.46619915 23.2755467,9.374632 23.26,9.25 C23.2491119,8.88940821 22.9507122,8.60436965 22.59,8.61 L22.59,8.61 C22.3,8.61 21.96,8.8 21.91,9.35 C21.8993934,9.47310158 21.7934201,9.56582817 21.67,9.56 Z" id="Path" fill="#C1564D" fill-rule="nonzero"></path>
                            <path d="M12.58,6.63 C12.4194901,6.634493 12.277719,6.52607977 12.24,6.37 C12.2018017,6.18324382 12.3158052,5.9990843 12.5,5.95 L15.43,5.24 C15.6120447,5.20928286 15.7866449,5.32524732 15.8289297,5.50495771 C15.8712145,5.6846681 15.7666418,5.86632031 15.59,5.92 L12.66,6.63 L12.58,6.63 Z" id="Path" fill="#955343" fill-rule="nonzero"></path>
                            <path d="M24.25,6.13 L24.18,6.13 L21.18,5.55 C21.0909892,5.53306857 21.0124183,5.48130916 20.9617262,5.4062098 C20.9110342,5.33111043 20.8924145,5.23888392 20.91,5.15 C20.9501544,4.96228082 21.1305388,4.83909146 21.32,4.87 L24.32,5.45 C24.4900763,5.49108875 24.6036806,5.65146256 24.5860208,5.82553834 C24.5683609,5.99961412 24.4248631,6.1339051 24.25,6.14 L24.25,6.13 Z" id="Path" fill="#955343" fill-rule="nonzero"></path>
                        </g>
                        <circle id="Oval" fill="#FCD56B" fill-rule="nonzero" cx="152.66" cy="242.37" r="14"></circle>
                        <g id="character" transform="translate(141.000000, 230.000000)" fill-rule="nonzero">
                            <path d="M19.41,16.31 C25.86,7.5 19.86,7.21 20.1,7.22 C20.8,4.85 19.45,3.62 17.1,3.99 C17.1,2.61 16.19,1.99 14.22,2.18 C13.3109821,2.22806696 12.4204993,2.45578586 11.6,2.85 C11.91,1.1 11.1,0.25 9.65,0.25 L9.65,0.25 C4.22,0.06 3.28,6.84 3.28,6.84 C0.67,6.84 -1.09,12.11 3.02,16.31 L19.41,16.31 Z" id="Path" fill="#383753"></path>
                            <path d="M15,7.77 C12.1,7.77 7.65,7.06 5,8.55 C4.21,8.98 4.13,10.01 3.77,10.84 C3.22,12.11 1.48,21.03 7.09,22.41 C8.09,22.66 14.61,22.74 16.64,21.78 C17.2385807,21.5030509 17.7706069,21.1006209 18.2,20.6 C19.68,18.85 19.49,15.44 19.37,13.16 C19.11,8.29 17.75,7.77 15.02,7.77 L15,7.77 Z" id="Path" fill="#B16D60"></path>
                            <path d="M6.36,7.43 C9.36,10.75 13.73,10.92 16.91,7.43 L6.36,7.43 Z" id="Path" fill="#383753"></path>
                            <path d="M8.29,15.57 C8.13469802,15.5787848 7.99072725,15.654113 7.89496367,15.7766904 C7.79920009,15.8992678 7.76094614,16.0571872 7.79,16.21 C7.86769469,16.4760592 8.14041746,16.6344143 8.41,16.57 C8.59253702,16.5181772 8.73818196,16.3803431 8.79997752,16.2009367 C8.86177307,16.0215303 8.83190386,15.8232413 8.72,15.67 C8.60221394,15.5672351 8.44104443,15.5297539 8.29,15.57 L8.29,15.57 Z" id="Path" fill="#813F31"></path>
                            <path d="M14.9,15.55 C14.7440723,15.6047168 14.6188879,15.7233472 14.5558732,15.8761102 C14.4928585,16.0288731 14.4979974,16.201262 14.57,16.35 C14.7256704,16.6081881 15.0601796,16.6929304 15.32,16.54 C15.5961424,16.4240202 15.7259798,16.1061424 15.61,15.83 C15.4940202,15.5538576 15.1761424,15.4240202 14.9,15.54 L14.9,15.55 Z" id="Path" fill="#813F31"></path>
                            <path d="M11.72,17.81 C11.6035219,17.8193806 11.4864781,17.8193806 11.37,17.81 C11.2429745,17.7934315 11.1534315,17.6770255 11.17,17.55 C11.1865685,17.4229745 11.3029745,17.3334315 11.43,17.35 C11.8132972,17.4041026 12.2040917,17.3522272 12.56,17.2 L12.07,14.13 C12.0520406,14.0005592 12.1409435,13.8805402 12.27,13.86 C12.398063,13.8472319 12.5148953,13.9337743 12.54,14.06 L13.05,17.29 C13.0603148,17.3790508 13.0221596,17.4668077 12.95,17.52 C12.5747337,17.728621 12.1489359,17.8290123 11.72,17.81 L11.72,17.81 Z" id="Path" fill="#813F31" opacity="0.4"></path>
                            <path d="M11.57,20 C10.9437775,20.0016277 10.3311911,19.8171556 9.81,19.47 C9.75793549,19.4371437 9.72121667,19.3847859 9.70806042,19.324643 C9.69490417,19.2645002 9.70640887,19.2015935 9.74,19.15 C9.8122855,19.0402567 9.95938638,19.0090535 10.07,19.08 C10.6611394,19.4638076 11.3767146,19.6069227 12.07,19.48 C12.194201,19.4554649 12.3148782,19.5359163 12.34,19.66 C12.3644277,19.7896989 12.279548,19.9147847 12.15,19.94 C11.9591631,19.9793681 11.7648545,19.999469 11.57,20 L11.57,20 Z" id="Path" fill="#813F31"></path>
                            <path d="M6.57,14.12 C6.43739614,14.1216165 6.31028033,14.0671383 6.22,13.97 C6.03835454,13.7836014 6.03835454,13.4863986 6.22,13.3 C6.84603911,12.7259998 7.64392116,12.37451 8.49,12.3 C8.74957383,12.28067 8.97567003,12.4754262 8.995,12.735 C9.01432997,12.9945738 8.81957383,13.22067 8.56,13.24 C7.92582611,13.2833029 7.32414997,13.5366403 6.85,13.96 C6.77845754,14.0446866 6.67928235,14.1013582 6.57,14.12 L6.57,14.12 Z" id="Path" fill="#383753"></path>
                            <path d="M16.94,14.12 C16.825499,14.1190976 16.7152658,14.0764267 16.63,14 C16.15585,13.5766403 15.5541739,13.3233029 14.92,13.28 C14.6604262,13.2634314 14.4634315,13.0395738 14.4800001,12.78 C14.4965686,12.5204262 14.7204262,12.3234315 14.98,12.34 C15.8270295,12.4107914 16.6260631,12.7627886 17.25,13.34 C17.3397807,13.4283493 17.3903411,13.549039 17.3903411,13.675 C17.3903411,13.800961 17.3397807,13.9216507 17.25,14.01 C17.1632897,14.0828099 17.0532098,14.1218706 16.94,14.12 L16.94,14.12 Z" id="Path" fill="#383753"></path>
                        </g>
                        <circle id="Oval" fill="#FCD56B" fill-rule="nonzero" cx="374.43" cy="46.3" r="12"></circle>
                        <g id="character-2" transform="translate(364.000000, 35.000000)" fill-rule="nonzero">
                            <path d="M17.07,14.67 C22.6,7.12 17.46,6.87 17.66,6.88 C18.26,4.88 17.11,3.8 15.13,4.11 C15.13,2.93 14.35,2.37 12.66,2.56 C11.882492,2.60437075 11.1213379,2.8014553 10.42,3.14 C10.68,1.64 9.98,0.91 8.75,0.91 L8.75,0.91 C4.09,0.74 3.28,6.55 3.28,6.55 C1.05,6.55 -0.47,11.08 3.06,14.67 L17.07,14.67 Z" id="Path" fill="#383753"></path>
                            <path d="M13.27,7.36 C10.79,7.36 6.97,6.75 4.68,8.02 C4.01,8.39 3.94,9.27 3.63,10.02 C3.16,11.11 1.63,18.76 6.48,19.94 C7.36,20.16 12.93,20.22 14.67,19.4 C15.1797884,19.1656872 15.6333388,18.8246719 16,18.4 C17.27,16.89 17.11,13.97 17,12.01 C16.78,7.84 15.61,7.4 13.27,7.4 L13.27,7.36 Z" id="Path" fill="#B16D60"></path>
                            <path d="M5.89,7.07 C6.98724452,8.43117634 8.64164461,9.2225491 10.39,9.2225491 C12.1383554,9.2225491 13.7927555,8.43117634 14.89,7.07 L5.89,7.07 Z" id="Path" fill="#383753"></path>
                            <path d="M7.54,14 C7.40774389,14.0089046 7.28575776,14.0744298 7.205308,14.1797807 C7.12485824,14.2851315 7.09376579,14.4200664 7.12,14.55 C7.18345761,14.7798931 7.418515,14.9173795 7.65,14.86 C7.80413966,14.8129324 7.9261409,14.6944518 7.97770051,14.541756 C8.02926012,14.3890602 8.00405557,14.2208738 7.91,14.09 C7.80977265,13.999454 7.67061826,13.9656056 7.54,14 L7.54,14 Z" id="Path" fill="#813F31"></path>
                            <path d="M13.21,14 C13.0741722,14.0453481 12.9649783,14.1478434 12.9111335,14.2805324 C12.8572887,14.4132215 12.8641818,14.5628245 12.93,14.69 C12.9924147,14.7974491 13.0956452,14.8750764 13.2161964,14.9052142 C13.3367477,14.935352 13.4643639,14.9154364 13.57,14.85 C13.711198,14.7833896 13.8051995,14.645481 13.8155845,14.4897056 C13.8259696,14.3339303 13.7511064,14.184764 13.62,14.1 C13.5112175,13.9954401 13.3547076,13.957267 13.21,14 L13.21,14 Z" id="Path" fill="#813F31"></path>
                            <path d="M10.49,16 L10.19,16 C10.0804243,15.9799594 10.0031191,15.8811805 10.01,15.77 C10.0148521,15.7175012 10.0413001,15.6693789 10.0830186,15.6371418 C10.1247372,15.6049047 10.1779751,15.5914516 10.23,15.6 C10.5689603,15.6470323 10.9143313,15.6021341 11.23,15.47 L10.81,12.84 C10.7976351,12.7306292 10.8718147,12.6302685 10.98,12.61 C11.0331348,12.6014175 11.0874861,12.6146135 11.1307697,12.6466057 C11.1740532,12.6785979 11.2026152,12.7266855 11.21,12.78 L11.65,15.55 C11.6605431,15.6232571 11.6297681,15.6963477 11.57,15.74 C11.2444078,15.9334747 10.8679709,16.0240984 10.49,16 Z" id="Path" fill="#813F31" opacity="0.4"></path>
                            <path d="M10.36,17.85 C9.82294695,17.854691 9.29687279,17.6979139 8.85,17.4 C8.804376,17.3712813 8.77227796,17.3253602 8.76098219,17.2726467 C8.74968643,17.2199331 8.76014967,17.1648918 8.79,17.12 C8.82598537,17.0807796 8.87677232,17.0584523 8.93,17.0584523 C8.98322768,17.0584523 9.03401463,17.0807796 9.07,17.12 C9.58187583,17.4506266 10.2010714,17.5723182 10.8,17.46 C10.9074567,17.4417511 11.0097395,17.5129044 11.03,17.62 C11.0482489,17.7274567 10.9770956,17.8297395 10.87,17.85 C10.7005696,17.8696811 10.5294304,17.8696811 10.36,17.85 L10.36,17.85 Z" id="Path" fill="#813F31"></path>
                            <path d="M6.07,12.8 C5.95476702,12.7975755 5.84587643,12.7467599 5.77,12.66 C5.69423889,12.5865449 5.65147744,12.4855244 5.65147744,12.38 C5.65147744,12.2744756 5.69423889,12.1734551 5.77,12.1 C6.30635379,11.6152635 6.989018,11.3231958 7.71,11.27 C7.93286276,11.2585375 8.12396599,11.4274194 8.14,11.65 C8.14826197,11.7561555 8.11385877,11.8612241 8.04441034,11.9419345 C7.97496191,12.0226448 7.87620026,12.0723353 7.77,12.08 C7.22363586,12.1129912 6.70496299,12.3317512 6.3,12.7 C6.23530721,12.75598 6.15506199,12.7908692 6.07,12.8 L6.07,12.8 Z" id="Path" fill="#383753"></path>
                            <path d="M15,12.8 C14.9014771,12.7971356 14.8066196,12.7620032 14.73,12.7 C14.3272906,12.3282386 13.8073068,12.1089257 13.26,12.08 C13.0414104,12.0588884 12.8782704,11.8692932 12.89,11.65 C12.9109685,11.4298965 13.0989886,11.2637392 13.32,11.27 C14.0610454,11.3138397 14.7656646,11.6062566 15.32,12.1 C15.4455421,12.2106862 15.4888992,12.387831 15.4286679,12.5439862 C15.3684366,12.7001414 15.217353,12.8022876 15.05,12.8 L15,12.8 Z" id="Path" fill="#383753"></path>
                        </g>
                        <circle id="Oval" fill="#FFFFFF" fill-rule="nonzero" cx="528.95" cy="46.55" r="1.36"></circle>
                        <circle id="Oval" fill="#FFFFFF" fill-rule="nonzero" cx="528.95" cy="43.01" r="1.36"></circle>
                        <circle id="Oval" fill="#FFFFFF" fill-rule="nonzero" cx="528.95" cy="50.1" r="1.36"></circle>
                        <rect id="Rectangle" fill="#E7EBF1" fill-rule="nonzero" x="46.46" y="154.46" width="63" height="6" rx="3"></rect>
                        <rect id="Rectangle" fill="#CCD5E2" fill-rule="nonzero" x="22.6" y="99.14" width="86.72" height="23.77" rx="11"></rect>
                        <circle id="Oval" fill="#FF22B1" fill-rule="nonzero" cx="429.18" cy="96.24" r="1.87"></circle>
                        <path d="M434.45,91.5 C434.45,89.290861 432.659139,87.5 430.45,87.5 L422.4,87.5 C422.158863,86.3379559 421.136794,85.5036141 419.95,85.5 L416.95,85.5 C415.571565,85.5054809 414.455481,86.6215648 414.45,88 L414.45,97.5 C414.45,99.709139 416.240861,101.5 418.45,101.5 L430.45,101.5 C432.659139,101.5 434.45,99.709139 434.45,97.5 L434.45,91.5 Z M430.45,99.5 L418.45,99.5 C417.345431,99.5 416.45,98.6045695 416.45,97.5 L416.45,89.5 L430.45,89.5 C431.554569,89.5 432.45,90.3954305 432.45,91.5 L432.45,97.5 C432.45,98.6045695 431.554569,99.5 430.45,99.5 Z" id="Shape" fill="#131439" fill-rule="nonzero"></path>
                        <circle id="Oval" fill="#E7EBF1" fill-rule="nonzero" cx="28.04" cy="157.46" r="5.72"></circle>
                        <rect id="Rectangle" fill="#E7EBF1" fill-rule="nonzero" x="46.46" y="187.71" width="43" height="6" rx="3"></rect>
                        <circle id="Oval" fill="#E7EBF1" fill-rule="nonzero" cx="28.04" cy="190.71" r="5.72"></circle>
                        <rect id="Rectangle" fill="#E7EBF1" fill-rule="nonzero" x="46.46" y="220.95" width="63" height="6" rx="3"></rect>
                        <circle id="Oval" fill="#E7EBF1" fill-rule="nonzero" cx="28.04" cy="223.95" r="5.72"></circle>
                        <rect id="Rectangle" fill="#E7EBF1" fill-rule="nonzero" x="46.46" y="254.2" width="43" height="6" rx="3"></rect>
                        <circle id="Oval" fill="#E7EBF1" fill-rule="nonzero" cx="28.04" cy="257.2" r="5.72"></circle>
                        <rect id="Rectangle" fill="#CCD5E2" fill-rule="nonzero" x="180.43" y="134.97" width="91.94" height="9" rx="4.5"></rect>
                        <rect id="Rectangle" fill="#CCD5E2" fill-rule="nonzero" x="144.49" y="90.51" width="141.94" height="9" rx="4.5"></rect>
                        <rect id="Rectangle" fill="#E7EBF1" fill-rule="nonzero" x="299.49" y="90.51" width="30.94" height="9" rx="4.5"></rect>
                        <rect id="Rectangle" fill="#E7EBF1" fill-rule="nonzero" x="180.43" y="163" width="144" height="6" rx="3"></rect>
                        <rect id="Rectangle" fill="#E7EBF1" fill-rule="nonzero" x="452.25" y="91.5" width="53" height="6" rx="3"></rect>
                        <rect id="Rectangle" fill="#E7EBF1" fill-rule="nonzero" x="445.6" y="144.76" width="53" height="6" rx="3"></rect>
                        <rect id="Rectangle" fill="#E7EBF1" fill-rule="nonzero" x="180.43" y="181.46" width="144" height="6" rx="3"></rect>
                        <rect id="Rectangle" fill="#E7EBF1" fill-rule="nonzero" x="180.43" y="199.92" width="94" height="6" rx="3"></rect>
                        <rect id="Rectangle" fill="#CCD5E2" fill-rule="nonzero" x="180.43" y="238.43" width="91.94" height="9" rx="4.5"></rect>
                        <rect id="Rectangle" fill="#E7EBF1" fill-rule="nonzero" x="180.43" y="266.46" width="144" height="6" rx="3"></rect>
                        <rect id="Rectangle" fill="#E7EBF1" fill-rule="nonzero" x="180.43" y="283.37" width="94" height="6" rx="3"></rect>
                        <rect id="Rectangle" fill="#F8F9FB" fill-rule="nonzero" x="362.43" y="67.27" width="34.92" height="317.73"></rect>
                        <rect id="Rectangle" fill="#CCD5E2" fill-rule="nonzero" opacity="0.3" x="394.11" y="27.27" width="3" height="357.73"></rect>
                        <rect id="Rectangle" fill="#484E6A" fill-rule="nonzero" x="394.11" y="172.27" width="3" height="27.73" rx="1.5"></rect>
                        <polygon id="Rectangle" fill="#F8F9FB" fill-rule="nonzero" points="397.382263 119.55 568 119.55 568 121.55 397.382263 121.55"></polygon>
                        <circle id="Oval" fill="#727491" fill-rule="nonzero" opacity="0.7" cx="424.04" cy="147.76" r="4.5"></circle>
                        <rect id="Rectangle" fill="#E7EBF1" fill-rule="nonzero" x="445.6" y="169" width="53" height="6" rx="3"></rect>
                        <circle id="Oval" fill="#727491" fill-rule="nonzero" opacity="0.7" cx="424.04" cy="172" r="4.5"></circle>
                        <rect id="Rectangle" fill="#E7EBF1" fill-rule="nonzero" x="445.6" y="194.24" width="53" height="6" rx="3"></rect>
                        <circle id="Oval" fill="#727491" fill-rule="nonzero" opacity="0.7" cx="424.04" cy="197.24" r="4.5"></circle>
                        <circle id="Oval" fill="#CCD5E2" fill-rule="nonzero" cx="348.22" cy="42.93" r="1.22"></circle>
                        <circle id="Oval" fill="#CCD5E2" fill-rule="nonzero" cx="344.56" cy="42.93" r="1.22"></circle>
                        <circle id="Oval" fill="#CCD5E2" fill-rule="nonzero" cx="340.91" cy="42.93" r="1.22"></circle>
                        <circle id="Oval" fill="#CCD5E2" fill-rule="nonzero" cx="348.22" cy="46.58" r="1.22"></circle>
                        <circle id="Oval" fill="#CCD5E2" fill-rule="nonzero" cx="344.56" cy="46.58" r="1.22"></circle>
                        <circle id="Oval" fill="#CCD5E2" fill-rule="nonzero" cx="340.91" cy="46.58" r="1.22"></circle>
                        <circle id="Oval" fill="#CCD5E2" fill-rule="nonzero" cx="348.22" cy="50.24" r="1.22"></circle>
                        <circle id="Oval" fill="#CCD5E2" fill-rule="nonzero" cx="344.56" cy="50.24" r="1.22"></circle>
                        <circle id="Oval" fill="#CCD5E2" fill-rule="nonzero" cx="340.91" cy="50.24" r="1.22"></circle>
                        <circle id="Oval" fill="#CCD5E2" fill-rule="nonzero" cx="321.93" cy="47.04" r="4.5"></circle>
                    </g>
                </g>
            </g>
        </g>
    </g>
</svg>