<?xml version="1.0" encoding="UTF-8"?>
<svg width="662px" height="466px" viewBox="0 0 662 466" version="1.1" xmlns="http://www.w3.org/2000/svg" xmlns:xlink="http://www.w3.org/1999/xlink">
    <!-- Generator: Sketch 53 (72520) - https://sketchapp.com -->
    <title>ap-03-timer-app</title>
    <desc>Created with Sketch.</desc>
    <defs>
        <path d="M568,385.49 L0,385.49 L0,8 C-5.41283123e-16,3.581722 3.58304672,8.11624501e-16 8.00295884,0 L559.997041,0 C564.416953,2.705415e-16 568,3.581722 568,8 L568,385.49 Z" id="path-1"></path>
        <filter x="-2.3%" y="-2.9%" width="104.6%" height="106.7%" filterUnits="objectBoundingBox" id="filter-2">
            <feOffset dx="0" dy="2" in="SourceAlpha" result="shadowOffsetOuter1"></feOffset>
            <feGaussianBlur stdDeviation="4" in="shadowOffsetOuter1" result="shadowBlurOuter1"></feGaussianBlur>
            <feColorMatrix values="0 0 0 0 0.11372549   0 0 0 0 0.109803922   0 0 0 0 0.223529412  0 0 0 0.1 0" type="matrix" in="shadowBlurOuter1"></feColorMatrix>
        </filter>
        <path d="M75.54596,62.62828 C72.56486,62.62828 71.4038,60.18064 71.4038,57.04264 C71.4038,53.90464 72.56486,51.457 75.54596,51.457 C78.52706,51.457 79.68812,53.90464 79.68812,57.04264 C79.68812,60.18064 78.52706,62.62828 75.54596,62.62828 Z M75.54596,60.49444 C76.44029,60.49444 76.86392,59.47459 76.86392,57.04264 C76.86392,54.61069 76.45598,53.59084 75.54596,53.59084 C74.65163,53.59084 74.228,54.61069 74.228,57.04264 C74.228,59.47459 74.63594,60.49444 75.54596,60.49444 Z M84.45788,62.62828 C81.47678,62.62828 80.31572,60.18064 80.31572,57.04264 C80.31572,53.90464 81.47678,51.457 84.45788,51.457 C87.43898,51.457 88.60004,53.90464 88.60004,57.04264 C88.60004,60.18064 87.43898,62.62828 84.45788,62.62828 Z M84.45788,60.49444 C85.35221,60.49444 85.77584,59.47459 85.77584,57.04264 C85.77584,54.61069 85.3679,53.59084 84.45788,53.59084 C83.56355,53.59084 83.13992,54.61069 83.13992,57.04264 C83.13992,59.47459 83.54786,60.49444 84.45788,60.49444 Z M90.93785,56.164 C90.21611,56.164 89.85524,55.80313 89.85524,55.08139 L89.85524,54.61069 C89.85524,53.88895 90.21611,53.52808 90.93785,53.52808 L91.65959,53.52808 C92.38133,53.52808 92.7422,53.88895 92.7422,54.61069 L92.7422,55.08139 C92.7422,55.80313 92.38133,56.164 91.65959,56.164 L90.93785,56.164 Z M90.93785,60.43168 C90.21611,60.43168 89.85524,60.07081 89.85524,59.34907 L89.85524,58.87837 C89.85524,58.15663 90.21611,57.79576 90.93785,57.79576 L91.65959,57.79576 C92.38133,57.79576 92.7422,58.15663 92.7422,58.87837 L92.7422,59.34907 C92.7422,60.07081 92.38133,60.43168 91.65959,60.43168 L90.93785,60.43168 Z M98.13956,62.62828 C95.15846,62.62828 93.9974,60.18064 93.9974,57.04264 C93.9974,53.90464 95.15846,51.457 98.13956,51.457 C101.12066,51.457 102.28172,53.90464 102.28172,57.04264 C102.28172,60.18064 101.12066,62.62828 98.13956,62.62828 Z M98.13956,60.49444 C99.03389,60.49444 99.45752,59.47459 99.45752,57.04264 C99.45752,54.61069 99.04958,53.59084 98.13956,53.59084 C97.24523,53.59084 96.8216,54.61069 96.8216,57.04264 C96.8216,59.47459 97.22954,60.49444 98.13956,60.49444 Z M107.05148,62.62828 C104.07038,62.62828 102.90932,60.18064 102.90932,57.04264 C102.90932,53.90464 104.07038,51.457 107.05148,51.457 C110.03258,51.457 111.19364,53.90464 111.19364,57.04264 C111.19364,60.18064 110.03258,62.62828 107.05148,62.62828 Z M107.05148,60.49444 C107.94581,60.49444 108.36944,59.47459 108.36944,57.04264 C108.36944,54.61069 107.9615,53.59084 107.05148,53.59084 C106.15715,53.59084 105.73352,54.61069 105.73352,57.04264 C105.73352,59.47459 106.14146,60.49444 107.05148,60.49444 Z M113.53145,56.164 C112.80971,56.164 112.44884,55.80313 112.44884,55.08139 L112.44884,54.61069 C112.44884,53.88895 112.80971,53.52808 113.53145,53.52808 L114.25319,53.52808 C114.97493,53.52808 115.3358,53.88895 115.3358,54.61069 L115.3358,55.08139 C115.3358,55.80313 114.97493,56.164 114.25319,56.164 L113.53145,56.164 Z M113.53145,60.43168 C112.80971,60.43168 112.44884,60.07081 112.44884,59.34907 L112.44884,58.87837 C112.44884,58.15663 112.80971,57.79576 113.53145,57.79576 L114.25319,57.79576 C114.97493,57.79576 115.3358,58.15663 115.3358,58.87837 L115.3358,59.34907 C115.3358,60.07081 114.97493,60.43168 114.25319,60.43168 L113.53145,60.43168 Z M120.73316,62.62828 C117.75206,62.62828 116.591,60.18064 116.591,57.04264 C116.591,53.90464 117.75206,51.457 120.73316,51.457 C123.71426,51.457 124.87532,53.90464 124.87532,57.04264 C124.87532,60.18064 123.71426,62.62828 120.73316,62.62828 Z M120.73316,60.49444 C121.62749,60.49444 122.05112,59.47459 122.05112,57.04264 C122.05112,54.61069 121.64318,53.59084 120.73316,53.59084 C119.83883,53.59084 119.4152,54.61069 119.4152,57.04264 C119.4152,59.47459 119.82314,60.49444 120.73316,60.49444 Z M129.64508,62.62828 C126.66398,62.62828 125.50292,60.18064 125.50292,57.04264 C125.50292,53.90464 126.66398,51.457 129.64508,51.457 C132.62618,51.457 133.78724,53.90464 133.78724,57.04264 C133.78724,60.18064 132.62618,62.62828 129.64508,62.62828 Z M129.64508,60.49444 C130.53941,60.49444 130.96304,59.47459 130.96304,57.04264 C130.96304,54.61069 130.5551,53.59084 129.64508,53.59084 C128.75075,53.59084 128.32712,54.61069 128.32712,57.04264 C128.32712,59.47459 128.73506,60.49444 129.64508,60.49444 Z" id="path-3"></path>
    </defs>
    <g id="Page-1" stroke="none" stroke-width="1" fill="none" fill-rule="evenodd">
        <g id="GUIs-adaptaion" transform="translate(-670.000000, -16736.000000)">
            <g id="section-copy-17" transform="translate(0.000000, 16526.000000)">
                <g id="GUI" transform="translate(670.000000, 210.000000)">
                    <g id="GUI-details" transform="translate(127.000000, 1.000000)">
                        <path d="M444,0 C445.65625,0 447,1.34297282 447,2.99826489 C447,4.65702718 445.65625,6 444,6 C442.340278,6 441,4.65702718 441,2.99826489 C441,1.34297282 442.340278,0 444,0 Z M444,20 C445.65625,20 447,21.3429728 447,22.9982649 C447,24.6570272 445.65625,26 444,26 C442.340278,26 441,24.6570272 441,22.9982649 C441,21.3429728 442.340278,20 444,20 Z M383,0 C384.659722,0 386,1.34297282 386,2.99826489 C386,4.65702718 384.659722,6 383,6 C381.340278,6 380,4.65702718 380,2.99826489 C380,1.34297282 381.340278,0 383,0 Z M383,20 C384.659722,20 386,21.3429728 386,22.9982649 C386,24.6570272 384.659722,26 383,26 C381.340278,26 380,24.6570272 380,22.9982649 C380,21.3429728 381.340278,20 383,20 Z M424,20 C425.659722,20 427,21.3429728 427,22.9982649 C427,24.6570272 425.659722,26 424,26 C422.34375,26 421,24.6570272 421,22.9982649 C421,21.3429728 422.34375,20 424,20 Z M404,20 C405.659722,20 407,21.3429728 407,22.9982649 C407,24.6570272 405.659722,26 404,26 C402.340278,26 401,24.6570272 401,22.9982649 C401,21.3429728 402.340278,20 404,20 Z M424,0 C425.659722,0 427,1.34297282 427,2.99826489 C427,4.65702718 425.659722,6 424,6 C422.34375,6 421,4.65702718 421,2.99826489 C421,1.34297282 422.34375,0 424,0 Z M404,0 C405.659722,0 407,1.34297282 407,2.99826489 C407,4.65702718 405.659722,6 404,6 C402.340278,6 401,4.65702718 401,2.99826489 C401,1.34297282 402.340278,0 404,0 Z M322,0 C323.659722,0 325,1.34297282 325,2.99826489 C325,4.65702718 323.659722,6 322,6 C320.34375,6 319,4.65702718 319,2.99826489 C319,1.34297282 320.34375,0 322,0 Z M322,20 C323.659722,20 325,21.3429728 325,22.9982649 C325,24.6570272 323.659722,26 322,26 C320.34375,26 319,24.6570272 319,22.9982649 C319,21.3429728 320.34375,20 322,20 Z M362,20 C363.659722,20 365,21.3429728 365,22.9982649 C365,24.6570272 363.659722,26 362,26 C360.340278,26 359,24.6570272 359,22.9982649 C359,21.3429728 360.340278,20 362,20 Z M342,20 C343.65625,20 345,21.3429728 345,22.9982649 C345,24.6570272 343.65625,26 342,26 C340.340278,26 339,24.6570272 339,22.9982649 C339,21.3429728 340.340278,20 342,20 Z M362,0 C363.659722,0 365,1.34297282 365,2.99826489 C365,4.65702718 363.659722,6 362,6 C360.340278,6 359,4.65702718 359,2.99826489 C359,1.34297282 360.340278,0 362,0 Z M342,0 C343.65625,0 345,1.34297282 345,2.99826489 C345,4.65702718 343.65625,6 342,6 C340.340278,6 339,4.65702718 339,2.99826489 C339,1.34297282 340.340278,0 342,0 Z" id="Combined-Shape" fill="#E7EBF1"></path>
                        <polygon id="Rectangle" fill="#FEDE88" fill-rule="nonzero" points="2.24656894e-15 344 258 344 258 445 0 445"></polygon>
                        <polygon id="Rectangle" fill="#FFEAB6" fill-rule="nonzero" points="3.48305263e-16 344 40 344 40 445 0 445"></polygon>
                    </g>
                    <g id="ap-03-timer-app" transform="translate(47.000000, 40.000000)">
                        <g id="Path">
                            <use fill="black" fill-opacity="1" filter="url(#filter-2)" xlink:href="#path-1"></use>
                            <use fill="#FFFFFF" fill-rule="evenodd" xlink:href="#path-1"></use>
                        </g>
                        <rect id="Rectangle" fill="#F8F9FB" x="0.03" y="330.61" width="568" height="55.22"></rect>
                        <polygon id="Rectangle" fill="#E7EBF1" points="0.03 95.48 568.03 95.48 568.03 129.52 0.03 129.52"></polygon>
                        <path d="M8.00338171,0 L559.996618,0 C564.416764,2.705415e-16 568,3.581722 568,8 L568,95.34 L0,95.34 L0,8 C-5.41311724e-16,3.581722 3.58323604,8.11624501e-16 8.00338171,0 Z" id="Path" fill="#484E6A"></path>
                        <circle id="Oval" fill="#FFFFFF" cx="14.92" cy="14.37" r="3.47"></circle>
                        <circle id="Oval" fill="#FFFFFF" cx="30.2" cy="14.37" r="3.47"></circle>
                        <circle id="Oval" fill="#FFFFFF" cx="45.48" cy="14.37" r="3.47"></circle>
                        <rect id="Rectangle" fill="#FFFFFF" x="405.64" y="108.79" width="42.9" height="7.42" rx="3.71"></rect>
                        <rect id="Rectangle" fill="#FFFFFF" x="315.77" y="108.79" width="42.9" height="7.42" rx="3.3"></rect>
                        <rect id="Rectangle" fill="#FFFFFF" x="227.78" y="108.79" width="42.9" height="7.42" rx="3.71"></rect>
                        <rect id="Rectangle" fill="#FFFFFF" x="24.4" y="108.79" width="42.9" height="7.42" rx="3.71"></rect>
                        <rect id="Rectangle" fill="#79E2AA" x="433.69" y="347.97" width="111.56" height="20.14" rx="3.47"></rect>
                        <rect id="Rectangle" fill="#363654" x="43.69" y="42.58" width="102.91" height="29.13"></rect>
                        <circle id="Oval" fill="#79E2AA" cx="42.01" cy="57.14" r="17.37"></circle>
                        <polygon id="Path" fill="#FFFFFF" points="38.22 50.53 38.22 63.21 48.73 56.87"></polygon>
                        <rect id="Rectangle" fill="#FFFFFF" x="367.44" y="45.6" width="174.65" height="23.1" rx="11.55"></rect>
                        <rect id="Rectangle" fill="#E1E6EE" x="245.62" y="12.72" width="75.58" height="3.3" rx="1.65"></rect>
                        <circle id="Oval" fill="#79E2AA" cx="31.29" cy="357.53" r="17.89"></circle>
                        <path d="M110.92,358.83 L110.86,358.83 C110.794633,358.764362 110.763254,358.672207 110.774985,358.580317 C110.786716,358.488428 110.840239,358.407111 110.92,358.36 C111.967188,357.750841 112.324827,356.409697 111.72,355.36 L111.04,354.18 C110.749296,353.674977 110.269309,353.306633 109.70627,353.156489 C109.14323,353.006345 108.543568,353.086783 108.04,353.38 C107.950781,353.429194 107.842291,353.427962 107.754213,353.376753 C107.666135,353.325545 107.611389,353.231873 107.61,353.13 C107.610012,351.913345 106.626642,350.925505 105.41,350.92 L104,350.92 C102.779451,350.92 101.79,351.909451 101.79,353.13 C101.788611,353.231873 101.733865,353.325545 101.645787,353.376753 C101.557709,353.427962 101.449219,353.429194 101.36,353.38 L101.31,353.38 C100.802781,353.089233 100.200357,353.013349 99.6368747,353.169246 C99.0733925,353.325143 98.5956387,353.699876 98.31,354.21 L97.63,355.39 C97.0310087,356.440459 97.3874926,357.777274 98.43,358.39 L98.49,358.39 C98.5552861,358.453751 98.5867594,358.544512 98.5749573,358.634994 C98.5631552,358.725477 98.5094542,358.805128 98.43,358.85 C97.3884792,359.462861 97.0284732,360.796216 97.62,361.85 L98.31,363.03 C98.9193348,364.076136 100.25694,364.437289 101.31,363.84 C101.397802,363.789258 101.506177,363.789957 101.593318,363.841826 C101.680458,363.893695 101.732742,363.988628 101.73,364.09 C101.729994,364.675213 101.963151,365.236312 102.377897,365.649181 C102.792642,366.06205 103.354793,366.29266 103.94,366.29 L105.3,366.29 C105.885213,366.290006 106.446312,366.056849 106.859181,365.642103 C107.27205,365.227358 107.50266,364.665207 107.5,364.08 C107.504763,363.979921 107.560848,363.88939 107.648336,363.84056 C107.735823,363.79173 107.842319,363.791518 107.93,363.84 L107.93,363.84 C108.439043,364.127223 109.041458,364.200077 109.604295,364.042483 C110.167133,363.884888 110.644124,363.509801 110.93,363 L111.61,361.82 C112.222183,360.80006 111.917217,359.47854 110.92,358.83 L110.92,358.83 Z M104.72,361.06 C103.716034,361.064048 102.808671,360.462389 102.421661,359.536004 C102.034652,358.60962 102.244354,357.541292 102.952836,356.829942 C103.661318,356.118592 104.72879,355.904574 105.656731,356.287838 C106.584672,356.671101 107.189992,357.576025 107.19,358.58 C107.190011,359.94577 106.085759,361.054493 104.72,361.06 Z" id="Shape" fill="#A7ACC6" fill-rule="nonzero"></path>
                        <path d="M73.4,357.62 L77.89,357.62 C78.2987471,357.500782 78.738158,357.653456 78.9849248,358.000433 C79.2316917,358.347411 79.2316917,358.812589 78.9849248,359.159567 C78.738158,359.506544 78.2987471,359.659218 77.89,359.54 L73.4,359.54 L73.4,364 C73.2816505,364.43549 72.8862851,364.73775 72.435,364.73775 C71.9837149,364.73775 71.5883495,364.43549 71.47,364 L71.47,359.5 L67,359.5 C66.5912529,359.619218 66.151842,359.466544 65.9050752,359.119567 C65.6583083,358.772589 65.6583083,358.307411 65.9050752,357.960433 C66.151842,357.613456 66.5912529,357.460782 67,357.58 L71.49,357.58 L71.49,353.09 C71.3795228,352.683478 71.5356586,352.251315 71.8804537,352.009278 C72.2252487,351.767241 72.6847513,351.767241 73.0295463,352.009278 C73.3743414,352.251315 73.5304772,352.683478 73.42,353.09 L73.4,357.62 Z" id="Path" fill="#A7ACC6"></path>
                        <path d="M139.58,359.54 L145.64,359.54 C146.066667,359.415556 146.36,359.024444 146.36,358.58 C146.36,358.135556 146.066667,357.744444 145.64,357.62 L139.58,357.62 L139.58,357.62 C139.950805,357.413747 140.151079,356.995942 140.079626,356.577695 C140.008174,356.159447 139.680553,355.831826 139.262305,355.760374 C138.844058,355.688921 138.426253,355.889195 138.22,356.26 L136.62,357.86 C136.264283,358.243553 136.264283,358.836447 136.62,359.22 L138.22,360.83 C138.603553,361.185717 139.196447,361.185717 139.58,360.83 C139.935717,360.446447 139.935717,359.853553 139.58,359.47 L139.58,359.54 Z" id="Path" fill="#A7ACC6"></path>
                        <path d="M141.43,365.32 L133.73,365.32 C132.487359,365.32 131.48,364.312641 131.48,363.07 L131.48,354.07 C131.48,352.827359 132.487359,351.82 133.73,351.82 L141.43,351.82 C142.672641,351.82 143.68,352.827359 143.68,354.07 L143.68,355.59 C143.561651,356.02549 143.166285,356.32775 142.715,356.32775 C142.263715,356.32775 141.868349,356.02549 141.75,355.59 L141.75,354.07 C141.75,353.893269 141.606731,353.75 141.43,353.75 L133.73,353.75 C133.555474,353.755213 133.415213,353.895474 133.41,354.07 L133.41,363.07 C133.409918,363.248419 133.551663,363.394593 133.73,363.4 L141.43,363.4 C141.516631,363.400042 141.599577,363.364959 141.659884,363.302767 C141.720192,363.240575 141.752707,363.156588 141.75,363.07 L141.75,361.79 C141.868349,361.35451 142.263715,361.05225 142.715,361.05225 C143.166285,361.05225 143.561651,361.35451 143.68,361.79 L143.68,363.07 C143.68,363.666737 143.442947,364.239033 143.02099,364.66099 C142.599033,365.082947 142.026737,365.32 141.43,365.32 L141.43,365.32 Z" id="Path" fill="#A7ACC6"></path>
                        <g id="head" transform="translate(7.000000, 342.000000)">
                            <path d="M24.08,0.45 C16.38,1.07 13.68,3.94 13.31,11.76 C12.94,19.25 15.83,20.06 23.95,19.76 C30.2,19.54 34.22,18.96 34.15,12.18 C34.07,4.4 30.49,-0.07 24.08,0.45 Z" id="Path" fill="#F9BBA5"></path>
                            <path d="M23.71,13.21 C23.5738065,13.2011492 23.4607512,13.1014856 23.43489,12.9674774 C23.4090288,12.8334692 23.47688,12.6988937 23.6,12.64 C23.9051383,12.488744 24.1905977,12.3006766 24.45,12.08 C24.1393829,11.4102511 23.7783445,10.7650621 23.37,10.15 C23.2733502,10.0202131 23.3002131,9.83664983 23.43,9.74 C23.5597869,9.64335017 23.7433502,9.67021308 23.84,9.8 C24.3161423,10.4961157 24.7310294,11.2322057 25.08,12 C25.1329855,12.1132886 25.1044149,12.2479782 25.01,12.33 C24.6545712,12.6514426 24.2577139,12.9238616 23.83,13.14 L23.71,13.21 Z" id="Path" fill="#D26E63" opacity="0.4"></path>
                            <path d="M13.12,25.14 C15.62,29.63 22.96,30.73 28.01,29.91 C42.62,27.53 34.33,8.55 33.52,7.55 C33.03,6.95 32.02,6.98 31.71,8.32 C31.46,9.42 32.42,13.86 32.24,14.37 C31.78,15.72 27.96,16.18 26.54,16.37 C22.03,16.88 16.82,16.78 15.78,15.81 C14.74,14.84 14.95,12.47 15.1,10.11 C15.17,8.93 13.7,7.71 13,9.96 C12.73,10.78 11.12,21.53 13.12,25.14 Z" id="Path" fill="#B16D60"></path>
                            <path d="M19.63,13.47 C20.43,12.72 26.14,12.47 27.17,12.97 C28.95,13.88 29.96,16.43 29.77,17.05 C29.67,17.37 19.98,18.59 18.49,17.05 C17.76,16.3 19.43,13.66 19.63,13.47 Z" id="Path" fill="#B16D60"></path>
                            <g id="Group" transform="translate(0.000000, 6.000000)" fill="#FFFFFF" opacity="0.1">
                                <path d="M10.61,24.4 C10.3669948,24.4165685 10.1565687,24.2330052 10.1400001,23.99 C10.1234316,23.7469947 10.3069948,23.5365686 10.55,23.52 C16.9491511,22.5550658 23.1495684,20.5591798 28.91,17.61 C33.52,15.23 37.38,12.34 39.52,9.69 C39.5927467,9.59822646 39.6990775,9.53923956 39.8154469,9.52610107 C39.9318163,9.51296259 40.0486224,9.54675663 40.14,9.62 C40.2326829,9.69257336 40.2915609,9.79997031 40.3028998,9.91713873 C40.3142387,10.0343072 40.2770469,10.1510012 40.2,10.24 C35.94,15.53 24.88,22.24 10.68,24.39 L10.61,24.4 Z" id="Path"></path>
                                <path d="M9.14,21 L9,21 C8.75699471,21 8.56,20.8030053 8.56,20.56 C8.56,20.3169947 8.75699471,20.12 9,20.12 L9.14,20.12 C15.4871728,19.9981792 21.6922628,18.2193867 27.14,14.96 C30.79,12.84 35.29,9.34 37.14,6.3 C37.2002112,6.19834006 37.2987783,6.12516761 37.4135133,6.09695408 C37.5282483,6.06874054 37.6495094,6.08785691 37.75,6.15 C37.9558329,6.27520497 38.0226973,6.5426625 37.9,6.75 C36.62,8.88 33.15,12.5 27.59,15.75 C22.0013707,19.0750795 15.6419712,20.8846647 9.14,21 Z" id="Path"></path>
                                <path d="M6.09,14.82 C5.21,14.82 4.3,14.82 3.38,14.82 C3.13699471,14.82 2.94,14.6230053 2.94,14.38 C2.94,14.1369947 3.13699471,13.94 3.38,13.94 C18.61,14.33 29.38,11.47 37.38,4.94 C37.4689988,4.86295313 37.5856928,4.82576133 37.7028613,4.83710021 C37.8200297,4.84843909 37.9274266,4.90731711 38,5 C38.1493785,5.18935249 38.1229154,5.46280499 37.94,5.62 C30.31,11.86 20.14,14.82 6.09,14.82 Z" id="Path"></path>
                                <path d="M0.77,13.26 C0.536591923,13.2553284 0.345516908,13.0729386 0.33,12.84 C0.3245734,12.7232733 0.365801421,12.6091821 0.444591666,12.522888 C0.523381911,12.436594 0.633262336,12.3851854 0.75,12.38 C24.97,10.9 28.59,8.12 37.33,1.38 L38.08,0.8 C38.1726242,0.727857722 38.2902387,0.695724407 38.4066776,0.710748782 C38.5231165,0.725773158 38.628722,0.786709052 38.7,0.88 C38.7748783,0.971563778 38.8087327,1.0899285 38.793596,1.20723819 C38.7784593,1.32454788 38.7156682,1.43044222 38.62,1.5 L37.87,2.08 C29,8.94 25.3,11.77 0.8,13.26 L0.77,13.26 Z" id="Path"></path>
                                <path d="M5.81,7.18 C4.71,7.18 3.61,7.18 2.51,7.1 C2.35280311,7.10000005 2.20754716,7.01613654 2.1289487,6.88000004 C2.05035024,6.74386355 2.05035024,6.57613645 2.1289487,6.43999996 C2.20754716,6.30386346 2.35280311,6.21999995 2.51,6.22 C16.89,6.93 32.51,2.44 35.51,0.28 C35.6034949,0.210455353 35.7212108,0.181832051 35.8361996,0.200682667 C35.9511883,0.219533284 36.0536036,0.284243656 36.12,0.38 C36.2602245,0.579609764 36.2158713,0.85459923 36.02,1 C33.35,3 19.88,7.18 5.81,7.18 Z" id="Path"></path>
                                <path d="M24.41,25.66 C24.2350021,25.6583809 24.0760818,25.5576021 24,25.4 C23.9084327,25.1762722 24.00999,24.9201713 24.23,24.82 C29.8312956,22.3815994 34.8848637,18.8413811 39.09,14.41 C39.2597114,14.2554008 39.5197611,14.2572625 39.6872417,14.4142755 C39.8547223,14.5712886 39.87334,14.8306777 39.73,15.01 C35.4437728,19.5307174 30.2914525,23.142443 24.58,25.63 C24.5256715,25.6504101 24.4680329,25.6605816 24.41,25.66 L24.41,25.66 Z" id="Path"></path>
                            </g>
                            <path d="M33.52,7.55 C33.03,6.95 32.02,6.98 31.71,8.32 C31.46,9.42 32.42,13.86 32.24,14.37 C32,15.08 30.82,15.55 29.55,15.85 C29.107406,14.6549261 28.2670148,13.6485752 27.17,13 C26.17,12.47 20.43,12.75 19.63,13.5 C18.9567885,14.3802675 18.5041669,15.4089529 18.31,16.5 C17.4172342,16.4827962 16.5447029,16.2310381 15.78,15.77 C14.73,14.77 14.95,12.43 15.1,10.07 C15.17,8.89 13.7,7.67 13,9.92 C12.73,10.76 11.12,21.51 13.12,25.12 C15.62,29.61 22.96,30.71 28.01,29.89 C42.62,27.53 34.33,8.55 33.52,7.55 Z" id="Path"></path>
                            <path d="M23.59,16.6 C23.1095501,16.609408 22.6391252,16.4619614 22.25,16.18 C21.8380753,15.8684369 21.6031473,15.3762068 21.62,14.86 C21.646299,14.7177615 21.7703507,14.6145436 21.915,14.6145436 C22.0596493,14.6145436 22.183701,14.7177615 22.21,14.86 C22.190258,15.1956866 22.3405527,15.51882 22.61,15.72 C22.902665,15.9233924 23.2539263,16.0252582 23.61,16.01 C24.0008432,16.0576415 24.3943604,15.9454025 24.7012647,15.6987493 C25.0081691,15.452096 25.2024406,15.0919405 25.24,14.7 C25.24,14.5398374 25.3698374,14.41 25.53,14.41 C25.6918575,14.4099101 25.8246048,14.5382325 25.83,14.7 C25.8062066,15.2571919 25.5508438,15.7791428 25.1255359,16.139895 C24.7002281,16.5006472 24.1436081,16.6674317 23.59,16.6 L23.59,16.6 Z" id="Path" fill="#60342B"></path>
                            <path d="M17.26,12.37 L17.26,12.37 C17.0981398,12.354152 16.9783837,12.2122188 16.99,12.05 C16.9873388,11.6601291 17.1396669,11.28517 17.4134719,11.0076142 C17.687277,10.7300584 18.0601289,10.5726432 18.45,10.57 L18.45,10.57 C19.2134082,10.5634672 19.8473182,11.1577579 19.89,11.92 C19.8785832,12.0665308 19.7626893,12.1832138 19.6162394,12.1956248 C19.4697895,12.2080358 19.3359127,12.1125198 19.3,11.97 C19.2890786,11.509995 18.9101004,11.1443926 18.45,11.15 C18.06,11.15 17.64,11.4 17.58,12.15 C17.5454221,12.2944675 17.4072694,12.3894475 17.26,12.37 L17.26,12.37 Z" id="Path" fill="#C1564D"></path>
                            <path d="M27.55,12.37 L27.55,12.37 C27.4729189,12.3624427 27.4020636,12.3243662 27.3532238,12.2642557 C27.304384,12.2041452 27.2816183,12.1269958 27.29,12.05 C27.2846626,11.6610579 27.4347519,11.2860658 27.7069709,11.0082147 C27.9791899,10.7303636 28.3510302,10.5726276 28.74,10.57 L28.74,10.57 C29.5034082,10.5634672 30.1373182,11.1577579 30.18,11.92 C30.1865079,12.0805123 30.0693184,12.2194036 29.91,12.24 C29.8330439,12.2454912 29.7570718,12.2200909 29.698893,12.1694191 C29.6407143,12.1187473 29.6051251,12.0469814 29.6,11.97 C29.5786155,11.5107248 29.1997725,11.1495024 28.74,11.15 L28.74,11.15 C28.36,11.15 27.93,11.4 27.87,12.15 C27.8354221,12.2944675 27.6972694,12.3894475 27.55,12.37 L27.55,12.37 Z" id="Path" fill="#C1564D"></path>
                            <path d="M15.94,8.63 C15.7349531,8.63070541 15.5566006,8.4896825 15.51,8.29 C15.4830678,8.17592898 15.502761,8.0558269 15.5647119,7.95633002 C15.6266627,7.85683315 15.7257507,7.78616558 15.84,7.76 L19.58,6.86 C19.6928275,6.82992918 19.8130327,6.84703572 19.9129919,6.90738845 C20.0129511,6.96774118 20.0840681,7.06614996 20.11,7.18 C20.1400708,7.29282748 20.1229643,7.41303268 20.0626116,7.51299188 C20.0022588,7.61295109 19.90385,7.68406813 19.79,7.71 L16.04,8.62 L15.94,8.63 Z" id="Path" fill="#955343"></path>
                            <path d="M30.85,8 L30.77,8 L27,7.24 C26.8445894,7.20963245 26.7171851,7.09866112 26.6657789,6.94888785 C26.6143727,6.79911458 26.6467745,6.63329349 26.7507789,6.5138878 C26.8547833,6.39448212 27.0145895,6.33963239 27.17,6.37 L30.97,7.11 C31.0857943,7.13174285 31.1880316,7.19901655 31.2538183,7.2967569 C31.3196051,7.39449724 31.3434451,7.51453832 31.32,7.63 C31.2888331,7.8599479 31.0808382,8.02368863 30.85,8 L30.85,8 Z" id="Path" fill="#955343"></path>
                        </g>
                        <rect id="Rectangle" fill="#9A9EB5" x="171.19" y="47.52" width="133.05" height="6.6" rx="3.3"></rect>
                        <rect id="Rectangle" fill="#717392" x="171.19" y="63.54" width="70.17" height="3.3" rx="1.65"></rect>
                        <rect id="Rectangle" fill="#E1E6EE" x="545.7" y="9.85" width="11.66" height="9.03" rx="2"></rect>
                        <rect id="Rectangle" fill="#484E6A" x="546.95" y="11.24" width="5.56" height="4.17"></rect>
                        <polygon id="Rectangle" fill="#FFFFFF" points="0.03 129.52 568.03 129.52 568.03 177.58 0.03 177.58"></polygon>
                        <rect id="Rectangle" fill="#F8F9FB" x="0.03" y="177.32" width="566.76" height="1.65"></rect>
                        <rect id="Rectangle" fill="#D6DDE7" x="24.4" y="151.23" width="180.4" height="4.95" rx="2.47"></rect>
                        <rect id="Rectangle" fill="#E7EBF1" x="227.78" y="151.23" width="64.25" height="4.95" rx="2.47"></rect>
                        <rect id="Rectangle" fill="#E7EBF1" x="315.77" y="151.11" width="64.25" height="4.95" rx="2"></rect>
                        <polygon id="Path" fill="#79E2AA" points="405.44 147.25 405.44 158.35 414.63 152.8"></polygon>
                        <rect id="Rectangle" fill="#E7EBF1" x="428.73" y="151.17" width="64.25" height="4.95" rx="2.47"></rect>
                        <g id="Group-15" transform="translate(26.000000, 178.000000)">
                            <rect id="Rectangle" fill="#79E2AA" x="0.84" y="0.73" width="566.76" height="48.06"></rect>
                            <rect id="Rectangle" fill="#FFFFFF" x="49.36" y="22.44" width="172.88" height="4.95" rx="2.47"></rect>
                            <rect id="Rectangle" fill="#FFFFFF" opacity="0.7" x="245.21" y="22.44" width="56.89" height="4.95" rx="2.47"></rect>
                            <rect id="Rectangle" fill="#FFFFFF" opacity="0.7" x="325.84" y="22.32" width="56.83" height="4.95" rx="2"></rect>
                            <polygon id="Path" fill="#FFFFFF" points="406.46 18.46 406.46 29.56 415.66 24.01"></polygon>
                            <rect id="Rectangle" fill="#FFFFFF" opacity="0.7" x="429.75" y="22.38" width="64.25" height="4.95" rx="2.47"></rect>
                            <path d="M24.22,23.94 L28.71,23.94 C29.1165224,23.8295228 29.5486847,23.9856586 29.7907219,24.3304537 C30.0327592,24.6752487 30.0327592,25.1347513 29.7907219,25.4795463 C29.5486847,25.8243414 29.1165224,25.9804772 28.71,25.87 L24.22,25.87 L24.22,30.36 C24.1016505,30.7954901 23.7062851,31.0977501 23.255,31.0977501 C22.8037149,31.0977501 22.4083495,30.7954901 22.29,30.36 L22.29,25.87 L17.8,25.87 C17.3645099,25.7516505 17.0622499,25.3562851 17.0622499,24.905 C17.0622499,24.4537149 17.3645099,24.0583495 17.8,23.94 L22.29,23.94 L22.29,19.45 C22.4083495,19.0145099 22.8037149,18.7122499 23.255,18.7122499 C23.7062851,18.7122499 24.1016505,19.0145099 24.22,19.45 L24.22,23.94 Z" id="Path" fill="#FFFFFF"></path>
                        </g>
                        <g id="Group-16" transform="translate(47.000000, 231.000000)">
                            <rect id="Rectangle" fill="#79E2AA" x="0.81" y="0.67" width="566.76" height="48.06"></rect>
                            <rect id="Rectangle" fill="#FFFFFF" x="49.34" y="22.38" width="172.88" height="4.95" rx="2.47"></rect>
                            <rect id="Rectangle" fill="#FFFFFF" opacity="0.7" x="245.19" y="22.38" width="56.89" height="4.95" rx="2.47"></rect>
                            <rect id="Rectangle" fill="#FFFFFF" opacity="0.7" x="325.81" y="22.26" width="56.83" height="4.95" rx="2"></rect>
                            <polygon id="Path" fill="#FFFFFF" points="406.44 18.4 406.44 29.5 415.63 23.95"></polygon>
                            <rect id="Rectangle" fill="#FFFFFF" opacity="0.7" x="429.73" y="22.32" width="64.25" height="4.95" rx="2.47"></rect>
                            <path d="M24.19,23.88 L28.69,23.88 C29.1254901,23.9983495 29.4277501,24.3937149 29.4277501,24.845 C29.4277501,25.2962851 29.1254901,25.6916505 28.69,25.81 L24.19,25.81 L24.19,30.3 C24.0655556,30.7266667 23.6744444,31.02 23.23,31.02 C22.7855556,31.02 22.3944444,30.7266667 22.27,30.3 L22.27,25.81 L17.78,25.81 C17.3734776,25.9204772 16.9413153,25.7643414 16.6992781,25.4195463 C16.4572408,25.0747513 16.4572408,24.6152487 16.6992781,24.2704537 C16.9413153,23.9256586 17.3734776,23.7695228 17.78,23.88 L22.27,23.88 L22.27,19.39 C22.3944444,18.9633333 22.7855556,18.67 23.23,18.67 C23.6744444,18.67 24.0655556,18.9633333 24.19,19.39 L24.19,23.88 Z" id="Path" fill="#FFFFFF"></path>
                        </g>
                        <path d="M380.6,60.4 C378.009785,60.4 375.91,58.3002155 375.91,55.71 C375.91,53.1197845 378.009785,51.02 380.6,51.02 C383.190215,51.02 385.29,53.1197845 385.29,55.71 C385.2845,58.2979337 383.187934,60.3944996 380.6,60.4 L380.6,60.4 Z M380.6,52.84 C379.014943,52.84 377.73,54.1249428 377.73,55.71 C377.73,57.2950572 379.014943,58.58 380.6,58.58 C382.185057,58.58 383.47,57.2950572 383.47,55.71 C383.464514,54.1272208 382.182779,52.8454863 380.6,52.84 L380.6,52.84 Z" id="Shape" fill="#A7ACC6" fill-rule="nonzero"></path>
                        <path d="M383.7,63.15 C383.353809,63.1528838 383.035969,62.9590791 382.88,62.65 L381.51,59.9 C381.399776,59.684323 381.381136,59.4333222 381.458294,59.2037301 C381.535452,58.974138 381.701894,58.7853367 381.92,58.68 C382.370494,58.4621263 382.912516,58.6442812 383.14,59.09 L384.51,61.84 C384.727874,62.2904945 384.545719,62.8325161 384.1,63.06 C383.974314,63.1173047 383.838118,63.1479487 383.7,63.15 Z" id="Path" fill="#A7ACC6"></path>
                        <rect id="Rectangle" fill="#E7EBF1" x="395.16" y="55.61" width="44.25" height="3.3" rx="1.65"></rect>
                        <path d="M138.31,325.73 C119.808461,325.73 104.81,340.728461 104.81,359.23 C104.81,377.731539 119.808461,392.73 138.31,392.73 C156.811539,392.73 171.81,377.731539 171.81,359.23 C171.81,340.728461 156.811539,325.73 138.31,325.73 Z M138.31,379.55 C127.087574,379.55 117.99,370.452426 117.99,359.23 C117.99,348.007574 127.087574,338.91 138.31,338.91 C149.532426,338.91 158.63,348.007574 158.63,359.23 C158.63,370.452426 149.532426,379.55 138.31,379.55 L138.31,379.55 Z" id="Shape" fill="#6A84ED" fill-rule="nonzero" opacity="0.15"></path>
                        <g id="00:00:00" fill-rule="nonzero">
                            <use fill="#000000" xlink:href="#path-3"></use>
                            <use fill="#FFFFFF" xlink:href="#path-3"></use>
                        </g>
                    </g>
                </g>
            </g>
        </g>
    </g>
</svg>