<?xml version="1.0" encoding="UTF-8"?>
<svg width="40px" height="40px" viewBox="0 0 40 40" version="1.1" xmlns="http://www.w3.org/2000/svg" xmlns:xlink="http://www.w3.org/1999/xlink">
    <!-- Generator: Sketch 55.1 (78136) - https://sketchapp.com -->
    <title>Oval</title>
    <desc>Created with Sketch.</desc>
    <g id="Page-1" stroke="none" stroke-width="1" fill="none" fill-rule="evenodd">
        <g id="Oval" fill-rule="nonzero">
            <path d="M29.00095,20 C29.00095,18.8955 28.10545,18 27.00095,18 C25.89595,18 25.00095,18.8955 25.00095,20 C25.00095,21.1045 25.89595,22 27.00095,22 C28.10545,22 29.00095,21.1045 29.00095,20" id="Fill-5" fill="#1D1C39"></path>
            <path d="M22,20 C22,18.8955 21.1045,18 20,18 C18.8955,18 18,18.8955 18,20 C18,21.1045 18.8955,22 20,22 C21.1045,22 22,21.1045 22,20" id="Fill-7" fill="#1D1C39"></path>
            <path d="M14.999,20 C14.999,18.8955 14.1035,18 12.999,18 C11.8945,18 10.999,18.8955 10.999,20 C10.999,21.1045 11.8945,22 12.999,22 C14.1035,22 14.999,21.1045 14.999,20" id="Fill-9" fill="#1D1C39"></path>
            <path d="M20,0 C8.972,0 0,8.972 0,20 C0,21.6985 0.214,23.3865 0.635,25.016 C0.9115,26.0865 2.003,26.7245 3.072,26.452 C4.141,26.1755 4.784,25.0845 4.508,24.015 C4.171,22.7125 4,21.3615 4,20 C4,11.1775 11.1775,4 20,4 C28.8225,4 36,11.1775 36,20 C36,28.8225 28.8225,36 20,36 C18.5805,36 17.174,35.8145 15.819,35.4485 C14.7505,35.1585 13.655,35.792 13.3665,36.858 C13.0785,37.9245 13.7095,39.0225 14.776,39.31 C16.4705,39.768 18.2285,40 20,40 C31.028,40 40,31.028 40,20 C40,8.972 31.028,0 20,0" id="Fill-11" fill="#1D1C39"></path>
            <path d="M7.22165,29.02635 C5.15415,29.02635 3.47215,30.70835 3.47215,32.77635 C3.47215,34.84435 5.15415,36.52685 7.22165,36.52685 C9.28965,36.52685 10.97215,34.84435 10.97215,32.77635 C10.97215,30.70835 9.28965,29.02635 7.22165,29.02635" id="Fill-13" fill="#FF22B1"></path>
        </g>
    </g>
</svg>