<?xml version="1.0" encoding="UTF-8"?>
<svg width="39px" height="38px" viewBox="0 0 39 38" version="1.1" xmlns="http://www.w3.org/2000/svg" xmlns:xlink="http://www.w3.org/1999/xlink">
    <!-- Generator: Sketch 55.1 (78136) - https://sketchapp.com -->
    <title>Oval</title>
    <desc>Created with Sketch.</desc>
    <g id="Page-1" stroke="none" stroke-width="1" fill="none" fill-rule="evenodd">
        <g id="Oval" fill-rule="nonzero">
            <path d="M34,13 C31.2,13 29,15.2 29,18 C29,20.8 31.2,23 34,23 C36.8,23 39,20.8 39,18 C39,15.2 36.6,13 34,13 Z" id="Path" fill="#FF22B1"></path>
            <path d="M25.843949,23.7053292 L15.7165605,33.6739812 C14.7611465,34.6144201 14.7611465,36.30721 15.7165605,37.2476489 C16.2898089,37.8119122 16.8630573,38 17.4363057,38 C18.0095541,38 18.7738854,37.8119122 19.156051,37.2476489 L29.2834395,27.2789969 C30.2388535,26.338558 30.2388535,24.645768 29.2834395,23.7053292 C28.5191083,22.7648903 26.9904459,22.7648903 25.843949,23.7053292 Z" id="Path" fill="#1D1C39"></path>
            <path d="M3.72277228,11 C4.31683168,11 5.10891089,10.8029557 5.5049505,10.2118227 L10.2574257,5.48275862 C11.2475248,4.49753695 11.2475248,2.72413793 10.2574257,1.73891626 C9.26732673,0.753694581 7.48514851,0.753694581 6.4950495,1.73891626 L1.74257426,6.4679803 C0.752475248,7.45320197 0.752475248,9.22660099 1.74257426,10.2118227 C2.33663366,10.8029557 3.12871287,11 3.72277228,11 Z" id="Path" fill="#1D1C39"></path>
            <path d="M25.1630366,0.718232044 C24.2080826,-0.239410681 22.4891655,-0.239410681 21.5342116,0.718232044 L0.716215463,21.5948435 C-0.238738488,22.5524862 -0.238738488,24.2762431 0.716215463,25.2338858 C1.28918783,25.8084715 1.8621602,26 2.43513257,26 C3.00810494,26 3.7720681,25.8084715 4.15404968,25.2338858 L24.9720458,4.3572744 C26.3089813,3.39963168 26.3089813,1.67587477 25.1630366,0.718232044 Z" id="Path" fill="#1D1C39"></path>
            <path d="M34.3160772,4.70422535 C33.3749511,3.76525822 31.6809242,3.76525822 30.7397981,4.70422535 L5.70584456,29.6807512 C4.76471848,30.6197183 4.76471848,32.3098592 5.70584456,33.2488263 C6.2705202,33.8122066 6.83519584,34 7.39987149,34 C7.96454713,34 8.71744799,33.8122066 9.09389842,33.2488263 L34.127852,8.27230047 C35.2572033,7.33333333 35.2572033,5.83098592 34.3160772,4.70422535 Z" id="Path" fill="#1D1C39"></path>
        </g>
    </g>
</svg>