<?xml version="1.0" encoding="UTF-8"?>
<svg width="40px" height="40px" viewBox="0 0 40 40" version="1.1" xmlns="http://www.w3.org/2000/svg" xmlns:xlink="http://www.w3.org/1999/xlink">
    <!-- Generator: Sketch 55.1 (78136) - https://sketchapp.com -->
    <title>Oval</title>
    <desc>Created with Sketch.</desc>
    <g id="Page-1" stroke="none" stroke-width="1" fill="none" fill-rule="evenodd">
        <g id="Oval" fill-rule="nonzero">
            <path d="M36.4922,32.74365 C36.4922,30.67215 34.8137,28.99365 32.7422,28.99365 C30.6712,28.99365 28.9922,30.67215 28.9922,32.74365 C28.9922,34.81465 30.6712,36.49365 32.7422,36.49365 C34.8137,36.49365 36.4922,34.81465 36.4922,32.74365" id="Fill-5" fill="#FF22B1"></path>
            <path d="M16.2495,20.0005 C16.2495,22.072 17.928,23.7505 19.9995,23.7505 C22.0705,23.7505 23.7495,22.072 23.7495,20.0005 C23.7495,17.9295 22.0705,16.2505 19.9995,16.2505 C17.928,16.2505 16.2495,17.9295 16.2495,20.0005" id="Fill-7" fill="#1D1C39"></path>
            <path d="M30.8291,16.14455 C30.8286,16.14355 30.8281,16.14305 30.8281,16.14255 C30.2491,14.51205 29.3426,13.07255 28.1336,11.86405 C27.3536,11.08305 26.0861,11.08305 25.3056,11.86405 C24.5246,12.64505 24.5246,13.91155 25.3056,14.69255 C26.0906,15.47805 26.6806,16.41655 27.0591,17.48255 C27.0596,17.48255 27.0596,17.48305 27.0596,17.48355 C27.2046,17.89105 27.3076,18.26555 27.3746,18.62905 C27.8236,21.06455 27.0501,23.56005 25.3056,25.30455 C23.5551,27.05455 21.0511,27.82655 18.6146,27.37205 L18.6141,27.37205 C18.6136,27.37205 18.6131,27.37155 18.6126,27.37155 C18.2626,27.30655 17.8951,27.20505 17.4891,27.06105 C16.4206,26.68205 15.4796,26.09155 14.6931,25.30505 C11.9296,22.54155 11.7681,18.06155 14.3241,15.10405 L14.3251,15.10305 L14.3656,15.05605 C14.4721,14.93255 14.5781,14.80805 14.6911,14.69505 C14.8041,14.58155 14.9241,14.48005 15.0436,14.37705 L15.0976,14.33005 C15.0976,14.32955 15.0981,14.32955 15.0981,14.32955 C16.4576,13.15205 18.1991,12.50205 20.0026,12.49955 C21.1076,12.49805 22.0016,11.60155 22.0001,10.49705 C21.9986,9.39305 21.1036,8.49955 20.0001,8.49955 L19.9976,8.49955 C17.2341,8.50305 14.5641,9.50005 12.4791,11.30605 L12.4786,11.30655 L12.4261,11.35205 C12.2361,11.51605 12.0476,11.68155 11.8621,11.86605 C11.6776,12.05155 11.5076,12.24555 11.3396,12.44055 L11.3006,12.48505 C11.2996,12.48605 11.2991,12.48755 11.2981,12.48855 C7.3781,17.02355 7.6261,23.89555 11.8646,28.13355 C13.0756,29.34405 14.5186,30.25205 16.1531,30.83155 C16.7586,31.04605 17.3241,31.20055 17.8821,31.30405 C17.8836,31.30455 17.8851,31.30405 17.8866,31.30455 C18.5906,31.43555 19.2981,31.50055 20.0001,31.50055 C23.0246,31.50005 25.9576,30.30955 28.1336,28.13355 C30.8096,25.45755 31.9961,21.63355 31.3081,17.90355 C31.2021,17.32905 31.0456,16.75405 30.8291,16.14455" id="Fill-9" fill="#1D1C39"></path>
            <path d="M20,0 C8.972,0 0,8.972 0,20 C0,31.028 8.972,40 20,40 C21.6985,40 23.3865,39.786 25.016,39.365 C26.0855,39.0885 26.7285,37.9975 26.452,36.928 C26.1755,35.858 25.0825,35.2185 24.015,35.492 C22.7125,35.829 21.3615,36 20,36 C11.1775,36 4,28.8225 4,20 C4,11.1775 11.1775,4 20,4 C28.8225,4 36,11.1775 36,20 C36,21.4195 35.8145,22.826 35.4485,24.181 C35.1605,25.2475 35.7915,26.3455 36.858,26.6335 C37.927,26.9235 39.0225,26.29 39.31,25.224 C39.768,23.5295 40,21.7715 40,20 C40,8.972 31.028,0 20,0" id="Fill-11" fill="#1D1C39"></path>
        </g>
    </g>
</svg>