<?xml version="1.0" encoding="UTF-8"?>
<svg width="22px" height="22px" viewBox="0 0 22 22" version="1.1" xmlns="http://www.w3.org/2000/svg" xmlns:xlink="http://www.w3.org/1999/xlink">
    <!-- Generator: Sketch 55.1 (78136) - https://sketchapp.com -->
    <title>Oval</title>
    <desc>Created with Sketch.</desc>
    <g id="Page-1" stroke="none" stroke-width="1" fill="none" fill-rule="evenodd">
        <g id="Oval" fill="#FFFFFF" fill-rule="nonzero">
            <path d="M19.25,19.9375 L2.75,19.9375 C2.3705,19.9375 2.0625,19.6295 2.0625,19.25 L2.0625,8.9375 L4.8125,8.9375 C4.4543125,9.453125 4.3333125,10.4149375 4.3333125,11.0254375 C4.3333125,14.707 7.335625,17.7024375 11.0254375,17.7024375 C14.7159375,17.7024375 17.71825,14.707 17.71825,11.0254375 C17.71825,10.4149375 17.631625,9.4675625 17.1875,8.9375 L19.9375,8.9375 L19.9375,19.25 C19.9375,19.6295 19.6295,19.9375 19.25,19.9375 M11.0254375,6.804875 C13.36225,6.804875 15.2563125,8.6948125 15.2563125,11.0254375 C15.2563125,13.35675 13.36225,15.2466875 11.0254375,15.2466875 C8.6893125,15.2466875 6.79525,13.35675 6.79525,11.0254375 C6.79525,8.6948125 8.6893125,6.804875 11.0254375,6.804875 M16.5,2.75 L18.5625,2.75 C18.942,2.75 19.25,3.058 19.25,3.4375 L19.25,5.5 C19.25,5.8795 18.942,6.1875 18.5625,6.1875 L16.5,6.1875 C16.1205,6.1875 15.8125,5.8795 15.8125,5.5 L15.8125,3.4375 C15.8125,3.058 16.1205,2.75 16.5,2.75 M19.38475,0 L2.61525,0 C1.1708125,0 0,1.1680625 0,2.6090625 L0,19.3909375 C0,20.8319375 1.1708125,22 2.61525,22 L19.38475,22 C20.8291875,22 22,20.8319375 22,19.3909375 L22,2.6090625 C22,1.1680625 20.8291875,0 19.38475,0" id="Path"></path>
        </g>
    </g>
</svg>