<?xml version="1.0" encoding="UTF-8"?>
<svg width="26px" height="25px" viewBox="0 0 26 25" version="1.1" xmlns="http://www.w3.org/2000/svg" xmlns:xlink="http://www.w3.org/1999/xlink">
    <!-- Generator: Sketch 55.1 (78136) - https://sketchapp.com -->
    <title>Oval</title>
    <desc>Created with Sketch.</desc>
    <g id="Page-1" stroke="none" stroke-width="1" fill="none" fill-rule="evenodd">
        <g id="Oval" fill="#727491" fill-rule="nonzero">
            <path d="M18.5309,0 C20.685898,0 22.8408959,0 24.9958938,0 C24.9958938,0.5 24.9958938,0.989361702 24.9958938,1.4893617 C24.4441311,1.5106383 23.8923683,1.57446809 23.382248,1.80851064 C22.8721277,2.04255319 22.4452924,2.46808511 22.2266694,3 C19.6031937,9.29787234 16.9901286,15.5851064 14.3770635,21.8829787 C14.335421,21.9893617 14.2937785,22.0957447 14.2417254,22.1914894 C13.3047698,22.1808511 12.3678142,22.1914894 11.4308586,22.1914894 C11.0144338,21.3510638 10.6084197,20.5106383 10.191995,19.6702128 C9.71310659,20.9787234 9.23421817,22.287234 8.75532974,23.5957447 C11.8472833,23.5957447 14.9392368,23.5957447 18.0311904,23.5957447 C18.5933637,23.606383 19.1763584,23.5744681 19.7072999,23.3510638 C20.5922024,22.9893617 21.2897138,22.287234 21.8622978,21.5319149 C22.5493986,20.6170213 23.0699295,19.5851064 23.5384073,18.5319149 C24.0589382,18.5319149 24.5794691,18.5319149 25.1,18.5319149 C24.1109913,20.6914894 23.111572,22.8510638 22.1225633,25 C15.0017005,25 7.88083783,25 0.749564496,25 C0.926545002,24.5425532 1.09311489,24.0744681 1.2700954,23.6170213 C1.28050601,23.5744681 1.34296972,23.5851064 1.37420158,23.5744681 C2.25910411,23.5638298 3.15441725,23.5319149 4.02890917,23.3404255 C4.48697636,23.2340426 4.95545417,23.0851064 5.29900456,22.7553191 C5.48639569,22.5744681 5.53844878,22.3085106 5.60091248,22.0744681 C6.44417254,19.7765957 7.2874326,17.4787234 8.13069266,15.1702128 C6.35047698,11.2978723 4.5702613,7.42553191 2.79004562,3.55319149 C2.64429697,3.21276596 2.45690585,2.88297872 2.15499793,2.65957447 C1.54077146,2.19148936 0.739153878,2.12765957 0,2.09574468 C0,1.54255319 0,0.989361702 0,0.425531915 C2.49854832,0.425531915 4.99709664,0.425531915 7.50605558,0.425531915 C7.50605558,0.978723404 7.50605558,1.53191489 7.50605558,2.09574468 C7.18332642,2.11702128 6.82936541,2.10638298 6.5378681,2.27659574 C6.39211945,2.35106383 6.30883451,2.5212766 6.34006636,2.69148936 C6.38170883,2.95744681 6.58992119,3.14893617 6.69402737,3.38297872 C7.74549979,5.71276596 8.80738283,8.03191489 9.86926586,10.3510638 C10.4002074,8.82978723 10.9311489,7.31914894 11.4620904,5.79787234 C11.5453754,5.58510638 11.5661966,5.34042553 11.4829117,5.12765957 C11.4100373,4.95744681 11.2538781,4.86170213 11.0977188,4.78723404 C10.7958109,4.65957447 10.4626711,4.65957447 10.1399419,4.63829787 C10.3065118,4.17021277 10.4730817,3.70212766 10.6396516,3.23404255 C10.6812941,3.21276596 10.7333472,3.22340426 10.7749896,3.22340426 C13.3151804,3.22340426 15.8553712,3.22340426 18.3851514,3.22340426 C18.2081709,3.69148936 18.0311904,4.15957447 17.8646205,4.63829787 C17.250394,4.67021277 16.6257569,4.68085106 16.053173,4.92553191 C15.7929075,5.04255319 15.5430527,5.21276596 15.3868934,5.45744681 C15.2827872,5.63829787 15.2099129,5.84042553 15.1370386,6.04255319 C14.0751555,9 13.0028619,11.9468085 11.9618001,14.9042553 C12.5447947,16.2446809 13.1486105,17.5744681 13.7420158,18.9148936 C15.8970137,13.7234043 18.041601,8.53191489 20.1965989,3.34042553 C20.3423476,3.03191489 20.5817918,2.74468085 20.5922024,2.38297872 C20.6130236,2.10638298 20.4048113,1.86170213 20.1653671,1.74468085 C19.6552468,1.5 19.0826628,1.4893617 18.5309,1.46808511 C18.5309,0.989361702 18.5309,0.489361702 18.5309,0 Z" id="path5"></path>
        </g>
    </g>
</svg>