<?xml version="1.0" encoding="UTF-8"?>
<svg version="1.1" viewBox="0 0 73 19" xmlns="http://www.w3.org/2000/svg">
<title>paypal</title>
<desc>Created with Sketch.</desc>
<g fill="none" fill-rule="evenodd">
<g fill="#727491" fill-rule="nonzero">
<path d="m8.9387 0h-5.7938c-0.39648 0-0.73365 0.28636-0.7955 0.67548l-2.3433 14.77c-0.046595 0.29141 0.18045 0.55419 0.47781 0.55419h2.766c0.39648 0 0.73365-0.28636 0.7955-0.67632l0.63199-3.9838c0.060996-0.38996 0.39902-0.67632 0.79465-0.67632h1.8341c3.8165 0 6.0192-1.8361 6.5944-5.4745 0.25924-1.5918 0.011013-2.8426-0.73874-3.7185-0.82345-0.96184-2.284-1.4705-4.2232-1.4705zm0.66842 5.3945c-0.31684 2.0669-1.9053 2.0669-3.4412 2.0669h-0.87428l0.61335-3.86c0.036428-0.2333 0.23975-0.40512 0.47696-0.40512h0.40071c1.0463 0 2.0332 0 2.5432 0.59294 0.30414 0.35374 0.39732 0.8793 0.28126 1.6053z"/>
<path d="m25.54 5.2551h-2.6513c-0.22586 0-0.42096 0.16894-0.45577 0.39833l-0.11738 0.75856-0.18539-0.27494c-0.57397-0.85214-1.8539-1.137-3.1313-1.137-2.9297 0-5.432 2.2699-5.9194 5.454-0.25339 1.5883 0.10686 3.1071 0.98764 4.1663 0.80793 0.97388 1.964 1.3797 3.3394 1.3797 2.3606 0 3.6697-1.5527 3.6697-1.5527l-0.11819 0.75359c-0.044525 0.28819 0.17243 0.54656 0.45496 0.54656h2.3882c0.37968 0 0.70026-0.28156 0.76016-0.66499l1.4329-9.2825c0.045334-0.2857-0.17081-0.54491-0.45415-0.54491zm-3.6956 5.2785c-0.25582 1.5494-1.458 2.5896-2.9913 2.5896-0.76988 0-1.3851-0.25258-1.7802-0.73124-0.39182-0.47534-0.54078-1.1519-0.41611-1.9055 0.23882-1.5362 1.4612-2.6103 2.971-2.6103 0.75288 0 1.3649 0.25589 1.768 0.73869 0.40396 0.48777 0.56425 1.1685 0.44849 1.9188z"/>
<path d="m40.531 5h-2.7028c-0.25787 0-0.50015 0.1277-0.64633 0.34134l-3.7277 5.473-1.5801-5.2593c-0.099372-0.32907-0.40406-0.55499-0.74899-0.55499h-2.6559c-0.32275 0-0.54696 0.31433-0.4443 0.6172l2.9771 8.7079-2.7988 3.9381c-0.2201 0.31024 0.0016425 0.73671 0.38188 0.73671h2.6995c0.25623 0 0.49604-0.12442 0.6414-0.33398l8.9895-12.933c0.21517-0.30942-0.0057488-0.73262-0.38435-0.73262z"/>
<path d="m48.939 0h-5.7949c-0.39565 0-0.73284 0.28636-0.79468 0.67548l-2.3434 14.77c-0.046597 0.29141 0.18046 0.55419 0.47613 0.55419h2.9737c0.27619 0 0.51256-0.20045 0.55577-0.47334l0.66506-4.1868c0.060999-0.38996 0.39904-0.67632 0.79468-0.67632h1.8334c3.8175 0 6.0194-1.8361 6.5955-5.4745 0.26009-1.5918 0.010166-2.8426-0.73962-3.7185-0.82264-0.96184-2.2824-1.4705-4.2217-1.4705zm0.66845 5.3945c-0.31601 2.0669-1.9045 2.0669-3.4414 2.0669h-0.87348l0.61423-3.86c0.03643-0.2333 0.23807-0.40512 0.47613-0.40512h0.40073c1.0455 0 2.0333 0 2.5433 0.59294 0.30415 0.35374 0.3965 0.8793 0.28043 1.6053z"/>
<path d="m65.537 5.2551h-2.6498c-0.22749 0-0.42098 0.16894-0.45499 0.39833l-0.11739 0.75856-0.1862-0.27494c-0.57399-0.85214-1.8531-1.137-3.1307-1.137-2.9299 0-5.4315 2.2699-5.9189 5.454-0.25259 1.5883 0.10606 3.1071 0.98688 4.1663 0.80958 0.97388 1.9641 1.3797 3.3395 1.3797 2.3607 0 3.6698-1.5527 3.6698-1.5527l-0.1182 0.75359c-0.044527 0.28819 0.17244 0.54656 0.45661 0.54656h2.3875c0.37808 0 0.70029-0.28156 0.75939-0.66499l1.4338-9.2825c0.043718-0.2857-0.17325-0.54491-0.45741-0.54491zm-3.6958 5.2785c-0.25421 1.5494-1.4581 2.5896-2.9914 2.5896-0.7683 0-1.3852-0.25258-1.7803-0.73124-0.39184-0.47534-0.53918-1.1519-0.41613-1.9055 0.24045-1.5362 1.4613-2.6103 2.9712-2.6103 0.75291 0 1.365 0.25589 1.7681 0.73869 0.4056 0.48777 0.5659 1.1685 0.44851 1.9188z"/>
<path d="m69.376 0.40594l-2.3703 15.04c-0.046444 0.2914 0.17986 0.55416 0.47457 0.55416h2.383c0.39604 0 0.73212-0.28635 0.79292-0.67628l2.3374-14.769c0.046444-0.2914-0.17986-0.55501-0.47457-0.55501h-2.6684c-0.2356 8.4219e-4 -0.43826 0.17265-0.47457 0.40594z"/>
</g>
</g>
</svg>
