<?xml version="1.0" encoding="UTF-8"?>
<svg width="28px" height="28px" viewBox="0 0 28 28" version="1.1" xmlns="http://www.w3.org/2000/svg" xmlns:xlink="http://www.w3.org/1999/xlink">
    <!-- Generator: Sketch 55.1 (78136) - https://sketchapp.com -->
    <title>Oval</title>
    <desc>Created with Sketch.</desc>
    <g id="Page-1" stroke="none" stroke-width="1" fill="none" fill-rule="evenodd">
        <g id="Oval" fill="#000000" fill-rule="nonzero">
            <path d="M12.4444444,7.77777778 L12.4444444,12.4444444 L7.77777778,12.4444444 C3.48222972,12.4444444 0,15.9266742 0,20.2222222 C0,24.5177703 3.48222972,28 7.77777778,28 C12.0733258,28 15.5555556,24.5177703 15.5555556,20.2222222 L15.5555556,15.5555556 L20.2222222,15.5555556 C24.5177703,15.5555556 28,12.0733258 28,7.77777778 C28,3.48222972 24.5177703,1.42108547e-14 20.2222222,1.42108547e-14 C15.9266742,1.42108547e-14 12.4444444,3.48222972 12.4444444,7.77777778 Z M12.4444444,20.2222222 C12.4444444,22.7995511 10.3551066,24.8888889 7.77777778,24.8888889 C5.20044895,24.8888889 3.11111111,22.7995511 3.11111111,20.2222222 C3.11111111,17.6448934 5.20044895,15.5555556 7.77777778,15.5555556 L12.4444444,15.5555556 L12.4444444,20.2222222 Z M20.2222222,12.4444444 L15.5555556,12.4444444 L15.5555556,7.77777778 C15.5555556,5.8902873 16.6925524,4.18865129 18.4363662,3.46633996 C20.18018,2.74402863 22.1873966,3.14328882 23.5220539,4.47794613 C24.8567112,5.81260345 25.2559714,7.81981998 24.53366,9.5636338 C23.8113487,11.3074476 22.1097127,12.4444444 20.2222222,12.4444444 Z" id="Shape"></path>
            <path d="M24.08,21.28 C22.5336027,21.28 21.28,22.5336027 21.28,24.08 C21.28,25.6263973 22.5336027,26.88 24.08,26.88 C25.6263973,26.88 26.88,25.6263973 26.88,24.08 C26.88,22.5336027 25.6263973,21.28 24.08,21.28 Z" id="Path"></path>
        </g>
    </g>
</svg>