<?xml version="1.0" encoding="UTF-8"?>
<svg width="83px" height="26px" viewBox="0 0 83 26" version="1.1" xmlns="http://www.w3.org/2000/svg" xmlns:xlink="http://www.w3.org/1999/xlink">
    <!-- Generator: Sketch 55.1 (78136) - https://sketchapp.com -->
    <title>Oval</title>
    <desc>Created with Sketch.</desc>
    <g id="Page-1" stroke="none" stroke-width="1" fill="none" fill-rule="evenodd">
        <g id="Oval" fill="#727491" fill-rule="nonzero">
            <path d="M12.4402306,0.522045277 C5.61746291,0.522045277 0.086254626,6.05310604 0.086254626,12.8758737 C0.086254626,19.6989365 5.61746291,25.2295547 12.4402306,25.2295547 C19.2637359,25.2295547 24.7943541,19.6989365 24.7943541,12.8758737 C24.7943541,6.05354861 19.2637359,0.522635367 12.4400831,0.522635367 L12.4402306,0.522045277 Z M18.1056844,18.3398118 C17.8844006,18.7027171 17.4093782,18.8177846 17.0464729,18.5950257 C14.1458857,16.8232806 10.494409,16.4220194 6.19412833,17.4045192 C5.77973766,17.4989336 5.36667468,17.239294 5.27226029,16.8247558 C5.17740332,16.4102176 5.43601025,15.9971546 5.85143359,15.9027402 C10.5574011,14.8275963 14.594059,15.2905219 17.8504705,17.2806003 C18.2133758,17.5033593 18.3284433,17.9769064 18.1056844,18.3398118 Z M19.6177899,14.9760039 C19.3389724,15.429193 18.745932,15.5722898 18.2930379,15.2934723 C14.9723067,13.2523511 9.91036741,12.6612285 5.98258108,13.8535053 C5.47318592,14.0073713 4.93517139,13.7202925 4.78056782,13.2117825 C4.62714443,12.7023873 4.91437072,12.1654054 5.42288075,12.0105068 C9.90948228,10.6491693 15.4871602,11.3085948 19.3006166,13.6519896 C19.7535106,13.9308071 19.8966074,14.5238475 19.6177899,14.9761515 L19.6177899,14.9760039 Z M19.7476097,11.4732299 C15.7659777,9.10829684 9.19680112,8.89084869 5.39529404,10.0446221 C4.78484597,10.2297628 4.13928755,9.88515028 3.95429435,9.27470221 C3.76930114,8.66395909 4.11361864,8.01884324 4.72450927,7.83325995 C9.08837209,6.50850797 16.3427906,6.7644595 20.9269045,9.48580689 C21.4771634,9.81168408 21.6571408,10.5208247 21.3311161,11.0691658 C21.0065666,11.6182445 20.2955082,11.7992546 19.7481998,11.4732299 L19.7476097,11.4732299 Z M33.6973365,11.926419 C31.5641613,11.4177614 31.1850284,11.060757 31.1850284,10.3106051 C31.1850284,9.60190709 31.8518301,9.12496688 32.8446565,9.12496688 C33.8065031,9.12496688 34.7594984,9.4871346 35.7597009,10.2327133 C35.7892054,10.2552842 35.8275613,10.2642831 35.8644419,10.2583822 C35.9027977,10.2527763 35.9352527,10.2322707 35.957381,10.2014385 L36.9988898,8.73329467 C37.0416714,8.67281044 37.0298696,8.58946024 36.9723358,8.5432857 C35.7818293,7.58837261 34.4423251,7.12411933 32.8756362,7.12411933 C30.5728101,7.12411933 28.9633397,8.50625755 28.9633397,10.4837965 C28.9633397,12.6044324 30.3515264,13.3553218 32.7502421,13.9349377 C34.7904781,14.4050919 35.1356808,14.7989769 35.1356808,15.5029543 C35.1356808,16.2833482 34.4393746,16.7686972 33.3182037,16.7686972 C32.0731138,16.7686972 31.0566839,16.3482581 29.9207607,15.3657584 C29.8927314,15.3406795 29.8543756,15.330353 29.8189702,15.3318282 C29.7806143,15.3347786 29.7466842,15.3524813 29.7230806,15.3805106 L28.5547024,16.7701725 C28.50602,16.8291815 28.5119209,16.9147445 28.5679795,16.9649022 C29.889781,18.1450821 31.5154788,18.767627 33.2709965,18.767627 C35.7523248,18.767627 37.3559081,17.4118953 37.3559081,15.3126503 C37.3603199,13.5413477 36.2996332,12.5603231 33.7017622,11.9283368 L33.6973365,11.926419 Z M42.9706003,9.82274826 C41.8951613,9.82274826 41.0129768,10.2464329 40.2842157,11.1146027 L40.2842157,10.1374137 C40.2842157,10.0602595 40.2222563,9.99741489 40.1455446,9.99741489 L38.2351283,9.99741489 C38.1584166,9.99741489 38.0964572,10.0602595 38.0964572,10.1374137 L38.0964572,20.9952166 C38.0964572,21.0719283 38.1584166,21.135363 38.2351283,21.135363 L40.1455446,21.135363 C40.2222563,21.135363 40.2842157,21.0719283 40.2842157,20.9952166 L40.2842157,17.5682691 C41.0129768,18.3840685 41.8951613,18.7838545 42.9706003,18.7838545 C44.96953,18.7838545 46.9935418,17.2451949 46.9935418,14.3037439 C46.9964891,11.3617029 44.9724805,9.82260074 42.9720755,9.82260074 L42.9706003,9.82274826 Z M44.7718499,14.3037439 C44.7718499,15.8009497 43.8498343,16.8468842 42.5280328,16.8468842 C41.2224588,16.8468842 40.2370085,15.7537425 40.2370085,14.3037439 C40.2370085,12.8535978 41.2224588,11.7607512 42.5280328,11.7607512 C43.827706,11.7606037 44.7718499,12.8298467 44.7718499,14.3035964 L44.7718499,14.3037439 Z M52.1789542,9.82274826 C49.6046867,9.82274826 47.5880543,11.8048605 47.5880543,14.3357563 C47.5880543,16.839508 49.5914097,18.8000819 52.1479745,18.8000819 C54.7310933,18.8000819 56.7536266,16.8247558 56.7536266,14.3037439 C56.7536266,11.7912884 54.7443703,9.82304331 52.1789542,9.82304331 L52.1789542,9.82274826 Z M52.1789542,16.8616364 C50.8099455,16.8616364 49.777288,15.7611186 49.777288,14.3030063 C49.777288,12.8382555 50.7745401,11.775356 52.1479745,11.775356 C53.5258345,11.775356 54.5643929,12.8754312 54.5643929,14.3350187 C54.5643929,15.7994745 53.5612399,16.8616364 52.1789542,16.8616364 Z M62.2503147,9.99741489 L60.1481192,9.99741489 L60.1481192,7.84860229 C60.1481192,7.77159554 60.0861597,7.70875096 60.009448,7.70875096 L58.0990318,7.70875096 C58.0223201,7.70875096 57.9588854,7.77159554 57.9588854,7.84860229 L57.9588854,9.99741489 L57.0412955,9.99741489 C56.9645838,9.99741489 56.9026244,10.0602595 56.9026244,10.1374137 L56.9026244,11.7788965 C56.9026244,11.8559032 56.9645838,11.9188953 57.0412955,11.9188953 L57.9588854,11.9188953 L57.9588854,16.1668055 C57.9588854,17.8824921 58.8130406,18.7528748 60.4992227,18.7528748 C61.1837271,18.7528748 61.7516886,18.6112532 62.2871953,18.3073568 C62.331452,18.2837532 62.3580061,18.236546 62.3580061,18.1863884 L62.3580061,16.62265 C62.3580061,16.5754428 62.3329273,16.5297108 62.291621,16.504632 C62.2503147,16.4780779 62.1986818,16.4766027 62.1559003,16.4987311 C61.7885693,16.6831342 61.4330401,16.7686972 61.0347293,16.7686972 C60.422511,16.7686972 60.1481192,16.4898797 60.1481192,15.8673348 L60.1481192,11.919633 L62.2503147,11.919633 C62.3270264,11.919633 62.3889858,11.8567884 62.3889858,11.7796341 L62.3889858,10.1382989 C62.3919363,10.0611446 62.3299768,9.99830003 62.2517899,9.99830003 L62.2503147,9.99741489 Z M69.5733311,10.0058237 L69.5733311,9.74190594 C69.5733311,8.96549507 69.8713266,8.61925978 70.5381282,8.61925978 C70.936439,8.61925978 71.2565628,8.69833183 71.6150424,8.81782505 C71.6592992,8.83169217 71.7050311,8.82475861 71.7404365,8.79835208 C71.7773172,8.77194556 71.7979703,8.7296066 71.7979703,8.68475977 L71.7979703,7.07528939 C71.7979703,7.01377251 71.7596145,6.95933671 71.6991302,6.94119144 C71.3214727,6.82863178 70.8375989,6.71312167 70.1117882,6.71312167 C68.3488945,6.71312167 67.4150771,7.70653813 67.4150771,9.58494201 L67.4150771,9.98915363 L66.4974872,9.98915363 C66.4207755,9.98915363 66.3573408,10.0519982 66.3573408,10.129005 L66.3573408,11.7788965 C66.3573408,11.8559032 66.4207755,11.9188953 66.4974872,11.9188953 L67.4150771,11.9188953 L67.4150771,18.4696316 C67.4150771,18.5478185 67.4785118,18.6097779 67.5552235,18.6097779 L69.4641645,18.6097779 C69.5423514,18.6097779 69.6043109,18.5478185 69.6043109,18.4696316 L69.6043109,11.9193379 L71.3878578,11.9193379 L74.1199743,18.4696316 C73.8101771,19.1570864 73.5048055,19.2942823 73.0887921,19.2942823 C72.7524408,19.2942823 72.3969116,19.193967 72.0354815,18.9948116 C72.0015513,18.9771089 71.960245,18.9741585 71.9248396,18.9844851 C71.887959,18.9977621 71.8569793,19.0243161 71.8422271,19.0597215 L71.1946033,20.4803631 C71.1636236,20.5482235 71.1901776,20.6264104 71.2550875,20.6618158 C71.9307405,21.0276716 72.5400084,21.1840454 73.2938484,21.1840454 C74.7041634,21.1840454 75.4845574,20.5260951 76.1705369,18.7587757 L79.4838921,10.1970128 C79.5015948,10.1539363 79.4956939,10.1052538 79.4691399,10.0670455 C79.444061,10.0291322 79.4012795,10.0062662 79.3555475,10.0062662 L77.3669444,10.0062662 C77.3064601,10.0062662 77.253352,10.0441795 77.2341741,10.1000905 L75.1968885,15.9174925 L72.9663484,10.096255 C72.9456953,10.0421142 72.8940624,10.0062662 72.8365286,10.0062662 L69.5733311,10.0062662 L69.5733311,10.0058237 Z M65.3276338,9.99741489 L63.4172176,9.99741489 C63.3405059,9.99741489 63.2770712,10.0602595 63.2770712,10.1374137 L63.2770712,18.4696316 C63.2770712,18.5478185 63.3405059,18.6097779 63.4172176,18.6097779 L65.3276338,18.6097779 C65.4043455,18.6097779 65.4677802,18.5478185 65.4677802,18.4696316 L65.4677802,10.1380038 C65.4677802,10.0608496 65.4058208,9.99800498 65.3276338,9.99800498 L65.3276338,9.99741489 Z M64.3834899,6.20328394 C63.6266995,6.20328394 63.0130059,6.81579732 63.0130059,7.57244018 C63.0130059,8.32952561 63.6266995,8.9427766 64.3834899,8.9427766 C65.1402803,8.9427766 65.7524986,8.32952561 65.7524986,7.57244018 C65.7524986,6.81594485 65.138805,6.20328394 64.3834899,6.20328394 Z M81.1154909,12.6765709 C80.3601757,12.6765709 79.771561,12.0695158 79.771561,11.3323459 C79.771561,10.595176 80.3675518,9.98118742 81.122867,9.98118742 C81.8781821,9.98118742 82.4667969,10.5880949 82.4667969,11.3246747 C82.4667969,12.0618446 81.870806,12.6765709 81.1154909,12.6765709 Z M81.122867,10.1148428 C80.4339369,10.1148428 79.9131826,10.6621512 79.9131826,11.3323459 C79.9131826,12.0022456 80.4309865,12.5421779 81.1154909,12.5421779 C81.8044209,12.5421779 82.3251753,11.995312 82.3251753,11.3246747 C82.3251753,10.6547751 81.8073713,10.1148428 81.122867,10.1148428 Z M81.4208624,11.4629033 L81.8014704,11.9951645 L81.4798714,11.9951645 L81.1376192,11.506865 L80.8440495,11.506865 L80.8440495,11.9951645 L80.5755585,11.9951645 L80.5755585,10.5842594 L81.2040043,10.5842594 C81.5329795,10.5842594 81.7483623,10.7519924 81.7483623,11.0343505 C81.7498376,11.2656658 81.6155921,11.4069923 81.4223376,11.4629033 L81.4208624,11.4629033 Z M81.1936778,10.8263438 L80.8440495,10.8263438 L80.8440495,11.2725993 L81.1936778,11.2725993 C81.3677543,11.2725993 81.4724953,11.1871838 81.4724953,11.0492503 C81.4724953,10.9040881 81.3677543,10.8263438 81.1936778,10.8263438 Z" id="Shape"></path>
        </g>
    </g>
</svg>