<?xml version="1.0" encoding="UTF-8"?>
<svg version="1.1" viewBox="0 0 60 25" xmlns="http://www.w3.org/2000/svg">
<title>Oval</title>
<desc>Created with Sketch.</desc>
<g fill="none" fill-rule="evenodd">
<g fill="#727491" fill-rule="nonzero">
<path d="m7.7623 5.3516c-4.2341 0-7.7623 1.7963-7.7623 7.2157 0 4.2933 2.3725 6.997 7.8717 6.997 6.4728 0 6.8877-4.2638 6.8877-4.2638h-3.1364s-0.67246 2.2959-3.9427 2.2959c-2.6635 0-4.5792-1.7993-4.5792-4.3212h11.986v-1.5826c0-2.495-1.5839-6.3411-7.325-6.3411zm-0.10933 2.0226c2.5354 0 4.2638 1.5532 4.2638 3.8812h-8.7463c0-2.4714 2.2561-3.8812 4.4825-3.8812z"/>
<path d="m14.899 0.66814v16.739c0 0.95015-0.067814 2.2843-0.067814 2.2843h2.9914s0.10737-0.95819 0.10737-1.8339c0 0 1.478 2.3122 5.4967 2.3122 4.2318 0 7.1064-2.938 7.1064-7.1474 0-3.9159-2.6403-7.0654-7.0995-7.0654-4.1757 0-5.4733 2.2549-5.4733 2.2549v-7.5437h-3.0612zm7.7623 7.3592c2.8737 0 4.7011 2.1328 4.7011 4.995 0 3.0691-2.1106 5.077-4.6806 5.077-3.0671 0-4.7216-2.3948-4.7216-5.0496 0-2.4738 1.4846-5.0223 4.7011-5.0223z"/>
<path d="m38.205 5.3516c-6.3699 0-6.7784 3.4878-6.7784 4.0452h3.1705s0.16626-2.0362 3.3892-2.0362c2.0943 0 3.7172 0.9586 3.7172 2.8015v0.65597h-3.7172c-4.9348 0-7.5437 1.4436-7.5437 4.3732 0 2.8831 2.4105 4.4517 5.668 4.4517 4.4395 0 5.8696-2.4531 5.8696-2.4531 0 0.97569 0.075224 1.9372 0.075224 1.9372h2.8186s-0.10933-1.1918-0.10933-1.9543v-6.5905c0-4.3213-3.4856-5.2307-6.5597-5.2307zm3.4985 7.4344v0.87463c0 1.1408-0.70393 3.9768-4.848 3.9768-2.2693 0-3.2423-1.1326-3.2423-2.4462 0-2.3898 3.2766-2.4052 8.0903-2.4052z"/>
<polygon points="42.932 6.1322 46.499 6.1322 51.618 16.388 56.725 6.1322 59.956 6.1322 50.653 24.39 47.264 24.39 49.949 19.3"/>
</g>
</g>
</svg>
