<?xml version="1.0" encoding="UTF-8"?>
<svg width="69px" height="19px" viewBox="0 0 69 19" version="1.1" xmlns="http://www.w3.org/2000/svg" xmlns:xlink="http://www.w3.org/1999/xlink">
    <!-- Generator: Sketch 55.1 (78136) - https://sketchapp.com -->
    <title>Oval</title>
    <desc>Created with Sketch.</desc>
    <g id="Page-1" stroke="none" stroke-width="1" fill="none" fill-rule="evenodd">
        <g id="Oval" fill="#727491" fill-rule="nonzero">
            <path d="M62.4873364,18.4179764 C61.6115565,18.3248229 60.2177843,18.0220155 59.7537163,17.8240765 L59.5270526,17.7273992 L59.4961432,16.6130236 C59.4791451,16.0001167 59.4595367,15.1806301 59.4525713,14.7919417 L59.4399037,14.0852361 L59.5757515,14.0206255 C59.6504639,13.9850895 59.8012601,13.951894 59.9108438,13.946857 L60.1100931,13.9376996 L60.2798488,14.3523104 C60.9421241,15.9698543 61.7188397,16.8420069 62.7333381,17.1072661 C63.1203441,17.2084561 63.8459521,17.2093458 64.1324536,17.1089832 C64.9349958,16.8278476 65.3750805,16.2248421 65.3789098,15.4010906 C65.3834322,14.425515 64.8430591,13.9567695 62.8015668,13.1654273 C61.5367802,12.6751592 61.0955796,12.422811 60.5702483,11.8892086 C60.0035522,11.3135884 59.7315567,10.6583613 59.6804934,9.745809 C59.6187877,8.64307804 59.9665917,7.71346112 60.7372562,6.92127546 C61.5128117,6.12406355 62.5196418,5.69198964 63.8911807,5.56778903 C65.0989707,5.4584168 66.952903,5.7126166 67.9242473,6.12077824 L68.10146,6.1952423 L68.1330624,7.18847372 C68.150444,7.73475051 68.1684204,8.46704844 68.1730116,8.81580234 L68.1813583,9.44989954 L67.9433739,9.53758435 C67.5671036,9.67622144 67.5423928,9.65884662 67.3330812,9.10851771 C66.7463786,7.56592126 66.0647161,6.83601012 65.0025707,6.61304768 C64.3552536,6.47716518 63.8145365,6.62324799 63.4215236,7.04019338 C63.1149124,7.36547501 62.9952861,7.65433777 62.9662987,8.13940831 C62.9348978,8.66497424 63.0295479,8.9490522 63.3531425,9.30040021 C63.7519804,9.73345361 64.4054125,10.1072695 65.7070612,10.6470352 C67.301351,11.3081534 68.0620663,11.8694221 68.4756116,12.6897287 C68.7441908,13.2224721 68.8202303,13.6479852 68.7932141,14.4670211 C68.7729373,15.0816089 68.7531175,15.2079423 68.6122165,15.620599 C68.152833,16.9659745 67.1157768,17.8517 65.5137106,18.2669532 C64.9710616,18.4076073 64.8936014,18.4148852 63.8145512,18.4266089 C63.1927265,18.4333649 62.5954798,18.429482 62.4873364,18.4179783 L62.4873364,18.4179764 Z" id="path2995-path"></path>
            <path d="M54.8422104,18.2769296 C54.2329009,18.3749874 53.3228444,18.3665924 52.7052717,18.2572173 C50.2683628,17.8256302 48.5722058,16.1407674 47.9990014,13.5822756 C47.9087606,13.1794758 47.8928439,12.9548875 47.8928439,12.084074 C47.8928439,11.2067678 47.908446,10.9896702 48.0015182,10.5719053 C48.3103218,9.18577538 48.8163101,8.19959409 49.6691204,7.32171285 C50.7387523,6.2206404 52.1214741,5.66955198 53.8145136,5.66955198 C54.5290516,5.66955198 55.071214,5.75694411 55.644325,5.96450048 C57.0842203,6.48597332 58.0940194,7.78229553 58.4764932,9.60027447 C58.5716152,10.0524046 58.6777383,10.914773 58.6777383,11.2355986 L58.6777383,11.3767693 L55.0770537,11.3775156 C53.0848797,11.3779288 51.445794,11.3974743 51.4079291,11.4212685 C51.3523728,11.4561791 51.3461497,11.5731161 51.3748568,12.042462 C51.4432281,13.1602386 51.6724774,14.0300414 52.0949741,14.7746596 C52.404574,15.3203008 53.0240245,15.9269321 53.5409255,16.1906783 C54.3201185,16.5882581 55.1633866,16.7398828 56.0775918,16.6467854 C56.8602553,16.5670844 57.1941678,16.4551249 57.8603166,16.0490466 C58.2787087,15.7939969 58.2716254,15.7936945 58.4354872,16.0736037 C58.4968881,16.1784892 58.3504472,16.3787233 57.9088877,16.7936555 C57.1027817,17.5511457 55.9811918,18.0936318 54.8422104,18.2769291 L54.8422104,18.2769296 Z M54.1995484,10.4196109 L55.0547909,10.3900855 L55.0240045,9.78724486 C54.9154285,7.66144447 54.3912081,6.49974869 53.5409255,6.50067835 C52.61683,6.50168865 51.8783628,7.68062853 51.5713289,9.64509174 C51.5335868,9.88655093 51.5023137,10.1728874 51.501827,10.2813948 L51.5009422,10.4786811 L52.4226192,10.4639086 C52.9295415,10.4557839 53.7291589,10.4358501 54.1995435,10.4196109 L54.1995484,10.4196109 Z" id="Combined-Shape"></path>
            <path d="M19.9918835,18.2133409 C19.6807824,18.285406 19.3480496,18.314607 18.6892467,18.3276619 C18.2026013,18.3373046 17.7491363,18.334993 17.6815466,18.3225244 C16.8916818,18.1768128 16.6743189,18.1267425 16.3789099,18.022456 C15.5433814,17.7274958 14.9607282,17.3559262 14.3621789,16.7363453 C13.276559,15.6125811 12.7167801,14.0086125 12.7167801,12.0216858 C12.7167801,10.1063583 13.3363707,8.47447513 14.5077302,7.30466632 C15.6012564,6.21258785 17.0226253,5.6695515 18.787559,5.6695515 C20.4525239,5.6695515 21.7405431,6.12777031 22.7626523,7.0837097 C24.0217997,8.26134228 24.6729711,10.0877972 24.5975652,12.2304124 C24.5210748,14.4038319 23.6926991,16.1217858 22.1809484,17.2421916 C21.5594092,17.7028343 20.8641138,18.0112923 19.9918835,18.2133409 Z M18.1267761,17.5201116 C18.4521477,17.6665851 19.0476464,17.6584238 19.3842924,17.5028763 C20.3129289,17.0738004 20.8107809,15.8391381 20.9730816,13.5627115 C21.1992582,10.3903724 20.6750373,7.74262403 19.6364249,6.81148616 C19.1687709,6.39222471 18.4414602,6.25498175 17.916649,6.4869655 C17.1509994,6.82540787 16.6592648,7.82730401 16.4264807,9.52314265 C16.260715,10.7307503 16.277895,13.1952843 16.4598046,14.3035469 C16.7467622,16.0518036 17.3193291,17.1566204 18.1267761,17.5201116 Z" id="Combined-Shape"></path>
            <path d="M64.8222513,18.2813032 C66.910732,17.9665516 68.259138,16.8552257 68.6128457,15.1571905 C68.7836385,14.3372487 68.7039319,13.4254783 68.4081596,12.815768 C67.9940588,11.9621405 67.2938596,11.4467856 65.5595929,10.7191895 C64.2715457,10.1788014 63.499436,9.72071676 63.1832295,9.30932298 C62.9219992,8.96945819 62.8370772,8.70813837 62.8405623,8.25487215 C62.845822,7.57120995 63.1069786,7.04759277 63.6055296,6.72111116 C64.0229387,6.44776862 64.545994,6.38108344 65.1549988,6.52356778 C65.8909591,6.69575648 66.4443929,7.14399937 66.9442024,7.97269757 C67.1032568,8.23641442 67.4302776,8.97672489 67.5895188,9.43356178 C67.6142247,9.50444152 67.6426713,9.50742293 67.8143392,9.45712429 C67.9224334,9.42545217 68.0260594,9.38446703 68.0446257,9.36604686 C68.063187,9.34762621 68.0619679,8.64882428 68.0419221,7.8131545 L68.0054581,6.29375424 L67.8271001,6.21881262 C67.5261123,6.09234996 66.7405683,5.88029074 66.2232101,5.78584263 C65.8338889,5.71476875 65.4913888,5.69636615 64.5764807,5.69732668 C63.4844237,5.69855489 63.3952496,5.70564257 62.9442129,5.82707069 C61.6340651,6.17979135 60.6627061,6.91348828 60.1551103,7.93377386 C59.8853416,8.4760156 59.792122,8.89398146 59.7951893,9.54753247 C59.799515,10.4754792 60.0543698,11.1604618 60.6178806,11.7589362 C61.1027466,12.2738872 61.7331097,12.6412808 62.8068609,13.0347403 C63.6518101,13.3443578 64.5240458,13.776661 64.8546256,14.0496689 C65.04892,14.2101207 65.2015742,14.3929185 65.3154198,14.6014509 C65.4773203,14.897995 65.4856769,14.9372207 65.4857703,15.4010887 C65.4857703,15.8479828 65.4727832,15.9162923 65.3298274,16.2157432 C64.9563148,16.9981368 64.2090978,17.386592 63.2303801,17.3071768 C61.9004764,17.199266 60.9642591,16.3265549 60.2019954,14.4842096 C60.0031639,14.0036555 59.9895476,13.9936952 59.6872769,14.1077381 L59.548524,14.1600884 L59.5832331,15.8781306 C59.6140392,17.4029244 59.627218,17.6032282 59.700377,17.6589024 C59.9189496,17.8252316 61.3337852,18.1584678 62.3152999,18.274796 C63.0772195,18.3650978 64.2461221,18.3681319 64.8222612,18.2813032 L64.8222513,18.2813032 Z" id="path2995-path"></path>
            <path d="M31.9859729,17.746673 L31.9859729,18.0107991 L28.3704303,18.0107991 L24.7548878,18.0107991 L24.7697457,17.754706 L24.7846036,17.498613 L25.2211266,17.4140257 C25.4612138,17.3675026 25.7266568,17.2898225 25.8109998,17.2414033 C26.0385872,17.110751 26.2646812,16.7430662 26.35218,16.3613104 C26.5233165,15.6146435 26.5824198,10.1455976 26.4345135,8.74266849 C26.3210755,7.66667609 26.0523858,7.29861179 25.2917206,7.17721391 C24.7383414,7.08889839 24.7600256,7.09957674 24.7600256,6.91538142 C24.7600256,6.82357522 24.77969,6.73640113 24.8037239,6.7216609 C24.8617945,6.68604641 25.2003031,6.61536715 27.6356577,6.13036539 C28.7711637,5.90422886 29.7535351,5.7067328 29.8187048,5.69148526 L29.9371961,5.66376282 L29.9035394,7.00809687 C29.8766476,8.0822337 29.8824716,8.35231873 29.9325169,8.35197728 C29.9669655,8.35172752 30.101146,8.15915431 30.2306964,7.92403695 C31.0110918,6.50771635 32.0945395,5.70286994 33.3153658,5.6325697 C33.7717866,5.60628724 34.125624,5.66184822 34.5336345,5.82386782 C34.7242731,5.89956943 34.7895711,5.94913441 34.7736101,6.00602317 C34.7384399,6.13138001 33.6051027,9.10338414 33.5847786,9.12355257 C33.5746372,9.13361629 33.4043093,9.06299314 33.2062722,8.96661238 C32.5162557,8.63079533 31.6339665,8.50741749 30.9438251,8.65023499 C30.6039456,8.72056986 30.1232982,8.94719224 29.9695403,9.10960452 L29.8476824,9.23832178 L29.8476824,12.0270272 C29.8476824,15.6000154 29.9204742,16.4818288 30.254863,16.959697 C30.485617,17.2894625 30.7263428,17.3769922 31.6050131,17.4506231 L31.9859729,17.4825469 L31.9859729,17.746673 Z M9.32500894,17.7425111 L9.32500894,18.0107991 L4.92553763,18.0107991 L0.526066319,18.0107991 L0.526066319,17.746553 L0.526066319,17.4823074 L0.772924685,17.4297712 C0.908696794,17.4008761 1.17166175,17.3523448 1.35729122,17.3219234 C2.03176212,17.2113902 2.44009716,16.8461556 2.65949068,16.157173 C2.9262468,15.319454 2.97901981,14.4558603 3.01719493,10.3036168 C3.05332369,6.37391089 2.97531492,4.27460042 2.75857042,3.34371963 C2.6190594,2.74454571 2.39750998,2.36412066 2.03726471,2.10515933 C1.79961461,1.93432476 1.58322138,1.87052099 0.993049307,1.79727008 L0.550644371,1.74235982 L0.536009763,1.43770271 L0.521375106,1.1330456 L7.37582194,1.1330456 L14.2302685,1.1330456 L14.2586282,1.87693503 C14.2742259,2.28607422 14.2979919,3.33778217 14.311442,4.21406392 L14.3358966,5.80730275 L13.9881226,5.91212677 C13.7968469,5.9697799 13.6353833,6.01012652 13.629314,6.0017852 C13.6232452,5.99344388 13.5573726,5.81101244 13.4829311,5.59638204 C13.4084896,5.3817518 13.2400788,4.98091734 13.108686,4.70563972 C12.5238463,3.4803587 11.8238438,2.77435836 10.8510194,2.4286288 L10.4310213,2.27936702 L8.62616496,2.26442777 L6.82130865,2.249489 L6.7968761,2.36198704 C6.73206377,2.66040816 6.60202573,9.08279816 6.65907433,9.16780838 C6.68994043,9.2138027 6.93548746,9.21622899 7.75386728,9.17862672 C8.33411872,9.15196524 8.90841095,9.10737334 9.03007231,9.07953334 C9.52516178,8.96624068 9.91450172,8.61756385 10.1909507,8.03989883 C10.3674565,7.67107455 10.5539115,7.08621746 10.5539115,6.9013924 C10.5539115,6.79863907 10.5747149,6.7914831 10.8734262,6.7914831 L11.1929409,6.7914831 L11.1929409,9.62302969 L11.1929409,12.4545758 L10.8928271,12.4400536 L10.5927134,12.4255309 L10.4784722,11.9763168 C10.2192799,10.9571361 9.70164153,10.3015895 9.03007231,10.1420382 C8.78719397,10.0843353 6.70892206,10.0021577 6.66230881,10.048414 C6.61090283,10.0994262 6.69010265,13.3977647 6.76969228,14.5204689 C6.88165514,16.0998369 7.17020344,16.8411425 7.79439354,17.1530156 C7.96983856,17.240676 9.06127464,17.4742231 9.29549168,17.4742231 C9.31172597,17.4742231 9.32500894,17.5949527 9.32500894,17.7425111 Z" id="path2995-path-2"></path>
            <path d="M41.3010546,18.2785222 C40.1044751,18.4566099 38.1912074,18.3158621 36.2717869,17.9085487 L35.7648813,17.8009799 L35.8028126,16.869322 C35.8667834,15.2981007 35.851921,4.65328551 35.7848937,4.03543387 C35.7007788,3.26007182 35.5725738,2.88853246 35.2887401,2.59757706 C35.0570452,2.36006804 34.946093,2.3115806 34.3229489,2.17551225 C34.1416883,2.13593294 34.1275962,2.12053662 34.1168413,1.95033521 C34.107191,1.79761105 34.1229799,1.76352726 34.2130924,1.74255884 C34.2723801,1.72876299 35.3384192,1.53057962 36.5820686,1.30215093 C37.825718,1.07372224 38.9319958,0.86917265 39.0404637,0.847596441 L39.2376775,0.808367371 L39.2191904,3.6535864 C39.2030504,6.13758819 39.2099126,6.49880529 39.2732414,6.49880529 C39.3131375,6.49880529 39.5378414,6.40949173 39.7725829,6.30033022 C40.7145205,5.86230422 41.9534033,5.70665816 42.916273,5.90537566 C44.1998918,6.17028957 45.3304026,7.06990408 45.9913939,8.35243141 C46.4792967,9.2991134 46.671561,10.0622205 46.7165034,11.2304299 C46.8037953,13.4994385 46.1579864,15.3404931 44.8171794,16.6449693 C43.8895949,17.5474194 42.7943005,18.0562813 41.3010546,18.2785222 Z M40.4938406,17.4247167 C40.8509489,17.357511 41.1283751,17.2164803 41.4262336,16.9507313 C42.172755,16.2846844 42.7340209,14.9096494 42.9547667,13.2060051 C43.0446757,12.5121138 43.0325666,10.9309873 42.9329075,10.3518165 C42.6633772,8.78543458 42.0841683,7.75594428 41.2392054,7.34141543 C40.8886973,7.1694599 40.8346462,7.15733036 40.418906,7.15733036 C40.1215691,7.15733036 39.8657819,7.18892054 39.6482917,7.25250284 L39.3227431,7.34767484 L39.2987008,9.13051879 C39.2679031,11.4143057 39.3427772,17.1318374 39.4056306,17.2958882 C39.445741,17.4005795 39.4899024,17.4227762 39.6889163,17.438276 C40.1573725,17.4747607 40.2348587,17.4734553 40.4938406,17.4247167 Z" id="Combined-Shape"></path>
        </g>
    </g>
</svg>