<?xml version="1.0" encoding="UTF-8"?>
<svg width="350px" height="257px" viewBox="0 0 350 257" version="1.1" xmlns="http://www.w3.org/2000/svg" xmlns:xlink="http://www.w3.org/1999/xlink">
    <!-- Generator: Sketch 52.5 (67469) - http://www.bohemiancoding.com/sketch -->
    <title>Custom Preset</title>
    <desc>Created with Sketch.</desc>
    <defs>
        <polygon id="path-1" points="0.000137853168 0.00520869261 57.0154458 0.00520869261 57.0154458 10.1090472 0.000137853168 10.1090472"></polygon>
        <polygon id="path-3" points="0.242961066 0.0242847191 7.26423247 0.0242847191 7.26423247 20.7249799 0.242961066 20.7249799"></polygon>
        <polygon id="path-5" points="0.137917831 0.0242847191 7.15918923 0.0242847191 7.15918923 20.7249799 0.137917831 20.7249799"></polygon>
        <path d="M5.51696341,0.713824039 C2.64643958,7.59043874 2.28715629,8.85904099 0.301274013,19.3301856 L30.7458551,24.7297445 C33.4432867,6.31101385 34.21612,4.80478396 32.5740831,4.43540237 L6.49657176,0.226805001 C6.41517164,0.199042563 6.33143244,0.185867169 6.24909668,0.185867169 C5.93004563,0.185867169 5.62783599,0.386321382 5.51696341,0.713824039" id="path-7"></path>
        <path d="M5.51696341,0.713824039 C2.64643958,7.59043874 2.28715629,8.85904099 0.301274013,19.3301856 L30.7458551,24.7297445 C33.4432867,6.31101385 34.21612,4.80478396 32.5740831,4.43540237 L6.49657176,0.226805001 C6.41517164,0.199042563 6.33143244,0.185867169 6.24909668,0.185867169 C5.93004563,0.185867169 5.62783599,0.386321382 5.51696341,0.713824039" id="path-9"></path>
        <path d="M0.135207087,77.7192735 L10.9459077,83.1188324 L30.5797882,83.1188324 C33.2772198,64.7001018 43.1663121,4.80478396 41.5242752,4.43540237 L15.4467639,0.226805001 C15.3653638,0.199042563 15.2816246,0.185867169 15.1992888,0.185867169 C14.8802377,0.185867169 14.5780281,0.386321382 14.4671555,0.713824039 C11.5966317,7.59043874 2.12108936,67.2481289 0.135207087,77.7192735 Z" id="path-11"></path>
        <path d="M0.603365462,0.128339313 C0.564413694,0.646830137 -0.170768677,49.7253235 0.242481203,68.9828941 C0.251767717,69.4215578 0.592273236,69.8378906 1.21214806,69.8312169 C5.54766037,71.4308381 17.5783395,72.9324081 24.331441,70.6682459 C31.0842845,72.9324081 43.1152216,71.4308381 47.4507339,69.8312169 C48.0700928,69.8378906 48.4526456,69.4205311 48.4201428,68.9828941 C47.1166773,51.3629331 47.8771397,1.13323613 47.8018157,0.128339313" id="path-13"></path>
        <path d="M0.603365462,0.128339313 C0.564413694,0.646830137 -0.170768677,49.7253235 0.242481203,68.9828941 C0.251767717,69.4215578 0.592273236,69.8378906 1.21214806,69.8312169 C5.54766037,71.4308381 17.5783395,72.9324081 24.331441,70.6682459 C31.0842845,72.9324081 43.1152216,71.4308381 47.4507339,69.8312169 C48.0700928,69.8378906 48.4526456,69.4205311 48.4201428,68.9828941 C47.1166773,51.3629331 47.8771397,1.13323613 47.8018157,0.128339313" id="path-15"></path>
        <path d="M0.603365462,0.128339313 C0.564413694,0.646830137 -0.170768677,49.7253235 0.242481203,68.9828941 C0.251767717,69.4215578 0.592273236,69.8378906 1.21214806,69.8312169 C5.54766037,71.4308381 17.5783395,72.9324081 24.331441,70.6682459 C31.0842845,72.9324081 43.1152216,71.4308381 47.4507339,69.8312169 C48.0700928,69.8378906 48.4526456,69.4205311 48.4201428,68.9828941 C47.1166773,51.3629331 47.8771397,1.13323613 47.8018157,0.128339313" id="path-17"></path>
        <polygon id="path-19" points="0.00730904431 0.020814757 36.5997726 0.020814757 36.5997726 33.9484533 0.00730904431 33.9484533"></polygon>
        <path d="M34.2443969,2.03370399 C33.802994,3.95410971 35.4715997,11.7335811 35.1646707,12.6337874 C34.7402053,13.8790384 32.6848589,14.6929835 30.4739949,15.2267728 C29.7982891,13.476057 28.3414029,11.2116365 26.3127459,10.1734124 C24.5094098,9.25106144 14.5480753,9.74133396 13.1597092,11.0628038 C12.8707442,11.3375521 10.8210436,14.5467257 10.8451668,16.3875651 C8.69281437,16.1504112 7.0855432,15.7368725 6.42651839,15.1227444 C4.59982891,13.4209529 4.98502994,9.26805618 5.23806672,5.13601669 C5.36458512,3.07476062 2.80342173,0.935740732 1.57390932,4.8664183 C1.11428571,6.3354334 -1.70171086,25.1694687 1.79615056,31.4863624 C6.15218135,39.3544124 18.9698033,41.2900104 27.7781009,39.8508649 C53.2804106,35.6850934 38.8088109,2.4397753 37.3888794,0.683137083 C37.0539778,0.268825901 36.5802395,0.0254921113 36.0957228,0.0254921113 C35.3471343,0.0254921113 34.5728828,0.605888261 34.2443969,2.03370399" id="path-21"></path>
        <path d="M34.2443969,2.03370399 C33.802994,3.95410971 35.4715997,11.7335811 35.1646707,12.6337874 C34.7402053,13.8790384 32.6848589,14.6929835 30.4739949,15.2267728 C29.7982891,13.476057 28.3414029,11.2116365 26.3127459,10.1734124 C24.5094098,9.25106144 14.5480753,9.74133396 13.1597092,11.0628038 C12.8707442,11.3375521 10.8210436,14.5467257 10.8451668,16.3875651 C8.69281437,16.1504112 7.0855432,15.7368725 6.42651839,15.1227444 C4.59982891,13.4209529 4.98502994,9.26805618 5.23806672,5.13601669 C5.36458512,3.07476062 2.80342173,0.935740732 1.57390932,4.8664183 C1.11428571,6.3354334 -1.70171086,25.1694687 1.79615056,31.4863624 C6.15218135,39.3544124 18.9698033,41.2900104 27.7781009,39.8508649 C53.2804106,35.6850934 38.8088109,2.4397753 37.3888794,0.683137083 C37.0539778,0.268825901 36.5802395,0.0254921113 36.0957228,0.0254921113 C35.3471343,0.0254921113 34.5728828,0.605888261 34.2443969,2.03370399" id="path-23"></path>
        <path d="M34.2443969,2.03370399 C33.802994,3.95410971 35.4715997,11.7335811 35.1646707,12.6337874 C34.7402053,13.8790384 32.6848589,14.6929835 30.4739949,15.2267728 C29.7982891,13.476057 28.3414029,11.2116365 26.3127459,10.1734124 C24.5094098,9.25106144 14.5480753,9.74133396 13.1597092,11.0628038 C12.8707442,11.3375521 10.8210436,14.5467257 10.8451668,16.3875651 C8.69281437,16.1504112 7.0855432,15.7368725 6.42651839,15.1227444 C4.59982891,13.4209529 4.98502994,9.26805618 5.23806672,5.13601669 C5.36458512,3.07476062 2.80342173,0.935740732 1.57390932,4.8664183 C1.11428571,6.3354334 -1.70171086,25.1694687 1.79615056,31.4863624 C6.15218135,39.3544124 18.9698033,41.2900104 27.7781009,39.8508649 C53.2804106,35.6850934 38.8088109,2.4397753 37.3888794,0.683137083 C37.0539778,0.268825901 36.5802395,0.0254921113 36.0957228,0.0254921113 C35.3471343,0.0254921113 34.5728828,0.605888261 34.2443969,2.03370399" id="path-25"></path>
        <path d="M34.2443969,2.03370399 C33.802994,3.95410971 35.4715997,11.7335811 35.1646707,12.6337874 C34.7402053,13.8790384 32.6848589,14.6929835 30.4739949,15.2267728 C29.7982891,13.476057 28.3414029,11.2116365 26.3127459,10.1734124 C24.5094098,9.25106144 14.5480753,9.74133396 13.1597092,11.0628038 C12.8707442,11.3375521 10.8210436,14.5467257 10.8451668,16.3875651 C8.69281437,16.1504112 7.0855432,15.7368725 6.42651839,15.1227444 C4.59982891,13.4209529 4.98502994,9.26805618 5.23806672,5.13601669 C5.36458512,3.07476062 2.80342173,0.935740732 1.57390932,4.8664183 C1.11428571,6.3354334 -1.70171086,25.1694687 1.79615056,31.4863624 C6.15218135,39.3544124 18.9698033,41.2900104 27.7781009,39.8508649 C53.2804106,35.6850934 38.8088109,2.4397753 37.3888794,0.683137083 C37.0539778,0.268825901 36.5802395,0.0254921113 36.0957228,0.0254921113 C35.3471343,0.0254921113 34.5728828,0.605888261 34.2443969,2.03370399" id="path-27"></path>
        <path d="M34.2443969,2.03370399 C33.802994,3.95410971 35.4715997,11.7335811 35.1646707,12.6337874 C34.7402053,13.8790384 32.6848589,14.6929835 30.4739949,15.2267728 C29.7982891,13.476057 28.3414029,11.2116365 26.3127459,10.1734124 C24.5094098,9.25106144 14.5480753,9.74133396 13.1597092,11.0628038 C12.8707442,11.3375521 10.8210436,14.5467257 10.8451668,16.3875651 C8.69281437,16.1504112 7.0855432,15.7368725 6.42651839,15.1227444 C4.59982891,13.4209529 4.98502994,9.26805618 5.23806672,5.13601669 C5.36458512,3.07476062 2.80342173,0.935740732 1.57390932,4.8664183 C1.11428571,6.3354334 -1.70171086,25.1694687 1.79615056,31.4863624 C6.15218135,39.3544124 18.9698033,41.2900104 27.7781009,39.8508649 C53.2804106,35.6850934 38.8088109,2.4397753 37.3888794,0.683137083 C37.0539778,0.268825901 36.5802395,0.0254921113 36.0957228,0.0254921113 C35.3471343,0.0254921113 34.5728828,0.605888261 34.2443969,2.03370399" id="path-29"></path>
        <path d="M34.2443969,2.03370399 C33.802994,3.95410971 35.4715997,11.7335811 35.1646707,12.6337874 C34.7402053,13.8790384 32.6848589,14.6929835 30.4739949,15.2267728 C29.7982891,13.476057 28.3414029,11.2116365 26.3127459,10.1734124 C24.5094098,9.25106144 14.5480753,9.74133396 13.1597092,11.0628038 C12.8707442,11.3375521 10.8210436,14.5467257 10.8451668,16.3875651 C8.69281437,16.1504112 7.0855432,15.7368725 6.42651839,15.1227444 C4.59982891,13.4209529 4.98502994,9.26805618 5.23806672,5.13601669 C5.36458512,3.07476062 2.80342173,0.935740732 1.57390932,4.8664183 C1.11428571,6.3354334 -1.70171086,25.1694687 1.79615056,31.4863624 C6.15218135,39.3544124 18.9698033,41.2900104 27.7781009,39.8508649 C53.2804106,35.6850934 38.8088109,2.4397753 37.3888794,0.683137083 C37.0539778,0.268825901 36.5802395,0.0254921113 36.0957228,0.0254921113 C35.3471343,0.0254921113 34.5728828,0.605888261 34.2443969,2.03370399" id="path-31"></path>
        <polygon id="path-33" points="0 0.00342414558 58.1040846 0.00342414558 58.1040846 10.4038944 0 10.4038944"></polygon>
        <path d="M22.1857294,0.222518877 C22.1857294,0.222518877 11.5947238,1.78391455 11.6424753,1.77968057 C8.72869644,2.31222046 2.95169917,21.7296975 6.3673371,35.3047603 C2.7372855,37.5308899 0.861868069,42.2668255 0.117974336,48.1327618 L48.2163922,39.6102418 C45.6359376,34.4621994 42.5714138,30.8129839 39.0059672,30.2517471 C38.974601,30.163304 38.9394896,30.0875629 38.900633,30.0207602 C37.4999218,15.1872662 24.9398683,0.108201568 22.4764518,0.107731126 C22.3533278,0.107731126 22.255484,0.145366454 22.1857294,0.222518877" id="path-35"></path>
        <path d="M22.1857294,0.222518877 C22.1857294,0.222518877 11.5947238,1.78391455 11.6424753,1.77968057 C8.72869644,2.31222046 2.95169917,21.7296975 6.3673371,35.3047603 C2.7372855,37.5308899 0.861868069,42.2668255 0.117974336,48.1327618 L48.2163922,39.6102418 C45.6359376,34.4621994 42.5714138,30.8129839 39.0059672,30.2517471 C38.974601,30.163304 38.9394896,30.0875629 38.900633,30.0207602 C37.4999218,15.1872662 24.9398683,0.108201568 22.4764518,0.107731126 C22.3533278,0.107731126 22.255484,0.145366454 22.1857294,0.222518877" id="path-37"></path>
        <path d="M4.40487214,3.66003565 L0.0608885369,8.89416888 C0.493461104,11.6580133 0.835212157,16.7411348 1.9447327,16.291863 C2.1638279,16.20342 25.6056094,12.3076931 28.7698497,11.6034421 C30.5427418,11.1626383 29.0980243,5.28635226 28.7183529,3.24275395 L21.6071221,0.33824751" id="path-39"></path>
        <path d="M4.40487214,3.66003565 L0.0608885369,8.89416888 C0.493461104,11.6580133 0.835212157,16.7411348 1.9447327,16.291863 C2.1638279,16.20342 25.6056094,12.3076931 28.7698497,11.6034421 C30.5427418,11.1626383 29.0980243,5.28635226 28.7183529,3.24275395 L21.6071221,0.33824751" id="path-41"></path>
        <path d="M4.40487214,3.66003565 L0.0608885369,8.89416888 C0.493461104,11.6580133 0.835212157,16.7411348 1.9447327,16.291863 C2.1638279,16.20342 25.6056094,12.3076931 28.7698497,11.6034421 C30.5427418,11.1626383 29.0980243,5.28635226 28.7183529,3.24275395 L21.6071221,0.33824751" id="path-43"></path>
    </defs>
    <g id="Custom-Preset" stroke="none" stroke-width="1" fill="none" fill-rule="evenodd">
        <g id="pic-4" transform="translate(-27.000000, 1.000000)">
            <g id="pic-3">
                <g id="pic-2">
                    <g id="pic">
                        <g id="Group-16" transform="translate(65.322581, 8.870968)">
                            <path d="M146.030166,198.340427 C227.801596,196.767219 261.686645,157.685853 263.64789,113.53926 C266.971782,38.7186983 135.324031,-18.354666 77.5300927,5.49276536 C-54.1288683,59.8193145 -9.38612888,201.330694 146.030166,198.340427" id="Fill-1" fill="#A3E0FC" opacity="0.5"></path>
                            <g id="man" transform="translate(205.134478, 129.772420) rotate(-10.000000) translate(-205.134478, -129.772420) translate(155.940930, 35.417582)">
                                <g id="Group-14" transform="translate(30.868121, 170.441370) rotate(10.000000) translate(-30.868121, -170.441370) translate(2.239089, 157.538145)">
                                    <g id="Group-3" transform="translate(0.000000, 15.163571)">
                                        <mask id="mask-2" fill="white">
                                            <use xlink:href="#path-1"></use>
                                        </mask>
                                        <g id="Clip-2"></g>
                                        <path d="M54.697868,1.47680219 C49.0496874,-0.267656465 0.21383817,-1.68370069 0.00114624391,4.74591253 C-0.137931351,8.94712885 14.1488528,9.85383262 18.2763497,9.98213976 C57.4437589,11.1996319 60.6142696,3.30394767 54.697868,1.47680219" id="Fill-1" fill="#E7EBF1" mask="url(#mask-2)"></path>
                                    </g>
                                    <g id="Group-6" transform="translate(16.222223, 0.000000)">
                                        <mask id="mask-4" fill="white">
                                            <use xlink:href="#path-3"></use>
                                        </mask>
                                        <g id="Clip-5"></g>
                                        <path d="M3.75359677,20.7249799 C1.81472282,20.7249799 0.242961066,19.1557364 0.242961066,17.2199689 L0.242961066,3.52914551 C0.242961066,1.593378 1.81472282,0.0241345043 3.75359677,0.0241345043 C5.69247071,0.0241345043 7.26423247,1.593378 7.26423247,3.52914551 L7.26423247,17.2199689 C7.26423247,19.1557364 5.69247071,20.7249799 3.75359677,20.7249799" id="Fill-4" fill="#B26D5F" mask="url(#mask-4)"></path>
                                    </g>
                                    <path d="M23.4942543,20.7797081 L23.4942543,15.7251845 L16.3797111,15.7251845 L16.3797111,16.4848693 L13.1352253,18.3712974 C12.2756361,18.8712565 11.7471272,19.7881436 11.7471272,20.7797081 L23.4942543,20.7797081 Z" id="Fill-7" fill="#373753"></path>
                                    <g id="Group-11" transform="translate(31.885059, 0.000000)">
                                        <mask id="mask-6" fill="white">
                                            <use xlink:href="#path-5"></use>
                                        </mask>
                                        <g id="Clip-10"></g>
                                        <path d="M3.64855353,20.7249799 C1.70967959,20.7249799 0.137917831,19.1557364 0.137917831,17.2199689 L0.137917831,3.52914551 C0.137917831,1.593378 1.70967959,0.0241345043 3.64855353,0.0241345043 C5.58742748,0.0241345043 7.15918923,1.593378 7.15918923,3.52914551 L7.15918923,17.2199689 C7.15918923,19.1557364 5.58742748,20.7249799 3.64855353,20.7249799" id="Fill-9" fill="#B26D5F" mask="url(#mask-6)"></path>
                                    </g>
                                    <path d="M32.4444464,20.7797081 L32.4444464,15.7251845 L39.5589896,15.7251845 L39.5589896,16.4848693 L42.8037295,18.3712974 C43.6630646,18.8712565 44.1915736,19.7881436 44.1915736,20.7797081 L32.4444464,20.7797081 Z" id="Fill-12" fill="#373753"></path>
                                </g>
                                <g id="Group-9" transform="translate(13.170509, 81.857335)" fill="#4DA2F8">
                                    <path d="M46.1510164,4.74049677 C48.2954886,5.09811462 46.3418857,7.62073207 41.4022082,46.4952034 C41.3091126,47.2245556 36.4732905,84.5735044 35.8473516,84.9908821 C35.5329787,87.7257175 23.398279,89.3909932 17.2544411,84.0460181 C11.5718705,85.5329555 4.01943629,82.6593079 0.897694846,80.4180792 C0.411165384,80.3442029 0.140299462,79.8430674 0.284387034,79.4035738 C2.80591953,71.68891 9.66364586,41.5581949 11.2228792,33.5870814 C11.5489475,31.8996898 12.6529951,25.3124633 12.9397668,23.6175429 C16.5152906,2.45785972 16.5414883,8.34161435 19.0934289,1.01938899 C19.2333061,0.607187372 19.6744574,0.396381064 20.0735051,0.532369955 L46.1510164,4.74049677 Z" id="Fill-7"></path>
                                </g>
                                <g id="Group-19" transform="translate(17.796969, 82.162571)">
                                    <g id="Group-12" transform="translate(8.950192, 0.000000)">
                                        <mask id="mask-8" fill="white">
                                            <use xlink:href="#path-7"></use>
                                        </mask>
                                        <g id="Clip-11"></g>
                                        <path d="M1.49701373,7.1992707 C1.48812521,7.19785905 1.48017232,7.1964474 1.47175162,7.19503575 C1.20275697,7.14939242 1.02171187,6.89388388 1.0670901,6.62331775 C1.11246833,6.35369272 1.36602503,6.1711194 1.63408405,6.21629218 C1.64156912,6.21958603 1.64998982,6.21911548 1.6579427,6.22005658 C5.21475376,6.81341987 8.37953434,5.32224757 11.0638671,1.78700696 C11.2290064,1.56961295 11.5387011,1.52773402 11.7553003,1.6938381 C11.9718995,1.85994217 12.0130674,2.17144614 11.847928,2.38931069 C8.92454091,6.23887857 5.44211272,7.85662876 1.49701373,7.1992707" id="Fill-10" fill="#4384CD" mask="url(#mask-8)"></path>
                                    </g>
                                    <g id="Group-15" transform="translate(8.950192, 0.000000)">
                                        <mask id="mask-10" fill="white">
                                            <use xlink:href="#path-9"></use>
                                        </mask>
                                        <g id="Clip-14"></g>
                                        <path d="M32.6369577,13.0600155 C31.196082,12.8195645 29.569483,11.8572902 28.3685973,10.4884608 C26.8028145,8.70460655 26.1413215,6.50760955 26.5057508,4.30355432 C26.5497256,4.03345873 26.8037501,3.85088541 27.072277,3.89511709 L27.0727448,3.89511709 C27.3417394,3.94028987 27.5227845,4.19579841 27.4788097,4.46589399 C27.0540321,7.03556642 28.3176052,8.930941 29.1082156,9.83204386 C30.3385738,11.2338117 32.1097282,12.1763229 33.4154048,12.1245625 C33.688142,12.1132693 33.9169044,12.3259578 33.9285998,12.5998178 C33.9388918,12.8736777 33.7274386,13.1047177 33.4551692,13.1155403 C33.1922562,13.126363 32.9185834,13.1070704 32.6369577,13.0600155" id="Fill-13" fill="#4384CD" mask="url(#mask-10)"></path>
                                    </g>
                                    <g id="Group-18">
                                        <mask id="mask-12" fill="white">
                                            <use xlink:href="#path-11"></use>
                                        </mask>
                                        <g id="Clip-17"></g>
                                        <path d="M12.2481134,85.4171633 C11.9880072,85.3738727 11.8069621,85.1320101 11.8397093,84.86662 C12.0628579,83.0677081 24.2738118,16.6265476 24.9053644,13.7745453 C24.9643093,13.507273 25.2295615,13.336934 25.4934101,13.3981055 C25.7595979,13.4573948 25.9270763,13.7227848 25.8676636,13.9900571 C25.2375144,16.8392361 13.0410628,83.1933449 12.818382,84.9894335 C12.7842314,85.2614113 12.5381598,85.4543367 12.2677617,85.4199866 C12.2612122,85.419516 12.2546628,85.4185749 12.2481134,85.4171633" id="Fill-16" fill="#4384CD" mask="url(#mask-12)"></path>
                                    </g>
                                </g>
                                <g id="Group-35" transform="translate(14.970590, 49.224085)">
                                    <g id="Group-22" transform="translate(39.377762, 0.000000)" fill="#B26D5F">
                                        <path d="M20.1886336,28.3809286 C10.4725467,26.7612962 1.71033818,18.7318345 1.23737541,18.2928115 C-0.16326806,16.9917413 -0.249814166,14.7947443 1.04323144,13.3854477 C2.33627705,11.9775627 4.51864238,11.8890993 5.91928585,13.1878168 C9.25996554,16.2746234 19.4864406,23.7361315 26.6024018,21.2144552 C32.5254302,19.114862 35.0259109,10.3047582 36.0803699,3.28415524 C36.3652704,1.38783957 38.1247293,0.082534434 40.010031,0.369569809 C41.8897188,0.647664738 43.1930564,2.42540186 42.908156,4.32171754 C40.9611025,17.2820705 36.2412989,25.171779 28.8797339,27.7706255 C26.0265193,28.7785431 23.065239,28.8608893 20.1886336,28.3809286" id="Fill-20"></path>
                                    </g>
                                    <g id="Group-25" transform="translate(39.377762, 11.763745)" fill="#CCD5E2">
                                        <path d="M20.1913937,16.6213245 C10.5875828,15.0200436 1.90209629,7.14256945 1.25744475,6.54732396 L0.0701257368,5.47447043 L4.68513837,0.307833676 L5.88742752,1.3948037 C5.89912294,1.4051558 5.91081836,1.41597844 5.92204596,1.42633054 C9.02507473,4.29480209 18.6359029,11.3803409 25.7083571,9.71271243 C29.1800255,8.89442634 31.8105593,6.03066028 33.7501277,0.957192393 L40.1952396,3.45063576 C37.4089228,10.7375699 33.0586945,15.1212118 27.2652514,16.4792185 C24.9219571,17.0288206 22.5286064,17.0109397 20.1913937,16.6213245" id="Fill-23"></path>
                                    </g>
                                    <g id="Group-28" transform="translate(0.000000, 9.410996)" fill="#B26D5F">
                                        <path d="M2.92561832,43.1195833 C1.26533653,42.8429001 0.0129909858,41.3780786 0.0424634436,39.6351621 C0.236607412,28.1208086 4.85536258,17.7141294 13.3986328,9.53973832 C19.7890102,3.42541429 26.1302667,0.703754273 26.3969223,0.590822323 C28.15451,-0.152175804 30.1787532,0.678344584 30.9179038,2.44620016 C31.6561187,4.211703 30.8336968,6.24447811 29.0812551,6.99029953 C29.0260527,7.01429757 23.4697927,9.42962967 17.9851086,14.7383725 C10.8233014,21.6695709 7.10930388,30.0862951 6.94650363,39.7532701 C6.91422427,41.67029 5.34235986,43.1986357 3.43600644,43.1666383 C3.26244641,43.1633445 3.09169328,43.1478163 2.92561832,43.1195833" id="Fill-26"></path>
                                    </g>
                                    <g id="Group-31" transform="translate(1.484602, 8.940446)" fill="#CCD5E2">
                                        <path d="M6.93173494,30.6426732 L0.271895118,28.8089406 C1.92843437,22.7242613 5.40665221,16.7751002 10.3322952,11.6056401 C14.9561963,6.75144846 20.6055519,2.81012338 26.669861,0.208453559 L29.378988,6.59663758 C18.4418992,11.2894307 9.63103782,20.728189 6.93173494,30.6426732" id="Fill-29"></path>
                                    </g>
                                    <g id="Group-34" transform="translate(16.454740, 10.352095)" fill="#CCD5E2">
                                        <path d="M28.7308746,29.2126253 C28.8010471,27.2725485 30.9740561,4.28948488 29.1280511,3.98127476 C13.396308,1.3556069 10.0317697,-0.531768323 9.38665033,0.592845687 C3.94266634,10.0819529 0.301648266,24.4643073 0.301648266,24.4643073 C1.12874835,24.7532249 13.9473962,29.823399 28.7308746,29.2126253" id="Fill-32"></path>
                                    </g>
                                </g>
                                <g id="Group-48" transform="translate(44.992016, 60.517280)" fill="#A6ACC7">
                                    <g id="Group-38">
                                        <path d="M0.673281924,28.5012952 C0.672814108,28.5012952 0.671878474,28.5008246 0.671410657,28.5008246 C0.40288382,28.4547108 0.221838722,28.1982611 0.268152584,27.9286361 C0.643809467,25.7085822 1.3969945,21.98371 2.19415431,18.0405027 C3.55596899,11.305994 5.09929658,3.67367636 5.34162567,0.744033336 C5.36408088,0.471114455 5.60266744,0.268307493 5.87400118,0.290893883 C6.14439928,0.312539174 6.34743177,0.552990119 6.32497657,0.8268501 C6.0779693,3.81437075 4.52809228,11.4768036 3.1606638,18.2376631 C2.36490744,22.1738121 1.61359367,25.8911555 1.24027587,28.0952107 C1.19442983,28.3643652 0.940873128,28.5459974 0.673281924,28.5012952" id="Fill-36"></path>
                                    </g>
                                    <g id="Group-41" transform="translate(4.597016, 21.174741)">
                                        <path d="M0.429628619,1.11200328 C0.222385781,1.07718259 0.0521004695,0.910607963 0.0216923781,0.690390659 L0.00531879049,0.570871011 C-0.00216627816,0.520051633 -0.00123064458,0.469702805 0.00719005765,0.421706726 C0.0413406833,0.213253167 0.20648001,0.0419730417 0.425886085,0.0109167552 C0.695816373,-0.0267272284 0.945162722,0.162904339 0.982588065,0.434411571 L0.998961653,0.553931219 C1.00551109,0.605221146 1.00457545,0.655099425 0.997090386,0.703095504 C0.96293976,0.912019613 0.797332616,1.08282919 0.577926542,1.11388547 C0.527402328,1.12094372 0.477813749,1.12000262 0.429628619,1.11200328" id="Fill-39"></path>
                                    </g>
                                    <g id="Group-44" transform="translate(5.145985, 15.528143)">
                                        <path d="M0.78794382,1.25260355 C0.580700982,1.21778287 0.41041567,1.05167879 0.380007579,0.830990938 L0.363633991,0.71194184 C0.356616739,0.660651912 0.357552373,0.610773634 0.365505258,0.562307005 C0.399655884,0.353853446 0.564795211,0.18257332 0.784201285,0.151987584 C1.05413157,0.1143436 1.30347792,0.303504618 1.34090327,0.575011849 L1.35727685,0.694531497 C1.36429411,0.745821425 1.36289065,0.795699703 1.35540559,0.844166332 C1.32125496,1.05261989 1.15564782,1.22342947 0.936241742,1.25448575 C0.885717529,1.261544 0.836128949,1.2606029 0.78794382,1.25260355" id="Fill-42"></path>
                                    </g>
                                    <g id="Group-47" transform="translate(6.081618, 9.881546)">
                                        <path d="M0.759640904,1.39320383 C0.552398066,1.3588537 0.382112754,1.19227907 0.35217248,0.971591217 L0.335798892,0.852542119 C0.328313823,0.801252191 0.329249457,0.751373913 0.337202342,0.702907284 C0.371352968,0.494453725 0.536960112,0.323173599 0.755898369,0.292587863 C1.02582866,0.254943879 1.27517501,0.444104897 1.31260035,0.715612128 L1.32944175,0.835131776 C1.33599119,0.886421704 1.33505556,0.936299982 1.32710267,0.984766611 C1.29341986,1.19322017 1.12781272,1.36402975 0.908406643,1.39508603 C0.85788243,1.40214428 0.807826033,1.40120318 0.759640904,1.39320383" id="Fill-45"></path>
                                    </g>
                                </g>
                                <g id="Group-104" transform="translate(15.051742, 0.286907)">
                                    <g id="Group-51" transform="translate(15.437954, 81.405115)" fill="#B7C9FF">
                                        <path d="M0.69721356,0.521632681 C0.679810775,0.551455081 0.662407991,0.581925794 0.645585299,0.612396508 C0.657767248,0.59165049 0.668789012,0.571552786 0.680390868,0.551455081 C0.685611704,0.541082072 0.691412632,0.531357377 0.69721356,0.521632681" id="Fill-49"></path>
                                    </g>
                                    <g id="Group-54" transform="translate(26.584405, 55.524876)" fill="#A7ACC5">
                                        <path d="M8.63424627,5.82531235 C8.95750767,6.09587848 9.00475716,6.59513182 8.73482688,6.92028173 C7.68925635,8.18417847 6.67502955,9.47583766 5.53542785,10.6564471 C5.34128388,10.8569013 5.0994226,10.9731271 4.81405436,10.9260721 C4.59558392,10.8893692 4.4528998,10.7726729 4.31161913,10.6117449 C3.55656283,9.75110929 2.77671224,8.90976626 2.06703417,8.01007505 C0.155066945,5.58815526 -1.06733833,2.80202992 1.52998049,1.14522409 C2.09089282,0.788547346 2.69624775,0.535862107 3.32967168,0.34528944 C3.47048454,0.302939958 3.60708704,0.285059066 3.74322173,0.307174906 C3.80544136,0.317997551 3.86766099,0.336819543 3.92988062,0.365523081 C4.11186136,0.450222044 4.25641674,0.605503476 4.32799271,0.794193944 L8.63424627,5.82531235 Z" id="Fill-52"></path>
                                    </g>
                                    <g id="Group-57" transform="translate(35.472924, 57.795615)" fill="#A7ACC5">
                                        <path d="M0.497228145,3.68002206 C0.104262042,3.83106854 -0.100173896,4.28844294 0.0509309275,4.68370477 C0.635234098,6.21910875 1.18117629,7.77098198 1.88056239,9.25791933 C2.00032349,9.51154567 2.19166056,9.69976559 2.47656098,9.74776167 C2.69503143,9.783994 2.86765582,9.71952868 3.05337909,9.61271388 C4.04421505,9.04334862 5.05189241,8.49986361 6.01232028,7.87920843 C9.8690019,5.38670617 10.7859228,2.73092312 7.27636125,0.214893369 C7.15660015,0.128782757 7.03356434,0.0671407336 6.89742965,0.0445543434 C6.8347422,0.034202248 6.76971567,0.031849499 6.70141442,0.0393782957 C6.50212446,0.0600824867 6.31593338,0.160780143 6.18728376,0.315591025 L0.497228145,3.68002206 Z" id="Fill-55"></path>
                                    </g>
                                    <g id="Group-60" transform="translate(16.841404, 0.000000)" fill="#373753">
                                        <path d="M5.34415188,38.3874523 C-0.361341689,36.7800542 -1.28481203,26.6157081 3.07290137,23.5848968 C-0.073166546,18.7250585 4.85996151,11.7788025 9.73741936,12.7086089 C7.67200823,1.13355446 22.6398064,-7.29540402 28.907148,10.1436419 C32.9046424,8.05204809 37.5060884,10.1690516 38.2644194,15.4735595 C56.4615569,16.9633201 41.5550427,44.0839281 38.4520139,43.7460733 L5.34415188,38.3874523 Z" id="Fill-58"></path>
                                    </g>
                                    <g id="Group-63" transform="translate(29.472458, 43.761131)" fill="#B26D5F">
                                        <path d="M12.7661588,2.35133733 C12.6356379,8.24120911 13.5605117,14.1969579 13.388823,16.002928 C13.3710459,16.1883246 13.3612218,16.3756034 13.3729172,16.5614706 C13.478176,18.351442 8.69381366,18.4827254 6.54419551,18.1439295 C5.53932505,17.9844132 -0.577847299,17.1501284 0.133234222,15.2152276 C0.126684787,14.8999593 1.94462083,10.1855209 3.89027086,1.0300335 C3.97822042,0.615949682 4.34919913,0.318562211 4.77912276,0.39008578 C11.9086506,1.66057023 12.7839359,1.50717099 12.7661588,2.35133733" id="Fill-61"></path>
                                    </g>
                                    <g id="Group-66" transform="translate(21.519572, 17.880892)" fill="#B26D5F">
                                        <path d="M22.1494877,0.499676827 C9.21762812,-0.509652483 4.03468591,0.105356099 1.09586083,14.0265718 C-1.72226751,27.3784222 2.8253795,29.620592 16.3410744,31.3395104 C26.7457876,32.6626964 33.5693633,32.7426899 35.4574719,20.5582735 C37.6295452,6.56365204 32.8999175,1.33396161 22.1494877,0.499676827" id="Fill-64"></path>
                                    </g>
                                    <g id="Group-69" transform="translate(21.519572, 30.585737)" fill="#955B47">
                                        <path d="M35.7129466,6.05484654 C34.128919,19.151659 28.4898554,20.1793397 16.3411212,18.6345248 C2.39316357,16.860552 -1.88642442,14.3313469 1.32420221,0.27461286 C2.70239047,2.28950708 4.36547916,11.6689761 9.58491109,8.32054381 C12.112993,7.23498543 23.5529848,9.27528934 24.7814717,10.3994328 C24.8043947,10.410726 28.0178283,14.4612186 31.0258902,11.1748989 L35.7129466,6.05484654 Z" id="Fill-67"></path>
                                    </g>
                                    <g id="Group-72" transform="translate(27.601191, 15.528143)" fill="#373753">
                                        <path d="M27.8103047,2.19116218 C23.8301195,6.49057565 18.4525655,8.7939169 13.3201475,8.39677287 C8.18819728,8.00009939 3.37623377,4.90858724 0.35413731,0.0671004008 L27.8103047,2.19116218 Z" id="Fill-70"></path>
                                    </g>
                                    <g id="Group-75" transform="translate(0.000000, 83.287314)" fill="#A7ACC5">
                                        <path d="M7.03587096,8.45055671 L0.999630917,6.72316842 C-0.597495604,6.26626457 0.765254705,3.48955022 0.762447805,3.51448936 C0.92056988,2.95500566 1.92637598,0.190525612 2.51114697,0.358041339 L8.14412894,4.53228857 C9.74125546,4.98919242 8.37850515,7.76590676 8.38131205,7.74096762 C8.22318997,8.30045133 7.62110976,8.61760189 7.03587096,8.45055671" id="Fill-73"></path>
                                    </g>
                                    <g id="Group-78" transform="translate(71.575969, 59.677814)" fill="#A7ACC5">
                                        <path d="M6.30219389,7.98160007 L1.02194578,3.91322654 C-0.514364561,3.27986651 1.14872413,0.673961749 1.14357814,0.697959789 C1.3625164,0.160121373 1.99640815,-0.0873878191 2.55919175,0.14506378 L8.36526593,2.54063279 C9.90110845,3.17446336 8.23848758,5.78036812 8.24363357,5.75637009 C8.02469531,6.29373795 6.86497749,8.21405166 6.30219389,7.98160007" id="Fill-76"></path>
                                    </g>
                                    <g id="Group-81" transform="translate(29.472458, 32.467936)" fill="#823E30">
                                        <path d="M0.479137956,2.90870356 C0.245229561,2.86964792 0.0669913643,2.66495876 0.0669913643,2.41886122 C0.0674591811,1.06508946 1.22951609,0.181867496 2.30596252,0.140929664 C3.27948926,0.10328568 4.47148644,0.757349895 4.62072,2.72236584 C4.64083612,2.99528472 4.43780363,3.23338292 4.16600208,3.25455766 C3.89560397,3.27526185 3.65748523,3.07104324 3.63690129,2.79765381 C3.55550117,1.72715302 3.07224642,1.10461564 2.34338787,1.13237808 C1.72072372,1.15590557 1.05408479,1.67915694 1.05361697,2.41933177 C1.05361697,2.69319175 0.83280745,2.91529125 0.560070261,2.91529125 C0.532469071,2.91529125 0.505335697,2.91293851 0.479137956,2.90870356" id="Fill-79"></path>
                                    </g>
                                    <g id="Group-84" transform="translate(44.442595, 34.820685)" fill="#823E30">
                                        <path d="M4.07183056,3.65132524 C4.045165,3.64661975 4.01943508,3.6405026 3.99276952,3.6310916 C3.73500247,3.54309879 3.59699652,3.26076891 3.68541389,3.00149598 C3.922597,2.30084733 3.45852275,1.58937604 2.87655866,1.36492379 C2.1949496,1.102357 1.53907046,1.53432172 1.11897098,2.52106464 C1.01137312,2.77327933 0.721326709,2.88997568 0.471512543,2.78174922 C0.22123056,2.67399332 0.104744179,2.38225245 0.211874224,2.13050831 C0.983304111,0.318891596 2.3203245,0.0873810969 3.23022815,0.438411244 C4.23650207,0.827085375 5.05331019,2.0396922 4.61870839,3.32146984 C4.54011517,3.55439199 4.30573895,3.69038088 4.07183056,3.65132524" id="Fill-82"></path>
                                    </g>
                                    <g id="Group-87" transform="translate(28.069007, 26.350789)" fill="#373753">
                                        <path d="M0.876595101,2.87218889 C0.676369515,2.83877986 0.491114066,2.72349516 0.373692052,2.53809854 C0.153818161,2.19130334 0.255334404,1.73110564 0.599647562,1.51041779 C2.04426581,0.58437579 3.77893047,0.165586473 5.48412267,0.329808351 C5.89065546,0.370746183 6.18865475,0.732598976 6.14935814,1.1419773 C6.11052935,1.55088507 5.74937479,1.85062529 5.34237418,1.81156966 C3.96465373,1.67840406 2.56260681,2.01719992 1.3949361,2.76537409 C1.23494276,2.86795395 1.05015513,2.90136298 0.876595101,2.87218889" id="Fill-85"></path>
                                    </g>
                                    <g id="Group-90" transform="translate(46.781679, 28.703537)" fill="#373753">
                                        <path d="M4.65931488,4.27028644 C4.48528704,4.24111236 4.32108335,4.15029625 4.20225788,4.00113196 C3.33773245,2.91416194 2.11953753,2.13822532 0.772225175,1.81683981 C0.375048721,1.72178875 0.128977089,1.32088033 0.223476081,0.920913004 C0.317507255,0.521416228 0.713748077,0.275318685 1.11373143,0.368487544 C2.78009484,0.766102121 4.28740054,1.7260237 5.35776535,3.07132557 C5.61319332,3.39224053 5.56173347,3.86043757 5.24268242,4.11735776 C5.07192929,4.2547583 4.85907265,4.30369548 4.65931488,4.27028644" id="Fill-88"></path>
                                    </g>
                                    <g id="Group-97" transform="translate(30.875908, 2.352749)" fill="#58596F">
                                        <g id="Group-93" transform="translate(16.373588, 8.858436)">
                                            <path d="M5.14313101,3.87210049 C4.9728457,3.8438675 4.82220869,3.72623005 4.75998906,3.55165608 C4.26503889,2.18188562 3.43372846,0.92410602 0.726004877,1.00268784 C0.451864238,1.01021663 0.225908728,0.794704827 0.218423659,0.521315396 C0.210470774,0.247455415 0.425198681,0.0192387645 0.697468052,0.011239418 C3.32098461,-0.064519099 4.86056967,0.922694371 5.68673412,3.21333077 C5.77982966,3.47072151 5.64743751,3.75540414 5.39154172,3.84904355 C5.30873815,3.87915873 5.22406331,3.88574643 5.14313101,3.87210049" id="Fill-91"></path>
                                        </g>
                                        <g id="Group-96">
                                            <path d="M10.1050298,5.88667205 C9.89498005,5.85185136 9.72375911,5.68104179 9.69662574,5.45753063 C9.52072662,4.01953046 8.21738905,2.45542294 6.59780732,1.7387756 C4.78595289,0.936958752 2.79071428,1.21034818 0.979327668,2.50953617 C0.758050327,2.66905255 0.449759062,2.61682152 0.291636987,2.39378092 C0.133982729,2.17074031 0.184974759,1.860648 0.407187734,1.70160217 C2.51283111,0.191137327 4.85238287,-0.117543339 6.99545159,0.830614498 C8.94297289,1.69219117 10.4563602,3.54568682 10.6757663,5.33659934 C10.7085135,5.60857712 10.5167086,5.85608631 10.2463105,5.88949534 C10.1981253,5.89561249 10.1508758,5.89420084 10.1050298,5.88667205" id="Fill-94"></path>
                                        </g>
                                    </g>
                                    <g id="Group-100" transform="translate(37.425343, 40.467282)" fill="#823E30">
                                        <path d="M0.539439541,1.99701333 C0.522130319,1.99419003 0.505756732,1.99136673 0.488915327,1.98807288 C0.22038849,1.9410179 0.0412146592,1.68362717 0.0879963382,1.41400213 C0.135245834,1.1443771 0.394884153,0.957098283 0.659200639,1.01121151 C0.674638593,1.01356426 0.690076547,1.01638756 0.705514501,1.01874031 C1.99996356,1.23472266 3.56060037,0.976390825 4.20478409,0.43525856 C4.4138982,0.259743487 4.72499636,0.287976475 4.89949202,0.498312233 C5.07398769,0.708647991 5.0463865,1.0215636 4.83727239,1.19707868 C3.85298587,2.02336412 1.90172203,2.22381833 0.539439541,1.99701333" id="Fill-98"></path>
                                    </g>
                                    <g id="Group-103" transform="translate(37.425343, 30.585737)" fill="#925448">
                                        <path d="M0.645446825,7.98988846 C0.382533789,7.94612733 0.200553058,7.69814759 0.237978401,7.43087531 C0.276339378,7.15983863 0.525685727,6.97067761 0.795148198,7.00926269 C1.52587802,7.1132542 2.46993231,6.77539944 2.77962702,6.58388568 C2.77962702,5.87100274 2.69354873,2.73761165 2.634136,0.759420314 C2.6257153,0.485560333 2.83997539,0.256873133 3.11224476,0.248403237 C3.38498195,0.24087444 3.61187309,0.455445147 3.61982598,0.729305127 C3.68532033,2.90324518 3.79011129,6.58859117 3.75549285,6.84645246 C3.71993877,7.11560695 3.50801776,7.27700552 3.43878088,7.33017765 C2.96113994,7.69438319 1.69569552,8.1395233 0.657142245,7.99177066 C0.653399711,7.99130011 0.649657176,7.99035901 0.645446825,7.98988846" id="Fill-101"></path>
                                    </g>
                                </g>
                            </g>
                            <g id="Group-95" transform="translate(18.548387, 45.161290)">
                                <g id="Group-9" transform="translate(9.586466, 87.591581)">
                                    <path d="M54.5392526,82.9332155 C49.1496709,81.2724139 0.235731382,79.735876 0.0218284115,86.1849525 C-0.116564233,90.3632528 14.1231884,91.2650665 18.2373415,91.3926816 C57.9691739,92.6252635 60.1984036,84.6775469 54.5392526,82.9332155" id="Fill-1" fill="#E7EBF1"></path>
                                    <path d="M17.8199987,86.5022372 C15.3291888,86.5022372 13.3099963,84.4823086 13.3099963,81.9905907 L13.3099963,60.1580886 C13.3099963,57.6663707 15.3291888,55.6464421 17.8199987,55.6464421 C20.3108086,55.6464421 22.3300011,57.6663707 22.3300011,60.1580886 L22.3300011,81.9905907 C22.3300011,84.4823086 20.3108086,86.5022372 17.8199987,86.5022372" id="Fill-3" fill="#FFBDA6"></path>
                                    <path d="M39.1023134,86.5022372 C36.6115035,86.5022372 34.592311,84.4823086 34.592311,81.9905907 L34.592311,60.1580886 C34.592311,57.6663707 36.6115035,55.6464421 39.1023134,55.6464421 C41.5931233,55.6464421 43.6123158,57.6663707 43.6123158,60.1580886 L43.6123158,81.9905907 C43.6123158,84.4823086 41.5931233,86.5022372 39.1023134,86.5022372" id="Fill-5" fill="#FFBDA6"></path>
                                    <path d="M4.7261217,0.128878406 C4.68720682,0.649909128 3.95272072,49.944417 4.36583693,69.2864902 C4.37511465,69.7270847 4.71529769,70.1452499 5.33432773,70.1385468 C9.66573402,71.7452086 21.6852769,73.2533876 28.4317251,70.9792599 C35.1784309,73.2533876 47.1979738,71.7452086 51.5291224,70.1385468 C52.1481525,70.1452499 52.5300852,69.7260534 52.4978709,69.2864902 C51.1953822,51.5889766 51.9553821,1.13819819 51.8798717,0.128878406 L4.7261217,0.128878406 Z" id="Fill-7" fill="#A7ACC5"></path>
                                </g>
                                <g id="Group-19" transform="translate(13.533835, 87.591581)">
                                    <g id="Group-12">
                                        <mask id="mask-14" fill="white">
                                            <use xlink:href="#path-13"></use>
                                        </mask>
                                        <g id="Clip-11"></g>
                                        <path d="M24.1830631,71.0954618 C23.9075632,71.0954618 23.6790118,70.8788251 23.6679195,70.6026389 C23.5804715,68.4355012 23.1004103,18.9334881 23.221393,16.7327256 C23.2371285,16.4496091 23.4816733,16.2322023 23.764912,16.2481164 C24.0491825,16.2637738 24.2674156,16.5058217 24.2519381,16.7889382 C24.1309554,18.9837972 24.6115326,68.3972561 24.6987226,70.5615703 C24.7103307,70.8446868 24.4887442,71.0836546 24.2039578,71.0949485 C24.1969929,71.0952051 24.18977,71.0954618 24.1830631,71.0954618" id="Fill-10" fill="#8588A3" mask="url(#mask-14)"></path>
                                    </g>
                                    <g id="Group-15">
                                        <mask id="mask-16" fill="white">
                                            <use xlink:href="#path-15"></use>
                                        </mask>
                                        <g id="Clip-14"></g>
                                        <path d="M-0.49381039,11.4066441 C-0.737323428,11.4066441 -0.954008759,11.2344128 -1.00044133,10.9877446 C-1.05280695,10.7089916 -0.868366461,10.4407625 -0.588223284,10.3886567 C3.59767297,9.60912371 7.36541813,6.57954589 9.00990502,2.67084377 C9.11979543,2.40954493 9.42109123,2.28608251 9.684983,2.39568429 C9.94784295,2.5047727 10.0716631,2.80560005 9.96151476,3.06741225 C8.18650076,7.28643882 4.12003939,10.5562678 -0.398365661,11.3979171 C-0.430610502,11.4038207 -0.462339426,11.4066441 -0.49381039,11.4066441" id="Fill-13" fill="#8588A3" mask="url(#mask-16)"></path>
                                    </g>
                                    <g id="Group-18">
                                        <mask id="mask-18" fill="white">
                                            <use xlink:href="#path-17"></use>
                                        </mask>
                                        <g id="Clip-17"></g>
                                        <path d="M48.3556015,10.1272552 C46.4031119,10.1272552 44.36498,9.23452692 42.6593569,7.60898118 C40.9800456,6.00833327 39.8458011,3.99853963 38.7489606,2.05522576 C38.6094049,1.80778756 38.6978847,1.49463964 38.946041,1.35603318 C39.1949712,1.21691337 39.5094229,1.30546749 39.6487206,1.55239233 C40.7084151,3.43025316 41.8044817,5.37254032 43.3733867,6.86769331 C45.0753983,8.48964555 47.1199792,9.29048286 48.9850208,9.06280892 C49.2692913,9.0294407 49.5251864,9.22836663 49.5600108,9.50994309 C49.5945773,9.79126286 49.3933695,10.0471715 49.1106467,10.0818231 C48.8612006,10.1121111 48.608917,10.1272552 48.3556015,10.1272552" id="Fill-16" fill="#8588A3" mask="url(#mask-18)"></path>
                                    </g>
                                </g>
                                <g id="Group-42">
                                    <path d="M8.09306701,112.267527 C6.32322165,112.267527 4.64384021,111.22242 3.92425258,109.490427 C-2.93760309,92.9755878 0.817293814,80.2924625 5.17554124,72.5609367 C9.87451031,64.224755 16.2551804,59.7930106 16.5245103,59.6082475 C18.5776031,58.2013241 21.3853351,58.7198942 22.7964175,60.7666786 C24.2041495,62.8085806 23.6894588,65.6003278 21.6487371,67.0103348 C20.8162629,67.5918632 1.92115979,81.169766 12.2582732,106.048026 C13.211366,108.342789 12.1188402,110.973414 9.81755155,111.923955 C9.25311856,112.156772 8.66806701,112.26727 8.09306701,112.267527" id="Fill-20" fill="#FFBDA6"></path>
                                    <path d="M67.0067268,112.267527 C66.4314691,112.267527 65.8466753,112.157029 65.2822423,111.923955 C62.9809536,110.973414 61.8884278,108.342789 62.8415206,106.048026 C67.2373969,95.4689901 66.9742526,85.6850264 62.0605928,76.9674978 C58.4353351,70.5367658 53.5136856,67.0535062 53.465232,67.0200998 C51.4123969,65.6129194 50.8922938,62.8134631 52.3031186,60.7666786 C53.7144588,58.7198942 56.5224485,58.2010671 58.5750258,59.6082475 C58.8443557,59.7930106 65.2250258,64.224755 69.9239948,72.5609367 C74.2822423,80.2924625 78.0373969,92.9755878 71.1755412,109.49017 C70.4559536,111.222164 68.7765722,112.267527 67.0067268,112.267527" id="Fill-22" fill="#FFBDA6"></path>
                                    <path d="M61.2356959,89.8431724 C63.3179124,82.5878163 62.0545103,73.8985546 55.2563144,61.599346 C51.0318299,53.9564756 46.3985825,54.2147328 44.3475515,54.2381173 L30.8838918,54.2381173 C28.8328608,54.2147328 24.1996134,53.9564756 19.9751289,61.599346 C12.7583763,74.656109 13.2153351,82.1766606 13.9710052,89.791521 C23.6341495,93.6687192 38.2099227,91.7833134 50.0354381,91.7969329 C53.7988402,91.8010445 58.1565722,92.000455 61.2356959,89.8431724" id="Fill-24" fill="#79E3AA"></path>
                                    <g id="Group-30" transform="translate(31.701031, 64.243077)" fill="#FFFFFF">
                                        <polygon id="Fill-26" points="6.14273196 0.687837778 0.730360825 11.4387882 5.62726804 11.4387882 5.11180412 19.950739 10.1035567 7.80674164 5.62726804 7.71268977"></polygon>
                                        <path d="M1.56572165,10.9250749 L5.62731959,10.9250749 C5.76958763,10.9250749 5.90515464,10.9834076 6.00257732,11.0867105 C6.1,11.1894994 6.15025773,11.3285214 6.14175258,11.4698562 L5.81365979,16.8878604 L9.34175258,8.30498525 L5.61649485,8.22660869 C5.475,8.22352503 5.34097938,8.16313653 5.24587629,8.05880578 C5.1507732,7.95421805 5.10283505,7.81570997 5.11314433,7.67540309 L5.43917526,3.23106702 L1.56572165,10.9250749 Z M5.1121134,20.4646579 C5.07396907,20.4646579 5.03556701,20.4602894 4.99690722,20.4515523 C4.75103093,20.3955324 4.58195876,20.1706816 4.59742268,19.9196196 L5.07989691,11.9529641 L0.730412371,11.9529641 C0.551546392,11.9529641 0.38556701,11.8607111 0.291752577,11.7088404 C0.197680412,11.5569698 0.18943299,11.3678382 0.269845361,11.2085154 L5.68221649,0.457564892 C5.79226804,0.238110541 6.04097938,0.127098504 6.27989691,0.19236947 C6.51701031,0.257640436 6.67474227,0.4806924 6.65695876,0.72558701 L6.18092784,7.21054019 L10.114433,7.2930283 C10.2842784,7.29662591 10.4414948,7.38348255 10.5347938,7.52533126 C10.6278351,7.66666603 10.6451031,7.84500482 10.5806701,8.00175792 L5.58865979,20.1454983 C5.50824742,20.3418251 5.31726804,20.4646579 5.1121134,20.4646579 Z" id="Fill-28"></path>
                                    </g>
                                    <path d="M41.7389175,37.8810589 C42.3868557,44.2935459 44.0631443,50.612238 44.1345361,52.5986339 C44.1417526,52.8029269 44.1574742,53.0074769 44.1927835,53.2081722 C44.5301546,55.1336658 39.9291237,56.0253597 37.8092784,55.9937521 C36.8185567,55.9785907 30.8041237,56.0310131 31.2360825,53.8197663 C31.1886598,53.4782501 32.3234536,48.0777201 32.9976804,37.8371166 C33.0280928,37.3735386 33.3466495,36.9929626 33.7713918,37.0034985 C40.8203608,37.2656102 41.6451031,36.9621259 41.7389175,37.8810589" id="Fill-31" fill="#FFBDA6"></path>
                                    <g id="Group-35" transform="translate(18.814433, 0.000000)">
                                        <mask id="mask-20" fill="white">
                                            <use xlink:href="#path-19"></use>
                                        </mask>
                                        <g id="Clip-34"></g>
                                        <path d="M18.953067,0.0920731781 C5.44842784,1.17957999 0.724458763,6.19413762 0.0600257732,19.8583831 C-0.576829897,32.9634569 4.4932732,34.3703803 18.7205928,33.863374 C29.6731701,33.472776 36.7218814,32.4700701 36.5981701,20.6190212 C36.4592526,7.00668405 30.1793557,-0.816580905 18.953067,0.0920731781" id="Fill-33" fill="#FFBDA6" mask="url(#mask-20)"></path>
                                    </g>
                                    <path d="M37.1181186,22.3899458 C36.9188918,22.3899458 36.7289433,22.2740513 36.6449227,22.0797803 C36.5317784,21.8192103 36.6516237,21.5170109 36.9129639,21.4042001 C37.4366753,21.1778075 38.0583247,20.7060063 38.414768,20.4161415 C38.0825515,19.7184617 37.2933763,18.1270322 36.5098711,17.0446649 C36.3428608,16.8149316 36.3949227,16.4937162 36.6258505,16.3271982 C36.8572938,16.161451 37.179201,16.2133594 37.3454381,16.4428357 C38.4320361,17.94304 39.4748196,20.2473107 39.5183763,20.3447032 C39.6106443,20.5489962 39.5593557,20.7892653 39.3918299,20.9385662 C39.3462113,20.9796818 38.2585825,21.9435849 37.3227577,22.3472884 C37.2560052,22.3760693 37.1866753,22.3899458 37.1181186,22.3899458" id="Fill-36" fill="#EE9D8B"></path>
                                    <path d="M18.5563918,43.2430945 C22.9313918,51.0951403 35.8038144,53.0265442 44.6499485,51.590583 C70.2618041,47.433285 55.728299,14.2553332 54.3020103,12.5022681 C53.4463402,11.4504805 51.6875773,11.5029028 51.1440206,13.8500879 C50.7007216,15.7665874 52.3767526,23.5304917 52.0682474,24.42861 C51.26,26.7845321 44.5651546,27.5960506 42.0788144,27.8797481 C34.1656701,28.7814639 25.0406701,28.6110912 23.2066495,26.9125043 C21.3723711,25.2144313 21.7589691,21.0699819 22.0130928,16.9463472 C22.1398969,14.8890269 19.5682474,12.754358 18.3331959,16.6772972 C17.8715979,18.1433243 15.0435052,36.9390498 18.5563918,43.2430945" id="Fill-38" fill="#B26D5F"></path>
                                    <path d="M29.9688402,22.8607448 C31.3631701,21.5422199 41.3672938,21.0532016 43.1783763,21.9736764 C46.3013144,23.5612513 48.075799,28.0251173 47.7425515,29.1097974 C47.5690979,29.6746225 30.5806959,31.8072357 27.9595619,29.1036301 C26.6881701,27.7920434 29.6188402,23.1919821 29.9688402,22.8607448" id="Fill-40" fill="#B26D5F"></path>
                                </g>
                                <g id="Group-61" transform="translate(16.917293, 11.791174)">
                                    <g id="Group-45">
                                        <mask id="mask-22" fill="white">
                                            <use xlink:href="#path-21"></use>
                                        </mask>
                                        <g id="Clip-44"></g>
                                        <path d="M-2.58715997,40.7032284 C-2.96081266,40.7032284 -3.28878529,40.4297675 -3.34729683,40.0473859 C-3.41145423,39.6258648 -3.12300257,39.2316383 -2.70264328,39.1672643 C8.5931651,37.4330282 19.6787938,33.8546053 29.3550128,28.8192696 C37.3926518,24.6365033 44.1381608,19.577478 47.8621129,14.9394587 C48.1290077,14.6075463 48.6132678,14.5547596 48.9445766,14.8225555 C49.2756287,15.0903514 49.3279812,15.5767615 49.0610864,15.9086739 C41.6185714,25.1785326 22.3182293,36.888939 -2.46962361,40.694216 C-2.50914457,40.7003959 -2.5484089,40.7032284 -2.58715997,40.7032284" id="Fill-43" fill="#BA7D6F" mask="url(#mask-22)"></path>
                                    </g>
                                    <g id="Group-48">
                                        <mask id="mask-24" fill="white">
                                            <use xlink:href="#path-23"></use>
                                        </mask>
                                        <g id="Clip-47"></g>
                                        <path d="M-5.15371257,34.7712656 C-5.23788708,34.7712656 -5.3212917,34.7710081 -5.40546621,34.7707506 C-5.83095808,34.7686906 -6.17407186,34.4213284 -6.17201882,33.9943999 C-6.16996578,33.5692739 -5.82556886,33.2257741 -5.40213003,33.2257741 L-5.39853721,33.2257741 C-5.31718563,33.2260316 -5.23480753,33.2262891 -5.15371257,33.2262891 C7.94235244,33.2262891 19.1311463,28.3181565 26.2290077,24.1863745 C32.5975278,20.4792035 40.4596322,14.3505394 43.6690419,9.01599327 C43.8887169,8.65060635 44.3614286,8.53318814 44.7260992,8.75360477 C45.09,8.97427891 45.2070231,9.44910167 44.9873482,9.8142311 C42.7497947,13.5332469 36.696929,19.8784651 27.001976,25.5225216 C19.7403849,29.7500921 8.2836698,34.7712656 -5.15371257,34.7712656" id="Fill-46" fill="#BA7D6F" mask="url(#mask-24)"></path>
                                    </g>
                                    <g id="Group-51">
                                        <mask id="mask-26" fill="white">
                                            <use xlink:href="#path-25"></use>
                                        </mask>
                                        <g id="Clip-50"></g>
                                        <path d="M-10.4742601,23.9252477 C-12.0253293,23.9252477 -13.6025749,23.9043905 -15.2083062,23.8629336 C-15.6335415,23.8521188 -15.969213,23.4972892 -15.9581779,23.0708757 C-15.9473995,22.6514146 -15.604799,22.3184722 -15.1888024,22.3184722 L-15.1687853,22.3184722 C11.4211206,23.0023818 30.2795466,17.9922807 44.1796322,6.54786766 C44.5086313,6.27723928 44.9934046,6.32487606 45.2631223,6.65498602 C45.53284,6.98483849 45.4851069,7.47176357 45.1563644,7.74213445 C31.7993071,18.7395343 14.0374594,23.9252477 -10.4742601,23.9252477" id="Fill-49" fill="#BA7D6F" mask="url(#mask-26)"></path>
                                    </g>
                                    <g id="Group-54">
                                        <mask id="mask-28" fill="white">
                                            <use xlink:href="#path-27"></use>
                                        </mask>
                                        <g id="Clip-53"></g>
                                        <path d="M-19.7613003,21.1923646 C-20.1649786,21.1923646 -20.5042429,20.8764169 -20.5288794,20.4667407 C-20.554799,20.0405847 -20.2317023,19.6744253 -19.8074936,19.6486756 C22.4804448,17.0662475 28.7943028,12.1957093 44.0486228,0.428138722 L45.3651326,-0.586653305 C45.7023439,-0.846466843 46.1855774,-0.783122809 46.4445167,-0.444257976 C46.7034559,-0.105908135 46.6398118,0.379214468 46.3026005,0.639028006 L44.9871172,1.65279005 C29.4682121,13.6242975 23.0450299,18.5798094 -19.7135672,21.1908196 C-19.7297348,21.1918496 -19.7453892,21.1923646 -19.7613003,21.1923646" id="Fill-52" fill="#BA7D6F" mask="url(#mask-28)"></path>
                                    </g>
                                    <g id="Group-57">
                                        <mask id="mask-30" fill="white">
                                            <use xlink:href="#path-29"></use>
                                        </mask>
                                        <g id="Clip-56"></g>
                                        <path d="M-10.9789991,10.5495369 C-12.8944825,10.5495369 -14.8117622,10.5047326 -16.7316082,10.4092015 C-17.1560736,10.3883443 -17.4835329,10.0257899 -17.4624893,9.59963387 C-17.4417023,9.17347787 -17.0729256,8.84208043 -16.6553892,8.86628506 C8.43682635,10.1125661 35.6996151,2.25043844 40.9882378,-1.54016127 C41.3346878,-1.78812998 41.8150984,-1.70779121 42.0624893,-1.36042901 C42.309367,-1.0130668 42.2292985,-0.530776657 41.8833618,-0.282807938 C37.1041488,3.14214734 13.5878956,10.5495369 -10.9789991,10.5495369" id="Fill-55" fill="#BA7D6F" mask="url(#mask-30)"></path>
                                    </g>
                                    <g id="Group-60">
                                        <mask id="mask-32" fill="white">
                                            <use xlink:href="#path-31"></use>
                                        </mask>
                                        <g id="Clip-59"></g>
                                        <path d="M21.4944226,42.9190851 C21.1967322,42.9190851 20.9134132,42.7450177 20.787408,42.4535322 C20.6185458,42.0621381 20.7976732,41.6074001 21.1877502,41.4377102 C30.8880924,37.2188945 39.8531908,30.9133306 47.114012,23.2026107 C47.4060565,22.8928429 47.8933961,22.8786806 48.2023781,23.1717112 C48.5113601,23.4644842 48.5252181,23.9534693 48.2331737,24.263752 C40.8306929,32.1253647 31.6900599,38.5542691 21.8000684,42.855226 C21.7004962,42.8984854 21.5963045,42.9190851 21.4944226,42.9190851" id="Fill-58" fill="#BA7D6F" mask="url(#mask-32)"></path>
                                    </g>
                                </g>
                                <g id="Group-94" transform="translate(5.639098, 10.106721)">
                                    <path d="M31.0955117,18.0445701 C30.1994429,18.0445701 29.3685334,17.7865618 28.7554202,17.3183436 C28.0314848,16.7648079 27.6484814,15.965085 27.6484814,15.0055203 C27.6484814,14.721557 27.8783348,14.4915596 28.1615469,14.4915596 C28.4450156,14.4915596 28.6746124,14.721557 28.6746124,15.0055203 C28.6746124,15.6412897 28.9111355,16.1442003 29.3780251,16.501146 C29.8131046,16.8334217 30.4228829,17.0166487 31.0955117,17.0166487 C32.5031067,17.0166487 33.9284026,16.2302887 33.9284026,14.7274676 C33.9284026,14.4435043 34.1579994,14.2135068 34.441468,14.2135068 C34.7246801,14.2135068 34.9545335,14.4435043 34.9545335,14.7274676 C34.9545335,16.8822479 32.9661483,18.0445701 31.0955117,18.0445701" id="Fill-62" fill="#60342B"></path>
                                    <path d="M20.0375403,10.6521188 C20.0231745,10.6521188 20.0088086,10.6513478 19.9939297,10.6503199 C19.7114872,10.6264207 19.5019,10.3779207 19.5257575,10.0949853 C19.6768553,8.2999775 20.9074428,7.49717084 22.0610704,7.49717084 L22.0644054,7.49717084 C23.218033,7.49871272 24.4524685,8.31282651 24.5786826,9.86627281 C24.6017705,10.1494652 24.3916702,10.3974512 24.1089712,10.4205795 C23.8306332,10.4462775 23.5792311,10.2329838 23.5561431,9.95030539 C23.4763615,8.97223813 22.7262598,8.52586324 22.0631227,8.52509229 L22.0610704,8.52509229 C21.3966507,8.52509229 20.6511666,8.95990307 20.5482969,10.1813307 C20.5257221,10.4496182 20.3012559,10.6521188 20.0375403,10.6521188" id="Fill-64" fill="#C1564D"></path>
                                    <path d="M37.9948311,10.6521188 C37.9804652,10.6521188 37.9660994,10.6513478 37.9512205,10.6503199 C37.668778,10.6264207 37.4591907,10.3779207 37.4830483,10.0949853 C37.634146,8.2999775 38.8647335,7.49717084 40.0183612,7.49717084 L40.0216961,7.49717084 C41.1753238,7.49871272 42.4097593,8.31282651 42.5359734,9.86627281 C42.5590613,10.1494652 42.348961,10.3974512 42.0662619,10.4205795 C41.7889501,10.4462775 41.5362653,10.2329838 41.5134339,9.95030539 C41.4336522,8.97223813 40.6835506,8.52586324 40.0204135,8.52509229 L40.0183612,8.52509229 C39.3539414,8.52509229 38.6084573,8.95990307 38.5055877,10.1813307 C38.4830128,10.4496182 38.2585467,10.6521188 37.9948311,10.6521188" id="Fill-66" fill="#C1564D"></path>
                                    <path d="M17.7402897,4.11769917 C17.3929444,4.11769917 17.0781788,3.88102025 16.9927534,3.52818621 C16.8927056,3.11444782 17.146673,2.69762567 17.5596907,2.59740333 L24.0907573,1.01234845 C24.5040316,0.911098183 24.9196146,1.16653666 25.0199189,1.58001807 C25.1199666,1.99375646 24.8659992,2.41032163 24.4529816,2.51080095 L17.9219149,4.09585583 C17.8611166,4.1107607 17.8000619,4.11769917 17.7402897,4.11769917" id="Fill-68" fill="#965342"></path>
                                    <path d="M43.7573,2.98210294 C43.7090719,2.98210294 43.659561,2.97747729 43.6100502,2.96796902 L36.9658526,1.67818457 C36.5487304,1.59672179 36.2760361,1.1922347 36.356844,0.774384629 C36.4379083,0.356534557 36.8386124,0.0841353712 37.2590695,0.164313245 L43.9030106,1.45435467 C44.3201328,1.53504651 44.5930836,1.9395336 44.5120193,2.35764065 C44.4407032,2.72615049 44.1184981,2.98210294 43.7573,2.98210294" id="Fill-70" fill="#965342"></path>
                                    <path d="M20.4935016,44.7597348 C9.90613945,47.7612654 0.706875924,55.082893 0.25178687,56.2436733 C-0.119672516,57.190132 0.636072892,58.1820762 1.37822207,58.8756662 C3.87172016,61.2041653 6.87417917,62.9827264 10.1123918,64.0497088 C11.5492316,57.4173026 16.8379102,50.4739502 20.4935016,44.7597348" id="Fill-72" fill="#79E3AA"></path>
                                    <path d="M43.3805304,45.2576342 C53.9678925,48.2591649 61.8962929,55.0827645 62.351382,56.2438018 C62.7225848,57.1902605 61.9670959,58.1822047 61.2249468,58.8755377 C58.7311921,61.2042938 55.7287331,62.9828549 52.4905205,64.0498373 C51.0536807,57.4171741 47.0361217,50.9718496 43.3805304,45.2576342" id="Fill-74" fill="#79E3AA"></path>
                                    <path d="M9.7454217,59.7125227 C9.64075635,59.7125227 9.53506487,59.6804002 9.44373921,59.6138423 C6.94305821,57.7892817 4.52754607,55.7925443 2.26492743,53.6793947 C2.05739246,53.4861455 2.04610502,53.1608084 2.23927416,52.9531682 C2.4324433,52.7455281 2.7577268,52.734221 2.96423564,52.9277272 C5.19735301,55.0126089 7.58054203,56.9826203 10.0481303,58.7830248 C10.2769575,58.950062 10.3274945,59.2715444 10.1604916,59.5010279 C10.0604439,59.6392833 9.90395892,59.7125227 9.7454217,59.7125227" id="Fill-76" fill="#C9F4DD"></path>
                                    <path d="M7.81165236,61.0626719 C7.70698701,61.0626719 7.60129553,61.0305493 7.50996988,60.9639914 C5.00851927,59.1389169 2.59326367,57.1421794 0.330901562,55.0295439 C0.12362312,54.8360377 0.11233568,54.5109575 0.305504823,54.3033174 C0.498673965,54.0956772 0.823700928,54.0843701 1.03072284,54.2778763 C3.26281408,56.362244 5.64625963,58.3322555 8.11436098,60.1331739 C8.34318817,60.3002111 8.39372512,60.6216936 8.22672231,60.851177 C8.12667455,60.9894325 7.97018959,61.0626719 7.81165236,61.0626719" id="Fill-78" fill="#C9F4DD"></path>
                                    <path d="M53.0250578,59.4038636 C52.8665206,59.4038636 52.7100356,59.3306242 52.6099878,59.1926258 C52.442985,58.9631423 52.493522,58.6416599 52.7223492,58.4746226 C55.1912201,56.6734473 57.1980756,55.014639 59.4329887,52.9277015 C59.6394976,52.7341953 59.9645245,52.7455024 60.1579502,52.9531425 C60.3511193,53.1607827 60.3398319,53.4861198 60.1322969,53.679626 C57.8658303,55.7961163 55.8307562,57.4785667 53.3267403,59.3054401 C53.2354146,59.3719981 53.1297231,59.4038636 53.0250578,59.4038636" id="Fill-80" fill="#C9F4DD"></path>
                                    <path d="M54.9002094,61.0626719 C54.7416722,61.0626719 54.5851872,60.9894325 54.4851394,60.851177 C54.3181366,60.6216936 54.3686736,60.3002111 54.5975008,60.1331739 C57.0656021,58.3322555 59.4490477,56.362244 61.6811389,54.2778763 C61.8881608,54.0843701 62.2131878,54.0956772 62.4063569,54.3033174 C62.5995261,54.5109575 62.5882386,54.8360377 62.3809602,55.0295439 C60.1185981,57.1421794 57.7033425,59.1389169 55.2018919,60.9639914 C55.1105662,61.0305493 55.0048747,61.0626719 54.9002094,61.0626719" id="Fill-82" fill="#C9F4DD"></path>
                                    <path d="M32.1830309,51.366186 C31.631229,51.366186 31.0742964,51.3435717 30.5135159,51.2975722 C25.5344722,50.8907723 21.3719722,48.6743167 19.379226,45.3687783 C19.2327458,45.1259318 19.3104752,44.809846 19.5531552,44.6631102 C19.7955786,44.5161174 20.1108573,44.5942394 20.2575941,44.8373429 C22.0802591,47.8609738 25.9456942,49.8931745 30.596889,50.2729915 C35.9784325,50.7124279 41.1875861,48.7968963 44.1879928,45.2724106 C44.3719268,45.0560332 44.695158,45.0305921 44.9111586,45.214847 C45.1269026,45.398845 45.1525559,45.7234112 44.9686219,45.9395316 C42.0249089,49.3972024 37.3316427,51.366186 32.1830309,51.366186" id="Fill-84" fill="#C9F4DD"></path>
                                    <path d="M26.2539696,163.849318 L26.2539696,152.268755 L15.964955,152.268755 L15.964955,155.817654 C15.964955,156.867162 15.2510244,157.782012 14.2343852,158.03488 L9.20249584,159.287917 C7.110728,159.808559 5.64207815,161.690169 5.64207815,163.849318 L26.2539696,163.849318 Z" id="Fill-86" fill="#373753"></path>
                                    <path d="M25.7433925,153.525183 C25.7241525,153.525183 25.7049126,153.523641 25.6851595,153.520815 C25.4750592,153.488949 25.3306313,153.292616 25.3624414,153.081892 C25.4093869,152.770689 25.5933208,152.491608 25.8942337,152.274203 C26.2975032,151.98253 26.9167732,151.816778 27.3326127,151.888732 C27.5421999,151.92471 27.6827799,152.124383 27.6466088,152.334079 C27.6104376,152.544032 27.4134205,152.684858 27.2020375,152.648623 C27.0299041,152.617529 26.6199648,152.700019 26.3444486,152.899436 C26.2541491,152.964452 26.1428139,153.0693 26.1233174,153.197533 C26.0943292,153.38847 25.9304048,153.525183 25.7433925,153.525183" id="Fill-88" fill="#373753"></path>
                                    <path d="M37.2685869,163.849318 L37.2685869,152.268755 L47.5576015,152.268755 L47.5576015,155.817654 C47.5576015,156.867162 48.271532,157.782012 49.2881712,158.03488 L54.3200606,159.287917 C56.4118285,159.808559 57.8804783,161.690169 57.8804783,163.849318 L37.2685869,163.849318 Z" id="Fill-90" fill="#373753"></path>
                                    <path d="M37.7362974,153.542992 C37.5618551,153.542992 37.4040875,153.423496 37.3620161,153.246437 C37.2717166,152.864821 36.6986225,152.585226 36.3176714,152.648957 C36.1088538,152.683907 35.9100409,152.54154 35.875409,152.331073 C35.8410336,152.12112 35.9831527,151.922731 36.19274,151.888296 C36.9371979,151.765716 37.9161268,152.244213 38.1110917,153.068606 C38.1598329,153.275733 38.0318231,153.48363 37.8253142,153.532713 C37.7952999,153.539651 37.7655421,153.542992 37.7362974,153.542992" id="Fill-92" fill="#373753"></path>
                                </g>
                            </g>
                            <g id="lady" transform="translate(133.311200, 139.903617) rotate(10.000000) translate(-133.311200, -139.903617) translate(89.359587, 38.693939)">
                                <g id="Group-43" transform="translate(0.309638, 0.399586)">
                                    <g id="Group-9" transform="translate(0.000000, 0.000000)" fill="#FF7641">
                                        <path d="M47.8288848,79.060653 C78.5803937,63.1432615 51.0024881,60.9792301 58.1759832,51.5741617 C62.6215558,45.7449198 59.3472998,44.0259262 55.5356052,40.4087007 C51.9298975,36.9867085 52.3114414,32.2310144 52.420989,27.3031387 C53.1606694,-5.94249875 22.315062,1.06284711 22.315062,1.06284711 C22.315062,1.06284711 -9.28895193,5.48029374 3.06136937,36.3318538 C4.89184419,40.9050166 6.916134,45.2203774 4.74156736,49.6999223 C2.44294041,54.4344466 -0.0190716342,57.202525 6.18628483,61.0836682 C16.1972499,67.3457163 -8.8531023,79.1359237 25.5078595,83.1436157" id="Fill-7"></path>
                                    </g>
                                    <g id="Group-12" transform="translate(3.915709, 57.846214)" fill="#FFBDA6">
                                        <path d="M4.42562047,56.3753378 C4.33948048,56.3913328 4.25193603,56.4035643 4.16298713,56.4120323 C2.46921273,56.5743346 0.964571786,55.3262531 0.803059302,53.6232545 C-0.00497127216,45.1129659 0.826466908,35.8819609 3.14475625,27.632297 C6.1250127,17.0280729 11.3669121,8.16495313 18.7248591,1.28709694 C19.9706119,0.122283537 21.9204655,0.193320219 23.0796102,1.44563576 C24.2387549,2.69748085 24.1680639,4.65687012 22.9223111,5.82168352 C16.4028245,11.9148431 11.7442427,19.8192029 9.07577556,29.3150666 C6.95972794,36.8449548 6.20038519,45.2691525 6.93772479,53.0352025 C7.09081054,54.6483467 5.98363076,56.0907207 4.42562047,56.3753378" id="Fill-10"></path>
                                    </g>
                                    <g id="Group-15" transform="translate(4.475096, 89.858197)" fill="#CE8D4F">
                                        <path d="M6.45825136,8.2066499 L0.328267384,7.5710833 C0.573579099,5.17982865 0.938269608,2.79186709 1.41110326,0.474001327 L7.44792495,1.7187898 C7.01582054,3.835777 6.68296438,6.01909646 6.45825136,8.2066499" id="Fill-13"></path>
                                    </g>
                                    <g id="Group-18" transform="translate(5.034483, 58.969442)" fill="#FFD56A">
                                        <path d="M6.59444478,34.1438192 L0.529065803,33.0467494 C2.19006956,23.7748159 6.50128251,10.5431754 17.6063191,0.164292871 L21.803303,4.69840901 C11.9412102,13.9157713 8.08925453,25.7986556 6.59444478,34.1438192" id="Fill-16"></path>
                                    </g>
                                    <g id="Group-21" transform="translate(36.919542, 55.038146)" fill="#FFBDA6">
                                        <path d="M37.154887,47.1600483 C35.5973448,47.4446654 34.0552517,46.4877872 33.6329785,44.9235689 C31.5997938,37.3941511 27.9355671,29.7795834 23.3149056,23.4822521 C17.4873479,15.5397866 10.3559865,9.79193111 2.11791352,6.39816541 C0.543517909,5.74989688 -0.209738866,3.94104893 0.435842919,2.35895383 C1.0814247,0.776388291 2.88100149,0.0194477576 4.45586525,0.668657165 C13.7538347,4.49899267 21.7676628,10.9383973 28.2749774,19.8066919 C33.3375745,26.7066588 37.3524472,35.0508815 39.5803831,43.3019567 C40.026064,44.9527363 39.0560528,46.6533827 37.4137751,47.1012431 C37.3276351,47.1247651 37.2414951,47.1445237 37.154887,47.1600483" id="Fill-19"></path>
                                    </g>
                                    <g id="Group-24" transform="translate(62.651345, 78.625923)" fill="#CE8D4F">
                                        <path d="M3.33215184,9.36945142 C2.3546502,7.40159421 1.27743215,5.47701762 0.13092759,3.64841112 L5.34380154,0.345911095 C6.59938555,2.3476401 7.77819261,4.4533367 8.84604761,6.6041957 L3.33215184,9.36945142 Z" id="Fill-22"></path>
                                    </g>
                                    <g id="Group-27" transform="translate(38.597703, 55.599760)" fill="#FFD56A">
                                        <path d="M24.9986386,28.008182 C20.6733811,20.7271574 12.9015876,10.970669 0.439846126,5.83673985 L2.77779786,0.106761168 C16.8101898,5.88801799 25.4841124,16.7443988 30.289694,24.8336421 L24.9986386,28.008182 Z" id="Fill-25"></path>
                                    </g>
                                    <g id="Group-12" transform="translate(49.203674, 149.325613) rotate(-10.000000) translate(-49.203674, -149.325613) translate(19.364964, 102.148193)">
                                        <g id="Group-3" transform="translate(0.483192, 83.355652)">
                                            <mask id="mask-34" fill="white">
                                                <use xlink:href="#path-33"></use>
                                            </mask>
                                            <g id="Clip-2"></g>
                                            <path d="M55.7487268,1.51704786 C49.992947,-0.27802407 0.217663028,-1.73323545 0.000943398628,4.88150725 C-0.140566396,9.20525905 14.4205294,10.1384084 18.6273011,10.2704578 C59.2130963,11.5442679 61.5493181,3.32599165 55.7487268,1.51704786" id="Fill-1" fill="#E7EBF1" mask="url(#mask-34)"></path>
                                        </g>
                                        <path d="M22.0195915,88.4101751 C20.3204899,88.4101751 18.942963,87.0541077 18.942963,85.380887 L18.942963,3.26610716 C18.942963,1.59288649 20.3204899,0.236819099 22.0195915,0.236819099 C23.718693,0.236819099 25.09622,1.59288649 25.09622,3.26610716 L25.09622,85.380887 C25.09622,87.0541077 23.718693,88.4101751 22.0195915,88.4101751" id="Fill-4" fill="#FFBDA6"></path>
                                        <path d="M18.942963,69.8769219 L18.942963,85.3897195 C18.942963,87.0580616 20.3204899,88.4101751 22.0195915,88.4101751 C23.7189606,88.4101751 25.09622,87.0580616 25.09622,85.3897195 L25.09622,69.8769219 L18.942963,69.8769219 Z" id="Fill-6" fill="#CE8D4F"></path>
                                        <path d="M37.1230407,88.4101751 C35.4239391,88.4101751 34.0464121,87.0541077 34.0464121,85.380887 L34.0464121,3.26610716 C34.0464121,1.59288649 35.4239391,0.236819099 37.1230407,0.236819099 C38.8221422,0.236819099 40.1996692,1.59288649 40.1996692,3.26610716 L40.1996692,85.380887 C40.1996692,87.0541077 38.8221422,88.4101751 37.1230407,88.4101751" id="Fill-8" fill="#FFBDA6"></path>
                                        <path d="M34.0464121,69.8769219 L34.0464121,85.3897195 C34.0464121,87.0580616 35.4239391,88.4101751 37.1230407,88.4101751 C38.8224098,88.4101751 40.1996692,87.0580616 40.1996692,85.3897195 L40.1996692,69.8769219 L34.0464121,69.8769219 Z" id="Fill-10" fill="#CE8D4F"></path>
                                    </g>
                                    <g id="Group-36" transform="translate(8.390805, 7.300979)" fill="#FFBDA6">
                                        <path d="M12.6557987,1.39144341 C-5.78564999,7.97103962 -4.20984992,38.7421542 18.8948621,35.8748127 C25.461632,35.0576556 32.1351406,31.2169704 35.5465651,25.2950515 C42.3375799,13.4944944 30.8669165,-5.10958905 12.6557987,1.39144341" id="Fill-34"></path>
                                    </g>
                                    <g id="Group-39" transform="translate(24.613028, 39.874575)" fill="#FFBDA6">
                                        <path d="M9.34137231,0.698545078 C11.2018089,7.18734606 14.0959253,13.3872959 14.5397335,15.4214854 C14.5856125,15.6308319 14.6394499,15.8387671 14.7129498,16.0387048 C15.4179869,17.9604587 10.8783157,19.7410801 8.70468541,20.1047315 C7.68832714,20.2740905 1.54663937,21.4534876 1.5756648,19.0937525 C1.46330829,18.7503301 1.61545773,12.9709551 0.392644373,2.28816724 C0.337402422,1.80502372 0.592545332,1.35292934 1.02886312,1.28424487 C8.28709372,0.236100985 9.07405744,-0.231517965 9.34137231,0.698545078" id="Fill-37"></path>
                                    </g>
                                    <g id="Group-42" transform="translate(15.103449, 55.038146)" fill="#FFD56A">
                                        <path d="M39.6178521,30.6982617 C39.586486,30.6102891 39.5513745,30.5340776 39.5129861,30.4672749 C38.0420521,14.8933057 24.2699528,-0.951167351 22.7971462,0.669033518 C22.7971462,0.669033518 12.2066087,2.23042919 12.2543602,2.22619521 C9.34058139,2.7587351 3.56311597,22.1762121 6.97922205,35.7512749 C-8.38693526,43.3197394 6.35143005,94.9314168 7.81768251,94.6632651 C11.3718935,93.9646594 13.8793163,92.8793506 16.5852356,90.3408477 C21.7920235,94.6477406 28.5998918,94.0775653 31.9935266,89.0560717 C36.8641813,92.0485507 42.1940933,90.4212932 45.3896997,85.9690339 C51.8946736,89.9282704 57.9188552,87.6343972 59.4689069,84.0105856 C59.9267596,82.984082 53.6567982,32.9065146 39.6178521,30.6982617" id="Fill-40"></path>
                                    </g>
                                </g>
                                <g id="Group-56" transform="translate(16.024972, 55.884247)">
                                    <g id="Group-49">
                                        <mask id="mask-36" fill="white">
                                            <use xlink:href="#path-35"></use>
                                        </mask>
                                        <g id="Clip-48"></g>
                                        <path d="M9.78489445,49.6262257 C9.78161739,49.6271666 9.77834032,49.6276371 9.77506326,49.6281075 C9.33687287,49.7024373 8.92209008,49.4060591 8.84812204,48.9666666 C7.93148018,43.5217755 9.05130007,38.7971305 12.1762155,34.9244553 C12.4557023,34.5782103 12.9617748,34.5245799 13.3068029,34.805904 C13.6513629,35.0867577 13.7047322,35.595305 13.4247773,35.9420205 C10.6036925,39.4388129 9.59716545,43.7301812 10.4332852,48.6966331 C10.506785,49.1336734 10.2169989,49.5471915 9.78489445,49.6262257" id="Fill-47" fill="#FFE296" mask="url(#mask-36)"></path>
                                    </g>
                                    <g id="Group-52" transform="translate(30.898040, 30.578704)" fill="#FFE296">
                                        <path d="M6.06322548,10.3539962 C5.62643954,10.4335008 5.20791154,10.1427679 5.12832568,9.70384592 C4.72056517,7.45184198 2.84046622,3.34488682 0.507664168,1.80936544 C0.13641953,1.5647358 0.0324897577,1.06418594 0.275928865,0.691125754 C0.518899819,0.318065566 1.01701368,0.213157089 1.38872647,0.458257162 C4.2538175,2.34425754 6.25797676,6.91742033 6.71021172,9.41452434 C6.78932943,9.85391679 6.50001141,10.2740211 6.06322548,10.3539962" id="Fill-50"></path>
                                    </g>
                                    <g id="Group-55" transform="translate(18.257933, 33.401354)" fill="#FFE296">
                                        <path d="M1.42650635,8.70194645 C1.42416559,8.70241689 1.42135668,8.70288733 1.41854776,8.70335777 C0.980825524,8.77862843 0.565574586,8.48366154 0.490202094,8.04426909 C0.0637155047,5.54951729 0.516418613,2.96491114 1.76451219,0.766537543 C1.98454369,0.379364106 2.47563527,0.244347367 2.86092447,0.465454919 C3.24668183,0.686562471 3.38104149,1.18005571 3.16100999,1.56722915 C2.11234922,3.41371242 1.71629252,5.67465475 2.0744289,7.77047208 C2.14933324,8.20751232 1.85954707,8.62244182 1.42650635,8.70194645" id="Fill-53"></path>
                                    </g>
                                    <g id="Group-46">
                                        <mask id="mask-38" fill="white">
                                            <use xlink:href="#path-37"></use>
                                        </mask>
                                        <g id="Clip-45"></g>
                                        <path d="M23.6420102,34.044212 C17.3996697,35.1864442 11.0618262,35.7839051 4.67389041,35.8295379 C4.23008219,35.8323605 3.86773244,35.4734136 3.86445538,35.027435 C3.86117831,34.5814563 4.21978284,34.2173345 4.6621866,34.213571 C16.726467,34.1284211 28.6133176,32.042483 39.9922233,28.0164438 C40.4116876,27.869666 40.8695404,28.0893623 41.0170083,28.509937 C41.1649444,28.9309823 40.9449129,29.3915446 40.5259167,29.5402041 C35.0040624,31.4939481 29.3628292,32.9974795 23.6420102,34.044212" id="Fill-44" fill="#FFFFFF" mask="url(#mask-38)"></path>
                                    </g>
                                </g>
                                <g id="Group-76" transform="translate(10.793811, 6.017437)">
                                    <g id="Group-63" transform="translate(16.466812, 51.196143)" fill="#FFE296">
                                        <g id="Group-59" transform="translate(0.854817, 0.552433)">
                                            <path d="M9.61535851,0.332319946 C7.39491297,3.69550694 6.27696568,9.21990265 7.22965527,15.9011142 C6.01245973,10.5272599 2.37772661,5.04144036 0.0112175961,2.12046847 L9.61535851,0.332319946 Z" id="Fill-57"></path>
                                        </g>
                                        <g id="Group-62">
                                            <path d="M2.31824253,3.22407069 C3.92447248,5.35281893 5.63229144,8.042804 6.95341675,10.8720398 C7.05500576,7.49238733 7.72305885,4.442044 8.91544232,1.99574768 L2.31824253,3.22407069 Z M8.22866315,17.2484052 C7.80498547,17.3255576 7.39628866,17.0541128 7.30078563,16.6325972 C6.20250074,11.784226 2.93479888,6.50634174 0.242924139,3.18267183 C0.0636218743,2.96156428 0.0139977486,2.66189298 0.111841544,2.39421171 C0.209685338,2.12653044 0.440484338,1.93082674 0.719503006,1.87860772 L10.3236439,0.090459199 C10.3245802,0.090459199 10.3255165,0.0899887574 10.3259847,0.0899887574 C10.6424555,0.0321244407 10.9631397,0.169493388 11.1405694,0.439056424 C11.3184672,0.709560344 11.3184672,1.06050978 11.1401012,1.33148414 C8.84053798,4.8141633 8.01659023,10.2844582 8.88033091,16.3390416 C8.94119069,16.7676139 8.65468158,17.1689006 8.23053576,17.2479348 C8.22959945,17.2479348 8.2291313,17.2479348 8.22866315,17.2484052 Z" id="Fill-60"></path>
                                        </g>
                                    </g>
                                    <g id="Group-66" transform="translate(12.253443, 47.903052)" fill="#CE8D4F">
                                        <path d="M17.9880433,0.350425227 C19.3278947,0.87779026 20.0507216,2.39872795 19.5493307,3.7540702 C18.8236949,5.71487079 16.4969788,3.61999434 15.86076,3.79311685 C15.0503887,3.94648081 15.0222996,5.57514963 13.8406836,5.92045377 C12.7798509,6.23000434 11.0626689,5.08118595 10.0285208,5.47118204 C9.18584699,5.78873012 8.54307412,8.11082986 6.17656511,7.29320236 C5.62555005,7.10314395 4.7997297,6.32832663 4.22015736,6.38383874 C3.56333993,6.44687792 2.0399729,8.78497267 0.673436837,7.2066411 C-0.271294158,6.11615747 -0.128039607,4.43668096 0.940751702,3.46851215 C3.45847385,1.18875216 7.49722226,1.2786065 10.8632361,0.882024235 C13.2063375,0.606345457 15.7914735,-0.514246433 17.9880433,0.350425227" id="Fill-64"></path>
                                    </g>
                                    <g id="Group-69" fill="#FF7641">
                                        <path d="M28.7183997,3.24294212 L21.6076371,0.338435687 L4.40491895,3.65975338 L0.0609353521,8.89435706 C0.493039767,11.657731 0.834790821,16.7408525 1.94477952,16.2920512 C2.16387471,16.2031378 25.6056562,12.3078813 28.7694283,11.6036302 C30.5427886,11.162356 29.0980711,5.28606999 28.7183997,3.24294212" id="Fill-67"></path>
                                    </g>
                                    <g id="Group-72" transform="translate(8.040073, 21.640314)" fill="#C1564D">
                                        <path d="M1.24659549,0.179097117 C0.583692074,0.402086435 0.0462534303,1.13879798 0.390813397,1.82846537 C0.653914893,2.35394863 1.27796168,2.67620113 1.93477912,2.38970219 C2.73063774,2.04298673 2.94692402,0.741274829 2.26201745,0.243077175 C1.96895422,0.0294966883 1.59302806,0.0628980419 1.24659549,0.179097117" id="Fill-70"></path>
                                    </g>
                                    <g id="Group-75" transform="translate(22.084637, 18.817664)" fill="#C1564D">
                                        <path d="M1.01116178,0.446025681 C0.393200973,0.869893562 0.0533225274,1.78725468 0.609019104,2.39647655 C1.03222863,2.86080241 1.7737816,3.01463681 2.36271698,2.52161402 C3.09912028,1.90486508 2.95867464,0.939518919 2.15064406,0.505301322 C1.80842486,0.321358657 1.33418675,0.224918129 1.01116178,0.446025681" id="Fill-73"></path>
                                    </g>
                                </g>
                                <g id="Group-86" transform="translate(10.793811, 6.017437)">
                                    <g id="Group-79">
                                        <mask id="mask-40" fill="white">
                                            <use xlink:href="#path-39"></use>
                                        </mask>
                                        <g id="Clip-78"></g>
                                        <path d="M6.55088149,16.7125319 C6.26858576,16.7642805 5.99424861,16.5822196 5.93198438,16.2980729 C5.46617301,14.1636793 5.1562563,11.975185 5.01112914,9.79374731 C4.99146675,9.4973691 5.21149825,9.23956711 5.50971116,9.22074944 C5.80511515,9.20099089 6.06072622,9.42539154 6.08038861,9.72176975 C6.2222387,11.8500475 6.52419682,13.9849115 6.97877254,16.0675565 C7.04197308,16.357819 6.85939375,16.6447883 6.57007573,16.7087684 C6.56398975,16.7101797 6.55743562,16.711591 6.55088149,16.7125319" id="Fill-77" fill="#FF9167" mask="url(#mask-40)"></path>
                                    </g>
                                    <g id="Group-82">
                                        <mask id="mask-42" fill="white">
                                            <use xlink:href="#path-41"></use>
                                        </mask>
                                        <g id="Clip-81"></g>
                                        <path d="M11.871805,16.0029649 C11.8507381,16.0067284 11.828735,16.009551 11.8067318,16.0109624 C11.5113278,16.0283687 11.2575894,15.8016158 11.2402677,15.5047672 C11.1208889,13.4672846 10.8058226,11.4321543 10.3039635,9.45488823 C10.2309317,9.16650753 10.404148,8.87342241 10.6911253,8.80003352 C10.9785707,8.72429242 11.2697613,8.90070802 11.3427931,9.18861828 C11.8610375,11.2322166 12.1864032,13.3360314 12.3104635,15.441728 C12.3263807,15.7164659 12.1344383,15.9545094 11.871805,16.0029649" id="Fill-80" fill="#FF9167" mask="url(#mask-42)"></path>
                                    </g>
                                    <g id="Group-85">
                                        <mask id="mask-44" fill="white">
                                            <use xlink:href="#path-43"></use>
                                        </mask>
                                        <g id="Clip-84"></g>
                                        <path d="M22.6619157,14.159116 C22.3721295,14.2118055 22.0940471,14.0203358 22.0392733,13.7291324 C21.6212135,11.5048845 20.9878036,9.30980404 20.1568336,7.20504832 C20.0482223,6.9288991 20.182582,6.615585 20.4578554,6.5059721 C20.7331289,6.39635921 21.0439819,6.53184639 21.1530614,6.80799561 C22.0088434,8.97626094 22.6614475,11.2376737 23.0926156,13.5291947 C23.1473894,13.8218094 22.9563833,14.1031335 22.6656609,14.1586456 C22.6642564,14.1586456 22.662852,14.159116 22.6619157,14.159116" id="Fill-83" fill="#FF9167" mask="url(#mask-44)"></path>
                                    </g>
                                </g>
                                <g id="Group-121" transform="translate(8.453051, 20.519136)">
                                    <g id="Group-89" transform="translate(16.466812, 10.902148)" fill="#C1564D">
                                        <path d="M0.182719776,1.99815365 C2.76879213,6.28105397 6.1703855,5.58056643 6.51213655,0.749601645 C6.53975753,0.357723792 6.19426126,0.0425279206 5.80990836,0.11591681 L0.58392615,1.11184168 C0.181315319,1.18852366 -0.0298212906,1.64626333 0.182719776,1.99815365" id="Fill-87"></path>
                                    </g>
                                    <g id="Group-92" transform="translate(16.934964, 2.822650)" fill="#EE9D8B">
                                        <path d="M2.09558937,7.56925749 C2.07779959,7.57255058 2.06047796,7.57537323 2.04315633,7.57819588 C1.75056125,7.62382871 1.47669226,7.42247971 1.4312815,7.12845371 C1.38587075,6.83489815 1.58858062,6.5549854 1.87836679,6.51358654 C2.50475433,6.41385292 3.15174057,5.88884009 3.17374372,5.68607976 C3.10024384,5.61222043 2.84416463,5.49696224 2.67141649,5.41933938 C1.98323286,5.1097888 0.835791995,4.59418481 0.811916237,2.9871563 L0.393388234,0.675406284 C0.340018891,0.382791609 0.53336572,0.102408416 0.824556344,0.0492485149 C1.11574697,-0.00391138587 1.39476564,0.189910553 1.44766683,0.482525228 L1.87462157,2.83990808 C1.88070755,2.87189811 1.88351646,2.90388814 1.88351646,2.93634861 C1.88351646,3.8217197 2.34651891,4.09363495 3.10913873,4.43611643 C3.58993097,4.65251957 4.1353282,4.89761964 4.23176754,5.49743268 C4.2673471,5.71665847 4.25096177,6.05913995 3.97147495,6.44584295 C3.54452021,7.03671759 2.69997377,7.45870371 2.09558937,7.56925749" id="Fill-90"></path>
                                    </g>
                                    <g id="Group-105" transform="translate(2.890400, 19.758547)" fill="#FF9167">
                                        <g id="Group-95" transform="translate(2.808913, 5.727290)">
                                            <path d="M0.753537666,4.1670776 C0.747451688,4.16801848 0.741365711,4.16942981 0.734811581,4.17037069 C0.442216501,4.21365132 0.169751962,4.00995011 0.127150118,3.71545367 C0.0250929541,3.01731833 0.334073359,2.22180159 0.975909927,1.53401597 C1.81343409,0.636413396 2.97819658,0.130688676 4.016558,0.215838606 C4.31149384,0.239360686 4.53105719,0.499514891 4.50718143,0.795893098 C4.48283752,1.09274175 4.22535385,1.31290842 3.92948171,1.28891589 C3.23193503,1.2324629 2.35883131,1.62669296 1.75772398,2.27072751 C1.34715457,2.71106085 1.13367719,3.19279305 1.18751469,3.55926705 C1.22964838,3.84670687 1.03630155,4.11532903 0.753537666,4.1670776" id="Fill-93"></path>
                                        </g>
                                        <g id="Group-98" transform="translate(0.000000, 16.465456)">
                                            <path d="M0.909432325,4.48518349 C0.881343197,4.49035835 0.852785917,4.493181 0.823292333,4.49412188 C0.527420188,4.49976718 0.283044777,4.26313506 0.276958799,3.96581596 C0.243719998,2.2642287 1.43797608,0.600747202 3.05590983,0.0973746905 C3.33773742,0.0061090202 3.63922739,0.16794093 3.72677183,0.452087657 C3.81431628,0.736234383 3.65608086,1.03778745 3.37331698,1.12576003 C2.19450992,1.49317492 1.32421511,2.70456204 1.34855902,3.94511653 C1.35370869,4.21232736 1.16363893,4.43860977 0.909432325,4.48518349" id="Fill-96"></path>
                                        </g>
                                        <g id="Group-101" transform="translate(33.238801, 0.000000)">
                                            <path d="M5.24896848,1.90556402 C5.04485415,1.94319935 4.82856787,1.85851986 4.70638016,1.67410676 C4.50273399,1.36549707 4.02334621,1.1509757 3.42504779,1.09922712 C2.54960331,1.02348602 1.63811111,1.31657114 1.15685072,1.82794116 C0.953672701,2.04434429 0.61473056,2.05328269 0.399848733,1.84958147 C0.184498754,1.64493938 0.175135711,1.30433966 0.378313735,1.08840696 C1.09365019,0.327702898 2.29633301,-0.079229086 3.51633745,0.0261498323 C4.45123725,0.106595346 5.21011185,0.489534808 5.59914627,1.07758681 C5.76299952,1.32597997 5.69605376,1.65999351 5.44933759,1.82417763 C5.38660521,1.86604693 5.318255,1.89333254 5.24896848,1.90556402" id="Fill-99"></path>
                                        </g>
                                        <g id="Group-104" transform="translate(37.920322, 10.431706)">
                                            <path d="M3.07758528,4.44270933 C3.04106941,4.44976596 3.00361724,4.45258861 2.96522877,4.45117728 C2.66935662,4.44223889 2.43668501,4.19431617 2.4455799,3.89699708 C2.48256392,2.65691302 1.62444107,1.43658751 0.448911076,1.05788203 C0.167551647,0.966616355 0.0121251401,0.663651965 0.102946653,0.380446122 C0.193300014,0.0972402787 0.494789985,-0.0584758908 0.776617566,0.0323193379 C2.38940165,0.552157306 3.5672724,2.22787028 3.51671197,3.92898711 C3.50922154,4.18772999 3.32149254,4.39801738 3.07758528,4.44270933" id="Fill-102"></path>
                                        </g>
                                    </g>
                                    <g id="Group-108" transform="translate(4.294856, 2.904641)" fill="#727491">
                                        <path d="M5.80929976,1.31281433 C3.77751953,1.68446319 1.98356057,3.31454333 1.48919192,5.27299171 C0.977501644,7.30200633 1.75042081,9.02147038 3.55655172,9.87202879 C5.4324373,10.7555181 8.25586279,10.5457012 9.79421068,8.41695292 C10.8564479,6.94776381 11.02311,4.88393651 10.1996304,3.39828194 C9.32324964,1.81806861 7.81299087,1.04372173 6.05507963,1.27470856 C5.97315301,1.28505827 5.89075823,1.29823064 5.80929976,1.31281433 Z M6.99606541,11.3275751 C5.63280641,11.5773796 4.22554111,11.3760306 3.10150785,10.8472542 C0.827692963,9.77652915 -0.187729004,7.5391089 0.4508305,5.00860354 C1.0776862,2.5213788 3.32341196,0.546935404 5.91603845,0.206335686 C8.13227062,-0.084397223 10.0348409,0.887535122 11.1359347,2.87421 C12.1714872,4.74233359 11.9809493,7.22438347 10.6612284,9.05016732 C9.71602928,10.3575245 8.3789868,11.0744775 6.99606541,11.3275751 Z" id="Fill-106"></path>
                                    </g>
                                    <g id="Group-111" transform="translate(21.148333, 0.000000)" fill="#727491">
                                        <path d="M5.63603666,1.16645323 C3.60425642,1.53810209 1.81029747,3.16818223 1.31592882,5.12663061 C0.804238542,7.15564523 1.57715771,8.87510928 3.38328862,9.72566769 C5.2591742,10.6086866 8.08259968,10.3988696 9.62094758,8.27059182 C10.6827166,6.80140271 10.8498469,4.73757541 10.0263673,3.25192084 C9.14998654,1.67123706 7.63972777,0.897360631 5.88181653,1.12787701 C5.79988991,1.13869717 5.71749513,1.15186954 5.63603666,1.16645323 Z M6.82280231,11.181214 C5.46001146,11.430548 4.05227801,11.2296695 2.9287129,10.7004227 C0.654898013,9.63016805 -0.360992106,7.3927478 0.277099245,4.86224243 C0.904423097,2.3750177 3.15155331,0.40010386 5.74277535,0.0599745834 C7.95900752,-0.230758325 9.86157777,0.74117402 10.9626716,2.7278489 C11.9982241,4.59644293 11.8076862,7.07802237 10.4879653,8.90380622 C9.54276617,10.2111634 8.20619185,10.9281164 6.82280231,11.181214 Z" id="Fill-109"></path>
                                    </g>
                                    <g id="Group-114" transform="translate(14.594203, 5.256849)" fill="#727491">
                                        <path d="M7.15565847,1.39217783 C7.10275728,1.4020571 7.04798348,1.40346842 6.99180522,1.3964118 C3.51577567,0.952785372 1.14973481,2.43891039 1.12679536,2.45349407 C0.876802122,2.61344422 0.546286719,2.54099621 0.386646843,2.29119172 C0.227006967,2.04091679 0.298634243,1.70878502 0.546286719,1.547894 C0.654898013,1.4777982 3.24518374,-0.166865635 7.12663304,0.328038927 C7.42063257,0.365674255 7.62849212,0.635237292 7.59103995,0.930204175 C7.56107821,1.16871807 7.37943519,1.35124941 7.15565847,1.39217783" id="Fill-112"></path>
                                    </g>
                                    <g id="Group-117" transform="translate(0.000000, 9.490823)" fill="#727491">
                                        <path d="M0.685263031,2.67464867 C0.417011861,2.7235746 0.150165148,2.56033136 0.074324503,2.29123877 C-0.00619766311,2.00521027 0.159060038,1.70742074 0.444164685,1.62650479 L5.03720522,0.319618023 C5.32277802,0.237761184 5.61818201,0.404767952 5.69870418,0.690796445 C5.77969449,0.977295379 5.61396864,1.27461447 5.32933215,1.35553043 L0.735823461,2.66288763 C0.718969984,2.66759205 0.702116507,2.67135558 0.685263031,2.67464867" id="Fill-115"></path>
                                    </g>
                                    <g id="Group-120" transform="translate(31.447680, 4.315966)" fill="#727491">
                                        <path d="M6.21912014,1.13470514 C6.20226666,1.13799823 6.18494503,1.14035044 6.1676234,1.14176176 L0.902784565,1.5877404 C0.607848724,1.61314425 0.348492444,1.39297758 0.323680382,1.09659937 C0.298868319,0.800221161 0.519836124,0.538655632 0.812899356,0.515133552 L6.07773819,0.0686844736 C6.37267403,0.0437510688 6.63156216,0.263447296 6.65684238,0.559825504 C6.67978183,0.838797372 6.48737131,1.08577921 6.21912014,1.13470514" id="Fill-118"></path>
                                    </g>
                                </g>
                            </g>
                        </g>
                    </g>
                </g>
            </g>
        </g>
    </g>
</svg>