<svg width="1327" height="1211" viewBox="0 0 1327 1211" fill="none" xmlns="http://www.w3.org/2000/svg">
<path opacity="0.5" fill-rule="evenodd" clip-rule="evenodd" d="M720.972 979.354C1124.69 971.586 1291.98 778.612 1301.67 560.628C1318.08 191.183 668.114 -90.6306 382.777 27.1219C-267.242 295.372 -46.3406 994.119 720.972 979.354Z" fill="#A3E0FC"/>
<mask id="mask0" mask-type="alpha" maskUnits="userSpaceOnUse" x="847" y="1037" width="283" height="51">
<path d="M847.564 1037.68L1129.06 1037.67L1129.06 1087.56L847.563 1087.56L847.564 1037.68Z" fill="white"/>
</mask>
<g mask="url(#mask0)">
<path fill-rule="evenodd" clip-rule="evenodd" d="M1117.61 1044.94C1089.73 1036.32 848.62 1029.34 847.569 1061.08C846.882 1081.82 917.417 1086.3 937.795 1086.93C1131.17 1092.94 1146.82 1053.96 1117.61 1044.94Z" fill="#E7EBF1"/>
</g>
<mask id="mask1" mask-type="alpha" maskUnits="userSpaceOnUse" x="928" y="962" width="36" height="104">
<path d="M928.856 962.892L963.519 962.891L963.517 1065.11L928.854 1065.11L928.856 962.892Z" fill="white"/>
</mask>
<g mask="url(#mask1)">
<path fill-rule="evenodd" clip-rule="evenodd" d="M946.185 1065.11C936.613 1065.11 928.854 1057.36 928.854 1047.8L928.856 980.199C928.856 970.641 936.615 962.892 946.187 962.892C955.759 962.892 963.519 970.64 963.519 980.198L963.517 1047.8C963.517 1057.36 955.757 1065.11 946.185 1065.11Z" fill="#B26D5F"/>
</g>
<path fill-rule="evenodd" clip-rule="evenodd" d="M963.557 1065.37L963.557 1040.42L928.432 1040.42L928.432 1044.17L912.413 1053.48C908.17 1055.95 905.56 1060.48 905.56 1065.38L963.557 1065.37Z" fill="#373753"/>
<mask id="mask2" mask-type="alpha" maskUnits="userSpaceOnUse" x="1005" y="962" width="36" height="104">
<path d="M1005.67 962.892L1040.33 962.891L1040.33 1065.11L1005.66 1065.11L1005.67 962.892Z" fill="white"/>
</mask>
<g mask="url(#mask2)">
<path fill-rule="evenodd" clip-rule="evenodd" d="M1023 1065.11C1013.42 1065.11 1005.67 1057.36 1005.67 1047.8L1005.67 980.199C1005.67 970.641 1013.43 962.892 1023 962.892C1032.57 962.892 1040.33 970.64 1040.33 980.198L1040.33 1047.8C1040.33 1057.36 1032.57 1065.11 1023 1065.11Z" fill="#B26D5F"/>
</g>
<path fill-rule="evenodd" clip-rule="evenodd" d="M1007.75 1065.38L1007.75 1040.42L1042.87 1040.42L1042.87 1044.17L1058.89 1053.48C1063.13 1055.95 1065.74 1060.48 1065.74 1065.37L1007.75 1065.38Z" fill="#373753"/>
<path fill-rule="evenodd" clip-rule="evenodd" d="M1055.38 594.381C1066.12 594.28 1058.78 608.222 1068.08 801.491C1068.26 805.118 1076.76 990.88 1074.07 993.446C1074.89 1007.01 1017.31 1025.52 982.857 1004.8C956.501 1016.9 917.315 1009.4 900.215 1001.18C897.786 1001.24 896.039 999.036 896.363 996.775C902.01 957.099 909.527 804.703 910.276 764.605C910.415 756.12 910.136 723.142 910.078 714.654C909.325 608.696 914.496 637.284 920.628 599.49C920.955 597.366 922.919 595.962 924.976 596.281L1055.38 594.381Z" fill="#4DA2F8"/>
<mask id="mask3" mask-type="alpha" maskUnits="userSpaceOnUse" x="911" y="594" width="153" height="101">
<path d="M920.625 599.487C912.562 635.386 911.903 641.863 911.222 694.481L1063.88 694.628C1061.21 602.754 1063.68 594.767 1055.37 594.379L924.971 596.279C924.551 596.214 924.133 596.221 923.732 596.292C922.181 596.565 920.883 597.799 920.625 599.487Z" fill="white"/>
</mask>
<g mask="url(#mask3)">
<path fill-rule="evenodd" clip-rule="evenodd" d="M906.638 634.465C906.594 634.466 906.554 634.466 906.511 634.466C905.164 634.475 904.065 633.388 904.054 632.033C904.043 630.683 905.12 629.578 906.462 629.568C906.501 629.578 906.542 629.568 906.581 629.566C924.384 629.401 938.493 619.436 948.515 599.944C949.132 598.745 950.602 598.276 951.797 598.898C952.993 599.52 953.46 600.999 952.844 602.2C941.929 623.426 926.383 634.278 906.638 634.465Z" fill="#4384CD"/>
</g>
<mask id="mask4" mask-type="alpha" maskUnits="userSpaceOnUse" x="911" y="594" width="153" height="101">
<path d="M920.625 599.487C912.562 635.386 911.903 641.863 911.222 694.481L1063.88 694.628C1061.21 602.754 1063.68 594.767 1055.37 594.379L924.971 596.279C924.551 596.214 924.133 596.221 923.732 596.292C922.181 596.565 920.883 597.799 920.625 599.487Z" fill="white"/>
</mask>
<g mask="url(#mask4)">
<path fill-rule="evenodd" clip-rule="evenodd" d="M1063.07 636.263C1055.86 636.329 1047.12 633.045 1040.11 627.419C1030.97 620.088 1025.87 609.972 1025.75 598.942C1025.73 597.591 1026.81 596.485 1028.16 596.47L1028.16 596.47C1029.51 596.459 1030.61 597.546 1030.62 598.897C1030.76 611.757 1038.53 619.889 1043.15 623.593C1050.33 629.354 1059.75 632.418 1066.05 631.047C1067.37 630.758 1068.66 631.596 1068.96 632.918C1069.24 634.24 1068.41 635.545 1067.1 635.831C1065.83 636.109 1064.48 636.25 1063.07 636.263Z" fill="#4384CD"/>
</g>
<mask id="mask5" mask-type="alpha" maskUnits="userSpaceOnUse" x="915" y="594" width="155" height="410">
<path d="M916.947 986.228L974.141 1003.21L1069.61 986.374C1066.94 894.497 1063.68 594.767 1055.38 594.379L924.975 596.279C924.555 596.214 924.137 596.222 923.736 596.292C922.185 596.566 920.887 597.8 920.629 599.488C912.565 635.388 917.627 933.608 916.947 986.228Z" fill="white"/>
</mask>
<g mask="url(#mask5)">
<path fill-rule="evenodd" clip-rule="evenodd" d="M982.446 1013.27C981.144 1013.29 980.057 1012.27 979.988 1010.95C979.531 1002.01 981.954 668.452 982.58 654.042C982.638 652.692 983.782 651.636 985.117 651.707C986.462 651.767 987.504 652.914 987.445 654.265C986.823 668.66 984.396 1001.78 984.853 1010.7C984.92 1012.06 983.888 1013.21 982.544 1013.27C982.512 1013.27 982.479 1013.27 982.446 1013.27Z" fill="#4384CD"/>
</g>
<path fill-rule="evenodd" clip-rule="evenodd" d="M1121.64 537.601C1073.01 538.058 1023.52 506.529 1020.85 504.8C1012.92 499.675 1010.62 489.066 1015.7 481.104C1020.78 473.15 1031.31 470.848 1039.23 475.962C1058.12 488.106 1114.24 515.618 1146.68 497.253C1173.68 481.965 1178.29 436.981 1177.4 401.939C1177.16 392.474 1184.59 384.618 1194.01 384.397C1203.38 384.137 1211.24 391.664 1211.48 401.129C1213.13 465.818 1196.94 508.23 1163.37 527.18C1150.36 534.528 1136.04 537.468 1121.64 537.601Z" fill="#B26D5F"/>
<path fill-rule="evenodd" clip-rule="evenodd" d="M1121.66 537.618C1073.59 538.067 1024.61 507.212 1020.96 504.871L1014.27 500.673L1032.28 471.593L1039.06 475.847C1039.12 475.887 1039.19 475.93 1039.25 475.97C1056.8 487.257 1109.6 513.468 1142.56 499.294C1158.74 492.338 1169.07 476.157 1174.16 449.825L1207.63 456.422C1200.33 494.243 1182.94 519.289 1155.93 530.86C1145.01 535.542 1133.36 537.508 1121.66 537.618Z" fill="#CCD5E2"/>
<path fill-rule="evenodd" clip-rule="evenodd" d="M866.944 703.601C858.634 703.68 851.289 697.631 849.938 689.131C841.013 632.974 854.551 578.41 889.084 531.334C914.916 496.122 943.416 477.45 944.616 476.672C952.525 471.552 963.079 473.854 968.189 481.817C973.292 489.768 971.035 500.358 963.153 505.488C962.906 505.652 937.959 522.162 915.841 552.68C886.959 592.525 876.115 636.638 883.61 683.784C885.096 693.133 878.763 701.913 869.466 703.392C868.619 703.525 867.776 703.596 866.944 703.601Z" fill="#B26D5F"/>
<path fill-rule="evenodd" clip-rule="evenodd" d="M882.543 635.933L848.589 632.727C851.428 601.72 863.241 569.809 882.76 540.447C901.082 512.878 925.172 488.868 952.429 471.017L971.077 499.756C921.92 531.955 887.169 585.408 882.543 635.933Z" fill="#CCD5E2"/>
<path fill-rule="evenodd" clip-rule="evenodd" d="M1061.31 604.312C1059.99 594.818 1050.85 481.198 1041.61 481.283C962.869 482.007 944.892 475.715 942.719 481.736C924.382 532.546 919.006 605.604 919.006 605.604C923.276 606.299 989.95 619.96 1061.31 604.312Z" fill="#CCD5E2"/>
<path fill-rule="evenodd" clip-rule="evenodd" d="M991.047 617.859C991.045 617.859 991.04 617.858 991.037 617.858C989.692 617.864 988.592 616.772 988.586 615.421C988.51 604.304 988.979 585.545 989.475 565.687C990.323 531.771 991.285 493.334 989.951 478.88C989.827 477.534 990.813 476.343 992.152 476.22C993.485 476.094 994.678 477.089 994.804 478.44C996.164 493.179 995.197 531.768 994.343 565.817C993.848 585.639 993.382 604.36 993.456 615.398C993.464 616.746 992.386 617.847 991.047 617.859Z" fill="#A6ACC7"/>
<path fill-rule="evenodd" clip-rule="evenodd" d="M1006.89 583.906C1005.85 583.915 1004.88 583.251 1004.54 582.206L1004.36 581.639C1004.28 581.398 1004.24 581.153 1004.24 580.912C1004.23 579.869 1004.88 578.895 1005.93 578.556C1007.21 578.141 1008.58 578.849 1008.99 580.137L1009.18 580.705C1009.25 580.948 1009.29 581.192 1009.3 581.432C1009.31 582.477 1008.65 583.449 1007.61 583.788C1007.37 583.866 1007.13 583.904 1006.89 583.906Z" fill="#A6ACC7"/>
<path fill-rule="evenodd" clip-rule="evenodd" d="M1006.58 556.354C1005.54 556.362 1004.57 555.701 1004.23 554.653L1004.05 554.089C1003.97 553.845 1003.94 553.602 1003.93 553.359C1003.92 552.317 1004.58 551.342 1005.62 551.005C1006.9 550.591 1008.27 551.297 1008.69 552.585L1008.87 553.152C1008.95 553.395 1008.98 553.639 1008.99 553.881C1009 554.924 1008.34 555.897 1007.3 556.236C1007.06 556.313 1006.82 556.351 1006.58 556.354Z" fill="#A6ACC7"/>
<path fill-rule="evenodd" clip-rule="evenodd" d="M1006.27 528.803C1005.23 528.814 1004.26 528.15 1003.93 527.102L1003.74 526.538C1003.66 526.295 1003.63 526.051 1003.62 525.809C1003.61 524.766 1004.27 523.791 1005.31 523.454C1006.59 523.04 1007.96 523.746 1008.38 525.034L1008.56 525.601C1008.64 525.845 1008.68 526.088 1008.68 526.33C1008.69 527.373 1008.03 528.345 1006.99 528.685C1006.75 528.762 1006.51 528.801 1006.27 528.803Z" fill="#A6ACC7"/>
<path fill-rule="evenodd" clip-rule="evenodd" d="M914.819 597.184C914.76 597.344 914.701 597.507 914.645 597.669C914.687 597.558 914.723 597.451 914.762 597.343C914.779 597.288 914.799 597.236 914.819 597.184Z" fill="#B7C9FF"/>
<path fill-rule="evenodd" clip-rule="evenodd" d="M989.965 480.762C991.769 481.8 992.427 484.188 991.393 486C987.392 493.043 983.568 500.193 979.039 506.911C978.267 508.052 977.19 508.825 975.762 508.841C974.669 508.85 973.875 508.405 973.05 507.743C968.641 504.206 964.128 500.784 959.906 497.017C948.533 486.88 940.201 474.381 951.41 464.097C953.832 461.882 956.559 460.134 959.475 458.664C960.123 458.337 960.772 458.133 961.453 458.124C961.765 458.123 962.084 458.161 962.411 458.248C963.368 458.503 964.204 459.135 964.714 459.991L989.965 480.762Z" fill="#A7ACC5"/>
<path fill-rule="evenodd" clip-rule="evenodd" d="M993.725 480.729C991.944 481.801 991.342 484.2 992.416 485.993C996.573 492.957 1000.56 500.035 1005.23 506.666C1006.03 507.796 1007.12 508.548 1008.55 508.537C1009.64 508.525 1010.43 508.064 1011.24 507.385C1015.57 503.767 1020 500.26 1024.14 496.419C1040.76 480.991 1042.94 467.291 1023.72 458.066C1023.06 457.75 1022.41 457.556 1021.73 457.563C1021.42 457.567 1021.1 457.611 1020.77 457.706C1019.82 457.978 1019 458.627 1018.51 459.49L993.725 480.729Z" fill="#A7ACC5"/>
<path fill-rule="evenodd" clip-rule="evenodd" d="M906.903 380.276C877.784 377.353 864.581 328.721 883.172 310.246C863.709 289.313 881.741 251.306 906.254 251.644C886.29 197.131 951.843 143.309 997.264 222.732C1014.91 209.133 1039.1 215.481 1047.33 240.624C1137.09 232.262 1087.85 376.921 1072.48 377.939L906.903 380.276Z" fill="#373753"/>
<path fill-rule="evenodd" clip-rule="evenodd" d="M1011.04 400.647C1015.45 429.399 1025.05 457.566 1025.77 466.495C1025.84 467.412 1025.95 468.331 1026.17 469.225C1028.21 477.838 1005.06 482.579 994.32 482.775C989.297 482.861 958.838 484.05 960.637 474.032C960.335 472.505 965.133 448.021 966.745 401.834C966.817 399.745 968.366 397.98 970.518 397.96C1006.27 398.024 1010.4 396.527 1011.04 400.647Z" fill="#B26D5F"/>
<path fill-rule="evenodd" clip-rule="evenodd" d="M994.216 264.57C930.472 270.752 905.798 278.188 903.441 348.401C901.183 415.741 925.217 422.744 992.408 419.511C1044.13 417.022 1077.38 411.559 1076.12 350.693C1074.68 280.78 1047.2 259.407 994.216 264.57Z" fill="#B26D5F"/>
<path fill-rule="evenodd" clip-rule="evenodd" d="M1075.82 341.731C1079.34 406.772 1052.8 416.605 992.41 419.512C923.071 422.847 900.095 414.219 903.657 343.116C912.085 351.731 928.211 395.912 950.719 375.154C962.081 367.708 1019.45 367.818 1026.39 372.231C1026.51 372.266 1045.61 389.205 1057.42 370.646L1075.82 341.731Z" fill="#955B47"/>
<path fill-rule="evenodd" clip-rule="evenodd" d="M1050.74 251.283C1035.07 275.602 1010.9 291.413 985.605 293.883C960.313 296.355 934.266 285.449 915.422 264.5L1050.74 251.283Z" fill="#373753"/>
<path fill-rule="evenodd" clip-rule="evenodd" d="M878.988 652.693L848.157 649.47C840 648.618 844.246 633.948 844.253 634.071C844.543 631.215 847.064 616.91 850.051 617.223L881.018 632.69C889.175 633.542 884.929 648.213 884.922 648.089C884.632 650.945 881.977 653.004 878.988 652.693Z" fill="#A7ACC5"/>
<path fill-rule="evenodd" clip-rule="evenodd" d="M1202.79 474.864L1173.63 459.609C1165.62 457.847 1171.47 443.749 1171.46 443.871C1172.07 441.067 1174.94 439.32 1177.87 439.968L1208.16 446.637C1216.17 448.402 1210.32 462.5 1210.32 462.378C1209.72 465.179 1205.73 475.511 1202.79 474.864Z" fill="#A7ACC5"/>
<path fill-rule="evenodd" clip-rule="evenodd" d="M942.087 358.976C940.916 358.987 939.874 358.145 939.663 356.948C938.505 350.365 943.398 345.074 948.597 343.952C953.298 342.934 959.655 345.092 962.065 354.519C962.396 355.829 961.613 357.16 960.31 357.496C959.013 357.829 957.68 357.04 957.346 355.729C956.032 350.593 953.149 347.98 949.629 348.74C946.621 349.389 943.829 352.505 944.461 356.104C944.695 357.436 943.812 358.705 942.486 358.939C942.352 358.963 942.218 358.975 942.087 358.976Z" fill="#823E30"/>
<path fill-rule="evenodd" clip-rule="evenodd" d="M1035 358.112C1034.86 358.112 1034.73 358.104 1034.59 358.081C1033.27 357.875 1032.35 356.62 1032.56 355.283C1033.11 351.673 1030.25 348.612 1027.22 348.019C1023.69 347.327 1020.87 349.99 1019.67 355.148C1019.36 356.467 1018.05 357.283 1016.74 356.971C1015.44 356.662 1014.62 355.343 1014.92 354.027C1017.12 344.557 1023.42 342.284 1028.15 343.211C1033.38 344.238 1038.39 349.434 1037.37 356.039C1037.19 357.239 1036.17 358.101 1035 358.112Z" fill="#823E30"/>
<path fill-rule="evenodd" clip-rule="evenodd" d="M931.92 329.916C930.918 329.926 929.918 329.524 929.188 328.723C927.822 327.226 927.921 324.901 929.406 323.532C935.636 317.791 943.712 314.267 952.144 313.603C954.155 313.454 955.914 314.958 956.074 316.982C956.236 319.003 954.737 320.771 952.724 320.93C945.912 321.464 939.385 324.313 934.349 328.953C933.659 329.589 932.789 329.909 931.92 329.916Z" fill="#373753"/>
<path fill-rule="evenodd" clip-rule="evenodd" d="M1044.51 328.867C1043.64 328.874 1042.76 328.573 1042.06 327.95C1036.92 323.406 1030.34 320.677 1023.51 320.27C1021.5 320.149 1019.96 318.41 1020.07 316.384C1020.19 314.361 1021.9 312.825 1023.93 312.935C1032.37 313.439 1040.52 316.814 1046.88 322.438C1048.4 323.779 1048.55 326.1 1047.22 327.623C1046.5 328.437 1045.51 328.858 1044.51 328.867Z" fill="#373753"/>
<path fill-rule="evenodd" clip-rule="evenodd" d="M1033.8 241.053C1032.95 241.062 1032.12 240.619 1031.66 239.824C1028.08 233.588 1022.96 228.185 1009.86 230.889C1008.54 231.161 1007.25 230.306 1006.98 228.984C1006.71 227.659 1007.56 226.365 1008.88 226.093C1021.57 223.474 1029.9 226.954 1035.88 237.384C1036.55 238.556 1036.15 240.053 1034.99 240.728C1034.61 240.946 1034.21 241.05 1033.8 241.053Z" fill="#58596F"/>
<path fill-rule="evenodd" clip-rule="evenodd" d="M972.448 217.558C971.397 217.569 970.418 216.885 970.095 215.822C968.007 208.98 960.329 202.493 951.84 200.397C942.343 198.052 932.876 201.093 925.182 208.963C924.243 209.929 922.699 209.939 921.739 208.99C920.781 208.041 920.764 206.489 921.708 205.525C930.651 196.375 941.762 192.868 952.995 195.64C963.203 198.159 972.15 205.874 974.752 214.394C975.144 215.688 974.424 217.056 973.137 217.451C972.908 217.522 972.677 217.555 972.448 217.558Z" fill="#58596F"/>
<path fill-rule="evenodd" clip-rule="evenodd" d="M987.125 375.395C987.038 375.394 986.956 375.394 986.871 375.396C985.525 375.394 984.434 376.492 984.43 377.843C984.429 379.195 985.53 380.328 986.862 380.291C986.939 380.293 987.017 380.293 987.094 380.294C993.573 380.354 1000.94 382.949 1003.61 386.132C1004.47 387.165 1006.01 387.295 1007.04 386.421C1008.07 385.548 1008.2 384.003 1007.34 382.97C1003.26 378.109 993.943 375.461 987.125 375.395Z" fill="#823E30"/>
<path fill-rule="evenodd" clip-rule="evenodd" d="M984.306 367.571C982.99 367.583 981.892 366.534 981.845 365.202C981.799 363.851 982.85 362.717 984.193 362.674C987.835 362.553 992.136 360.1 993.478 358.904C992.867 355.437 989.762 340.274 987.778 330.706C987.502 329.382 988.348 328.086 989.664 327.811C990.984 327.541 992.271 328.389 992.545 329.714C994.727 340.229 998.395 358.06 998.448 359.343C998.506 360.683 997.614 361.649 997.323 361.967C995.312 364.148 989.541 367.398 984.364 367.57C984.346 367.571 984.327 367.569 984.306 367.571Z" fill="#925448"/>
<path fill-rule="evenodd" clip-rule="evenodd" d="M408.174 1065C381.565 1056.8 140.07 1049.21 139.014 1081.06C138.33 1101.69 208.634 1106.14 228.946 1106.77C425.108 1112.86 436.114 1073.62 408.174 1065Z" fill="#E7EBF1"/>
<path fill-rule="evenodd" clip-rule="evenodd" d="M226.886 1082.63C214.588 1082.63 204.619 1072.65 204.619 1060.35V952.545C204.619 940.241 214.588 930.268 226.886 930.268C239.183 930.268 249.152 940.241 249.152 952.545V1060.35C249.152 1072.65 239.183 1082.63 226.886 1082.63Z" fill="#FFBDA6"/>
<path fill-rule="evenodd" clip-rule="evenodd" d="M331.959 1082.63C319.662 1082.63 309.693 1072.65 309.693 1060.35V952.545C309.693 940.241 319.662 930.268 331.959 930.268C344.257 930.268 354.226 940.241 354.226 952.545V1060.35C354.226 1072.65 344.257 1082.63 331.959 1082.63Z" fill="#FFBDA6"/>
<path fill-rule="evenodd" clip-rule="evenodd" d="M162.239 656.136C162.047 658.709 158.421 902.113 160.461 997.619C160.506 999.794 162.186 1001.86 165.242 1001.83C186.627 1009.76 245.969 1017.21 279.277 1005.98C312.587 1017.21 371.929 1009.76 393.312 1001.83C396.369 1001.86 398.254 999.789 398.095 997.619C391.665 910.233 395.417 661.12 395.044 656.136H162.239Z" fill="#A7ACC5"/>
<mask id="mask6" mask-type="alpha" maskUnits="userSpaceOnUse" x="158" y="656" width="240" height="355">
<path d="M161.373 656.134C161.181 658.694 157.551 901.031 159.592 996.12C159.637 998.286 161.319 1000.34 164.379 1000.31C185.784 1008.21 245.181 1015.62 278.522 1004.44C311.862 1015.62 371.26 1008.21 392.666 1000.31C395.723 1000.34 397.612 998.281 397.452 996.12C391.016 909.117 394.771 661.096 394.399 656.134" fill="white"/>
</mask>
<g mask="url(#mask6)">
<path fill-rule="evenodd" clip-rule="evenodd" d="M277.79 1006.55C276.43 1006.55 275.301 1005.48 275.246 1004.12C274.815 993.418 272.444 748.989 273.042 738.123C273.119 736.725 274.327 735.651 275.725 735.73C277.129 735.807 278.206 737.002 278.13 738.4C277.532 749.238 279.905 993.229 280.336 1003.92C280.393 1005.31 279.299 1006.49 277.893 1006.55C277.858 1006.55 277.823 1006.55 277.79 1006.55Z" fill="#8588A3"/>
</g>
<mask id="mask7" mask-type="alpha" maskUnits="userSpaceOnUse" x="158" y="656" width="240" height="355">
<path d="M161.373 656.134C161.181 658.694 157.551 901.031 159.592 996.12C159.637 998.286 161.319 1000.34 164.379 1000.31C185.784 1008.21 245.181 1015.62 278.522 1004.44C311.862 1015.62 371.26 1008.21 392.666 1000.31C395.723 1000.34 397.612 998.281 397.452 996.12C391.016 909.117 394.771 661.096 394.399 656.134" fill="white"/>
</mask>
<g mask="url(#mask7)">
<path fill-rule="evenodd" clip-rule="evenodd" d="M155.956 711.824C154.754 711.824 153.684 710.974 153.455 709.756C153.197 708.379 154.107 707.055 155.49 706.797C176.157 702.948 194.759 687.989 202.878 668.689C203.42 667.399 204.908 666.789 206.211 667.33C207.508 667.869 208.12 669.354 207.576 670.647C198.812 691.48 178.736 707.625 156.428 711.781C156.268 711.81 156.112 711.824 155.956 711.824Z" fill="#8588A3"/>
</g>
<mask id="mask8" mask-type="alpha" maskUnits="userSpaceOnUse" x="158" y="656" width="240" height="355">
<path d="M161.373 656.134C161.181 658.694 157.551 901.031 159.592 996.12C159.637 998.286 161.319 1000.34 164.379 1000.31C185.784 1008.21 245.181 1015.62 278.522 1004.44C311.862 1015.62 371.26 1008.21 392.666 1000.31C395.723 1000.34 397.612 998.281 397.452 996.12C391.016 909.117 394.771 661.096 394.399 656.134" fill="white"/>
</mask>
<g mask="url(#mask8)">
<path fill-rule="evenodd" clip-rule="evenodd" d="M397.133 705.505C387.493 705.505 377.431 701.097 369.01 693.07C360.719 685.167 355.119 675.243 349.704 665.647C349.015 664.426 349.451 662.879 350.677 662.195C351.906 661.508 353.458 661.945 354.146 663.165C359.378 672.437 364.789 682.027 372.535 689.41C380.938 697.419 391.033 701.373 400.241 700.249C401.644 700.084 402.907 701.067 403.079 702.457C403.25 703.846 402.257 705.11 400.861 705.281C399.629 705.43 398.384 705.505 397.133 705.505Z" fill="#8588A3"/>
</g>
<path fill-rule="evenodd" clip-rule="evenodd" d="M131.533 777.343C122.795 777.343 114.503 772.183 110.951 763.63C77.0727 682.084 95.6111 619.458 117.128 581.282C140.328 540.12 171.83 518.237 173.16 517.325C183.296 510.378 197.158 512.939 204.125 523.045C211.075 533.127 208.534 546.912 198.459 553.875C194.349 556.746 101.061 623.79 152.097 746.633C156.802 757.964 151.408 770.953 140.047 775.647C137.26 776.796 134.372 777.342 131.533 777.343Z" fill="#FFBDA6"/>
<path fill-rule="evenodd" clip-rule="evenodd" d="M422.398 777.344C419.558 777.344 416.67 776.798 413.884 775.647C402.522 770.954 397.128 757.964 401.834 746.633C423.537 694.397 422.237 646.086 397.978 603.041C380.08 571.288 355.781 554.088 355.541 553.923C345.406 546.975 342.838 533.152 349.804 523.046C356.772 512.939 370.635 510.377 380.769 517.326C382.099 518.238 413.601 540.121 436.801 581.283C458.318 619.459 476.858 682.085 442.98 763.63C439.427 772.182 431.136 777.344 422.398 777.344Z" fill="#FFBDA6"/>
<path fill-rule="evenodd" clip-rule="evenodd" d="M393.905 666.618C404.186 630.793 397.948 587.888 364.384 527.157C343.527 489.419 320.652 490.694 310.526 490.809H244.054C233.928 490.694 211.053 489.419 190.196 527.157C154.566 591.628 156.822 628.763 160.553 666.363C208.261 685.508 280.224 676.198 338.608 676.265C357.189 676.286 378.703 677.27 393.905 666.618Z" fill="#79E3AA"/>
<path fill-rule="evenodd" clip-rule="evenodd" d="M278.416 543.607L251.694 596.692H275.871L273.326 638.722L297.971 578.758L275.871 578.294L278.416 543.607Z" fill="white"/>
<path fill-rule="evenodd" clip-rule="evenodd" d="M255.819 594.155H275.871C276.574 594.155 277.243 594.444 277.724 594.954C278.205 595.461 278.453 596.148 278.411 596.845L276.791 623.598L294.21 581.218L275.818 580.831C275.119 580.816 274.458 580.518 273.988 580.003C273.519 579.486 273.282 578.802 273.333 578.109L274.943 556.164L255.819 594.155ZM273.328 641.26C273.139 641.26 272.95 641.238 272.759 641.195C271.545 640.918 270.71 639.808 270.787 638.568L273.169 599.231H251.695C250.812 599.231 249.992 598.775 249.529 598.026C249.065 597.276 249.024 596.342 249.421 595.555L276.142 542.47C276.686 541.386 277.914 540.838 279.093 541.16C280.264 541.482 281.043 542.584 280.955 543.793L278.605 575.814L298.025 576.221C298.863 576.239 299.64 576.668 300.1 577.368C300.56 578.066 300.645 578.947 300.327 579.721L275.681 639.684C275.284 640.653 274.341 641.26 273.328 641.26Z" fill="white"/>
<path fill-rule="evenodd" clip-rule="evenodd" d="M297.647 410.042C300.846 441.705 309.122 472.905 309.475 482.713C309.51 483.722 309.588 484.732 309.762 485.723C311.428 495.231 288.712 499.634 278.246 499.478C273.354 499.403 243.66 499.662 245.793 488.743C245.559 487.057 251.162 460.39 254.49 409.825C254.64 407.536 256.213 405.657 258.31 405.709C293.112 407.003 297.184 405.504 297.647 410.042Z" fill="#FFBDA6"/>
<mask id="mask9" mask-type="alpha" maskUnits="userSpaceOnUse" x="184" y="223" width="182" height="168">
<path d="M184.502 223.098H365.164V390.624H184.502V223.098Z" fill="white"/>
</mask>
<g mask="url(#mask9)">
<path fill-rule="evenodd" clip-rule="evenodd" d="M278.04 223.45C211.365 228.82 188.042 253.58 184.762 321.051C181.618 385.76 206.649 392.707 276.892 390.204C330.966 388.275 365.767 383.324 365.156 324.807C364.47 257.592 333.465 218.963 278.04 223.45Z" fill="#FFBDA6"/>
</g>
<path fill-rule="evenodd" clip-rule="evenodd" d="M274.833 333.551C273.85 333.551 272.912 332.979 272.497 332.02C271.939 330.733 272.53 329.241 273.821 328.684C276.406 327.566 279.475 325.236 281.235 323.805C279.595 320.36 275.699 312.502 271.83 307.157C271.006 306.023 271.263 304.437 272.403 303.615C273.546 302.796 275.135 303.053 275.956 304.186C281.32 311.593 286.469 322.971 286.684 323.452C287.139 324.461 286.886 325.647 286.059 326.385C285.834 326.588 280.464 331.347 275.844 333.34C275.514 333.483 275.172 333.551 274.833 333.551Z" fill="#EE9D8B"/>
<path fill-rule="evenodd" clip-rule="evenodd" d="M183.192 436.518C204.792 475.289 268.345 484.826 312.019 477.735C438.469 457.208 366.715 293.383 359.673 284.727C355.448 279.534 346.765 279.793 344.081 291.382C341.893 300.846 350.167 339.182 348.644 343.616C344.654 355.249 311.601 359.256 299.325 360.657C260.257 365.11 215.205 364.269 206.151 355.881C197.094 347.497 199.003 327.032 200.258 306.671C200.884 296.512 188.187 285.972 182.09 305.342C179.811 312.581 165.848 405.39 183.192 436.518Z" fill="#B26D5F"/>
<path fill-rule="evenodd" clip-rule="evenodd" d="M239.536 335.875C246.42 329.365 295.812 326.95 304.754 331.495C320.172 339.334 328.933 361.376 327.288 366.732C326.431 369.521 242.557 380.051 229.616 366.701C223.339 360.225 237.808 337.511 239.536 335.875Z" fill="#B26D5F"/>
<mask id="mask10" mask-type="alpha" maskUnits="userSpaceOnUse" x="175" y="281" width="212" height="200">
<path d="M344.169 291.259C341.989 300.741 350.228 339.154 348.712 343.599C346.617 349.748 336.469 353.767 325.554 356.403C322.218 347.758 315.025 336.577 305.009 331.451C296.106 326.896 246.925 329.317 240.071 335.842C238.644 337.199 228.524 353.045 228.643 362.135C218.017 360.964 210.082 358.922 206.828 355.889C197.809 347.486 199.711 326.98 200.96 306.577C201.585 296.399 188.94 285.837 182.87 305.246C180.601 312.5 166.698 405.497 183.967 436.689C205.473 475.539 268.756 485.096 312.244 477.99C438.152 457.421 366.704 293.264 359.693 284.59C358.04 282.544 355.701 281.343 353.309 281.343C349.613 281.343 345.79 284.209 344.169 291.259Z" fill="white"/>
</mask>
<g mask="url(#mask10)">
<path fill-rule="evenodd" clip-rule="evenodd" d="M162.326 482.199C160.481 482.199 158.862 480.848 158.573 478.96C158.256 476.879 159.681 474.932 161.756 474.614C217.525 466.051 272.256 448.382 320.029 423.519C359.712 402.865 393.016 377.885 411.401 354.984C412.719 353.345 415.11 353.084 416.746 354.406C418.38 355.729 418.639 358.131 417.321 359.769C380.576 405.542 285.288 463.365 162.906 482.154C162.711 482.185 162.517 482.199 162.326 482.199Z" fill="#BA7D6F"/>
</g>
<mask id="mask11" mask-type="alpha" maskUnits="userSpaceOnUse" x="175" y="281" width="212" height="200">
<path d="M344.169 291.259C341.989 300.741 350.228 339.154 348.712 343.599C346.617 349.748 336.469 353.767 325.554 356.403C322.218 347.758 315.025 336.577 305.009 331.451C296.106 326.896 246.925 329.317 240.071 335.842C238.644 337.199 228.524 353.045 228.643 362.135C218.017 360.964 210.082 358.922 206.828 355.889C197.809 347.486 199.711 326.98 200.96 306.577C201.585 296.399 188.94 285.837 182.87 305.246C180.601 312.5 166.698 405.497 183.967 436.689C205.473 475.539 268.756 485.096 312.244 477.99C438.152 457.421 366.704 293.264 359.693 284.59C358.04 282.544 355.701 281.343 353.309 281.343C349.613 281.343 345.79 284.209 344.169 291.259Z" fill="white"/>
</mask>
<g mask="url(#mask11)">
<path fill-rule="evenodd" clip-rule="evenodd" d="M149.655 452.908C149.239 452.908 148.827 452.906 148.412 452.905C146.311 452.895 144.617 451.18 144.627 449.072C144.637 446.973 146.337 445.276 148.428 445.276H148.446C148.847 445.278 149.254 445.279 149.655 445.279C214.312 445.279 269.552 421.044 304.596 400.642C336.038 382.337 374.854 352.075 390.699 325.735C391.784 323.931 394.118 323.351 395.918 324.439C397.715 325.529 398.293 327.873 397.208 329.676C386.161 348.04 356.277 379.371 308.412 407.24C272.56 428.114 215.997 452.908 149.655 452.908Z" fill="#BA7D6F"/>
</g>
<mask id="mask12" mask-type="alpha" maskUnits="userSpaceOnUse" x="175" y="281" width="212" height="200">
<path d="M344.169 291.259C341.989 300.741 350.228 339.154 348.712 343.599C346.617 349.748 336.469 353.767 325.554 356.403C322.218 347.758 315.025 336.577 305.009 331.451C296.106 326.896 246.925 329.317 240.071 335.842C238.644 337.199 228.524 353.045 228.643 362.135C218.017 360.964 210.082 358.922 206.828 355.889C197.809 347.486 199.711 326.98 200.96 306.577C201.585 296.399 188.94 285.837 182.87 305.246C180.601 312.5 166.698 405.497 183.967 436.689C205.473 475.539 268.756 485.096 312.244 477.99C438.152 457.421 366.704 293.264 359.693 284.59C358.04 282.544 355.701 281.343 353.309 281.343C349.613 281.343 345.79 284.209 344.169 291.259Z" fill="white"/>
</mask>
<g mask="url(#mask12)">
<path fill-rule="evenodd" clip-rule="evenodd" d="M123.386 399.354C115.728 399.354 107.941 399.251 100.014 399.047C97.9141 398.993 96.2569 397.241 96.3114 395.136C96.3646 393.065 98.056 391.421 100.11 391.421H100.209C231.487 394.798 324.594 370.059 393.22 313.549C394.845 312.213 397.238 312.448 398.57 314.078C399.901 315.707 399.666 318.111 398.043 319.446C332.097 373.749 244.404 399.354 123.386 399.354Z" fill="#BA7D6F"/>
</g>
<mask id="mask13" mask-type="alpha" maskUnits="userSpaceOnUse" x="175" y="281" width="212" height="200">
<path d="M344.169 291.259C341.989 300.741 350.228 339.154 348.712 343.599C346.617 349.748 336.469 353.767 325.554 356.403C322.218 347.758 315.025 336.577 305.009 331.451C296.106 326.896 246.925 329.317 240.071 335.842C238.644 337.199 228.524 353.045 228.643 362.135C218.017 360.964 210.082 358.922 206.828 355.889C197.809 347.486 199.711 326.98 200.96 306.577C201.585 296.399 188.94 285.837 182.87 305.246C180.601 312.5 166.698 405.497 183.967 436.689C205.473 475.539 268.756 485.096 312.244 477.99C438.152 457.421 366.704 293.264 359.693 284.59C358.04 282.544 355.701 281.343 353.309 281.343C349.613 281.343 345.79 284.209 344.169 291.259Z" fill="white"/>
</mask>
<g mask="url(#mask13)">
<path fill-rule="evenodd" clip-rule="evenodd" d="M77.5348 385.86C75.5418 385.86 73.8668 384.299 73.7452 382.277C73.6172 380.172 75.2124 378.364 77.3068 378.237C286.088 365.486 317.261 341.436 392.573 283.331L399.073 278.32C400.738 277.037 403.124 277.35 404.402 279.023C405.681 280.694 405.367 283.09 403.702 284.372L397.207 289.378C320.588 348.49 288.876 372.959 77.7705 385.852C77.6907 385.857 77.6134 385.86 77.5348 385.86Z" fill="#BA7D6F"/>
</g>
<mask id="mask14" mask-type="alpha" maskUnits="userSpaceOnUse" x="175" y="281" width="212" height="200">
<path d="M344.169 291.259C341.989 300.741 350.228 339.154 348.712 343.599C346.617 349.748 336.469 353.767 325.554 356.403C322.218 347.758 315.025 336.577 305.009 331.451C296.106 326.896 246.925 329.317 240.071 335.842C238.644 337.199 228.524 353.045 228.643 362.135C218.017 360.964 210.082 358.922 206.828 355.889C197.809 347.486 199.711 326.98 200.96 306.577C201.585 296.399 188.94 285.837 182.87 305.246C180.601 312.5 166.698 405.497 183.967 436.689C205.473 475.539 268.756 485.096 312.244 477.99C438.152 457.421 366.704 293.264 359.693 284.59C358.04 282.544 355.701 281.343 353.309 281.343C349.613 281.343 345.79 284.209 344.169 291.259Z" fill="white"/>
</mask>
<g mask="url(#mask14)">
<path fill-rule="evenodd" clip-rule="evenodd" d="M120.894 333.309C111.437 333.309 101.971 333.087 92.4929 332.616C90.3972 332.513 88.7805 330.722 88.8844 328.618C88.987 326.514 90.8077 324.878 92.8691 324.997C216.753 331.151 351.353 292.33 377.464 273.613C379.174 272.388 381.546 272.785 382.768 274.5C383.987 276.215 383.591 278.597 381.883 279.821C358.288 296.733 242.185 333.309 120.894 333.309Z" fill="#BA7D6F"/>
</g>
<mask id="mask15" mask-type="alpha" maskUnits="userSpaceOnUse" x="175" y="281" width="212" height="200">
<path d="M344.169 291.259C341.989 300.741 350.228 339.154 348.712 343.599C346.617 349.748 336.469 353.767 325.554 356.403C322.218 347.758 315.025 336.577 305.009 331.451C296.106 326.896 246.925 329.317 240.071 335.842C238.644 337.199 228.524 353.045 228.643 362.135C218.017 360.964 210.082 358.922 206.828 355.889C197.809 347.486 199.711 326.98 200.96 306.577C201.585 296.399 188.94 285.837 182.87 305.246C180.601 312.5 166.698 405.497 183.967 436.689C205.473 475.539 268.756 485.096 312.244 477.99C438.152 457.421 366.704 293.264 359.693 284.59C358.04 282.544 355.701 281.343 353.309 281.343C349.613 281.343 345.79 284.209 344.169 291.259Z" fill="white"/>
</mask>
<g mask="url(#mask15)">
<path fill-rule="evenodd" clip-rule="evenodd" d="M281.22 493.139C279.75 493.139 278.352 492.28 277.73 490.84C276.896 488.908 277.78 486.663 279.706 485.825C327.598 464.993 371.86 433.858 407.708 395.784C409.15 394.255 411.556 394.185 413.081 395.632C414.607 397.077 414.675 399.492 413.233 401.024C376.686 439.843 331.558 471.587 282.729 492.824C282.238 493.038 281.723 493.139 281.22 493.139Z" fill="#BA7D6F"/>
</g>
<path fill-rule="evenodd" clip-rule="evenodd" d="M272.94 343.082C268.516 343.082 264.414 344.356 261.387 346.668C257.813 349.401 255.922 353.35 255.922 358.088C255.922 359.49 257.056 360.626 258.455 360.626C259.854 360.626 260.988 359.49 260.988 358.088C260.988 354.949 262.156 352.465 264.461 350.703C266.609 349.062 269.619 348.157 272.94 348.157C279.89 348.157 286.926 352.04 286.926 359.461C286.926 360.863 288.06 361.999 289.46 361.999C290.858 361.999 291.993 360.863 291.993 359.461C291.993 348.821 282.176 343.082 272.94 343.082Z" fill="#60342B"/>
<path fill-rule="evenodd" clip-rule="evenodd" d="M218.345 325.497C218.274 325.497 218.203 325.493 218.13 325.488C216.736 325.37 215.701 324.143 215.819 322.746C216.565 313.883 222.64 309.918 228.336 309.918H228.352C234.048 309.926 240.142 313.946 240.766 321.616C240.88 323.015 239.842 324.239 238.447 324.353C237.072 324.48 235.831 323.427 235.717 322.031C235.323 317.202 231.62 314.998 228.346 314.994H228.336C225.055 314.994 221.375 317.141 220.867 323.172C220.756 324.497 219.647 325.497 218.345 325.497Z" fill="#C1564D"/>
<path fill-rule="evenodd" clip-rule="evenodd" d="M307.003 325.497C306.932 325.497 306.861 325.493 306.788 325.488C305.393 325.37 304.358 324.143 304.476 322.746C305.222 313.883 311.298 309.918 316.993 309.918H317.01C322.706 309.926 328.8 313.946 329.423 321.616C329.537 323.015 328.5 324.239 327.104 324.353C325.735 324.48 324.488 323.427 324.375 322.031C323.981 317.202 320.278 314.998 317.004 314.994H316.993C313.713 314.994 310.033 317.141 309.525 323.172C309.413 324.497 308.305 325.497 307.003 325.497Z" fill="#C1564D"/>
<path fill-rule="evenodd" clip-rule="evenodd" d="M207.003 293.232C205.289 293.232 203.734 292.063 203.313 290.321C202.819 288.278 204.073 286.22 206.112 285.725L238.357 277.898C240.397 277.399 242.449 278.66 242.944 280.702C243.438 282.744 242.184 284.801 240.145 285.297L207.9 293.124C207.6 293.198 207.299 293.232 207.003 293.232Z" fill="#965342"/>
<path fill-rule="evenodd" clip-rule="evenodd" d="M335.453 287.625C335.215 287.625 334.971 287.602 334.726 287.555L301.923 281.186C299.863 280.784 298.517 278.787 298.916 276.724C299.316 274.66 301.295 273.315 303.37 273.711L336.172 280.081C338.232 280.48 339.579 282.477 339.179 284.541C338.827 286.361 337.236 287.625 335.453 287.625Z" fill="#965342"/>
<path fill-rule="evenodd" clip-rule="evenodd" d="M220.596 493.912C168.325 508.732 122.907 544.885 120.66 550.616C118.826 555.29 122.557 560.188 126.222 563.612C138.532 575.11 153.356 583.892 169.343 589.161C176.437 556.411 202.548 522.127 220.596 493.912Z" fill="#79E3AA"/>
<path fill-rule="evenodd" clip-rule="evenodd" d="M333.593 496.371C385.864 511.192 425.008 544.885 427.255 550.618C429.087 555.291 425.357 560.189 421.693 563.613C409.381 575.112 394.558 583.894 378.57 589.162C371.476 556.412 351.641 524.586 333.593 496.371Z" fill="#79E3AA"/>
<path fill-rule="evenodd" clip-rule="evenodd" d="M167.532 567.744C167.015 567.744 166.493 567.586 166.042 567.257C153.696 558.248 141.77 548.388 130.599 537.954C129.575 537 129.519 535.393 130.473 534.368C131.426 533.343 133.032 533.287 134.052 534.243C145.077 544.537 156.843 554.265 169.026 563.155C170.156 563.979 170.405 565.567 169.581 566.7C169.087 567.383 168.314 567.744 167.532 567.744Z" fill="#C9F4DD"/>
<path fill-rule="evenodd" clip-rule="evenodd" d="M157.984 574.413C157.468 574.413 156.946 574.254 156.495 573.925C144.145 564.914 132.22 555.054 121.051 544.623C120.027 543.667 119.972 542.062 120.925 541.037C121.879 540.011 123.484 539.956 124.506 540.911C135.526 551.203 147.293 560.931 159.479 569.823C160.609 570.648 160.858 572.235 160.034 573.368C159.54 574.051 158.767 574.413 157.984 574.413Z" fill="#C9F4DD"/>
<path fill-rule="evenodd" clip-rule="evenodd" d="M381.209 566.22C380.427 566.22 379.654 565.859 379.16 565.177C378.336 564.044 378.585 562.457 379.715 561.632C391.904 552.738 401.812 544.547 412.846 534.243C413.866 533.287 415.471 533.343 416.426 534.368C417.379 535.393 417.323 537 416.299 537.955C405.109 548.406 395.061 556.714 382.699 565.734C382.248 566.063 381.726 566.22 381.209 566.22Z" fill="#C9F4DD"/>
<path fill-rule="evenodd" clip-rule="evenodd" d="M390.467 574.413C389.685 574.413 388.912 574.051 388.418 573.368C387.594 572.235 387.843 570.648 388.973 569.823C401.158 560.931 412.926 551.203 423.946 540.911C424.968 539.956 426.572 540.011 427.526 541.037C428.48 542.062 428.424 543.667 427.401 544.623C416.231 555.054 404.307 564.914 391.957 573.925C391.506 574.254 390.984 574.413 390.467 574.413Z" fill="#C9F4DD"/>
<path fill-rule="evenodd" clip-rule="evenodd" d="M278.309 526.532C275.585 526.532 272.835 526.421 270.067 526.194C245.484 524.185 224.934 513.241 215.095 496.919C214.372 495.72 214.756 494.159 215.954 493.434C217.151 492.709 218.707 493.094 219.432 494.295C228.431 509.225 247.515 519.259 270.478 521.135C297.048 523.304 322.766 513.846 337.58 496.443C338.488 495.375 340.083 495.249 341.15 496.159C342.215 497.067 342.342 498.67 341.434 499.737C326.9 516.81 303.729 526.532 278.309 526.532Z" fill="#C9F4DD"/>
<path fill-rule="evenodd" clip-rule="evenodd" d="M249.037 1081.95V1024.76H198.238V1042.29C198.238 1047.47 194.714 1051.99 189.694 1053.24L164.851 1059.42C154.524 1061.99 147.273 1071.29 147.273 1081.95H249.037Z" fill="#373753"/>
<path fill-rule="evenodd" clip-rule="evenodd" d="M246.516 1030.97C246.421 1030.97 246.326 1030.96 246.228 1030.95C245.191 1030.79 244.478 1029.82 244.635 1028.78C244.867 1027.24 245.775 1025.86 247.261 1024.79C249.252 1023.35 252.309 1022.53 254.362 1022.89C255.397 1023.07 256.091 1024.05 255.912 1025.09C255.734 1026.12 254.761 1026.82 253.717 1026.64C252.868 1026.49 250.844 1026.89 249.483 1027.88C249.038 1028.2 248.488 1028.72 248.392 1029.35C248.249 1030.29 247.439 1030.97 246.516 1030.97Z" fill="#373753"/>
<path fill-rule="evenodd" clip-rule="evenodd" d="M303.417 1081.95V1024.76H354.216V1042.29C354.216 1047.47 357.74 1051.99 362.76 1053.24L387.603 1059.42C397.93 1061.99 405.181 1071.29 405.181 1081.95H303.417Z" fill="#373753"/>
<path fill-rule="evenodd" clip-rule="evenodd" d="M305.727 1031.06C304.865 1031.06 304.086 1030.46 303.879 1029.59C303.433 1027.71 300.603 1026.33 298.723 1026.64C297.692 1026.81 296.71 1026.11 296.539 1025.07C296.369 1024.03 297.071 1023.05 298.106 1022.88C301.781 1022.28 306.614 1024.64 307.577 1028.71C307.818 1029.74 307.186 1030.76 306.166 1031C306.018 1031.04 305.871 1031.06 305.727 1031.06Z" fill="#373753"/>
<path fill-rule="evenodd" clip-rule="evenodd" d="M697.19 588.635C860.358 537.608 728.12 503.434 771.061 463.853C797.674 439.32 783.227 428.153 767.793 407.295C753.194 387.563 759.126 364.766 763.883 340.897C795.976 179.872 639.989 187.482 639.989 187.482C639.989 187.482 482.533 181.859 516.14 342.469C521.12 366.276 527.264 388.996 512.851 408.914C497.616 429.964 483.272 441.313 510.118 465.507C553.427 504.542 421.517 540.39 585.157 589.346" fill="#FF7641"/>
<path fill-rule="evenodd" clip-rule="evenodd" d="M475.043 725.754C474.611 725.758 474.174 725.742 473.735 725.707C465.36 725.044 459.113 717.684 459.788 709.265C463.154 667.189 475.109 623.015 493.453 584.888C517.034 535.879 550.12 497.276 591.794 470.142C598.85 465.546 608.27 467.564 612.833 474.648C617.396 481.729 615.373 491.196 608.317 495.792C571.393 519.83 541.965 554.271 520.85 598.157C504.106 632.958 493.193 673.27 490.121 711.666C489.483 719.642 482.863 725.706 475.043 725.754Z" fill="#FFBDA6"/>
<path fill-rule="evenodd" clip-rule="evenodd" d="M501.497 649.414L472.236 641.066C475.479 629.649 479.299 618.35 483.585 607.485L511.871 618.715C507.955 628.638 504.465 638.969 501.497 649.414Z" fill="#CE8D4F"/>
<path fill-rule="evenodd" clip-rule="evenodd" d="M509.125 625.929L480.573 615.392C496.597 571.731 528.902 511.088 591.795 470.143L608.316 495.79C552.462 532.153 523.546 586.631 509.125 625.929Z" fill="#FFD56A"/>
<path fill-rule="evenodd" clip-rule="evenodd" d="M804.96 723.653C797.143 723.701 790.465 717.725 789.753 709.757C786.321 671.401 775.031 631.232 757.961 596.648C736.434 553.029 706.686 518.964 669.538 495.397C662.439 490.894 660.327 481.453 664.822 474.313C669.317 467.171 678.716 465.034 685.817 469.542C727.744 496.141 761.19 534.326 785.229 583.029C803.931 620.923 816.3 664.94 820.061 706.972C820.813 715.382 814.639 722.819 806.27 723.589C805.831 723.629 805.395 723.651 804.96 723.653Z" fill="#FFBDA6"/>
<path fill-rule="evenodd" clip-rule="evenodd" d="M777.791 647.649C774.725 637.242 771.137 626.959 767.13 617.084L795.307 605.496C799.696 616.307 803.623 627.557 806.972 638.931L777.791 647.649Z" fill="#CE8D4F"/>
<path fill-rule="evenodd" clip-rule="evenodd" d="M769.949 624.269C755.159 585.155 725.733 531.049 669.541 495.397L685.821 469.54C749.095 509.686 781.964 569.914 798.397 613.37L769.949 624.269Z" fill="#FFD56A"/>
<mask id="mask16" mask-type="alpha" maskUnits="userSpaceOnUse" x="498" y="1110" width="288" height="52">
<path d="M498.692 1110.15L785.559 1110.16L785.56 1161.51L498.694 1161.5L498.692 1110.15Z" fill="white"/>
</mask>
<g mask="url(#mask16)">
<path fill-rule="evenodd" clip-rule="evenodd" d="M773.931 1117.63C745.513 1108.77 499.767 1101.58 498.698 1134.23C498 1155.58 569.89 1160.19 590.659 1160.84C791.036 1167.14 802.569 1126.56 773.931 1117.63Z" fill="#E7EBF1"/>
</g>
<path fill-rule="evenodd" clip-rule="evenodd" d="M605.027 1135.09C596.642 1135.09 589.844 1128.4 589.844 1120.13L589.831 714.673C589.831 706.411 596.629 699.716 605.014 699.716C613.399 699.716 620.197 706.412 620.197 714.674L620.21 1120.13C620.21 1128.4 613.412 1135.09 605.027 1135.09Z" fill="#FFBDA6"/>
<path fill-rule="evenodd" clip-rule="evenodd" d="M589.831 1043.58L589.833 1120.18C589.833 1128.42 596.634 1135.09 605.022 1135.09C613.411 1135.09 620.21 1128.42 620.21 1120.18L620.207 1043.58L589.831 1043.58Z" fill="#CE8D4F"/>
<path fill-rule="evenodd" clip-rule="evenodd" d="M679.595 1135.09C671.21 1135.09 664.412 1128.4 664.412 1120.13L664.399 714.673C664.399 706.411 671.197 699.716 679.582 699.716C687.967 699.716 694.765 706.412 694.765 714.674L694.778 1120.13C694.778 1128.4 687.98 1135.09 679.595 1135.09Z" fill="#FFBDA6"/>
<path fill-rule="evenodd" clip-rule="evenodd" d="M664.399 1043.58L664.401 1120.18C664.401 1128.42 671.202 1135.09 679.59 1135.09C687.979 1135.09 694.778 1128.42 694.778 1120.18L694.775 1043.58L664.399 1043.58Z" fill="#CE8D4F"/>
<path fill-rule="evenodd" clip-rule="evenodd" d="M627.286 223.494C531.978 239.672 513.264 390.649 628.064 396.521C660.694 398.18 696.435 385.227 718.098 359.357C761.233 307.8 721.406 207.5 627.286 223.494Z" fill="#FFBDA6"/>
<path fill-rule="evenodd" clip-rule="evenodd" d="M662.716 389.587C666.201 422.735 674.959 455.365 675.373 465.637C675.417 466.695 675.5 467.752 675.686 468.787C677.467 478.736 653.867 483.502 642.986 483.406C637.899 483.358 607.025 483.825 609.189 472.376C608.937 470.61 614.631 442.637 617.842 389.642C617.987 387.246 619.616 385.266 621.796 385.306C657.987 386.434 662.214 384.835 662.716 389.587Z" fill="#FFBDA6"/>
<path fill-rule="evenodd" clip-rule="evenodd" d="M724.969 627.014C724.891 626.559 724.786 626.158 724.657 625.8C730.854 548.809 677.47 459.952 668.92 466.567C668.92 466.567 616.086 465.077 616.322 465.098C601.698 465.188 556.961 554.653 561.936 623.593C480.732 647.218 508.156 910.825 515.515 910.779C533.396 910.43 546.518 907.303 561.851 897.28C583.477 922.688 617.068 925.754 637.874 904.246C658.991 922.975 686.302 919.633 705.657 900.724C733.893 925.555 765.151 919.567 775.794 903.275C778.9 898.676 791.338 649.791 724.969 627.014Z" fill="#FFD56A"/>
<mask id="mask17" mask-type="alpha" maskUnits="userSpaceOnUse" x="520" y="465" width="242" height="216">
<path d="M668.926 466.567C668.926 466.567 616.091 465.076 616.327 465.097C601.702 465.187 556.969 554.651 561.942 623.589C542.383 631.301 529.205 652.721 520.56 680.606L761.736 680.416C753.601 653.17 741.828 632.797 724.973 627.011C724.896 626.554 724.79 626.155 724.659 625.797C730.562 552.467 682.416 468.373 670.438 466.258C669.839 466.153 669.331 466.252 668.926 466.567Z" fill="white"/>
</mask>
<g mask="url(#mask17)">
<path fill-rule="evenodd" clip-rule="evenodd" d="M566.282 696.166C566.265 696.168 566.249 696.168 566.233 696.167C564.038 696.153 562.275 694.356 562.292 692.156C562.503 664.893 571.998 642.879 590.512 626.727C592.168 625.283 594.675 625.457 596.111 627.12C597.546 628.782 597.37 631.3 595.711 632.746C578.996 647.331 570.423 667.335 570.232 692.202C570.215 694.39 568.451 696.153 566.282 696.166Z" fill="#FFE296"/>
</g>
<path fill-rule="evenodd" clip-rule="evenodd" d="M705.872 677.193C703.68 677.205 701.894 675.433 701.883 673.23C701.831 661.93 696.209 640.347 686.183 630.88C684.587 629.372 684.511 626.849 686.014 625.243C687.516 623.638 690.028 623.555 691.625 625.065C703.939 636.693 709.764 660.65 709.823 673.18C709.831 675.384 708.064 677.179 705.872 677.193Z" fill="#FFE296"/>
<path fill-rule="evenodd" clip-rule="evenodd" d="M620.865 668.073C620.853 668.073 620.839 668.073 620.825 668.073C618.632 668.064 616.865 666.273 616.876 664.072C616.94 651.575 621.357 639.395 629.31 629.776C630.712 628.082 633.216 627.846 634.9 629.252C636.586 630.658 636.816 633.173 635.415 634.867C628.733 642.946 624.869 653.601 624.814 664.099C624.803 666.289 623.038 668.058 620.865 668.073Z" fill="#FFE296"/>
<mask id="mask18" mask-type="alpha" maskUnits="userSpaceOnUse" x="520" y="465" width="242" height="216">
<path d="M668.926 466.567C668.926 466.567 616.091 465.076 616.327 465.097C601.702 465.187 556.969 554.651 561.942 623.589C542.383 631.301 529.205 652.721 520.56 680.606L761.736 680.416C753.601 653.17 741.828 632.797 724.973 627.011C724.896 626.554 724.79 626.155 724.659 625.797C730.562 552.467 682.416 468.373 670.438 466.258C669.839 466.153 669.331 466.252 668.926 466.567Z" fill="white"/>
</mask>
<g mask="url(#mask18)">
<path fill-rule="evenodd" clip-rule="evenodd" d="M647.016 632.276C615.686 632.476 584.358 629.946 553.26 624.69C551.099 624.324 549.645 622.268 550.011 620.096C550.378 617.925 552.433 616.462 554.588 616.823C613.319 626.755 672.903 626.806 731.68 616.989C733.846 616.635 735.884 618.095 736.24 620.267C736.598 622.441 735.134 624.491 732.969 624.855C704.446 629.619 675.729 632.092 647.016 632.276Z" fill="white"/>
</g>
<path fill-rule="evenodd" clip-rule="evenodd" d="M664.891 475.837C651.211 490.287 641.04 516.191 639.946 549.496C638.633 522.321 625.662 492.529 616.659 476.296L664.891 475.837Z" fill="#FFE296"/>
<path fill-rule="evenodd" clip-rule="evenodd" d="M623.248 480.221C629.233 491.95 635.232 506.495 639.231 521.386C642.621 505.039 648.484 490.779 656.379 479.906L623.248 480.221ZM639.966 553.485C637.84 553.497 636.085 551.827 635.982 549.695C634.797 525.177 623.433 496.711 613.193 478.24C612.51 477.011 612.526 475.512 613.231 474.294C613.936 473.076 615.226 472.322 616.628 472.308L664.859 471.85C664.864 471.85 664.869 471.849 664.871 471.849C666.46 471.839 667.901 472.782 668.533 474.245C669.166 475.713 668.865 477.42 667.766 478.584C653.599 493.547 644.904 519.44 643.914 549.622C643.842 551.758 642.105 553.464 639.975 553.484C639.971 553.484 639.968 553.483 639.966 553.485Z" fill="#FFE296"/>
<path fill-rule="evenodd" clip-rule="evenodd" d="M684.239 460.06C690.302 463.773 692.512 471.788 688.913 477.949C683.704 486.86 674.187 474.679 670.945 474.975C666.873 475.026 665.34 482.921 659.299 483.587C653.876 484.182 646.511 477.124 641.149 478.133C636.779 478.955 631.664 489.694 620.858 483.689C618.342 482.293 614.991 477.817 612.125 477.59C608.877 477.333 599.466 487.396 594.175 478.549C590.516 472.437 592.652 464.393 598.679 460.602C612.875 451.676 632.435 455.577 649.141 456.535C660.77 457.204 674.3 453.972 684.239 460.06Z" fill="#CE8D4F"/>
<path fill-rule="evenodd" clip-rule="evenodd" d="M715.423 239.88L683.338 219.659L596.848 221.057L571.239 242.784C570.972 256.592 568.276 281.601 574.058 280.371C575.2 280.126 692.518 281.289 708.505 280.577C717.505 279.952 715.518 250.14 715.423 239.88Z" fill="#FF7641"/>
<path fill-rule="evenodd" clip-rule="evenodd" d="M605.016 313.549C601.602 314.065 598.357 317.186 599.441 320.835C600.27 323.616 603.028 325.718 606.467 324.888C610.634 323.885 612.802 317.741 609.898 314.731C608.657 313.441 606.8 313.281 605.016 313.549Z" fill="#C1564D"/>
<path fill-rule="evenodd" clip-rule="evenodd" d="M674.349 312.961C670.981 314.493 668.542 318.662 670.722 322.101C672.381 324.721 675.855 326.105 679.141 324.213C683.251 321.846 683.395 317.031 679.839 314.227C678.332 313.039 676.109 312.163 674.349 312.961Z" fill="#C1564D"/>
<mask id="mask19" mask-type="alpha" maskUnits="userSpaceOnUse" x="570" y="219" width="146" height="62">
<path d="M596.847 221.059L571.239 242.784C570.974 256.594 568.279 281.603 574.058 280.37C575.199 280.128 692.518 281.29 708.507 280.579C717.505 279.956 715.517 250.144 715.423 239.882L683.336 219.66" fill="white"/>
</mask>
<g mask="url(#mask19)">
<path fill-rule="evenodd" clip-rule="evenodd" d="M596.093 286.371C594.676 286.38 593.498 285.26 593.439 283.825C593.004 273.046 593.373 262.139 594.537 251.407C594.695 249.948 595.986 248.884 597.453 249.048C598.906 249.205 599.956 250.515 599.798 251.974C598.663 262.444 598.302 273.084 598.727 283.602C598.785 285.067 597.652 286.306 596.19 286.369C596.159 286.371 596.126 286.372 596.093 286.371Z" fill="#FF9167"/>
</g>
<mask id="mask20" mask-type="alpha" maskUnits="userSpaceOnUse" x="570" y="219" width="146" height="62">
<path d="M596.847 221.059L571.239 242.784C570.974 256.594 568.279 281.603 574.058 280.37C575.199 280.128 692.518 281.29 708.507 280.579C717.505 279.956 715.517 250.144 715.423 239.882L683.336 219.66" fill="white"/>
</mask>
<g mask="url(#mask20)">
<path fill-rule="evenodd" clip-rule="evenodd" d="M622.573 287.482C622.467 287.482 622.358 287.477 622.249 287.465C620.798 287.296 619.759 285.976 619.929 284.518C621.095 274.508 621.307 264.342 620.562 254.296C620.454 252.831 621.548 251.555 623.006 251.444C624.469 251.322 625.733 252.43 625.842 253.892C626.61 264.274 626.389 274.783 625.187 285.129C625.029 286.479 623.891 287.472 622.573 287.482Z" fill="#FF9167"/>
</g>
<mask id="mask21" mask-type="alpha" maskUnits="userSpaceOnUse" x="570" y="219" width="146" height="62">
<path d="M596.847 221.059L571.239 242.784C570.974 256.594 568.279 281.603 574.058 280.37C575.199 280.128 692.518 281.29 708.507 280.579C717.505 279.956 715.517 250.144 715.423 239.882L683.336 219.66" fill="white"/>
</mask>
<g mask="url(#mask21)">
<path fill-rule="evenodd" clip-rule="evenodd" d="M676.617 287.767C675.162 287.774 673.974 286.605 673.958 285.142C673.831 273.968 672.633 262.75 670.397 251.803C670.105 250.367 671.027 248.959 672.46 248.662C673.892 248.365 675.287 249.29 675.581 250.727C677.884 262.004 679.119 273.56 679.251 285.073C679.266 286.543 678.097 287.747 676.635 287.768C676.629 287.766 676.621 287.768 676.617 287.767Z" fill="#FF9167"/>
</g>
<path fill-rule="evenodd" clip-rule="evenodd" d="M624.648 354.927C633.551 331.883 650.691 332.372 656.493 355.57C656.964 357.452 655.554 359.281 653.622 359.253L627.358 358.892C625.335 358.865 623.916 356.82 624.648 354.927Z" fill="#C1564D"/>
<path fill-rule="evenodd" clip-rule="evenodd" d="M638.376 334.846C638.287 334.846 638.2 334.845 638.113 334.844C636.652 334.815 635.493 333.601 635.524 332.132C635.555 330.666 636.78 329.479 638.225 329.526C641.356 329.578 644.952 327.58 645.233 326.613C644.939 326.191 643.792 325.411 643.019 324.885C639.938 322.79 634.801 319.299 636.062 311.464L636.009 299.864C636 298.395 637.18 297.197 638.642 297.189C640.103 297.18 641.294 298.362 641.3 299.83L641.356 311.659C641.358 311.82 641.344 311.978 641.316 312.136C640.557 316.441 642.576 318.16 645.99 320.48C648.142 321.944 650.584 323.604 650.539 326.603C650.524 327.7 650.151 329.351 648.46 330.992C645.878 333.499 641.41 334.826 638.376 334.846Z" fill="#EE9D8B"/>
<path fill-rule="evenodd" clip-rule="evenodd" d="M560.708 417.72C560.678 417.719 560.647 417.721 560.614 417.72C559.155 417.679 558.004 416.455 558.05 414.987C558.152 411.504 560.336 407.901 564.046 405.107C568.888 401.461 574.985 400.001 579.961 401.305C581.375 401.673 582.219 403.126 581.849 404.547C581.476 405.969 580.036 406.819 578.618 406.448C575.274 405.576 570.691 406.744 567.216 409.36C564.843 411.149 563.392 413.308 563.339 415.137C563.298 416.57 562.128 417.711 560.708 417.72Z" fill="#FF9167"/>
<path fill-rule="evenodd" clip-rule="evenodd" d="M538.33 469.209C538.189 469.21 538.048 469.199 537.904 469.179C536.46 468.952 535.475 467.592 535.7 466.141C536.997 457.839 544.23 450.774 552.528 449.714C553.977 449.512 555.304 450.557 555.486 452.014C555.668 453.471 554.64 454.801 553.19 454.987C547.143 455.762 541.873 460.906 540.928 466.96C540.724 468.263 539.606 469.201 538.33 469.209Z" fill="#FF9167"/>
<path fill-rule="evenodd" clip-rule="evenodd" d="M737.369 408.82C736.344 408.828 735.365 408.231 734.929 407.229C734.204 405.554 732.057 404.1 729.192 403.335C725 402.216 720.317 402.86 717.539 404.933C716.366 405.811 714.71 405.564 713.84 404.389C712.968 403.21 713.214 401.546 714.387 400.67C718.518 397.584 724.714 396.637 730.556 398.196C735.032 399.389 738.394 401.901 739.781 405.094C740.365 406.443 739.753 408.009 738.413 408.596C738.072 408.746 737.717 408.82 737.369 408.82Z" fill="#FF9167"/>
<path fill-rule="evenodd" clip-rule="evenodd" d="M738.456 474.037C738.272 474.04 738.088 474.021 737.902 473.981C736.471 473.684 735.552 472.279 735.85 470.841C737.093 464.843 733.967 458.173 728.575 455.323C727.286 454.638 726.789 453.032 727.474 451.732C728.156 450.433 729.755 449.934 731.048 450.617C738.444 454.528 742.735 463.687 741.031 471.915C740.773 473.167 739.68 474.028 738.456 474.037Z" fill="#FF9167"/>
<path fill-rule="evenodd" clip-rule="evenodd" d="M600.267 297.167C590.07 297.232 579.95 303.62 575.867 312.719C571.64 322.146 573.924 331.17 581.977 336.855C590.341 342.76 604.249 344.161 613.554 335.129C619.978 328.896 622.557 319.003 619.827 311.073C616.92 302.638 610.241 297.577 601.495 297.193C601.088 297.173 600.676 297.166 600.267 297.167ZM597.453 346.882C590.611 346.928 583.941 344.742 578.928 341.207C568.79 334.05 565.771 322.3 571.045 310.543C576.225 298.986 588.837 291.311 601.735 291.879C612.76 292.365 621.178 298.723 624.829 309.328C628.263 319.3 625.209 331.205 617.227 338.951C611.51 344.498 604.394 346.838 597.453 346.882Z" fill="#727491"/>
<path fill-rule="evenodd" clip-rule="evenodd" d="M683.985 296.634C673.787 296.699 663.667 303.087 659.584 312.186C655.357 321.613 657.641 330.637 665.694 336.322C674.058 342.224 687.967 343.625 697.271 334.596C703.693 328.362 706.275 318.47 703.544 310.54C700.638 302.102 693.958 297.044 685.213 296.658C684.805 296.64 684.393 296.633 683.985 296.634ZM681.171 346.349C674.33 346.393 667.658 344.209 662.648 340.672C652.51 333.518 649.488 321.767 654.76 310.01C659.942 298.453 672.561 290.777 685.452 291.346C696.477 291.832 704.895 298.19 708.546 308.795C711.979 318.769 708.926 330.672 700.944 338.418C695.227 343.965 688.114 346.305 681.171 346.349Z" fill="#727491"/>
<path fill-rule="evenodd" clip-rule="evenodd" d="M654.806 318.976C654.541 318.979 654.273 318.939 654.006 318.856C637.485 313.718 624.707 318.915 624.583 318.967C623.231 319.53 621.686 318.894 621.124 317.543C620.562 316.189 621.195 314.636 622.537 314.066C623.125 313.818 637.129 308.042 655.577 313.777C656.975 314.212 657.754 315.701 657.319 317.103C656.969 318.237 655.93 318.969 654.806 318.976Z" fill="#727491"/>
<path fill-rule="evenodd" clip-rule="evenodd" d="M547.658 327.74C546.312 327.748 545.154 326.725 545.016 325.352C544.87 323.892 545.928 322.586 547.384 322.437L570.837 320.021C572.295 319.868 573.588 320.933 573.735 322.393C573.883 323.856 572.822 325.159 571.369 325.309L547.914 327.726C547.828 327.735 547.743 327.739 547.658 327.74Z" fill="#727491"/>
<path fill-rule="evenodd" clip-rule="evenodd" d="M733.224 326.798C733.139 326.8 733.053 326.796 732.968 326.788L706.987 324.442C705.531 324.313 704.459 323.02 704.592 321.557C704.725 320.095 706.024 319.013 707.469 319.15L733.45 321.494C734.906 321.625 735.976 322.916 735.845 324.378C735.717 325.754 734.57 326.79 733.224 326.798Z" fill="#727491"/>
</svg>
