<?xml version="1.0" encoding="UTF-8"?>
<svg width="48px" height="31px" viewBox="0 0 48 31" version="1.1" xmlns="http://www.w3.org/2000/svg" xmlns:xlink="http://www.w3.org/1999/xlink">
    <!-- Generator: Sketch 55.1 (78136) - https://sketchapp.com -->
    <title>Oval</title>
    <desc>Created with Sketch.</desc>
    <g id="Page-1" stroke="none" stroke-width="1" fill="none" fill-rule="evenodd">
        <g id="Oval" fill="#727491" fill-rule="nonzero">
            <path d="M5.60070699,25.8076918 L6.34275665,25.9038457 C6.67844535,25.9423066 6.71378104,26.2500001 6.71378104,26.4423078 L6.71378104,27.3846145 L3.30388716,27.3846145 L3.30388716,26.4423078 C3.30388716,26.2500001 3.33922267,25.9423066 3.67491155,25.9038457 L4.41696121,25.8076918 L4.41696121,25 L0,25 L0,25.8076918 L0.74204966,25.9038457 C1.07773871,25.9423066 1.11307405,26.2500001 1.11307405,26.4423078 L1.11307405,29.5576922 C1.11307405,29.7499999 1.07773853,30.0576934 0.74204966,30.0961543 L0,30.1923082 L0,31 L4.41696121,31 L4.41696121,30.1923082 L3.67491155,30.0961543 C3.3392225,30.0576934 3.30388716,29.7499999 3.30388716,29.5576922 L3.30388716,28.6153855 L6.69611355,28.6153855 L6.69611355,29.5576922 C6.69611355,29.7499999 6.66077768,30.0576934 6.32508845,30.0961543 L5.58303879,30.1923082 L5.58303879,31 L10,31 L10,30.1923082 L9.25795105,30.0961543 C8.92226164,30.0576934 8.88692595,29.7499999 8.88692595,29.5576922 L8.88692595,26.4423078 C8.88692595,26.2500001 8.92226182,25.9423066 9.25795105,25.9038457 L10,25.8076918 L10,25 L5.58303879,25 L5.58303879,25.8076918 L5.60070699,25.8076918 Z" id="svg_1"></path>
            <path d="M34.4418593,25 L29.0697664,25 L29.0697664,25.810289 L29.7151172,25.8874583 C29.9418593,25.9260459 30.0988376,26.0225089 30.0988376,26.3697736 L30.0988376,29.5530542 C30.0988376,29.7459803 30.0639544,30.0546633 29.7325575,30.0932479 L29,30.189711 L29,31 L34.4418593,31 C36.3953469,31 38,30.1318325 38,27.9903546 C38,25.8488766 36.3953469,25 34.4418593,25 M34.040696,29.8617372 L32.2093009,29.8617372 L32.2093009,26.1575566 L34.040696,26.1575566 C35.1220907,26.1575566 35.4883708,26.7170411 35.4883708,28.0096454 C35.4883708,29.2829589 35.1220934,29.8617372 34.040696,29.8617372" id="svg_2"></path>
            <path d="M47.3050837,30.1125417 C46.9661007,30.073957 46.8644047,29.8231525 46.7627088,29.6495173 L44.3220319,25.4051431 C44.1525403,25.0964631 44.0169492,25 43.7627119,25 L39.7627108,25 L39.7627108,25.810289 L40.728812,25.9260459 C40.8644058,25.9453367 41.0508475,26.1575566 40.8983036,26.427652 L39.0847447,29.7652741 C39.0169492,29.9003218 38.9152532,30.0546633 38.7118639,30.0932479 L38,30.189711 L38,31 L41.3728803,31 L41.3728803,30.189711 L40.7966102,30.1318325 C40.5423729,30.0932479 40.4067792,29.9003218 40.5423729,29.6688111 L40.8135578,29.167202 L44.0677946,29.167202 L44.3050817,29.572348 C44.5254237,29.9389064 44.2542363,30.0932479 44.0169492,30.1125417 L43.4237288,30.189711 L43.4237288,31 L48,31 L48,30.189711 L47.3050837,30.1125417 Z M41.3728803,28.1061085 L42.3728803,26.2540168 L43.440679,28.1061085 L41.3728803,28.1061085 Z" id="svg_3"></path>
            <path d="M25.338797,25.8242816 L26.1038237,25.9201283 C26.4499092,25.9584664 26.4863385,26.2651767 26.4863385,26.45687 L26.4863385,29.4472833 L23.4808741,25.2683723 C23.35337,25.076679 23.225866,25.0191705 22.8979967,25.0191705 L19,25.0191705 L19,25.8242816 L19.7650268,25.9201283 C20.1111109,25.9584664 20.1475401,26.2651767 20.1475401,26.45687 L20.1475401,29.5623005 C20.1475401,29.7539937 20.1111107,30.0607041 19.7650268,30.0990422 L19,30.1948888 L19,31 L22.6429857,31 L22.6429857,30.1948888 L21.877959,30.0990422 C21.5318763,30.0607041 21.4954469,29.7539937 21.4954469,29.5623005 L21.4954469,26.5718843 L24.5009114,30.7316306 C24.6466287,30.9233238 24.7559194,30.9808295 25.0837888,30.9808295 L25.1202181,30.9808295 L27.8524585,30.9808295 L27.8524585,26.4376995 C27.8524585,26.2460063 27.8888878,25.9392988 28.2349732,25.9009578 L29,25.8051112 L29,25 L25.3752261,25 L25.3387968,25.8242816 L25.338797,25.8242816 Z" id="svg_4"></path>
            <path d="M14.5,25 C10.9176465,25 10,26.6036051 10,27.9909918 C10,29.3783785 10.9176465,31 14.5,31 C18.0823521,31 19,29.3963976 19,28.0090082 C19,26.6036051 18.0823521,25 14.5,25 M14.5,29.9369381 C13.105882,29.9369381 12.5411768,29.342343 12.5411768,28.0090109 C12.5411768,26.6756788 13.1235289,26.0810837 14.5,26.0810837 C15.894118,26.0810837 16.4588232,26.6756788 16.4588232,28.0090109 C16.4588232,29.342343 15.8941178,29.9369381 14.5,29.9369381" id="svg_5"></path>
            <path d="M30.1586587,2 C29.5508385,4.69471604 29.3005576,5.94520579 28.8000011,7.88258346 C28.3173174,9.74951139 27.9419,11.4931502 27.2983235,12.3385519 C26.6547497,13.201566 25.7787704,13.3776912 25.1888257,13.4481415 C24.8849157,13.483366 24.6525129,13.5009782 23.9910609,13.5009782 C23.3296089,13.5009782 23.0972062,13.483366 22.7932961,13.4481415 C22.2033514,13.377691 21.3273748,13.2015658 20.6837983,12.3385519 C20.0402245,11.4931502 19.6648045,9.74951139 19.2000004,7.88258346 C18.6994412,5.92759292 18.4491629,4.69471622 17.8413415,2 C17.8413415,2 17.2335199,2.01761252 16.9653635,2.03522522 C16.5899448,2.05283775 16.3039115,2.08806262 16,2.12328785 C16,2.12328785 16.3575419,7.671233 16.5184361,10.0313116 C16.6793303,12.497065 16.9832402,16.6712327 17.2513966,19.8238748 C17.2513966,19.8238748 17.7698328,19.9119374 18.6279339,19.9471619 C19.5217886,20 19.9329609,20 19.9329609,20 C20.308381,18.6086102 20.7553083,16.6888449 21.273743,15.8610568 C21.7027922,15.1917803 22.3463687,15.1213313 22.7217888,15.0684932 C23.2938553,14.9980427 23.7944145,14.9804306 24.0089391,14.9804306 C24.2413419,14.9804306 24.7240229,14.9804306 25.2960894,15.0684932 C25.6715095,15.1213313 26.3150833,15.1917803 26.7441352,15.8610568 C27.2625698,16.6888449 27.7273754,18.6086102 28.0849173,20 C28.0849173,20 28.4782128,20 29.3720676,19.9471619 C30.2301687,19.8943252 30.7486034,19.8238748 30.7486034,19.8238748 C31.0167598,16.6712326 31.3206699,12.5146772 31.4815653,10.0313116 C31.6424581,7.68884535 32,2.12328785 32,2.12328785 C31.6960899,2.08806262 31.3921798,2.05283775 31.0346379,2.03522522 C30.7664788,2.0176127 30.1586587,2 30.1586587,2" id="svg_6"></path>
            <path d="M36.8609931,5.22861839 C36.513478,1.61019712 34.1851253,0.850328912 32.1521626,0.488486641 C31.1269941,0.307565596 29.3025399,0.16282876 28.1383649,0.108552627 C27.1131938,0.0361840281 24.7153391,0 23.985558,0 C23.2557768,0 20.8579222,0.036184209 19.8327537,0.108552627 C18.6685773,0.16282876 16.8441231,0.307565596 15.8189534,0.488486641 C13.7859906,0.850328912 11.4576393,1.61019712 11.1101243,5.22861839 C11.0058701,6.22368414 10.9884945,7.50822319 11.0058701,8.88322296 C11.0406211,11.1809211 11.2317554,12.71875 11.3360098,13.8042763 C11.4055131,14.5460522 11.7009003,16.7532884 12.0831663,17.8930916 C12.604439,19.4671041 13.0735852,19.9194067 13.6296088,20.3898011 C14.6374031,21.2401294 16.3054754,21.511511 16.6529905,21.5838811 C18.5295725,21.92763 22.3174875,22 24.0029351,22 C25.671006,22 29.4762978,21.9457231 31.3528798,21.5838811 C31.7003949,21.511511 33.3684657,21.2582226 34.37626,20.3898011 C34.9322837,19.9194067 35.4014285,19.4671041 35.9227011,17.8930916 C36.3049698,16.7532884 36.6003571,14.5279605 36.6698591,13.8042763 C36.7741147,12.7368418 36.9652464,11.1809211 37,8.88322296 C36.9826232,7.49013145 36.9478722,6.20559167 36.8609934,5.22861839 M35.575186,11.3075651 C35.3666775,14.2023019 35.1234154,15.9391435 34.7759003,17.1874991 C34.4631362,18.2911171 34.0808701,19.0148013 33.5248465,19.5394727 C32.5865568,20.4259862 31.3007494,20.6069072 30.5362172,20.7335512 C28.9028948,20.9868411 26.1401508,21.0773016 23.9855583,21.0773016 C21.813589,21.0773016 19.0682179,20.9868411 17.434898,20.7335512 C16.6703645,20.606907 15.3845585,20.425986 14.4462674,19.5394727 C13.8902438,19.0148013 13.5079763,18.2730254 13.1952136,17.1874991 C12.8476985,15.9391435 12.5870622,14.2023019 12.3959292,11.3075651 C12.2742981,9.57072347 12.2916737,6.74835462 12.482808,5.22861839 C12.7434457,2.94901286 13.820742,1.80921027 16.1317178,1.39309205 C17.2090141,1.1940789 18.6685776,1.0493417 20.0412626,0.976973463 C21.1533098,0.904605045 22.9603899,0.868420836 23.9855583,0.868420836 C24.9933526,0.850329093 26.8178068,0.904605226 27.9124799,0.976973463 C29.2851634,1.04934188 30.7447284,1.1940789 31.8220246,1.39309205 C34.1330005,1.82730256 35.2102968,2.96710496 35.4883073,5.22861839 C35.6794416,6.73026288 35.6968184,9.55263173 35.575186,11.3075651" id="svg_7"></path>
        </g>
    </g>
</svg>