<?xml version="1.0" encoding="UTF-8"?>
<svg width="22px" height="22px" viewBox="0 0 22 22" version="1.1" xmlns="http://www.w3.org/2000/svg" xmlns:xlink="http://www.w3.org/1999/xlink">
    <!-- Generator: Sketch 55.1 (78136) - https://sketchapp.com -->
    <title>Oval</title>
    <desc>Created with Sketch.</desc>
    <g id="Page-1" stroke="none" stroke-width="1" fill="none" fill-rule="evenodd">
        <g id="Oval" fill="#727491" fill-rule="nonzero">
            <path d="M11,22 C10.890662,22 10.7817824,21.9980139 10.6731065,21.9948565 L12.9211296,15.8166393 L16.0148796,15.8166393 C16.5579028,15.8166393 17.1539907,15.3992005 17.3397176,14.8891785 L19.778662,8.19009215 C20.1776667,7.09330302 19.5494444,6.19599029 18.382375,6.19599029 L14.0903889,6.19599029 L10.489162,16.0916896 L10.487838,16.0916896 L8.44626852,21.7013201 C3.6027037,20.5498367 0,16.1958329 0,11.0000255 C0,5.95399085 3.3978287,1.70199143 8.03015278,0.406082393 L5.92360185,6.19599029 L5.92299074,6.19599029 L2.42096759,15.8166393 L4.75225463,15.816843 L7.7304537,7.64167213 L9.48250926,7.64167213 L6.50431019,15.816843 L8.83473148,15.8172504 L11.6100926,8.19009215 C12.0093519,7.09330302 11.3810787,6.19599029 10.2150787,6.19599029 L8.25539815,6.19599029 L10.5056111,0.0115601584 C10.6696435,0.00427776788 10.834287,0 11,0 C17.0751574,0 22,4.92483119 22,11.0000255 C22,17.075067 17.0751574,22 11,22 Z M18,7 L16.3336159,7 L14,14 L15.6664325,14 L18,7 Z" id="Shape"></path>
        </g>
    </g>
</svg>