<?xml version="1.0" encoding="UTF-8"?>
<svg width="82px" height="24px" viewBox="0 0 82 24" version="1.1" xmlns="http://www.w3.org/2000/svg" xmlns:xlink="http://www.w3.org/1999/xlink">
    <!-- Generator: Sketch 55.1 (78136) - https://sketchapp.com -->
    <title>Oval</title>
    <desc>Created with Sketch.</desc>
    <g id="Page-1" stroke="none" stroke-width="1" fill="none" fill-rule="evenodd">
        <g id="Oval" fill="#727491" fill-rule="nonzero">
            <path d="M68.8095503,0.590337903 C69.287715,0.590337903 69.6789406,0.981563554 69.6789406,1.45972824 C69.6789406,1.93789292 69.287715,2.32911857 68.8095503,2.32911857 C68.3313856,2.32911857 67.94016,1.93789292 67.94016,1.45972824 C67.94016,0.981563554 68.3313856,0.590337903 68.8095503,0.590337903 Z M50.3784752,5.14376978 C50.1067907,4.8177484 49.6177587,4.49172703 48.9657159,4.16570565 C48.5310208,3.94835807 48.2049994,3.78534738 48.0419887,3.62233669 C47.878978,3.45932601 47.7703042,3.24197842 47.7703042,3.02463084 C47.7703042,2.80728326 47.878978,2.58993567 48.0419887,2.48126188 C48.2593363,2.31825119 48.4766839,2.2639143 48.8027052,2.2639143 C49.454748,2.2639143 50.0524538,2.42692498 50.5958228,2.80728326 L50.5958228,1.17717638 C50.1067907,0.959828795 49.454748,0.905491899 48.7483683,0.905491899 C47.878978,0.905491899 47.2269353,1.12283948 46.6835663,1.50319775 C46.1945342,1.93789292 45.9228498,2.48126188 45.9228498,3.18764153 C45.9228498,4.11136876 46.5205556,4.8720853 47.6616304,5.40458688 C48.1506625,5.62193446 48.5310208,5.83928205 48.7483683,6.00229273 C48.9657159,6.21964032 49.1287266,6.4369879 49.1287266,6.65433548 C49.1287266,6.87168307 49.0200528,7.03469375 48.8570421,7.19770444 C48.6396946,7.36071513 48.3680101,7.46938892 47.9876518,7.46938892 C47.2269353,7.46938892 46.5748925,7.19770444 45.9771867,6.70867238 L45.9771867,8.44745305 C46.5205556,8.71913753 47.1725984,8.88214821 47.9876518,8.88214821 C49.0200528,8.88214821 49.8351063,8.61046373 50.3132709,8.12143167 C50.7479661,7.7410734 50.9653137,7.19770444 50.9653137,6.54566169 C50.9218442,5.95882322 50.7588335,5.52412805 50.3784752,5.14376978 Z M54.8775702,7.36071513 C54.7145595,7.46938892 54.4972119,7.52372582 54.3342012,7.52372582 C53.8995061,7.52372582 53.6278216,7.25204134 53.6278216,6.65433548 L53.6278216,4.43739013 L54.8775702,4.43739013 L54.8775702,3.18764153 L53.6278216,3.18764153 L53.6278216,1.56840203 L51.9433778,2.05743409 L51.9433778,3.19850891 L51.0739875,3.19850891 L51.0739875,4.44825751 L51.9433778,4.44825751 L51.9433778,6.93688734 C51.9433778,8.18663595 52.5410837,8.7843418 53.7364954,8.7843418 C54.2255274,8.7843418 54.6058857,8.73000491 54.8775702,8.56699422 L54.8775702,7.36071513 Z M60.8980983,3.18764153 L59.2136545,3.18764153 L59.2136545,6.32831411 C59.2136545,6.70867238 59.1049807,6.98035686 58.94197,7.19770444 C58.7789593,7.41505203 58.5072748,7.52372582 58.2355904,7.52372582 C57.6378845,7.52372582 57.3118631,7.14336755 57.3118631,6.382651 L57.3118631,3.18764153 L55.6382867,3.18764153 L55.6382867,6.4913248 C55.6382867,8.01275788 56.2903295,8.81694394 57.5400781,8.81694394 C58.2464577,8.81694394 58.7898267,8.49092256 59.2245219,7.83887981 L59.2245219,8.65393325 L60.9089656,8.65393325 L60.8980983,3.18764153 Z M67.1359739,0.590337903 L65.4515301,0.590337903 L65.4515301,3.83968428 C65.1798457,3.35065221 64.6908136,3.07896773 63.9844339,3.07896773 C63.2237174,3.07896773 62.6260116,3.35065221 62.1913164,3.89402117 C61.7022843,4.43739013 61.4849367,5.19810667 61.4849367,6.06749701 C61.4849367,6.99122424 61.7022843,7.69760388 62.1913164,8.18663595 C62.6260116,8.62133111 63.1150436,8.8386787 63.7670864,8.8386787 C64.5278029,8.8386787 65.0711719,8.56699422 65.4515301,7.96928836 L65.4515301,8.73000491 L67.1359739,8.73000491 L67.1359739,0.590337903 Z M65.1255088,7.08903065 C64.9081612,7.36071513 64.6364767,7.46938892 64.3104553,7.46938892 C63.9844339,7.46938892 63.7127495,7.36071513 63.4954019,7.08903065 C63.2780543,6.81734617 63.1693805,6.4369879 63.1693805,5.94795584 C63.1693805,5.45892377 63.2780543,5.02422861 63.4954019,4.75254413 C63.7127495,4.42652275 63.9844339,4.31784896 64.3647922,4.31784896 C64.6908136,4.31784896 64.9624981,4.42652275 65.1798457,4.64387034 C65.3971932,4.86121792 65.505867,5.18723929 65.505867,5.51326067 L65.505867,5.94795584 C65.505867,6.50219217 65.3428563,6.82821355 65.1255088,7.08903065 Z M67.9944969,3.18764153 L69.6789406,3.18764153 L69.6789406,8.66480063 L67.9944969,8.66480063 L67.9944969,3.18764153 Z M75.536458,3.89402117 C74.9930891,3.35065221 74.2867094,3.07896773 73.3195127,3.07896773 C72.3957854,3.07896773 71.6894058,3.35065221 71.1460368,3.83968428 C70.6026679,4.32871634 70.2766465,5.08943288 70.2766465,6.01316011 C70.2766465,6.88255045 70.548331,7.58893009 71.037363,8.07796216 C71.580732,8.56699422 72.2871116,8.8386787 73.2108389,8.8386787 C74.1345661,8.8386787 74.8952826,8.56699422 75.4277842,8.02362526 C75.9602858,7.4802563 76.2428377,6.77387665 76.2428377,5.90448632 C76.2428377,5.03509599 76.0254901,4.38305324 75.536458,3.89402117 Z M73.3086453,7.52372582 C72.4392549,7.52372582 72.0588967,6.98035686 72.0588967,5.94795584 C72.0588967,5.45892377 72.1675705,5.02422861 72.3849181,4.75254413 C72.6022656,4.48085965 72.928287,4.37218586 73.3086453,4.37218586 C74.1236987,4.37218586 74.5583939,4.86121792 74.5583939,5.89361894 C74.504057,6.99122424 74.1236987,7.52372582 73.3086453,7.52372582 Z M80.3615744,5.95882322 C80.1442268,5.74147563 79.7638685,5.52412805 79.2748364,5.36111736 C78.9488151,5.25244357 78.7314675,5.14376978 78.6227937,5.03509599 C78.5141199,4.92642219 78.459783,4.8177484 78.459783,4.65473771 C78.459783,4.32871634 78.6771306,4.22004255 79.1118258,4.22004255 C79.6008578,4.22004255 80.035553,4.32871634 80.4702482,4.60040082 L80.4702482,3.29631532 C80.035553,3.13330463 79.5465209,3.07896773 79.1118258,3.07896773 C78.4054461,3.07896773 77.8620772,3.24197842 77.427382,3.5679998 C76.9926868,3.89402117 76.8296761,4.32871634 76.8296761,4.8177484 C76.8296761,5.25244357 76.9383499,5.57846494 77.2100344,5.85014942 C77.427382,6.06749701 77.7534034,6.28484459 78.1880985,6.44785528 C78.6227937,6.61086597 78.8944782,6.71953976 79.003152,6.82821355 C79.1118258,6.93688734 79.2204996,7.04556113 79.2204996,7.20857182 C79.2204996,7.5345932 78.9488151,7.69760388 78.4054461,7.69760388 C77.9164141,7.69760388 77.3730451,7.5345932 76.8296761,7.20857182 L76.8296761,8.56699422 C77.3187082,8.73000491 77.8620772,8.8386787 78.4054461,8.8386787 C79.1661627,8.8386787 79.8182054,8.67566801 80.2529006,8.29530974 C80.6332588,7.96928836 80.8506064,7.5345932 80.8506064,7.04556113 C80.7419326,6.61086597 80.6332588,6.2305077 80.3615744,5.95882322 Z M47.6724978,16.8479371 C47.6181609,17.445643 47.074792,17.6629906 46.6400968,17.8260013 C46.1510647,17.989012 45.6076958,18.0433489 45.1186637,17.989012 C44.7383054,17.9346751 44.2492734,17.7716644 44.0319258,17.3913061 C43.7602413,16.9566109 44.0862627,16.413242 44.5209578,16.1958944 C45.2816744,15.7611992 46.531423,15.7611992 47.2812722,16.2502313 C47.563824,16.3589051 47.6724978,16.5762527 47.6724978,16.8479371 Z M81.1657604,20.912337 C81.3287711,19.2278932 80.0790225,17.8803382 78.7314675,17.0109478 C78.5141199,16.8479371 78.2424354,16.7392634 77.9707509,16.5762527 C72.6566025,13.9246122 61.9304993,10.9904198 44.5861621,10.5013877 C40.141404,10.3927139 13.7988769,10.2840401 1.98603575,13.5877234 C1.71435127,13.6963972 0.953634731,13.8594079 0.627613355,14.1854293 C0.30159198,14.5657875 0.410265772,15.1091565 0.790624043,15.3265041 C1.3883299,15.6525254 2.42073092,15.4895148 2.52940471,15.4895148 C28.6002474,11.6424625 47.4660176,13.805071 53.9647103,14.6201244 C54.0733841,14.6201244 54.5624162,14.6744613 54.8341007,14.837472 C55.1057852,14.9461458 55.2687958,15.4895148 54.2363948,15.4895148 C53.3126676,15.4895148 50.3893426,15.5438516 49.4656154,15.9242099 C48.5418881,16.3589051 48.9765833,17.0652847 49.0309202,17.1196216 C49.2482678,17.445643 49.6286261,17.445643 50.0089843,17.4999799 C57.051046,17.8260013 63.9409644,19.1300868 70.6026679,21.401369 C72.0154272,21.8904011 73.4173191,22.5424438 74.8300784,22.977139 C75.5907949,23.1944866 76.3515115,23.3574973 77.1013606,23.4661711 C78.459783,23.6291818 80.1876963,23.4118342 80.839739,22.0534118 C81.0570866,21.6730535 81.1657604,21.2926952 81.1657604,20.912337 Z M43.7167718,8.61046373 C43.4994242,8.71913753 43.2277397,8.77347442 42.9017183,8.77347442 C41.9236542,8.77347442 41.4889591,8.23010546 41.4889591,7.14336755 L41.4889591,3.89402117 L40.5652318,3.89402117 L40.5652318,3.18764153 L41.4889591,3.18764153 L41.4889591,1.8944234 C41.7606435,1.78574961 42.0866649,1.73141272 42.3583494,1.62273892 L42.3583494,3.2528458 L43.7167718,3.2528458 L43.7167718,4.01356234 L42.3583494,4.01356234 L42.3583494,7.09989803 C42.3583494,7.4802563 42.4126863,7.75194078 42.5213601,7.86061457 C42.6300339,8.02362526 42.8473815,8.07796216 43.1734028,8.07796216 C43.3907504,8.07796216 43.5537611,8.02362526 43.7167718,7.91495147 L43.7167718,8.61046373 Z M9.57146642,8.66480063 L8.64773919,8.66480063 L8.64773919,3.5136629 C8.64773919,3.13330463 8.64773919,2.58993567 8.70207608,2.04656671 C8.59340229,2.37258809 8.5390654,2.64427257 8.4847285,2.80728326 L5.88742488,8.71913753 L5.45272971,8.71913753 L2.79022181,2.80728326 C2.73588492,2.64427257 2.62721112,2.37258809 2.57287423,2.04656671 C2.62721112,2.37258809 2.62721112,2.86162015 2.62721112,3.5679998 L2.62721112,8.71913753 L1.70348389,8.71913753 L1.70348389,1.02503307 L2.8988956,1.02503307 L5.22451475,6.39351838 C5.38752543,6.77387665 5.49619923,7.09989803 5.55053612,7.31724561 L5.65920991,7.31724561 C5.8222206,6.88255045 5.93089439,6.55652907 6.03956818,6.39351838 L8.4303916,1.02503307 L9.57146642,1.02503307 L9.57146642,8.66480063 Z M12.0057594,1.24238065 C12.0057594,1.40539134 11.9514225,1.51406513 11.8427487,1.67707582 C11.7340749,1.78574961 11.5710642,1.84008651 11.4080535,1.84008651 C11.2450428,1.84008651 11.136369,1.78574961 11.0276952,1.67707582 C10.9190214,1.56840203 10.8646845,1.40539134 10.8646845,1.24238065 C10.8646845,1.07936997 10.9190214,0.970696174 11.0276952,0.862022383 C11.136369,0.753348591 11.2993797,0.699011695 11.4080535,0.699011695 C11.5710642,0.699011695 11.679738,0.753348591 11.8427487,0.862022383 C11.9514225,0.970696174 12.0057594,1.07936997 12.0057594,1.24238065 Z M11.8970856,8.66480063 L11.0276952,8.66480063 L11.0276952,3.18764153 L11.8970856,3.18764153 L11.8970856,8.66480063 Z M16.8852126,8.44745305 C16.5048543,8.66480063 15.9614854,8.82781132 15.4181164,8.82781132 C14.6573999,8.82781132 14.0053571,8.55612684 13.5163251,8.06709478 C13.027293,7.57806271 12.8099454,6.92601996 12.8099454,6.11096652 C12.8099454,5.18723929 13.0816299,4.48085965 13.570662,3.93749069 C14.1140309,3.39412173 14.7660737,3.12243725 15.635464,3.12243725 C16.1244961,3.12243725 16.5591912,3.23111104 16.8852126,3.39412173 L16.8852126,4.31784896 C16.5048543,4.04616448 16.0158223,3.88315379 15.5811271,3.88315379 C15.0377581,3.88315379 14.5487261,4.10050138 14.2227047,4.48085965 C13.8423464,4.86121792 13.6793357,5.40458688 13.6793357,6.05662963 C13.6793357,6.70867238 13.8423464,7.19770444 14.1683678,7.57806271 C14.4943892,7.95842098 14.9834212,8.12143167 15.5267902,8.12143167 C16.0158223,8.12143167 16.4505174,7.95842098 16.8852126,7.63239961 L16.8852126,8.44745305 Z M20.8409386,4.11136876 C20.6779279,4.00269496 20.4605804,3.94835807 20.1888959,3.94835807 C19.8085376,3.94835807 19.5368531,4.11136876 19.2651686,4.43739013 C18.9934842,4.8177484 18.8304735,5.30678047 18.8304735,5.95882322 L18.8304735,8.71913753 L17.9610831,8.71913753 L17.9610831,3.18764153 L18.8304735,3.18764153 L18.8304735,4.32871634 C18.9391473,3.94835807 19.1564948,3.62233669 19.4281793,3.40498911 C19.6998638,3.18764153 19.9715483,3.07896773 20.2432328,3.07896773 C20.4605804,3.07896773 20.623591,3.07896773 20.7866017,3.13330463 L20.7866017,4.11136876 L20.8409386,4.11136876 Z M26.4267715,5.90448632 C26.4267715,6.77387665 26.155087,7.4802563 25.666055,8.02362526 C25.1770229,8.56699422 24.5249802,8.8386787 23.6555898,8.8386787 C22.8405364,8.8386787 22.1884936,8.56699422 21.6994616,8.02362526 C21.2104295,7.5345932 20.9930819,6.82821355 20.9930819,6.01316011 C20.9930819,5.03509599 21.2647664,4.32871634 21.8081354,3.79621476 C22.2971674,3.3071827 22.9492102,3.08983511 23.8186005,3.08983511 C24.633654,3.08983511 25.2856967,3.36151959 25.7203919,3.85055166 C26.2094239,4.32871634 26.4267715,5.03509599 26.4267715,5.90448632 Z M25.5573812,5.95882322 C25.5573812,5.25244357 25.3943705,4.70907461 25.0683491,4.32871634 C24.7423277,3.94835807 24.3076326,3.78534738 23.7642636,3.78534738 C23.2208947,3.78534738 22.7861995,3.94835807 22.4601781,4.32871634 C22.1341567,4.70907461 21.9168092,5.25244357 21.9168092,5.95882322 C21.9168092,6.61086597 22.0798198,7.15423493 22.4058412,7.4802563 C22.7318626,7.86061457 23.1665578,8.02362526 23.7642636,8.02362526 C24.3619695,8.02362526 24.7966646,7.86061457 25.0683491,7.4802563 C25.3943705,7.14336755 25.5573812,6.61086597 25.5573812,5.95882322 Z M30.5455082,7.19770444 C30.5455082,7.63239961 30.3824975,8.01275788 30.0564762,8.33877926 C29.6761179,8.66480063 29.1870858,8.82781132 28.5350431,8.82781132 C27.9916741,8.82781132 27.556979,8.71913753 27.1766207,8.50178994 L27.1766207,7.52372582 C27.6113158,7.84974719 28.1003479,8.06709478 28.58938,8.06709478 C29.2957596,8.06709478 29.621781,7.7954103 29.621781,7.30637823 C29.621781,7.08903065 29.5674441,6.92601996 29.4044334,6.76300927 C29.2414227,6.59999859 28.9697382,6.4369879 28.4807062,6.27397721 C28.046011,6.05662963 27.6656527,5.83928205 27.5026421,5.67627136 C27.2852945,5.40458688 27.1766207,5.0785655 27.1766207,4.69820723 C27.1766207,4.26351206 27.3396314,3.88315379 27.7199896,3.55713242 C28.1003479,3.23111104 28.5350431,3.12243725 29.1327489,3.12243725 C29.5674441,3.12243725 29.9478024,3.23111104 30.3281606,3.39412173 L30.3281606,4.26351206 C29.9478024,3.99182759 29.5674441,3.88315379 29.078412,3.88315379 C28.8067276,3.88315379 28.5350431,3.93749069 28.3720324,4.10050138 C28.2090217,4.26351206 28.1003479,4.42652275 28.1003479,4.64387034 C28.1003479,4.86121792 28.1546848,5.0785655 28.3176955,5.18723929 C28.4263693,5.29591309 28.7523907,5.45892377 29.1327489,5.62193446 C29.621781,5.83928205 29.9478024,6.00229273 30.16515,6.21964032 C30.4368344,6.44785528 30.5455082,6.82821355 30.5455082,7.19770444 Z M36.6203732,5.90448632 C36.6203732,6.77387665 36.3486887,7.4802563 35.8596566,8.02362526 C35.3706246,8.56699422 34.7185818,8.8386787 33.8491915,8.8386787 C33.0341381,8.8386787 32.3820953,8.56699422 31.8930632,8.02362526 C31.4040312,7.5345932 31.1866836,6.82821355 31.1866836,6.01316011 C31.1866836,5.03509599 31.4583681,4.32871634 32.001737,3.79621476 C32.4907691,3.3071827 33.1428118,3.08983511 34.0122022,3.08983511 C34.8272556,3.08983511 35.4792984,3.36151959 35.9139935,3.85055166 C36.3486887,4.32871634 36.6203732,5.03509599 36.6203732,5.90448632 Z M35.696646,5.95882322 C35.696646,5.25244357 35.5336353,4.70907461 35.2076139,4.32871634 C34.8815925,3.94835807 34.4468973,3.78534738 33.9035284,3.78534738 C33.3601594,3.78534738 32.9254643,3.94835807 32.5994429,4.32871634 C32.2734215,4.70907461 32.0560739,5.25244357 32.0560739,5.95882322 C32.0560739,6.61086597 32.2190846,7.15423493 32.545106,7.4802563 C32.8711274,7.86061457 33.3058225,8.02362526 33.9035284,8.02362526 C34.5012342,8.02362526 34.9359294,7.86061457 35.2076139,7.4802563 C35.5336353,7.14336755 35.696646,6.61086597 35.696646,5.95882322 Z M40.2500778,1.35105445 C40.0870671,1.24238065 39.8697196,1.18804376 39.652372,1.18804376 C39.0546661,1.18804376 38.7286447,1.56840203 38.7286447,2.38345547 L38.7286447,3.19850891 L40.0327302,3.19850891 L40.0327302,3.95922545 L38.7286447,3.95922545 L38.7286447,8.67566801 L37.8592544,8.67566801 L37.8592544,3.94835807 L36.9355272,3.94835807 L36.9355272,3.18764153 L37.8592544,3.18764153 L37.8592544,2.31825119 C37.8592544,1.72054534 38.0222651,1.23151327 38.4026234,0.905491899 C38.7286447,0.579470524 39.109003,0.470796732 39.5980351,0.470796732 C39.8697196,0.470796732 40.0870671,0.525133628 40.2500778,0.579470524 C40.2500778,0.590337903 40.2500778,1.35105445 40.2500778,1.35105445 Z" id="Shape"></path>
        </g>
    </g>
</svg>