<?xml version="1.0" encoding="UTF-8"?>
<svg width="22px" height="18px" viewBox="0 0 22 18" version="1.1" xmlns="http://www.w3.org/2000/svg" xmlns:xlink="http://www.w3.org/1999/xlink">
    <!-- Generator: Sketch 55.1 (78136) - https://sketchapp.com -->
    <title>Oval</title>
    <desc>Created with Sketch.</desc>
    <g id="Page-1" stroke="none" stroke-width="1" fill="none" fill-rule="evenodd">
        <g id="Oval" fill="#000000" fill-rule="nonzero">
            <path d="M18.04376,11.9281333 C18.04376,10.8233333 17.1482933,9.9281333 16.04376,9.9281333 C14.93896,9.9281333 14.04376,10.8233333 14.04376,11.9281333 C14.04376,13.0329333 14.93896,13.9281333 16.04376,13.9281333 C17.1482933,13.9281333 18.04376,13.0329333 18.04376,11.9281333" id="Path"></path>
            <path d="M17.4007733,15.3992267 L17.40024,15.3992267 L4.59997333,15.4000267 C3.42370667,15.4000267 2.46664,14.44296 2.46664,13.2666933 L2.46664,4.73336 L17.3999733,4.73336 C18.57624,4.73336 19.5333067,5.6904267 19.5333067,6.8666933 L19.5341067,13.2658933 C19.5341067,14.44216 18.57704,15.3992267 17.4007733,15.3992267 Z M21.66664,6.8666933 C21.66664,4.51416 19.7525067,2.60002667 17.3999733,2.60002667 L8.8125067,2.60002667 C8.5637067,1.38669333 7.4839733,0.46669333 6.1999733,0.46669333 L2.99997333,0.46669333 C1.53330667,0.46669333 0.33330667,1.66669333 0.33330667,3.13336 L0.33330667,3.6666933 L0.33330667,13.2666933 C0.33330667,15.6192267 2.24744,17.53336 4.59997333,17.53336 L15.5797067,17.53336 L17.4007733,17.53256 C19.7533067,17.53256 21.66744,15.6184267 21.66744,13.26536 L21.66664,6.8666933 Z" id="Path"></path>
        </g>
    </g>
</svg>