<?xml version="1.0" encoding="UTF-8"?>
<svg width="40px" height="40px" viewBox="0 0 40 40" version="1.1" xmlns="http://www.w3.org/2000/svg" xmlns:xlink="http://www.w3.org/1999/xlink">
    <!-- Generator: Sketch 55.1 (78136) - https://sketchapp.com -->
    <title>Oval</title>
    <desc>Created with Sketch.</desc>
    <g id="Page-1" stroke="none" stroke-width="1" fill="none" fill-rule="evenodd">
        <g id="Oval" fill-rule="nonzero">
            <path d="M28.8888889,0 C22.7523917,0 17.7777778,4.97461389 17.7777778,11.1111111 L17.7777778,17.7777778 L11.1111111,17.7777778 C4.97461389,17.7777778 0,22.7523917 0,28.8888889 C0,35.0253861 4.97461389,40 11.1111111,40 C17.2476083,40 22.2222222,35.0253861 22.2222222,28.8888889 L22.2222222,22.2222222 L28.8888889,22.2222222 C35.0253861,22.2222222 40,17.2476083 40,11.1111111 C40,4.97461389 35.0253861,0 28.8888889,0 L28.8888889,0 Z M17.7777778,28.8888889 C17.7777778,32.5707872 14.7930094,35.5555556 11.1111111,35.5555556 C7.42921278,35.5555556 4.44444444,32.5707872 4.44444444,28.8888889 C4.44444444,25.2069906 7.42921278,22.2222222 11.1111111,22.2222222 L17.7777778,22.2222222 L17.7777778,28.8888889 Z M28.8888889,17.7777778 L22.2222222,17.7777778 L22.2222222,11.1111111 C22.2222222,8.41469615 23.8465034,5.98378756 26.337666,4.95191423 C28.8288286,3.92004089 31.6962808,4.4904126 33.6029341,6.3970659 C35.5095874,8.30371921 36.0799591,11.1711714 35.0480858,13.662334 C34.0162124,16.1534966 31.5853039,17.7777778 28.8888889,17.7777778 Z" id="Shape" fill="#1D1C39"></path>
            <path d="M33.8888889,29.7222222 C31.5877024,29.7222222 29.7222222,31.5877024 29.7222222,33.8888889 C29.7222222,36.1900753 31.5877024,38.0555556 33.8888889,38.0555556 C36.1900753,38.0555556 38.0555556,36.1900753 38.0555556,33.8888889 C38.0555556,31.5877024 36.1900753,29.7222222 33.8888889,29.7222222 Z" id="Path" fill="#FF22B1"></path>
        </g>
    </g>
</svg>