<svg id="Layer_1" data-name="Layer 1" xmlns="http://www.w3.org/2000/svg" xmlns:xlink="http://www.w3.org/1999/xlink" viewBox="0 0 16 16"><defs><style>.cls-1{fill:none;}.cls-2{fill:#ffd56a;}.cls-3{clip-path:url(#clip-path);}.cls-4{fill:#f03063;}.cls-5{fill:#ff97da;}.cls-6{fill:#85f1b8;}.cls-7{fill:#63c0f9;}</style><clipPath id="clip-path"><path class="cls-1" d="M.11,15C3.2,6.57,4.88,3.38,6.35,5c5,5.36,6.24,6.44,4.51,7.13C4.35,14.68-.84,17.58.11,15Z"/></clipPath></defs><title>Teamwork-Icons</title><path class="cls-2" d="M.11,15C3.2,6.57,4.88,3.38,6.35,5c5,5.36,6.24,6.44,4.51,7.13C4.35,14.68-.84,17.58.11,15Z"/><g class="cls-3"><path class="cls-4" d="M2.74,19.08a1,1,0,0,1-1-.95A30.63,30.63,0,0,0-.68,8.42,1,1,0,0,1-.15,7.11a1,1,0,0,1,1.31.53A32.56,32.56,0,0,1,3.73,18a1,1,0,0,1-.94,1Z"/><path class="cls-4" d="M6.31,17.85a1,1,0,0,1-1-1A34.9,34.9,0,0,0,2.67,5.38,1,1,0,0,1,3.2,4.07a1,1,0,0,1,1.31.54A36.76,36.76,0,0,1,7.3,16.79a1,1,0,0,1-.94,1.05Z"/><path class="cls-4" d="M9.92,16.13a1,1,0,0,1-1-.89c-.21-2-1.39-8.14-2.55-10.57a1,1,0,1,1,1.8-.86C9.5,6.59,10.69,12.93,10.91,15a1,1,0,0,1-.89,1.1Z"/></g><path class="cls-5" d="M9.51,6.9a.5.5,0,0,1-.22-1A4,4,0,0,0,11.2,3.57a3,3,0,0,0-.4-2.52.5.5,0,0,1,.14-.69.51.51,0,0,1,.7.15,4,4,0,0,1,.53,3.33,5,5,0,0,1-2.44,3A.59.59,0,0,1,9.51,6.9Z"/><path class="cls-6" d="M11.38,8.47a.48.48,0,0,1-.33-.13.5.5,0,0,1,0-.7,2.77,2.77,0,0,1,2.05-.84,3.24,3.24,0,0,1,2.27.76.51.51,0,0,1,0,.71.5.5,0,0,1-.71,0,2.19,2.19,0,0,0-1.53-.46,1.78,1.78,0,0,0-1.32.5A.52.52,0,0,1,11.38,8.47Z"/><path class="cls-7" d="M8.16,5.17a.5.5,0,0,1-.31-.89,1.3,1.3,0,0,0,.39-1.61A.5.5,0,0,1,8.55,2a.5.5,0,0,1,.63.31,2.29,2.29,0,0,1-.72,2.73A.49.49,0,0,1,8.16,5.17Z"/><path class="cls-7" d="M13.85,14.05a.48.48,0,0,1-.5-.5c0-.74,0-1.48.06-2.21a.5.5,0,1,1,1,.06c0,.71-.06,1.43-.06,2.15A.51.51,0,0,1,13.85,14.05Z"/><path class="cls-7" d="M15,13h0c-.72,0-1.43-.06-2.15-.07a.5.5,0,1,1,0-1h0c.74,0,1.47,0,2.21.06a.5.5,0,0,1,0,1Z"/><path class="cls-6" d="M2.24,3.71a.5.5,0,0,1-.5-.5c0-.74,0-1.47.07-2.21a.5.5,0,1,1,1,.06c0,.71-.06,1.43-.06,2.15A.5.5,0,0,1,2.24,3.71Z"/><path class="cls-6" d="M3.36,2.65h0c-.72,0-1.44-.06-2.15-.06a.5.5,0,0,1-.5-.5.48.48,0,0,1,.5-.5c.73,0,1.47,0,2.2.06a.5.5,0,0,1,0,1Z"/><path class="cls-2" d="M14.38,3.18a.5.5,0,0,1-.5-.5c0-.74,0-1.47.07-2.21a.5.5,0,1,1,1,.06c0,.71-.06,1.43-.06,2.15A.5.5,0,0,1,14.38,3.18Z"/><path class="cls-2" d="M15.5,2.12h0c-.71,0-1.43-.06-2.15-.06a.51.51,0,0,1-.5-.5.48.48,0,0,1,.5-.5c.74,0,1.48,0,2.21.06a.51.51,0,0,1,.47.53A.51.51,0,0,1,15.5,2.12Z"/><path class="cls-6" d="M14.17,5.65a.5.5,0,0,1-.35-.85.5.5,0,0,1,.7,0,.5.5,0,0,1-.35.85Z"/><path class="cls-2" d="M6.14,2.59a.51.51,0,0,1-.5-.5.53.53,0,0,1,.15-.36.52.52,0,0,1,.7,0,.49.49,0,0,1,.15.36.47.47,0,0,1-.15.35A.51.51,0,0,1,6.14,2.59Z"/><path class="cls-5" d="M10.67,15.18a.48.48,0,0,1-.5-.5.5.5,0,0,1,.14-.35.51.51,0,0,1,.71,0,.5.5,0,0,1,.14.35A.54.54,0,0,1,11,15,.52.52,0,0,1,10.67,15.18Z"/><path class="cls-5" d="M1.48,6.65a.47.47,0,0,1-.35-.15.5.5,0,0,1,.71-.7.51.51,0,0,1,0,.7A.51.51,0,0,1,1.48,6.65Z"/></svg>