<?xml version="1.0" encoding="UTF-8"?>
<svg width="65px" height="17px" viewBox="0 0 65 17" version="1.1" xmlns="http://www.w3.org/2000/svg" xmlns:xlink="http://www.w3.org/1999/xlink">
    <!-- Generator: Sketch 55.1 (78136) - https://sketchapp.com -->
    <title>Oval</title>
    <desc>Created with Sketch.</desc>
    <g id="Page-1" stroke="none" stroke-width="1" fill="none" fill-rule="evenodd">
        <g id="Oval" fill="#727491" fill-rule="nonzero">
            <path d="M56.3251413,0 C53.041627,0 50.0814278,1.97793885 48.8248803,5.01151013 C47.5683327,8.04508142 48.2628923,11.5368737 50.584687,13.8586695 C52.9064817,16.1804654 56.3982737,16.8750267 59.4318456,15.6184806 C62.4654175,14.3619345 64.4433594,11.4017363 64.4433594,8.11822199 C64.4433594,3.63465321 60.8087101,0 56.3251413,0 Z M56.3251413,11.9067257 C54.2954233,11.9067257 52.8072449,10.2830815 52.8072449,8.11822199 C52.8072449,5.95336292 54.2966953,4.32971849 56.3251413,4.32971849 C58.3546966,4.32971849 59.8430347,5.95368764 59.8430347,8.11822199 C59.8430347,10.2827568 58.3546966,11.9067257 56.3251413,11.9067257 Z M32.5116896,8.11822199 C32.5116896,3.6346363 28.998207,0 24.6640777,0 C20.3299483,0 16.8164631,3.6346363 16.8164631,8.11822199 C16.8164631,12.6018079 20.333845,16.2364443 24.7993815,16.2364443 C28.3661222,16.2364443 31.1631718,14.0806776 32.0936553,11.0949034 L27.3701518,11.0949034 C26.7148488,12.0644901 25.751297,12.3126368 24.7993815,12.3126368 C22.9737287,12.3126368 21.8103874,11.0559902 21.4453378,9.33595541 L32.4235528,9.33595541 C32.4822313,8.9326978 32.5116896,8.52572643 32.5116896,8.11822199 Z M24.6640777,3.78850367 C26.2299205,3.78850367 27.4434593,4.86717184 27.8154901,6.49457774 L21.5064411,6.49457774 C21.9275871,4.80287552 23.0488222,3.78850367 24.6640777,3.78850367 Z M8.968848,16.1011405 L0,0.47356298 L5.28052192,0.47356298 L8.968848,7.57700743 L12.6572271,0.47356298 L17.9377246,0.47356298 L8.968848,16.1011405 Z M40.3593044,16.1011405 L31.3904549,0.47356298 L36.6710066,0.47356298 L40.3593044,7.57700743 L44.0476834,0.47356298 L49.3282348,0.47356298 L40.3593044,16.1011405 Z" id="path5069"></path>
        </g>
    </g>
</svg>