<?xml version="1.0" encoding="UTF-8"?>
<svg width="22px" height="22px" viewBox="0 0 22 22" version="1.1" xmlns="http://www.w3.org/2000/svg" xmlns:xlink="http://www.w3.org/1999/xlink">
    <!-- Generator: Sketch 55.1 (78136) - https://sketchapp.com -->
    <title>Oval</title>
    <desc>Created with Sketch.</desc>
    <g id="Page-1" stroke="none" stroke-width="1" fill="none" fill-rule="evenodd">
        <g id="Oval" fill="#000000" fill-rule="nonzero">
            <path d="M19.79584,17.7966133 C19.79584,16.6918133 18.90064,15.7966133 17.79584,15.7966133 C16.6913067,15.7966133 15.79584,16.6918133 15.79584,17.7966133 C15.79584,18.9011467 16.6913067,19.7966133 17.79584,19.7966133 C18.90064,19.7966133 19.79584,18.9011467 19.79584,17.7966133" id="Fill-5"></path>
            <path d="M8.9997333,11.0002667 C8.9997333,12.1050667 9.8949333,13.0002667 10.9997333,13.0002667 C12.1042667,13.0002667 12.9997333,12.1050667 12.9997333,11.0002667 C12.9997333,9.8957333 12.1042667,9.0002667 10.9997333,9.0002667 C9.8949333,9.0002667 8.9997333,9.8957333 8.9997333,11.0002667" id="Fill-7"></path>
            <path d="M16.77552,8.94376 C16.7752533,8.9432267 16.7749867,8.94296 16.7749867,8.9426933 C16.4661867,8.0730933 15.98272,7.30536 15.33792,6.6608267 C14.92192,6.2442933 14.24592,6.2442933 13.8296533,6.6608267 C13.41312,7.07736 13.41312,7.7528267 13.8296533,8.16936 C14.24832,8.5882933 14.5629867,9.0888267 14.7648533,9.65736 C14.76512,9.65736 14.76512,9.6576267 14.76512,9.6578933 C14.8424533,9.8752267 14.8973867,10.07496 14.93312,10.2688267 C15.1725867,11.56776 14.7600533,12.8986933 13.8296533,13.8290933 C12.8960533,14.7624267 11.5605867,15.17416 10.26112,14.93176 L10.2608533,14.93176 C10.2605867,14.93176 10.26032,14.9314933 10.2600533,14.9314933 C10.0733867,14.8968267 9.8773867,14.8426933 9.6608533,14.7658933 C9.0909867,14.56376 8.58912,14.2488267 8.1696533,13.82936 C6.6957867,12.3554933 6.6096533,9.96616 7.9728533,8.3888267 L7.9733867,8.3882933 L7.9949867,8.3632267 C8.0517867,8.29736 8.10832,8.23096 8.1685867,8.1706933 C8.2288533,8.11016 8.2928533,8.0560267 8.3565867,8.0010933 L8.3853867,7.9760267 C8.3853867,7.97576 8.3856533,7.97576 8.3856533,7.97576 C9.11072,7.34776 10.03952,7.0010933 11.0013867,6.99976 C11.59072,6.99896 12.06752,6.5208267 12.06672,5.93176 C12.06592,5.34296 11.5885867,4.86642667 11.0000533,4.86642667 L10.99872,4.86642667 C9.5248533,4.86829333 8.1008533,5.4000267 6.9888533,6.3632267 L6.9885867,6.3634933 L6.9605867,6.38776 C6.8592533,6.4752267 6.75872,6.5634933 6.6597867,6.6618933 C6.5613867,6.7608267 6.47072,6.8642933 6.38112,6.9682933 L6.36032,6.9920267 C6.3597867,6.99256 6.35952,6.99336 6.3589867,6.9938933 C4.26832,9.41256 4.40058667,13.0776267 6.66112,15.3378933 C7.3069867,15.9834933 8.0765867,16.46776 8.94832,16.7768267 C9.2712533,16.8912267 9.5728533,16.9736267 9.8704533,17.0288267 C9.8712533,17.0290933 9.8720533,17.0288267 9.8728533,17.0290933 C10.24832,17.09896 10.6256533,17.1336267 11.0000533,17.1336267 C12.61312,17.13336 14.1773867,16.4984267 15.33792,15.3378933 C16.76512,13.9106933 17.39792,11.8712267 17.0309867,9.8818933 C16.9744533,9.5754933 16.8909867,9.2688267 16.77552,8.94376" id="Fill-9"></path>
            <path d="M11,0.33333333 C5.1184,0.33333333 0.33333333,5.1184 0.33333333,11 C0.33333333,16.8816 5.1184,21.6666667 11,21.6666667 C11.9058667,21.6666667 12.8061333,21.5525333 13.6752,21.328 C14.2456,21.1805333 14.5885333,20.5986667 14.4410667,20.0282667 C14.2936,19.4576 13.7106667,19.1165333 13.1413333,19.2624 C12.4466667,19.4421333 11.7261333,19.5333333 11,19.5333333 C6.2946667,19.5333333 2.46666667,15.7053333 2.46666667,11 C2.46666667,6.2946667 6.2946667,2.46666667 11,2.46666667 C15.7053333,2.46666667 19.5333333,6.2946667 19.5333333,11 C19.5333333,11.7570667 19.4344,12.5072 19.2392,13.2298667 C19.0856,13.7986667 19.4221333,14.3842667 19.9909333,14.5378667 C20.5610667,14.6925333 21.1453333,14.3546667 21.2986667,13.7861333 C21.5429333,12.8824 21.6666667,11.9448 21.6666667,11 C21.6666667,5.1184 16.8816,0.33333333 11,0.33333333" id="Fill-11"></path>
        </g>
    </g>
</svg>