<svg id="Layer_1" data-name="Layer 1" xmlns="http://www.w3.org/2000/svg" xmlns:xlink="http://www.w3.org/1999/xlink" viewBox="0 0 500 400"><defs><style>.cls-1{fill:none;}.cls-2{fill:#eeebf9;}.cls-3{fill:#ff7641;}.cls-4{fill:#f45721;}.cls-5{fill:#a3e0fc;}.cls-6{fill:#f03063;}.cls-7{fill:#ebebeb;}.cls-8{fill:#fff;}.cls-9{fill:#443276;}.cls-10{fill:#ffc63c;}.cls-11{fill:#323e9c;}.cls-12{fill:#63c0f9;}.cls-13{fill:#4cd892;}.cls-14{fill:#ffd56a;}.cls-15{fill:#eef1f6;}.cls-16{fill:#82ebf1;}.cls-17{fill:#4461d7;}.cls-18{fill:#b26d5f;}.cls-19{fill:#feb51f;}.cls-20{fill:#2b59ab;}.cls-21{fill:#373753;}.cls-22{fill:#823e30;}.cls-23{fill:#9e594d;}.cls-24{fill:#3e4063;}.cls-25{clip-path:url(#clip-path);}.cls-26{fill:#3d8aed;}.cls-27{fill:#727491;}.cls-28{fill:#a7acc5;}.cls-29{fill:#ccd5e2;}.cls-30{fill:#879df2;}.cls-31{fill:#4caf50;}.cls-32{fill:#ffc107;}.cls-33{fill:#2196f3;}</style><clipPath id="clip-path"><path class="cls-1" d="M268.69,120.82c-31.17-23.52-59.73.42-53.81,27.62.83,3.78,1.75,8.09,4.51,10.75,10.27-6.47,32.56-23,38.2-27.88C262.68,126.93,271.63,123,268.69,120.82Z"/></clipPath></defs><title>Teamwork-Illustrations-</title><path class="cls-2" d="M473.43,371h-.06l-5.43-.27c-1.64-.09-3.33-.18-5.4-.27a1.43,1.43,0,1,1,.13-2.85c2.08.09,3.78.18,5.42.27,1.23.07,2.49.14,3.92.2,0-5.77-.24-13.47-.46-16.58-3.23.2-6.48.24-9.7.12a1.43,1.43,0,1,1,.11-2.85,93.86,93.86,0,0,0,10.74-.2,1.42,1.42,0,0,1,1.51,1.14c.38,1.88.67,13.72.65,19.87a1.44,1.44,0,0,1-.45,1A1.38,1.38,0,0,1,473.43,371Z"/><path class="cls-3" d="M49,205.36c17.27-.43,48.9-3.09,63.09,1.44C118.86,209,123,213.41,123,222.06c-.06,14.16-.21,40.22,0,54.5.16,10.74-2.56,19.52-16.72,19.52-16.59.43-52.59,3.91-65.95-2.58-5.07-2.46-8.07-6.77-8.07-14.12V222.06A16.71,16.71,0,0,1,49,205.36Z"/><path class="cls-4" d="M208.7,297.91c17.27-.43,48.9-3.09,63.09,1.45,6.78,2.17,10.93,6.61,10.93,15.26-.06,14.15-.2,40.22,0,54.5.16,10.73-2.55,19.52-16.72,19.52-16.59.43-56.12,1.84-65.95-2.58-5.13-2.31-8.07-6.77-8.07-14.13V314.62A16.71,16.71,0,0,1,208.7,297.91Z"/><path class="cls-5" d="M299.44,297.91c17.28-.43,48.9-3.09,63.09,1.45,6.78,2.17,10.93,6.61,10.93,15.26-.06,14.15-.2,40.22,0,54.5.16,10.73-2.55,19.52-16.71,19.52-16.59.43-56.12,1.84-66-2.58-5.13-2.31-8.06-6.77-8.06-14.13V314.62A16.71,16.71,0,0,1,299.44,297.91Z"/><path class="cls-6" d="M83.94,113.74c17.27-.43,48.9-3.09,63.09,1.45,6.78,2.17,10.93,6.61,10.93,15.26-.06,14.15-.21,40.22,0,54.5.16,10.73-2.56,19.52-16.72,19.52-16.59.43-56.12,1.84-65.95-2.58-5.14-2.31-8.07-6.77-8.07-14.13V130.45A16.71,16.71,0,0,1,83.94,113.74Z"/><path class="cls-7" d="M390.19,298.45c17.27-.43,48.9-3.09,63.09,1.44,6.77,2.17,10.93,6.61,10.93,15.26-.06,14.16-.21,40.22,0,54.5.17,10.73-2.55,19.52-16.71,19.52-16.59.43-56.12,1.84-66-2.58-5.13-2.31-8.06-6.77-8.06-14.12V315.15A16.71,16.71,0,0,1,390.19,298.45Z"/><polygon class="cls-8" points="84.35 225.41 84.35 245.75 70.95 245.75 70.95 225.41 60.87 225.41 60.87 276.18 70.95 276.18 70.95 254.35 84.35 254.35 84.35 276.18 94.44 276.18 94.44 225.41 84.35 225.41"/><path class="cls-9" d="M84.54,387.29c-19.75.43-43.48,2-58.21-.32-9.61-1.53-15.81-5.82-15.81-16.38.13-30.07-10-74,16.71-74,10.75.59,48.82-.84,62.56,1.28,7.31,1.12,11.46,6.55,11.46,15.42v57.32A16.71,16.71,0,0,1,84.54,387.29Z"/><path class="cls-10" d="M118,296.57c15.41.6,45-2.31,59.63.57,8.8,1.72,14.39,6.1,14.39,16.13-.06,14.16-.21,40.22,0,54.5.16,10.73-2.56,19.52-16.72,19.52-16.59.43-52.59,3.91-66-2.58-5.07-2.46-8.07-6.77-8.07-14.12V313.27A16.71,16.71,0,0,1,118,296.57Z"/><path class="cls-11" d="M139.73,205.36c17.27-.43,48.9-3.09,63.09,1.44,6.78,2.17,10.93,6.61,10.93,15.26-.06,14.16-.2,40.22,0,54.5.16,10.74-2.6,20.84-16.76,20.84-16.59.43-54.74-.83-65.91-3.9-5.43-1.49-8.07-6.77-8.07-14.12V222.06A16.71,16.71,0,0,1,139.73,205.36Z"/><path class="cls-6" d="M39.67,348.74a5.43,5.43,0,1,1-5.43-5.42h5.43Z"/><path class="cls-6" d="M42.4,348.74a5.43,5.43,0,0,1,10.85,0v13.58a5.43,5.43,0,0,1-10.85,0Z"/><path class="cls-12" d="M47.82,327a5.42,5.42,0,1,1,5.43-5.42V327Z"/><path class="cls-12" d="M47.82,329.7a5.42,5.42,0,1,1,0,10.84H34.24a5.42,5.42,0,1,1,0-10.84Z"/><path class="cls-13" d="M69.6,335.12A5.42,5.42,0,1,1,75,340.54H69.6Z"/><path class="cls-13" d="M66.87,335.12a5.43,5.43,0,0,1-10.85,0V321.54a5.43,5.43,0,0,1,10.85,0Z"/><path class="cls-14" d="M61.44,356.89A5.43,5.43,0,1,1,56,362.32v-5.43Z"/><path class="cls-14" d="M61.44,354.16a5.42,5.42,0,1,1,0-10.84H75a5.42,5.42,0,0,1,0,10.84Z"/><polygon class="cls-15" points="172.75 325.15 169.02 362.6 124.23 362.6 121.22 325.88 146.62 340.1 172.75 325.15"/><polygon class="cls-15" points="171.48 318.1 146.62 341.45 121.76 318.1 146.62 318.1 171.48 318.1"/><path class="cls-6" d="M124.23,328.88V362.6h-4.06a2.76,2.76,0,0,1-2.76-2.75V323.92l4.45.12Z"/><path class="cls-6" d="M175.83,323.92v35.93a2.75,2.75,0,0,1-2.75,2.75H169V328.88l2.25-5.3Z"/><path class="cls-6" d="M175.83,320.86v3.06l-6.81,5-22.4,16.33-22.39-16.33-6.82-5v-3.06a2.76,2.76,0,0,1,2.76-2.76h1.59l24.86,18.12,24.86-18.12h1.6A2.75,2.75,0,0,1,175.83,320.86Z"/><path class="cls-16" d="M168.4,236l-14.34,9.13,14.34,9.14-14.34,9.13-14.34-9.13,14.34-9.14L139.72,236l14.34-9.13ZM154,266.38l14.33-9.14,14.34,9.14-14.34,9.13Zm14.38-12.16,14.33-9.14L168.4,236l14.33-9.13L197.07,236l-14.34,9.13,14.34,9.14-14.34,9.13Z"/><polygon class="cls-8" points="258.03 363.61 258.02 363.61 258.02 322.46 243.28 318.2 216.77 328.15 216.7 328.17 216.71 357.93 225.75 354.38 225.75 330.17 243.28 325.98 243.28 361.58 216.72 357.93 243.28 367.73 243.28 367.74 258.02 363.66 258.02 363.61 258.03 363.61"/><path class="cls-17" d="M309.39,366l9.36-16.22h37.43L346.83,366Z"/><path class="cls-14" d="M337.47,349.78h18.71l-18.71-32.42H318.75Z"/><path class="cls-13" d="M300,349.78,309.39,366l18.72-32.43-9.36-16.21Z"/><path class="cls-6" d="M446.89,328.78a7.36,7.36,0,0,0-5.18-5.18c-4.56-1.22-22.86-1.22-22.86-1.22s-18.3,0-22.86,1.22a7.36,7.36,0,0,0-5.18,5.18c-1.22,4.56-1.22,14.08-1.22,14.08s0,9.52,1.22,14.09a7.35,7.35,0,0,0,5.18,5.17c4.56,1.22,22.86,1.22,22.86,1.22s18.3,0,22.86-1.22a7.35,7.35,0,0,0,5.18-5.17c1.22-4.57,1.22-14.09,1.22-14.09S448.11,333.34,446.89,328.78Z"/><polygon class="cls-8" points="413 351.64 428.2 342.86 413 334.08 413 351.64"/><path class="cls-18" d="M397.59,285.35a5,5,0,0,1-1.37-.19l-23.43-6.73a5,5,0,1,1,2.75-9.57L399,275.58a5,5,0,0,1-1.37,9.77Z"/><path class="cls-14" d="M317.54,270.14C366,282.59,379.61,298.08,384.37,285c3.27-10.46,12.44-25.57,6.26-26.42a66.3,66.3,0,0,1-8.87-1.65L326.05,243.7l-38.17,5.13S308,267.69,317.54,270.14Z"/><path class="cls-18" d="M391.36,293.35a5,5,0,0,1-1.37-.19l-23.43-6.73a5,5,0,1,1,2.75-9.57l23.42,6.72a5,5,0,0,1-1.37,9.77Z"/><path class="cls-14" d="M221.73,261.59c.44,1.54-2.68,26.07,20.27,34.18,17.25,5.36,43.28-20.48,57.83-16.64C348.23,291.91,370,300.37,372,294c3.58-11.47,10.71-22.77,1.94-24.95L313,254.51l-38.18,5.12Z"/><path class="cls-19" d="M251.19,270.11a15.52,15.52,0,0,1-7.33-2.18.71.71,0,0,1,.68-1.25c4,2.19,7.35,2.61,10,1.23,2.91-1.53,4.82-5.3,5.38-10.62a.71.71,0,1,1,1.41.14c-.6,5.82-2.78,10-6.13,11.74A8.48,8.48,0,0,1,251.19,270.11Z"/><path class="cls-19" d="M377.57,277.05h-.08a.71.71,0,0,1-.63-.78c.57-5-1.52-6.13-3.14-6.53L312.86,255.2a.71.71,0,1,1,.33-1.38l60.87,14.52c3.31.83,4.73,3.55,4.22,8.08A.71.71,0,0,1,377.57,277.05Z"/><path class="cls-20" d="M230.43,118c2-7.45-10.34-4.34-7.06.8C225.92,122.75,229.86,118.38,230.43,118Z"/><path class="cls-20" d="M274.85,258.21c-.44-3.41-7.75-56.4-11.17-57.66-8.48-3.14-25.47-2.05-28.78,1.21-14.58,14.37-14.38,59.64-13.17,59.83C225.09,262.79,255.22,266.3,274.85,258.21Z"/><path class="cls-20" d="M227.71,180.23c-7.41,4.65-19.18,7.25-23.94,4.71-10.59-5.64,8.09-16.15,15.5-25.75l6-5.53,8.48,17.67Z"/><path class="cls-18" d="M260.47,134.1c-9.39,0-23.85-2.42-32.52,2.67-2.55,1.49-2.82,5-4,7.84-1.79,4.36-7.42,35,10.77,39.68,3.34.87,24.42,1.13,31-2.15a15.25,15.25,0,0,0,5.05-4c4.81-6,4.18-17.71,3.79-25.55-.83-16.67-5.26-18.46-14.12-18.46Z"/><path class="cls-18" d="M230.05,174.53c-2.48,3.94-7.39,4.78-10.37,2.2-6.59-5.7-.1-14.07,6.78-12.13Z"/><path class="cls-21" d="M221.72,164.45c-3.12-6.78-3.31-23.42-1.43-28.35-1.14-5,43.32-13.19,47.22-14.39,5.41-1.51,9.8,1.54,11.66,5.93,1.71,5.13-1.49,13.62-19.38,12.07-5.55,11.21-20.7,10.78-29.49,8.65,2.27,3,5.77,18.95.43,18.94C228.49,167.3,232.9,159.77,221.72,164.45Z"/><path class="cls-12" d="M268.69,120.82c-31.17-23.52-59.73.42-53.81,27.62.83,3.78,1.75,8.09,4.51,10.75,10.27-6.47,32.56-23,38.2-27.88C262.68,126.93,271.63,123,268.69,120.82Z"/><path class="cls-22" d="M248.67,159.67a2,2,0,0,0-1.86,2.39,1.92,1.92,0,0,0,2.32,1.36,2.17,2.17,0,0,0,1.16-3.35,1.8,1.8,0,0,0-1.62-.4Z"/><path class="cls-22" d="M269.07,159.6a2.18,2.18,0,0,0-1.22,3,2.06,2.06,0,0,0,2.8.72,1.91,1.91,0,0,0,.24-3.3,1.88,1.88,0,0,0-1.82-.43Z"/><path class="cls-23" d="M259.7,168.94a8.7,8.7,0,0,1-1.58-.15.73.73,0,0,1-.57-.83.72.72,0,0,1,.83-.57,4,4,0,0,0,2.94-.24c.41-1.37.23-1.53-.3-2-1-.87-2.41-2.19-2.83-8a.71.71,0,0,1,1.42-.11c.38,5.22,1.57,6.31,2.37,7s1.35,1.44.63,3.7a.8.8,0,0,1-.13.24A3.57,3.57,0,0,1,259.7,168.94Z"/><path class="cls-22" d="M258,175.2a11.9,11.9,0,0,1-7.23-2.45.71.71,0,0,1,.87-1.13,10.43,10.43,0,0,0,7.54,2.09.72.72,0,0,1,.79.63.71.71,0,0,1-.62.79A12.21,12.21,0,0,1,258,175.2Z"/><path class="cls-24" d="M240.74,155.66a.69.69,0,0,1-.59-.32.7.7,0,0,1,.19-1,13.16,13.16,0,0,1,8.26-2.21.71.71,0,1,1-.1,1.42,11.76,11.76,0,0,0-7.37,2A.71.71,0,0,1,240.74,155.66Z"/><path class="cls-24" d="M274.86,154.26a.68.68,0,0,1-.36-.1,11.75,11.75,0,0,0-7.47-1.52.71.71,0,0,1-.19-1.41,13.2,13.2,0,0,1,8.38,1.71.7.7,0,0,1,.25,1A.7.7,0,0,1,274.86,154.26Z"/><g class="cls-25"><path class="cls-26" d="M240.63,134.22a.72.72,0,0,1-.46-1.26l8.42-7.09c3.45-3.15,7-5.11,10.13-5.66,2.74-.48,5.11.12,6.51,1.65,1.79,2,1.44,4.78-.83,6.89a.71.71,0,0,1-1,0,.7.7,0,0,1,0-1c1.69-1.57,2-3.53.75-4.89-1.86-2-7.29-2.59-14.65,4.12l-8.44,7.11A.73.73,0,0,1,240.63,134.22Z"/><path class="cls-26" d="M255.7,128.27a.71.71,0,0,1-.71-.71v-.06a.71.71,0,0,1,1.42,0v.06A.71.71,0,0,1,255.7,128.27Z"/><path class="cls-26" d="M250.78,132.17a.71.71,0,0,1-.71-.72v0a.71.71,0,0,1,1.42,0v0A.71.71,0,0,1,250.78,132.17Z"/><path class="cls-26" d="M245.2,135.93a.71.71,0,0,1-.72-.71v-.05a.72.72,0,1,1,1.43,0v.05A.71.71,0,0,1,245.2,135.93Z"/><path class="cls-5" d="M223.49,142.53a.7.7,0,0,1-.64-.41,26.8,26.8,0,0,1-2.08-16.6c.92-4.63,3.12-8.78,5.89-11.11a.82.82,0,0,1,.28-.14c7-1.86,19.43-2.72,25.15,1.23a.71.71,0,1,1-.8,1.18c-4.77-3.29-16-3.12-23.83-1.07-4.45,3.85-8.53,14.64-3.32,25.91a.72.72,0,0,1-.35.95A.8.8,0,0,1,223.49,142.53Z"/><path class="cls-5" d="M240.63,126.57a.7.7,0,0,1-.63-.38c-1.22-2.32-6.58-9.13-13-10.53a.72.72,0,1,1,.3-1.4c6.94,1.52,12.69,8.79,14,11.27a.71.71,0,0,1-.3,1A.64.64,0,0,1,240.63,126.57Z"/></g><path class="cls-27" d="M253.78,260.07c16-.3,49.15-1.06,65.08-1.42a8.87,8.87,0,0,0,8.25-11.57l0-.08c-27-2.73-52.7-.41-79.78-.46a2.6,2.6,0,0,0-2.61,2.62c0,.81,0,1.61.06,2.39A8.86,8.86,0,0,0,253.78,260.07Z"/><path class="cls-28" d="M247.27,246.5c19.19-.23,14.15-.16,27.36-.44-.07,1.75-.08,3.87,0,5.49a8.84,8.84,0,0,0,5.79,8c-10.2.23-19.92.43-26.62.56a8.86,8.86,0,0,1-9-8.52c0-.8-.06-1.61-.07-2.43A2.61,2.61,0,0,1,247.27,246.5Z"/><path class="cls-18" d="M255.19,178.72c1.32,9.24,4.31,18.31,4.51,21.18a6.28,6.28,0,0,0,.12.87c.63,2.77-6.86,4.23-10.32,4.26-1.63,0-11.46.3-10.84-2.91-.1-.49,1.54-8.33,2.23-23.15a1.25,1.25,0,0,1,1.23-1.24C253.66,177.86,255,177.39,255.19,178.72Z"/><path class="cls-20" d="M278,236.41a5,5,0,0,1-4.2-2.3l-15-23.41a5,5,0,0,1,8.39-5.37l15,23.41a5,5,0,0,1-4.19,7.67Z"/><path class="cls-18" d="M252.65,246c-11.27,0-20.84-1.36-27.45-3.93a5,5,0,0,1,3.62-9.29c6.63,2.59,17.83,3.71,30.74,3.08l11.32-1a5,5,0,0,1,.87,9.92l-11.42,1-.19,0C257.58,245.94,255.07,246,252.65,246Z"/><path class="cls-28" d="M276.91,250.31c45.65.88,54.08,1.38,53.95-7.27-.47-31.95,1.27-36-5.36-35.77-25.35.91-49.32-2.72-53.65,1.87-3.82,4-3,13.89-2.17,34.11A7.49,7.49,0,0,0,276.91,250.31Z"/><path class="cls-29" d="M300.34,234.6c7.74,0,7.7-12.66,0-11.71C290.44,224.11,292.59,234.6,300.34,234.6Z"/><path class="cls-20" d="M225.56,241.23a5,5,0,0,1-1.46-.22c-6-1.84-9.84-5.78-10.59-10.8-1.2-8,5.26-16.87,19.22-26.32a5,5,0,0,1,5.58,8.25c-5.8,3.93-10,7.64-12.59,11-2.4,3.18-2.45,4.94-2.36,5.55.23,1.54,2.64,2.44,3.66,2.75a5,5,0,0,1-1.46,9.75Z"/><path class="cls-11" d="M244.47,215.79a.75.75,0,0,1-.46-.17c-4.19-3.54-7.49-7-9.9-12.25a.71.71,0,0,1,1.29-.59c2.22,4.85,5.12,8,9,11.33.57-.58,1.15-1.2,1.75-1.84A30,30,0,0,1,252,207a.71.71,0,0,1,.85.08c.93.85,2.08,2,3.19,3.17.91.93,1.85,1.89,2.65,2.66,3.09-3,4.25-6.18,4.25-11.38a.72.72,0,0,1,1.43,0c0,5.83-1.46,9.45-5.19,12.88a.71.71,0,0,1-1,0c-.93-.84-2.08-2-3.2-3.17-.94-1-1.9-2-2.73-2.74a32.44,32.44,0,0,0-5.1,4.77c-.77.83-1.5,1.61-2.25,2.35A.74.74,0,0,1,244.47,215.79Z"/><path class="cls-11" d="M253.38,234.91a.71.71,0,0,1-.71-.69c-.18-4.44-.22-7.71-.26-10.6-.07-4.69-.12-8.75-.72-16a.71.71,0,0,1,.65-.76.72.72,0,0,1,.77.65c.6,7.29.66,11.36.72,16.08,0,2.88.08,6.14.26,10.57a.71.71,0,0,1-.68.74Z"/><path class="cls-11" d="M231.09,231.53a.71.71,0,0,1-.32-.07l-3.43-1.7a3.51,3.51,0,0,1-1.77-4.33,7.54,7.54,0,0,1,1.59-2.55.71.71,0,0,1,1,1,5.94,5.94,0,0,0-1.29,2,2.11,2.11,0,0,0,1.06,2.59l3.43,1.69a.73.73,0,0,1,.33,1A.72.72,0,0,1,231.09,231.53Z"/><path class="cls-30" d="M219.26,241,229,228.8c2.12-3.21,7.25,1.73,7.2,1.71a2.47,2.47,0,0,1,.61,3.45l-8,12.11c-2.11,3.2-7.25-1.73-7.19-1.71C220.48,243.62,218.48,242.21,219.26,241Z"/><path class="cls-21" d="M399.42,299.1l-8.27-2.69c-2.76-.9-.21-4.12,2.28-13.29.41-1.49,2-1.17,2.21-1.19,5.16-4.29,8-11.27,14.27-9.23h0L401.68,298A1.79,1.79,0,0,1,399.42,299.1Z"/><path class="cls-21" d="M405.8,291.9l-8.27-2.69c-2.76-.9-.21-4.12,2.28-13.28.41-1.5,2-1.18,2.21-1.2,5.16-4.29,8-11.27,14.27-9.23h0l-8.23,25.26A1.79,1.79,0,0,1,405.8,291.9Z"/><path class="cls-8" d="M135,131.89H92.06a4.75,4.75,0,0,0-4.75,4.75v42.9a4.75,4.75,0,0,0,4.75,4.75H135a4.75,4.75,0,0,0,4.75-4.75v-42.9A4.75,4.75,0,0,0,135,131.89Zm-30.14,10.18a3.15,3.15,0,1,1-3.2,3.15A3.16,3.16,0,0,1,104.83,142.07Zm21.42,30.17c-3.25,0-4.81-1.93-4.81-4.56a8.55,8.55,0,0,1,.33-2.36l1.56-5.55a5.59,5.59,0,0,0,.23-1.7,2.63,2.63,0,0,0-2.82-2.87c-2.22,0-3.67,1.59-4.43,4.65l-3,12.09H108l.94-3.8c-1.55,2.54-3.7,4.12-6.36,4.12-3.2,0-4.7-1.84-4.7-4.62a10.68,10.68,0,0,1,.28-2.37h0l2.4-9.81H96.87L98,151.29h9l-3.54,14a9.14,9.14,0,0,0-.33,2.15c0,.9.45,1.16,1.14,1.32.42.09,3.76,0,5.58-4l2.32-9.29h-3.76l1.13-4.17h8.05l-1,4.73c1.41-2.63,4.24-5.14,7-5.14,3,0,5.41,2.11,5.41,6.16a11.84,11.84,0,0,1-.52,3.44l-1.5,5.41a5.88,5.88,0,0,0-.24,1.46c0,.94.38,1.41,1.08,1.41s1.6-.52,2.64-3.39l2.07.8C131.24,170.46,129,172.24,126.25,172.24Z"/><path class="cls-2" d="M479.68,363.14a32.78,32.78,0,0,1-5.06-.44,1.42,1.42,0,0,1,.44-2.81c6.59,1,10.69.09,12.19-2.81,1.08-3.29,2.86-50.8,2.62-63.84-.17-9.11-2.09-15-5.86-18-5.33-4.2-13.87-2.32-22.91-.33-8.06,1.77-16.4,3.6-22.72.81-4.41-1.95-7.65-5.47-11.08-9.21-6.84-7.44-13.91-15.13-31.56-10.89-1.73.42-5.2,1.77-9.59,3.49-17,6.64-48.64,19-64.29,10.36-6.28-3.46-8.51-9.88-7.47-14.42a1.43,1.43,0,0,1,2.78.63c-.81,3.51,1,8.52,6.07,11.3,14.47,8,45.31-4,61.87-10.52a100.86,100.86,0,0,1,10-3.6c19.28-4.64,27.28,4.06,34.33,11.73,3.22,3.51,6.27,6.82,10.13,8.53,5.47,2.41,13.34.68,21-1,9.29-2,18.9-4.15,25.28.88,4.48,3.54,6.76,10.13,6.94,20.15.2,10.43-1.32,62-2.9,65.13S484.8,363.14,479.68,363.14Z"/><path class="cls-5" d="M70.12,21.29c17.27-.42,48.9-3.09,63.09,1.45C140,24.91,144.14,29.35,144.14,38c-.06,14.16-.21,40.22,0,54.5.16,10.73-2.56,19.52-16.72,19.52-16.59.43-56.12,1.84-66-2.58-5.14-2.31-8.07-6.77-8.07-14.13V38A16.71,16.71,0,0,1,70.12,21.29Z"/><path class="cls-31" d="M126,66.35A27.21,27.21,0,1,1,98.78,39.14,27.22,27.22,0,0,1,126,66.35Z"/><path class="cls-32" d="M98.78,39.14V66.35l10.89,5.45-12,21.77h1.14a27.22,27.22,0,0,0,0-54.43Z"/><path class="cls-13" d="M126,66.35A27.21,27.21,0,1,1,98.78,39.14,27.22,27.22,0,0,1,126,66.35Z"/><path class="cls-14" d="M98.78,39.14V66.35l10.89,5.45-12,21.77h1.14a27.22,27.22,0,0,0,0-54.43Z"/><path class="cls-6" d="M123.06,54.11H98.78V71.8L94.7,70.44,75.87,51.74h0a27.18,27.18,0,0,1,47.22,2.37Z"/><path class="cls-5" d="M111,66.35A12.25,12.25,0,1,1,98.78,54.11,12.26,12.26,0,0,1,111,66.35Z"/><path class="cls-33" d="M108.31,66.35a9.53,9.53,0,1,1-9.53-9.52A9.53,9.53,0,0,1,108.31,66.35Z"/></svg>