<?xml version="1.0" encoding="UTF-8"?>
<svg width="662px" height="466px" viewBox="0 0 662 466" version="1.1" xmlns="http://www.w3.org/2000/svg" xmlns:xlink="http://www.w3.org/1999/xlink">
    <!-- Generator: Sketch 53 (72520) - https://sketchapp.com -->
    <title>projects-desktop-app-gui</title>
    <desc>Created with Sketch.</desc>
    <defs>
        <path d="M568,385.22 L0,385.22 L0,8.25 C-5.41083001e-16,3.831722 3.581722,0.25 8,0.25 L560,0.25 C564.418278,0.25 568,3.831722 568,8.25 L568,385.22 Z" id="path-1"></path>
        <filter x="-2.3%" y="-2.9%" width="104.6%" height="106.8%" filterUnits="objectBoundingBox" id="filter-2">
            <feOffset dx="0" dy="2" in="SourceAlpha" result="shadowOffsetOuter1"></feOffset>
            <feGaussianBlur stdDeviation="4" in="shadowOffsetOuter1" result="shadowBlurOuter1"></feGaussianBlur>
            <feColorMatrix values="0 0 0 0 0.11372549   0 0 0 0 0.109803922   0 0 0 0 0.223529412  0 0 0 0.1 0" type="matrix" in="shadowBlurOuter1"></feColorMatrix>
        </filter>
    </defs>
    <g id="Page-1" stroke="none" stroke-width="1" fill="none" fill-rule="evenodd">
        <g id="GUIs-adaptaion" transform="translate(-714.000000, -23887.000000)">
            <g id="section-copy-7" transform="translate(0.000000, 23646.000000)">
                <g id="GUI" transform="translate(707.000000, 241.000000)">
                    <g id="GUI-details" transform="translate(16.000000, 20.000000)">
                        <path d="M19.6174345,141 L18,139.387193 L18,133.738426 L25.2824103,141 L19.6174345,141 Z M37.6174345,141 L18,121.438693 L18,115.789926 L43.2824103,141 L37.6174345,141 Z M55.6174345,141 L18,103.490194 L18,97.8414263 L61.2824103,141 L55.6174345,141 Z M73.6174345,141 L18,85.5416942 L18,79.8929266 L79.2824103,141 L73.6174345,141 Z M91.8180482,141 L18,67.3931549 L18,61.7443873 L97.483024,141 L91.8180482,141 Z M110.164413,141 L18,49.099281 L18,43.4505134 L115.829389,141 L110.164413,141 Z M128.510779,141 L18,30.8054071 L18,25.1566396 L134.175754,141 L128.510779,141 Z M146.857144,141 L18,12.5115333 L18,6.86276574 L152.52212,141 L146.857144,141 Z M165.203509,141 L23.7989321,2.84217094e-14 L29.4639078,2.84217094e-14 L170.868485,141 L165.203509,141 Z M183.549874,141 L42.1452973,8.52651283e-14 L47.810273,2.84217094e-14 L189.21485,141 L183.549874,141 Z M201.896239,141 L60.4916625,2.84217094e-14 L66.1566382,2.84217094e-14 L207.561215,141 L201.896239,141 Z M220.242605,141 L78.8380277,2.84217094e-14 L84.5030034,2.84217094e-14 L225.90758,141 L220.242605,141 Z M238.58897,141 L97.1843928,2.84217094e-14 L102.849369,2.84217094e-14 L244.253946,141 L238.58897,141 Z M256.935335,141 L115.530758,2.84217094e-14 L121.195734,2.84217094e-14 L262.600311,141 L256.935335,141 Z M275.2817,141 L133.877123,2.84217094e-14 L139.542099,2.84217094e-14 L280.946676,141 L275.2817,141 Z M291,138.379454 L152.223488,2.84217094e-14 L157.888464,2.84217094e-14 L291,132.730686 L291,138.379454 Z M291,120.08558 L170.569854,0 L176.234829,2.84217094e-14 L291,114.436812 L291,120.08558 Z M291,101.791706 L188.916219,4.26325641e-14 L194.581195,2.84217094e-14 L291,96.1429386 L291,101.791706 Z M291,83.4978323 L207.262584,0 L212.92756,2.84217094e-14 L291,77.8490648 L291,83.4978323 Z M291,65.2039585 L225.608949,2.84217094e-14 L231.273925,2.84217094e-14 L291,59.5551909 L291,65.2039585 Z M291,46.1702107 L244.697311,3.55271368e-14 L250.362287,2.84217094e-14 L291,40.5214432 L291,46.1702107 Z M291,27.1364629 L263.785673,5.32907052e-14 L269.450649,2.84217094e-14 L291,21.4876954 L291,27.1364629 Z M291,8.10271514 L282.874035,4.08562073e-14 L288.539011,2.84217094e-14 L291,2.45394759 L291,8.10271514 Z" id="Combined-Shape" fill="#E7EBF1" fill-rule="nonzero"></path>
                        <circle id="Oval-Copy-8" fill="#FFEAB6" cx="61.5" cy="380.428571" r="60.8928571"></circle>
                        <polygon id="Rectangle" fill="#AAB9F4" fill-rule="nonzero" points="495 325 626 325 626 426 495 426"></polygon>
                        <polygon id="Rectangle" fill="#C3CFFA" fill-rule="nonzero" points="465 325 495 325 495 426 465 426"></polygon>
                    </g>
                    <g id="projects-desktop-app-gui" transform="translate(54.000000, 40.000000)">
                        <g id="Path">
                            <use fill="black" fill-opacity="1" filter="url(#filter-2)" xlink:href="#path-1"></use>
                            <use fill="#FFFFFF" fill-rule="evenodd" xlink:href="#path-1"></use>
                        </g>
                        <g id="mac-menu" fill-rule="nonzero">
                            <path d="M568.076904,55.72 L0.41,55.72 L0.41,8 C0.41,3.581722 3.991722,8.11624501e-16 8.41,0 L560.106904,0 C564.525182,2.72038528e-16 568.106904,3.581722 568.106904,8 L568.076904,55.72 Z" id="Path" fill="#F6F7F9"></path>
                            <rect id="Rectangle" fill="#9CA1BE" opacity="0.6" x="473.41" y="12.72" width="34.25" height="4.95" rx="2.47"></rect>
                            <rect id="Rectangle" fill="#9CA1BE" opacity="0.6" x="25.15" y="12.72" width="34.25" height="4.95" rx="2.47"></rect>
                            <rect id="Rectangle" fill="#9CA1BE" opacity="0.6" x="419.41" y="12.72" width="16.25" height="4.95" rx="2.47"></rect>
                            <g id="battery" transform="translate(442.000000, 11.000000)" fill="#9CA1BE">
                                <rect id="Rectangle" x="0.41" y="0.72" width="12.73" height="7.64" rx="2"></rect>
                                <rect id="Rectangle" x="10.59" y="2.63" width="3.82" height="3.82" rx="1.91"></rect>
                            </g>
                            <path d="M525.72,19 C523.129785,19 521.03,16.9002155 521.03,14.31 C521.03,11.7197845 523.129785,9.62 525.72,9.62 C528.310215,9.62 530.41,11.7197845 530.41,14.31 C530.4045,16.8979337 528.307934,18.9944996 525.72,19 L525.72,19 Z M525.72,11.44 C524.134943,11.44 522.85,12.7249428 522.85,14.31 C522.85,15.8950572 524.134943,17.18 525.72,17.18 C527.305057,17.18 528.59,15.8950572 528.59,14.31 C528.598011,13.5436441 528.299177,12.8059176 527.760077,12.2611823 C527.220977,11.7164469 526.486398,11.4099581 525.72,11.41 L525.72,11.44 Z" id="Shape" fill="#9CA1BE"></path>
                            <path d="M528.81,21.72 C528.465725,21.7160828 528.151138,21.5242618 527.99,21.22 L526.62,18.47 C526.512565,18.2538523 526.495405,18.0038761 526.572297,17.7750753 C526.649189,17.5462746 526.813833,17.3573961 527.03,17.25 C527.244443,17.1390828 527.494458,17.1189741 527.723872,17.1941917 C527.953285,17.2694093 528.142859,17.4336456 528.25,17.65 L529.62,20.4 C529.730917,20.6144429 529.751026,20.8644578 529.675808,21.0938716 C529.600591,21.3232854 529.436354,21.5128593 529.22,21.62 C529.093467,21.6860954 528.952755,21.7204156 528.81,21.72 L528.81,21.72 Z" id="Path" fill="#9CA1BE"></path>
                            <rect id="Rectangle" fill="#9CA1BE" x="543.41" y="10.72" width="12" height="2" rx="1"></rect>
                            <rect id="Rectangle" fill="#9CA1BE" x="543.41" y="14.72" width="7" height="2" rx="1"></rect>
                            <rect id="Rectangle" fill="#9CA1BE" x="543.41" y="18.72" width="12" height="2" rx="1"></rect>
                            <circle id="Oval" fill="#7D849D" cx="13.51" cy="15.25" r="3.47"></circle>
                        </g>
                        <path d="M8.41,30 L560.044067,30 C564.462345,30 568.044067,33.581722 568.044067,38 L568.044067,56.72 L0.41,56.72 L0.41,38 C0.41,33.581722 3.991722,30 8.41,30 Z" id="Path" fill="#484E6A" fill-rule="nonzero"></path>
                        <circle id="Oval" fill="#FFFFFF" fill-rule="nonzero" cx="16.51" cy="43.25" r="3.47"></circle>
                        <circle id="Oval" fill="#FFFFFF" fill-rule="nonzero" cx="31.79" cy="43.25" r="3.47"></circle>
                        <circle id="Oval" fill="#FFFFFF" fill-rule="nonzero" cx="47.08" cy="43.25" r="3.47"></circle>
                        <rect id="Rectangle" fill="#C4CEDD" fill-rule="nonzero" x="156.41" y="142.72" width="95.12" height="7.42" rx="3.71"></rect>
                        <path d="M536.35,139.72 C537.454569,139.72 538.35,140.615431 538.35,141.72 L538.35,154.34 C538.35,155.444569 537.454569,156.34 536.35,156.34 L494.79,156.34 C493.685431,156.34 492.79,155.444569 492.79,154.34 L492.79,141.72 C492.79,140.615431 493.685431,139.72 494.79,139.72 L536.35,139.72 L536.35,139.72 Z M536.35,137.72 L494.79,137.72 C492.580861,137.72 490.79,139.510861 490.79,141.72 L490.79,154.34 C490.79,156.549139 492.580861,158.34 494.79,158.34 L536.35,158.34 C538.559139,158.34 540.35,156.549139 540.35,154.34 L540.35,141.72 C540.35,139.510861 538.559139,137.72 536.35,137.72 Z" id="Shape" fill="#DCE1EA" fill-rule="nonzero"></path>
                        <path d="M480.41,140.1 C481.514569,140.1 482.41,140.995431 482.41,142.1 L482.41,154.72 C482.41,155.07 482.41,155.72 480.41,155.72 L470.84,155.72 C468.84,155.72 468.84,155.07 468.84,154.72 L468.84,142.1 C468.84,140.995431 469.735431,140.1 470.84,140.1 L480.41,140.1 L480.41,140.1 Z M480.41,138.1 L470.84,138.1 C468.630861,138.1 466.84,139.890861 466.84,142.1 L466.84,154.72 C466.84,156.93 468.63,157.72 470.84,157.72 L480.41,157.72 C482.62,157.72 484.41,156.93 484.41,154.72 L484.41,142.1 C484.41,139.890861 482.619139,138.1 480.41,138.1 Z" id="Shape" fill="#DCE1EA" fill-rule="nonzero"></path>
                        <g id="sidebar" transform="translate(0.000000, 116.000000)" fill-rule="nonzero">
                            <rect id="Rectangle" fill="#F6F7F9" x="0.41" y="0.72" width="129" height="268.5"></rect>
                            <rect id="Rectangle" fill="#5F79E9" x="23.05" y="28.78" width="83.72" height="46.94" rx="6"></rect>
                            <rect id="Rectangle" fill="#C4CEDD" x="31.47" y="241.19" width="12.64" height="6.32" rx="3.16"></rect>
                            <rect id="Rectangle" fill="#C4CEDD" x="60.96" y="241.19" width="12.64" height="6.32" rx="3.16"></rect>
                            <rect id="Rectangle" fill="#C4CEDD" x="90.97" y="241.19" width="12.64" height="6.32" rx="3.16"></rect>
                            <path d="M73.5,62.12 L50.22,62.12 L57.28,53 C57.4550553,52.7714602 57.7201111,52.6294488 58.0073533,52.6102994 C58.2945955,52.5911499 58.5761568,52.6967201 58.78,52.9 L62.47,56.59 C62.5934913,56.738666 62.7767341,56.8246688 62.97,56.8246688 C63.1632659,56.8246688 63.3465087,56.738666 63.47,56.59 L68.87,50.29 C69.0599109,50.0571044 69.3444896,49.9219612 69.645,49.9219612 C69.9455104,49.9219612 70.2300891,50.0571044 70.42,50.29 L79.64,62.08 L73.5,62.12 Z" id="Path" fill="#FFFFFF"></path>
                            <circle id="Oval" fill="#FFFFFF" cx="59.09" cy="44.94" r="2.22"></circle>
                            <rect id="Rectangle" fill="#C4CEDD" x="23.05" y="99.72" width="61.6" height="6.32" rx="3.16"></rect>
                            <rect id="Rectangle" fill="#58B7F7" x="94.65" y="99.72" width="12.64" height="6.32" rx="3.16"></rect>
                            <rect id="Rectangle" fill="#C4CEDD" x="23.05" y="126.04" width="61.6" height="6.32" rx="3.16"></rect>
                            <rect id="Rectangle" fill="#58B7F7" x="94.65" y="126.04" width="12.64" height="6.32" rx="3.16"></rect>
                            <rect id="Rectangle" fill="#C4CEDD" x="23.05" y="152.37" width="61.6" height="6.32" rx="3.16"></rect>
                            <rect id="Rectangle" fill="#C4CEDD" x="23.05" y="179.22" width="61.6" height="6.32" rx="3.16"></rect>
                            <rect id="Rectangle" fill="#58B7F7" x="94.65" y="179.22" width="12.64" height="6.32" rx="3.16"></rect>
                            <g id="indicators" transform="translate(22.000000, 225.000000)">
                                <path d="M3.82,0.58 L30.75,0.58 L30.75,6.51 L3.82,6.51 C2.16314575,6.51 0.82,5.16685425 0.82,3.51 L0.82,3.51 C0.82,1.85314575 2.16314575,0.51 3.82,0.51 L3.82,0.58 Z" id="Path" fill="#FC728C"></path>
                                <rect id="Rectangle" fill="#58B7F7" x="30.75" y="0.58" width="29.38" height="5.93"></rect>
                                <path d="M60.13,0.58 L87.07,0.58 C88.7268542,0.58 90.07,1.92314575 90.07,3.58 L90.07,3.58 C90.07,5.23685425 88.7268542,6.58 87.07,6.58 L60.13,6.58 L60.13,0.65 L60.13,0.58 Z" id="Path" fill="#FBCE60"></path>
                            </g>
                        </g>
                        <circle id="Oval" fill="#FC728C" fill-rule="nonzero" cx="195.02" cy="221.11" r="14.39"></circle>
                        <circle id="Oval" fill="#E0E7ED" fill-rule="nonzero" cx="163.02" cy="222.33" r="6.61"></circle>
                        <circle id="Oval" fill="#58B7F7" fill-rule="nonzero" cx="493.02" cy="221.11" r="3.61"></circle>
                        <rect id="Rectangle" fill="#C4CEDD" fill-rule="nonzero" x="224.41" y="218.77" width="56" height="4.95" rx="2.47"></rect>
                        <rect id="Rectangle" fill="#CFD7E2" fill-rule="nonzero" opacity="0.6" x="504.63" y="218.77" width="35" height="4.95" rx="2.47"></rect>
                        <rect id="Rectangle" fill="#CFD7E2" fill-rule="nonzero" opacity="0.6" x="297.53" y="218.77" width="139.88" height="4.95" rx="2.47"></rect>
                        <circle id="Oval" fill="#FBCE60" fill-rule="nonzero" cx="195.02" cy="267.11" r="14.39"></circle>
                        <circle id="Oval" fill="#E0E7ED" fill-rule="nonzero" cx="163.02" cy="268.33" r="6.61"></circle>
                        <circle id="Oval" fill="#58B7F7" fill-rule="nonzero" cx="493.02" cy="267.11" r="3.61"></circle>
                        <rect id="Rectangle" fill="#C4CEDD" fill-rule="nonzero" x="224.41" y="264.77" width="56" height="4.95" rx="2.47"></rect>
                        <rect id="Rectangle" fill="#CFD7E2" fill-rule="nonzero" opacity="0.6" x="504.63" y="264.77" width="35" height="4.95" rx="2.47"></rect>
                        <rect id="Rectangle" fill="#CFD7E2" fill-rule="nonzero" opacity="0.6" x="297.53" y="264.77" width="139.88" height="4.95" rx="2.47"></rect>
                        <circle id="Oval" fill="#9F81F5" fill-rule="nonzero" cx="195.02" cy="349.33" r="14.39"></circle>
                        <circle id="Oval" fill="#E0E7ED" fill-rule="nonzero" cx="163.02" cy="350.56" r="6.61"></circle>
                        <circle id="Oval" fill="#58B7F7" fill-rule="nonzero" cx="493.02" cy="349.33" r="3.61"></circle>
                        <rect id="Rectangle" fill="#CFD7E2" fill-rule="nonzero" opacity="0.6" x="504.63" y="346.99" width="35" height="4.95" rx="2.47"></rect>
                        <rect id="Rectangle" fill="#CFD7E2" fill-rule="nonzero" opacity="0.6" x="297.53" y="346.99" width="139.88" height="4.95" rx="2.47"></rect>
                        <rect id="Rectangle" fill="#C4CEDD" fill-rule="nonzero" x="224.41" y="346.72" width="56" height="4.95" rx="2.47"></rect>
                        <rect id="Rectangle" fill="#C4CEDD" fill-rule="nonzero" x="156.41" y="173.72" width="77" height="4.95" rx="2.47"></rect>
                        <rect id="Rectangle" fill="#CFD7E2" fill-rule="nonzero" opacity="0.6" x="244.41" y="173.72" width="45.47" height="4.95" rx="2.47"></rect>
                        <path d="M157.41,190.72 L538.41,190.72" id="Path" stroke="#DCE1EA" stroke-width="2" opacity="0.6"></path>
                        <rect id="Rectangle" fill="#C4CEDD" fill-rule="nonzero" x="156.41" y="300.72" width="77" height="4.95" rx="2.47"></rect>
                        <rect id="Rectangle" fill="#CFD7E2" fill-rule="nonzero" opacity="0.6" x="244.41" y="300.72" width="45.47" height="4.95" rx="2.47"></rect>
                        <path d="M157.41,317.72 L538.41,317.72" id="Path" stroke="#DCE1EA" stroke-width="2" opacity="0.6"></path>
                        <rect id="Rectangle" fill="#E0E7ED" fill-rule="nonzero" x="161.41" y="221.72" width="3" height="46"></rect>
                        <g id="character" transform="translate(184.000000, 254.000000)" fill-rule="nonzero">
                            <path d="M19.37,16.38 C25.9,7.46 19.82,7.16 20.07,7.17 C20.78,4.77 19.42,3.53 17.07,3.9 C17.07,2.5 16.15,1.9 14.15,2.07 C13.2297621,2.11507053 12.3282391,2.34640472 11.5,2.75 C11.81,0.98 10.99,0.12 9.5,0.12 L9.5,0.12 C3.99,-0.08 3.04,6.78 3.04,6.78 C0.4,6.78 -1.39,12.13 2.78,16.38 L19.37,16.38 Z" id="Path" fill="#313049"></path>
                            <path d="M14.88,7.73 C11.96,7.73 7.44,7.01 4.74,8.52 C3.94,8.96 3.86,10 3.5,10.83 C2.94,12.12 1.18,21.16 6.86,22.55 C7.86,22.81 14.48,22.89 16.53,21.92 C17.1355791,21.6361975 17.6740908,21.2272013 18.11,20.72 C19.61,18.95 19.41,15.5 19.29,13.18 C19.03,8.26 17.65,7.73 14.88,7.73 L14.88,7.73 Z" id="Path" fill="#A76255"></path>
                            <path d="M6.16,7.39 C9.21,10.74 13.62,10.92 16.85,7.39 L6.16,7.39 Z" id="Path" fill="#313049"></path>
                            <path d="M8.11,15.62 C7.95387257,15.6315433 7.81006293,15.7090738 7.71461053,15.8331619 C7.61915813,15.9572501 7.58110957,16.1161352 7.61,16.27 C7.68338662,16.5449373 7.96413588,16.7098217 8.24,16.64 C8.42290581,16.5853698 8.56807864,16.4456232 8.62963343,16.2649301 C8.69118823,16.084237 8.66151775,15.8849283 8.55,15.73 C8.42789355,15.6279343 8.26577192,15.5874039 8.11,15.62 L8.11,15.62 Z" id="Path" fill="#76372B"></path>
                            <path d="M14.8,15.6 C14.6425065,15.6586992 14.5175242,15.7817829 14.4564211,15.9383595 C14.3953181,16.094936 14.4038953,16.2701405 14.48,16.42 C14.6356704,16.6781881 14.9701796,16.7629304 15.23,16.61 C15.3990065,16.533232 15.5129566,16.3707001 15.5275114,16.185647 C15.5420661,16.0005938 15.4549267,15.8222459 15.3,15.72 C15.1661545,15.5946297 14.9761666,15.5490326 14.8,15.6 L14.8,15.6 Z" id="Path" fill="#76372B"></path>
                            <path d="M11.59,17.9 L11.24,17.9 C11.111242,17.8843206 11.0182397,17.769175 11.03,17.64 C11.0349321,17.5769663 11.0655952,17.5187428 11.1147816,17.4790153 C11.163968,17.4392879 11.2273395,17.4215604 11.29,17.43 C11.6765789,17.4805112 12.0696452,17.4287919 12.43,17.28 L11.94,14.17 C11.9131828,14.0800098 11.9413104,13.9826458 12.0119858,13.9208203 C12.0826611,13.8589948 12.182901,13.8440655 12.2685255,13.8826122 C12.3541499,13.921159 12.4094294,14.0061007 12.41,14.1 L12.93,17.37 C12.9450754,17.4596952 12.9058779,17.5498497 12.83,17.6 C12.455599,17.8208446 12.0239464,17.9252767 11.59,17.9 Z" id="Path" fill="#76372B" opacity="0.4"></path>
                            <path d="M11.44,20.13 C10.8044256,20.1316017 10.1822445,19.9473805 9.65,19.6 C9.59664751,19.5655115 9.55993623,19.5104913 9.54857179,19.4479869 C9.53720736,19.3854826 9.55220203,19.3210613 9.59,19.27 C9.6622855,19.1602567 9.80938638,19.1290535 9.92,19.2 C10.5120604,19.5816629 11.2255245,19.727923 11.92,19.61 C11.9799179,19.5952509 12.0432757,19.6063435 12.0946186,19.6405721 C12.1459615,19.6748007 12.1805692,19.7290184 12.19,19.79 C12.2048076,19.8511178 12.1939442,19.9156333 12.1599381,19.9685316 C12.125932,20.02143 12.0717493,20.0580973 12.01,20.07 C11.8222181,20.1072798 11.6314285,20.1273629 11.44,20.13 L11.44,20.13 Z" id="Path" fill="#76372B"></path>
                            <path d="M6.37,14.16 C6.22805222,14.1696229 6.09021193,14.1100163 6,14 C5.91021928,13.9116507 5.85965891,13.790961 5.85965891,13.665 C5.85965891,13.539039 5.91021928,13.4183493 6,13.33 C6.63440701,12.7505983 7.44358441,12.398782 8.3,12.33 C8.48216665,12.2934519 8.66906491,12.3653159 8.77981814,12.5144942 C8.89057137,12.6636726 8.90528589,12.8633695 8.81759426,13.0271701 C8.72990263,13.1909707 8.55555618,13.2894527 8.37,13.28 C7.7272446,13.3201447 7.11721817,13.5775547 6.64,14.01 C6.56852411,14.0877998 6.47381727,14.1404147 6.37,14.16 L6.37,14.16 Z" id="Path" fill="#313049"></path>
                            <path d="M16.87,14.16 C16.755499,14.1590976 16.6452658,14.1164267 16.56,14.04 C16.0814989,13.6095703 15.4722066,13.3524701 14.83,13.31 C14.5686523,13.2887172 14.3727465,13.0616447 14.39,12.8 C14.3949863,12.6742512 14.4512745,12.5560361 14.54575,12.4728977 C14.6402255,12.3897592 14.7646378,12.3489579 14.89,12.36 C15.7469801,12.4265188 16.556863,12.7786418 17.19,13.36 C17.3441322,13.4890592 17.3991176,13.7018572 17.3268007,13.8894292 C17.2544838,14.0770012 17.070878,14.1978122 16.87,14.19 L16.87,14.16 Z" id="Path" fill="#313049"></path>
                        </g>
                        <g id="character-2" transform="translate(185.000000, 211.000000)" fill-rule="nonzero">
                            <path d="M3.7,18.81 C7.57467623,20.0356663 11.7357601,20.0181828 15.6,18.76 C19.22,17.24 19.69,16.11 19.27,8.64 C18.81,0.36 14.1,1.79 5.13,1.91 C2.66,1.91 1.35,6.19 1.37,9.91 C1.38,12.68 1.29,17.89 3.7,18.81 Z" id="Path" fill="#F7B19A"></path>
                            <path d="M3.26,2 C1.89,2.65 0,8.92 1.38,11.88 C1.38,11.88 10.38,10.52 14.9,5.88 C16.22,6.99 17.66,9.34 19.26,9.88 C19.26,9.88 20.72,1.58 14.41,1.6 C14.41,1.58 10.31,-1.38 3.26,2 Z" id="Path" fill="#373959"></path>
                            <path d="M14.38,2 L14.31,2 C14.2029048,1.97141578 14.1314317,1.87051257 14.14,1.76 C14.1812479,1.2654567 14.0806496,0.76940325 13.85,0.33 C13.81617,0.214011325 13.8701305,0.0904262359 13.9781966,0.0363932023 C14.0862627,-0.0176398314 14.2175071,0.013342771 14.29,0.11 C14.4584763,0.43809736 14.5668527,0.793707132 14.61,1.16 C14.8967228,0.970912882 15.2102197,0.825962732 15.54,0.73 C15.6667876,0.689508635 15.8030702,0.755451822 15.85,0.88 C15.8894899,1.00961833 15.8185306,1.14710194 15.69,1.19 C15.2507975,1.28887333 14.860972,1.54048796 14.59,1.9 C14.5396437,1.96453131 14.4618385,2.00158139 14.38,2 Z" id="Path" fill="#373959"></path>
                            <path d="M10.53,13.62 C10.4339249,13.616461 10.3483909,13.5581424 10.31,13.47 C10.2804417,13.4108601 10.2777629,13.3418602 10.3026472,13.2806067 C10.3275315,13.2193531 10.3775719,13.1717705 10.44,13.15 C10.6931738,13.0158887 10.9312063,12.8549652 11.15,12.67 C10.8903422,12.1097935 10.5860268,11.5713893 10.24,11.06 C10.1626802,10.9495431 10.1895431,10.7973199 10.3,10.72 C10.410457,10.6426802 10.5626801,10.6695431 10.64,10.78 C11.0266409,11.3698278 11.3612356,11.992174 11.64,12.64 C11.6839701,12.7363485 11.6595887,12.8501284 11.58,12.92 C11.275406,13.1862902 10.9396174,13.4146265 10.58,13.6 L10.53,13.62 Z" id="Path" fill="#CB6358" opacity="0.4"></path>
                            <path d="M10.44,16.94 C10.0380523,16.9517119 9.64375801,16.828495 9.32,16.59 C8.97280582,16.3331193 8.77453602,15.921616 8.79,15.49 C8.76983013,15.3906698 8.81163072,15.288991 8.89583143,15.2325679 C8.98003214,15.1761449 9.08996786,15.1761449 9.17416857,15.2325679 C9.25836928,15.288991 9.30016987,15.3906698 9.28,15.49 C9.26796531,15.766255 9.39106168,16.0310987 9.61,16.2 C9.85199253,16.3716334 10.1434709,16.4594281 10.44,16.45 C10.7644571,16.4891981 11.0909728,16.3954816 11.3452521,16.1901746 C11.5995314,15.9848676 11.7599477,15.6854317 11.79,15.36 C11.7698301,15.2606698 11.8116307,15.158991 11.8958314,15.1025679 C11.9800321,15.0461449 12.0899679,15.0461449 12.1741686,15.1025679 C12.2583693,15.158991 12.3001699,15.2606698 12.28,15.36 C12.2494419,15.8150435 12.037327,16.2387257 11.6913197,16.5358407 C11.3453124,16.8329557 10.8944334,16.9785835 10.44,16.94 Z" id="Path" fill="#552E26"></path>
                            <path d="M5.14,12.92 L5.14,12.92 C5.00572657,12.9042872 4.90826859,12.7846797 4.92,12.65 C4.9144193,11.9745356 5.45460145,11.4209605 6.13,11.41 L6.13,11.41 C6.7701943,11.4035765 7.30268568,11.9008618 7.34,12.54 C7.3455219,12.606352 7.32434786,12.6721656 7.28117206,12.7228503 C7.23799626,12.7735349 7.17638599,12.8049029 7.11,12.81 C6.97555655,12.8158041 6.86064027,12.7141474 6.85,12.58 C6.82874856,12.1980566 6.51253375,11.8994092 6.13,11.9 L6.13,11.9 C5.81,11.9 5.46,12.11 5.41,12.69 C5.40490286,12.756386 5.3735349,12.8179963 5.32285027,12.8611721 C5.27216564,12.9043479 5.20635201,12.9255219 5.14,12.92 Z" id="Path" fill="#B84C44"></path>
                            <path d="M13.74,12.92 L13.74,12.92 C13.673614,12.9149029 13.6120037,12.8835349 13.5688279,12.8328503 C13.5256521,12.7821656 13.5044781,12.716352 13.51,12.65 C13.5044193,11.9745356 14.0446014,11.4209605 14.72,11.41 L14.72,11.41 C15.3563403,11.4089165 15.882881,11.9047423 15.92,12.54 C15.9255219,12.606352 15.9043479,12.6721656 15.8611721,12.7228503 C15.8179963,12.7735349 15.756386,12.8049029 15.69,12.81 C15.5555566,12.8158041 15.4406403,12.7141474 15.43,12.58 C15.4139143,12.1996408 15.1006991,11.89966 14.72,11.9 L14.72,11.9 C14.41,11.9 14.05,12.11 14,12.69 C13.9893597,12.8241474 13.8744434,12.9258041 13.74,12.92 Z" id="Path" fill="#B84C44"></path>
                            <path d="M16,10.06 L15.93,10.06 L12.75,9.45 C12.6536238,9.43314474 12.5682591,9.37778902 12.5135532,9.29667343 C12.4588473,9.21555783 12.4395129,9.11567002 12.46,9.02 C12.5003432,8.82129605 12.6895846,8.68926718 12.89,8.72 L16.07,9.34 C16.1663762,9.35685526 16.2517409,9.41221098 16.3064468,9.49332657 C16.3611527,9.57444217 16.3804871,9.67432998 16.36,9.77 C16.3261119,9.94112138 16.174413,10.0633233 16,10.06 L16,10.06 Z" id="Path" fill="#373959"></path>
                            <g id="Group" opacity="0.2" transform="translate(3.000000, 2.000000)" fill="#FFFFFF">
                                <path d="M2.22,2.65 C1.58745148,2.64888574 0.95580903,2.60209741 0.33,2.51 C0.244256258,2.4974957 0.171696736,2.44019752 0.139653903,2.35968911 C0.10761107,2.2791807 0.120952995,2.18769322 0.174653903,2.11968911 C0.228354812,2.051685 0.314256258,2.0174957 0.4,2.03 C2.97141946,2.38504675 5.59045502,1.97462683 7.93,0.85 C8.0516593,0.791584841 8.19772166,0.840272295 8.26,0.96 C8.31841516,1.0816593 8.2697277,1.22772166 8.15,1.29 C6.30070467,2.18335469 4.27377035,2.64821652 2.22,2.65 Z" id="Path"></path>
                                <path d="M2.71,5.63 C2.59162081,5.63165394 2.48972024,5.5467368 2.47,5.43 C2.44513216,5.29798582 2.52903811,5.16991884 2.66,5.14 C4.45775628,4.80940104 6.17337248,4.12994908 7.71,3.14 C7.76291619,3.09960152 7.83074111,3.08411361 7.89594795,3.09753855 C7.96115478,3.11096348 8.01734561,3.15198405 8.05,3.21 C8.08731221,3.26391617 8.10094093,3.33075057 8.08771896,3.39497155 C8.07449699,3.45919253 8.0355757,3.51520781 7.98,3.55 C6.38865997,4.58121601 4.61260216,5.29435586 2.75,5.65 L2.71,5.63 Z" id="Path"></path>
                                <path d="M14.69,4.29 C14.6260662,4.29131394 14.5644716,4.26595144 14.52,4.22 C13.8460451,3.60961788 13.3253209,2.84908651 13,2 C12.9741016,1.93917225 12.974442,1.87035519 13.0009408,1.80978659 C13.0274395,1.74921798 13.0777496,1.70226267 13.14,1.68 C13.2694767,1.63867734 13.4089335,1.70404772 13.46,1.83 C13.7536909,2.5897999 14.2151683,3.27347015 14.81,3.83 C14.8583386,3.87536667 14.8857593,3.93870705 14.8857593,4.005 C14.8857593,4.07129295 14.8583386,4.13463333 14.81,4.18 C14.7847473,4.23006944 14.7420722,4.26918822 14.69,4.29 Z" id="Path"></path>
                            </g>
                        </g>
                        <g id="character-3" transform="translate(183.000000, 335.000000)" fill-rule="nonzero">
                            <path d="M20.72,18.43 C21.1,18.21 26.8,6.57 18.72,7.16 C19.06,4.24 17.38,0.87 14.42,0.87 L14.42,0.87 C10.71,0.87 4.56,6.21 1.02,5.87 C-0.22,5.55 0.6,7.43 1.42,8.48 C3.24,10.79 3.42,9.08 1.97,10.59 C1.47642262,11.1246358 1.17093852,11.8058303 1.1,12.53 C0.75,15.46 4.76,18.84 4.7,18.84 L20.72,18.43 Z" id="Path" fill="#FFCD5F"></path>
                            <path d="M6.63,23.16 C10.1359999,23.9536762 13.7811722,23.8953809 17.26,22.99 C20.52,21.91 20.98,20.29 20.67,15.19 C20.26,8.14 17.67,9.35 8.15,9.62 C5.06,9.7 4.62,13.12 4.67,16.25 C4.71,18.17 4.49,22.57 6.63,23.16 Z" id="Path" fill="#F7B19A"></path>
                            <path d="M7.16,9.34 C7.16,9.34 11.61,13.57 17.68,9.09 L7.16,9.34 Z" id="Path" fill="#FFCD5F"></path>
                            <path d="M9.08,16.58 C8.90605265,16.5913623 8.74527681,16.6766007 8.63825588,16.814199 C8.53123494,16.9517974 8.4881949,17.128608 8.52,17.3 C8.60737034,17.6002196 8.91699205,17.7771463 9.22,17.7 C9.42213601,17.6415646 9.58348138,17.4888971 9.65299143,17.290297 C9.72250148,17.0916969 9.69157643,16.8717348 9.57,16.7 C9.43653778,16.5814745 9.25312777,16.5365578 9.08,16.58 L9.08,16.58 Z" id="Path" fill="#B84C44"></path>
                            <path d="M16,16.56 C15.8233392,16.6228497 15.6824257,16.7589277 15.6134483,16.9332873 C15.5444709,17.1076468 15.5541501,17.3032999 15.64,17.47 C15.7211945,17.6090359 15.8548619,17.7096051 16.0109512,17.7490975 C16.1670405,17.78859 16.3324528,17.7636916 16.47,17.68 C16.6616964,17.5955147 16.7916015,17.4126855 16.8083072,17.2038646 C16.8250129,16.9950436 16.7258266,16.7938871 16.55,16.68 C16.4025676,16.5424315 16.193422,16.4929971 16,16.55 L16,16.56 Z" id="Path" fill="#B84C44"></path>
                            <path d="M11,19.7 C11.88,21.99 13.58,21.96 14.17,19.7 C14.1951818,19.6122613 14.1775842,19.5177869 14.1225014,19.4449989 C14.0674187,19.372211 13.98128,19.3296054 13.89,19.33 L11.27,19.33 C11.1804876,19.3326896 11.0972388,19.3765833 11.0444502,19.4489232 C10.9916617,19.5212631 10.9752554,19.6139338 11,19.7 L11,19.7 Z" id="Path" fill="#B84C44"></path>
                            <path d="M12.39,18.67 L12.39,18.67 C12.2629745,18.67 12.16,18.5670255 12.16,18.44 C12.1653641,18.3113724 12.2712607,18.2098882 12.4,18.21 C12.6458848,18.2107659 12.8850645,18.1298669 13.08,17.98 C13.1074931,17.9574398 13.1253698,17.9252618 13.13,17.89 C13.13,17.89 12.98,17.75 12.9,17.7 C12.4137287,17.4573348 12.1421346,16.9263076 12.23,16.39 L12.23,15.24 C12.2105631,15.1483106 12.2487076,15.0539983 12.3264203,15.001601 C12.404133,14.9492037 12.505867,14.9492037 12.5835797,15.001601 C12.6612924,15.0539983 12.6994369,15.1483106 12.68,15.24 L12.68,16.45 C12.59,16.93 12.87,17.12 13.16,17.32 C13.45,17.52 13.6,17.62 13.59,17.9 C13.5810012,18.0579542 13.5089416,18.2056764 13.39,18.31 C13.1099493,18.5448669 12.7554924,18.6724713 12.39,18.67 Z" id="Path" fill="#CB6358" opacity="0.4"></path>
                            <path d="M9,19.52 C8.42869803,19.5168814 7.87142252,19.3427328 7.4,19.02 C6.53838918,18.433389 6.2507285,17.2956266 6.73,16.37 L6.73,16.37 C7.22043449,15.3511543 8.270278,14.7220346 9.4,14.77 C10.3251968,14.7909236 11.1321203,15.4041854 11.4,16.29 C11.6869345,17.1980861 11.4262507,18.190241 10.73,18.84 C10.2662446,19.2869878 9.64399794,19.5315703 9,19.52 Z M7.15,16.52 C6.7544263,17.2428541 6.98079774,18.1483399 7.67,18.6 C8.49956183,19.2087245 9.641797,19.1545309 10.41,18.47 C10.961799,17.9346695 11.1733097,17.1386203 10.96,16.4 C10.7464433,15.7001747 10.1112982,15.2137661 9.38,15.19 C8.43900184,15.1531058 7.56474222,15.6745252 7.15,16.52 L7.15,16.52 Z" id="Shape" fill="#41465F"></path>
                            <path d="M16.23,19.52 C15.658698,19.5168814 15.1014225,19.3427328 14.63,19.02 C13.7437163,18.4508952 13.4507001,17.2919505 13.96,16.37 L13.96,16.37 C14.4504345,15.3511543 15.500278,14.7220346 16.63,14.77 C17.5551968,14.7909236 18.3621203,15.4041854 18.63,16.29 C18.9070189,17.1983048 18.6477232,18.1851765 17.96,18.84 C17.4950486,19.2851216 16.873603,19.5293893 16.23,19.52 L16.23,19.52 Z M14.37,16.52 C13.9795027,17.2434993 14.2049733,18.1453817 14.89,18.6 C15.7195618,19.2087245 16.861797,19.1545309 17.63,18.47 C18.1893985,17.9392055 18.4054931,17.140427 18.19,16.4 C17.9752648,15.6967718 17.3350232,15.209544 16.6,15.19 C15.6603194,15.1582518 14.7886438,15.6781301 14.37,16.52 L14.37,16.52 Z" id="Shape" fill="#41465F"></path>
                            <path d="M14,17.14 L13.93,17.14 C13.1027621,16.8618071 12.2072379,16.8618071 11.38,17.14 C11.324604,17.1663634 11.260716,17.1683983 11.2037545,17.1456137 C11.1467931,17.1228292 11.1019327,17.0772949 11.08,17.02 C11.0311961,16.9040107 11.0846667,16.7703344 11.2,16.72 C12.1311443,16.4074853 13.1388557,16.4074853 14.07,16.72 C14.1881795,16.7625257 14.2535846,16.8889756 14.22,17.01 C14.1819291,17.0958469 14.0935632,17.1480631 14,17.14 L14,17.14 Z" id="Path" fill="#41465F"></path>
                            <path d="M4.67,17.84 C4.55039202,17.840453 4.45039991,17.7491558 4.44,17.63 C4.42820834,17.5063285 4.51675642,17.3956434 4.64,17.38 L6.64,17.18 C6.76702549,17.18 6.87,17.2829745 6.87,17.41 C6.87,17.5370255 6.76702549,17.64 6.64,17.64 L4.64,17.84 L4.67,17.84 Z" id="Path" fill="#41465F"></path>
                            <path d="M20.75,17.86 L20.75,17.86 L18.5,17.64 C18.4389096,17.6349204 18.3823747,17.6056638 18.3429462,17.5587252 C18.3035178,17.5117865 18.2844586,17.4510502 18.29,17.39 C18.2950796,17.3289096 18.3243362,17.2723747 18.3712748,17.2329462 C18.4182135,17.1935178 18.4789498,17.1744586 18.54,17.18 L20.79,17.4 C20.9170255,17.4 21.02,17.5029745 21.02,17.63 C21.02,17.7570255 20.9170255,17.86 20.79,17.86 L20.75,17.86 Z" id="Path" fill="#41465F"></path>
                            <g id="Group" opacity="0.3" transform="translate(2.000000, 3.000000)" fill="#FFFFFF">
                                <path d="M5.78,3.59 C5.65297455,3.58999994 5.55000011,3.48702545 5.55000011,3.36 C5.55000011,3.23297455 5.65297455,3.13000006 5.78,3.13 C8.13021654,2.99140507 10.3798817,2.12856765 12.22,0.66 C12.3091853,0.573636155 12.4508147,0.573636155 12.54,0.66 C12.5840416,0.701563361 12.6090033,0.759442781 12.6090033,0.82 C12.6090033,0.880557219 12.5840416,0.938436639 12.54,0.98 C10.6209196,2.50644868 8.2777684,3.40390002 5.83,3.55 L5.78,3.59 Z" id="Path"></path>
                                <path d="M9.56,5.71 C9.46913235,5.70687874 9.38783026,5.65267735 9.35,5.57 C9.32336018,5.51316055 9.32110952,5.44790236 9.34377007,5.38936261 C9.36643062,5.33082286 9.41203323,5.28408851 9.47,5.26 C10.8044634,4.69566168 12.0142915,3.87325049 13.03,2.84 C13.0733109,2.7954009 13.1328316,2.7702342 13.195,2.7702342 C13.2571684,2.7702342 13.3166891,2.7954009 13.36,2.84 C13.447621,2.93255127 13.447621,3.07744873 13.36,3.17 C12.2991066,4.24594797 11.039036,5.10524142 9.65,5.7 L9.56,5.71 Z" id="Path"></path>
                                <path d="M1.29,9.88 C1.17039202,9.88045299 1.07039991,9.78915584 1.06,9.67 C0.981679515,8.92391928 1.13904814,8.17204698 1.51,7.52 C1.53923147,7.46691996 1.58906241,7.42824728 1.6477369,7.41310548 C1.70641139,7.39796368 1.76873334,7.40769367 1.82,7.44 C1.92965226,7.50139326 1.96972798,7.63943183 1.91,7.75 C1.57971924,8.31418875 1.44277408,8.97082323 1.52,9.62 C1.52554135,9.68105021 1.50648218,9.74178654 1.46705375,9.78872515 C1.42762532,9.83566376 1.37109036,9.86492043 1.31,9.87 L1.29,9.88 Z" id="Path"></path>
                                <path d="M19.55,8.9 L19.55,8.9 C19.4229745,8.9 19.32,8.79702549 19.32,8.67 C19.3444503,7.98429431 19.2181473,7.30157513 18.95,6.67 C18.9271239,6.61300533 18.9279919,6.54922893 18.9524107,6.49287796 C18.9768294,6.43652699 19.0227706,6.39228228 19.08,6.37 C19.195983,6.32661518 19.3259329,6.37859511 19.38,6.49 C19.6556368,7.16924931 19.7916739,7.89704774 19.78,8.63 C19.7919412,8.69756888 19.7730908,8.76694065 19.7285956,8.81917406 C19.6841005,8.87140748 19.6186079,8.90104705 19.55,8.9 Z" id="Path"></path>
                            </g>
                        </g>
                        <g id="header" transform="translate(0.000000, 56.000000)" fill-rule="nonzero">
                            <polygon id="Rectangle" fill="#131439" points="0.41 0.22 568.028015 0.22 568.028015 31.22 0.41 31.22"></polygon>
                            <rect id="Rectangle" fill="#FFFFFF" x="73" y="14.22" width="41.12" height="3" rx="1.5"></rect>
                            <rect id="Rectangle" fill="#FFFFFF" opacity="0.35" x="38" y="14.22" width="24.12" height="3" rx="1.5"></rect>
                            <rect id="Rectangle" fill="#FFFFFF" opacity="0.35" x="125" y="14.22" width="24.12" height="3" rx="1.5"></rect>
                            <rect id="Rectangle" fill="#FFFFFF" opacity="0.35" x="193" y="14.22" width="29.12" height="3" rx="1.5"></rect>
                            <rect id="Rectangle" fill="#FFFFFF" opacity="0.35" x="160" y="14.22" width="23.12" height="3" rx="1.5"></rect>
                        </g>
                        <g id="header-2" transform="translate(0.000000, 87.000000)" fill="#373753" fill-rule="nonzero">
                            <polygon id="Rectangle" points="0.41 0.09 568.014618 0.09 568.014618 37.59 0.41 37.59"></polygon>
                        </g>
                        <rect id="Rectangle" fill="#FFFFFF" fill-rule="nonzero" x="19.41" y="101.72" width="48" height="6" rx="3"></rect>
                        <circle id="Oval" fill="#FCD56B" fill-rule="nonzero" cx="548.41" cy="71.72" r="10"></circle>
                        <g id="character-4" transform="translate(540.000000, 63.000000)" fill-rule="nonzero">
                            <path d="M13.94,11.53 C18.54,5.24 14.26,5.03 14.43,5.04 C14.93,3.35 13.97,2.47 12.32,2.73 C12.32,1.73 11.67,1.28 10.26,1.44 C9.61171447,1.47899308 8.9769195,1.6419351 8.39,1.92 C8.61,0.67 8.03,0.06 7,0.06 L7,0.06 C3.12,-0.08 2.44,4.77 2.44,4.77 C0.58,4.77 -0.68,8.54 2.26,11.53 L13.94,11.53 Z" id="Path" fill="#383753"></path>
                            <path d="M10.77,5.43 C8.71,5.43 5.52,4.93 3.62,5.99 C3.06,6.3 2.99,6.99 2.74,7.62 C2.35,8.53 1.11,14.91 5.11,15.89 C5.85,16.07 10.48,16.13 11.94,15.44 C12.365518,15.2421099 12.7439357,14.9557397 13.05,14.6 C14.1,13.35 13.97,10.91 13.88,9.28 C13.7,5.81 12.72,5.43 10.77,5.43 L10.77,5.43 Z" id="Path" fill="#B16D60"></path>
                            <path d="M4.62,5.19 C5.53235754,6.3414527 6.92090517,7.01282742 8.39,7.01282742 C9.85909483,7.01282742 11.2476425,6.3414527 12.16,5.19 L4.62,5.19 Z" id="Path" fill="#383753"></path>
                            <path d="M6,11 C5.88850427,11.006741 5.78525041,11.0609652 5.7164092,11.1489289 C5.64756798,11.2368927 5.61974781,11.350152 5.64,11.46 C5.693641,11.6551577 5.89413521,11.7709988 6.09,11.72 C6.21752033,11.6801469 6.31847272,11.582001 6.36190428,11.4556546 C6.40533585,11.3293082 6.38606487,11.1898355 6.31,11.08 C6.22349111,11.0089804 6.11007239,10.979711 6,11 L6,11 Z" id="Path" fill="#813F31"></path>
                            <path d="M10.72,11 C10.6073505,11.0370558 10.5162634,11.1210716 10.4702446,11.2303662 C10.4242259,11.3396608 10.4277837,11.463527 10.48,11.57 C10.5923929,11.7551925 10.8317867,11.8172576 11.02,11.71 C11.1345937,11.6465972 11.2057157,11.5259642 11.2057157,11.395 C11.2057157,11.2640358 11.1345937,11.1434028 11.02,11.08 C10.9280608,10.9964568 10.7995452,10.9662179 10.68,11 L10.72,11 Z" id="Path" fill="#813F31"></path>
                            <path d="M8.45,12.61 L8.2,12.61 C8.11003302,12.5995389 8.04406602,12.5203785 8.05,12.43 C8.06523476,12.3385197 8.14748176,12.2735879 8.24,12.28 C8.51076686,12.3224147 8.78800498,12.28776 9.04,12.18 L8.7,10 C8.68794079,9.90931349 8.7498115,9.82534609 8.84,9.81 C8.92935922,9.80284294 9.01036496,9.86253138 9.03,9.95 L9.39,12.26 C9.40253907,12.3204421 9.37919001,12.3827063 9.33,12.42 C9.0605098,12.565205 8.75539316,12.6310824 8.45,12.61 Z" id="Path" fill="#813F31" opacity="0.4"></path>
                            <path d="M8.34,14.18 C7.89353303,14.1778112 7.45676453,14.0495538 7.08,13.81 C7.01388793,13.7436588 7.01388793,13.6363412 7.08,13.57 C7.14503157,13.5102665 7.24496843,13.5102665 7.31,13.57 C7.73720894,13.842355 8.25186138,13.9424263 8.75,13.85 C8.79251953,13.8412511 8.83676896,13.8501546 8.87259579,13.8746677 C8.90842262,13.8991808 8.93275134,13.9371992 8.94,13.98 C8.95856027,14.0709824 8.90068242,14.1600253 8.81,14.18 C8.65387784,14.1984723 8.49612216,14.1984723 8.34,14.18 L8.34,14.18 Z" id="Path" fill="#813F31"></path>
                            <path d="M4.77,10 C4.67495476,9.99988821 4.58429529,9.95999805 4.52,9.89 C4.45709437,9.82798344 4.42167866,9.74333556 4.42167866,9.655 C4.42167866,9.56666444 4.45709437,9.48201656 4.52,9.42 C4.96978036,9.01866294 5.53897039,8.77623015 6.14,8.73 C6.30698931,8.74344922 6.43929458,8.87653438 6.45176215,9.04359984 C6.46422972,9.2106653 6.35314339,9.36191401 6.19,9.4 C5.73816429,9.43057712 5.3091707,9.60991051 4.97,9.91 C4.91652715,9.96336809 4.84540614,9.99537255 4.77,10 L4.77,10 Z" id="Path" fill="#383753"></path>
                            <path d="M12.18,10 C12.094944,9.99894588 12.0131828,9.96695238 11.95,9.91 C11.6129192,9.60659397 11.182728,9.42675996 10.73,9.4 C10.5965058,9.42315019 10.4620083,9.3648331 10.3876637,9.25156562 C10.3133191,9.13829813 10.3133191,8.99170187 10.3876637,8.87843438 C10.4620083,8.7651669 10.5965058,8.70684981 10.73,8.73 C11.3315687,8.77401537 11.901443,9.01673961 12.35,9.42 C12.4129056,9.48201656 12.4483213,9.56666444 12.4483213,9.655 C12.4483213,9.74333556 12.4129056,9.82798344 12.35,9.89 C12.3050245,9.94217601 12.2460237,9.98035299 12.18,10 L12.18,10 Z" id="Path" fill="#383753"></path>
                        </g>
                        <circle id="Oval" fill="#484E6A" fill-rule="nonzero" cx="527.41" cy="68.72" r="1"></circle>
                        <circle id="Oval" fill="#484E6A" fill-rule="nonzero" cx="524.41" cy="68.72" r="1"></circle>
                        <circle id="Oval" fill="#484E6A" fill-rule="nonzero" cx="521.41" cy="68.72" r="1"></circle>
                        <circle id="Oval" fill="#484E6A" fill-rule="nonzero" cx="527.41" cy="71.72" r="1"></circle>
                        <circle id="Oval" fill="#484E6A" fill-rule="nonzero" cx="524.41" cy="71.72" r="1"></circle>
                        <circle id="Oval" fill="#484E6A" fill-rule="nonzero" cx="521.41" cy="71.72" r="1"></circle>
                        <circle id="Oval" fill="#484E6A" fill-rule="nonzero" cx="527.41" cy="74.72" r="1"></circle>
                        <circle id="Oval" fill="#484E6A" fill-rule="nonzero" cx="524.41" cy="74.72" r="1"></circle>
                        <circle id="Oval" fill="#484E6A" fill-rule="nonzero" cx="521.41" cy="74.72" r="1"></circle>
                        <rect id="Rectangle" fill="#F5F6F7" fill-rule="nonzero" opacity="0.15" x="324.81" y="61.72" width="129.19" height="18" rx="9"></rect>
                        <path d="M336.78,73.37 C335.229097,73.3740441 333.828843,72.4423801 333.233468,71.0103027 C332.638094,69.5782253 332.965136,67.9284518 334.061794,66.831794 C335.158452,65.7351363 336.808225,65.4080938 338.240303,66.0034683 C339.67238,66.5988429 340.604044,67.999097 340.6,69.55 C340.594505,71.6574473 338.887447,73.3645047 336.78,73.37 L336.78,73.37 Z M336.78,67.21 C335.833558,67.21 334.980309,67.7801227 334.618122,68.6545208 C334.255934,69.5289188 334.456135,70.5353946 335.12537,71.2046299 C335.794605,71.8738652 336.801081,72.0740656 337.675479,71.7118781 C338.549877,71.3496906 339.12,70.4964417 339.12,69.55 C339.12,68.2576537 338.072346,67.21 336.78,67.21 L336.78,67.21 Z" id="Shape" fill="#484E6A" fill-rule="nonzero"></path>
                        <path d="M339.3,75.61 C339.020176,75.6091128 338.764786,75.4504612 338.64,75.2 L337.52,73 C337.377475,72.7616695 337.380379,72.4636053 337.527521,72.2280973 C337.674664,71.9925892 337.941273,71.8592846 338.217965,71.8828755 C338.494657,71.9064664 338.734851,72.0829814 338.84,72.34 L340,74.54 C340.092979,74.7156368 340.110333,74.9215893 340.048056,75.1103084 C339.985778,75.2990275 339.849253,75.4541998 339.67,75.54 C339.556477,75.5999098 339.427562,75.6242991 339.3,75.61 L339.3,75.61 Z" id="Path" fill="#484E6A" fill-rule="nonzero"></path>
                        <rect id="Rectangle" fill="#FFFFFF" fill-rule="nonzero" opacity="0.35" x="349.76" y="69.34" width="39.83" height="2.97" rx="1.48"></rect>
                        <path d="M471.74,71.05 L469.07,71.05 L469.07,68.39 C469.101581,68.1329472 468.982186,67.8807131 468.763359,67.7421909 C468.544532,67.6036688 468.265468,67.6036688 468.046641,67.7421909 C467.827814,67.8807131 467.708419,68.1329472 467.74,68.39 L467.74,71.05 L465.07,71.05 C464.699969,71.05 464.4,71.3499692 464.4,71.72 C464.4,72.0900308 464.699969,72.39 465.07,72.39 L467.74,72.39 L467.74,75.05 C467.708419,75.3070528 467.827814,75.5592869 468.046641,75.6978091 C468.265468,75.8363312 468.544532,75.8363312 468.763359,75.6978091 C468.982186,75.5592869 469.101581,75.3070528 469.07,75.05 L469.07,72.39 L471.74,72.39 C472.110031,72.39 472.41,72.0900308 472.41,71.72 C472.390148,71.3585111 472.101489,71.0698516 471.74,71.05 L471.74,71.05 Z" id="Path" fill="#484E6A" fill-rule="nonzero"></path>
                        <circle id="Oval" fill="#F8F9FB" fill-rule="nonzero" cx="23.33" cy="73.79" r="1.76"></circle>
                        <path d="M28.27,69.34 C28.27,67.2689322 26.5910678,65.59 24.52,65.59 L17,65.59 C16.7700643,64.506519 15.8175763,63.7287231 14.71,63.72 L11.86,63.72 C10.5699296,63.7254781 9.52547808,64.7699296 9.52,66.06 L9.52,75 C9.52549482,77.0687875 11.2012125,78.7445052 13.27,78.75 L24.52,78.75 C26.5910678,78.75 28.27,77.0710678 28.27,75 L28.27,69.34 Z M24.52,76.84 L13.27,76.84 C12.2488307,76.8401314 11.4163824,76.0210379 11.4,75 L11.4,67.5 L24.52,67.5 C25.5527725,67.5 26.39,68.3372275 26.39,69.37 L26.39,75 C26.3736176,76.0210379 25.5411693,76.8401314 24.52,76.84 L24.52,76.84 Z" id="Shape" fill="#F8F9FB" fill-rule="nonzero"></path>
                        <path d="M492.41,74.59 L492.41,69.59 C492.404539,69.2459721 492.124071,68.9699567 491.78,68.97 L482.41,68.97 L482.41,74.59 C482.409957,74.9340713 482.685972,75.2145386 483.03,75.22 L491.78,75.22 C492.127939,75.22 492.41,74.9379394 492.41,74.59 L492.41,74.59 Z" id="Path" fill="#484E6A" fill-rule="nonzero"></path>
                        <rect id="Rectangle" fill="#484E6A" fill-rule="nonzero" x="482.41" y="67.72" width="5" height="1.88" rx="0.63"></rect>
                        <path d="M505.52,75.27 L507.29,75.27 C507.29,75.27 507.16,75.72 506.41,75.72 C505.66,75.72 505.52,75.27 505.52,75.27 Z M509.52,73.05 C509.52,73.05 509.96,67.72 506.41,67.72 C502.86,67.72 503.29,73.05 503.29,73.05 C502.944478,73.4601239 502.649062,73.9099623 502.41,74.39 C502.400902,74.5092524 502.444329,74.6265325 502.528898,74.7111017 C502.613468,74.7956709 502.730748,74.8390977 502.85,74.83 L510,74.83 C510.120054,74.8387502 510.238093,74.7955688 510.32416,74.711414 C510.410228,74.6272592 510.456051,74.5102207 510.45,74.39 C510.195305,73.9073828 509.883026,73.4574319 509.52,73.05 L509.52,73.05 Z" id="Shape" fill="#484E6A" fill-rule="nonzero"></path>
                    </g>
                </g>
            </g>
        </g>
    </g>
</svg>