<?xml version="1.0" encoding="UTF-8"?>
<svg width="435px" height="372px" viewBox="0 0 435 372" version="1.1" xmlns="http://www.w3.org/2000/svg" xmlns:xlink="http://www.w3.org/1999/xlink">
    <!-- Generator: Sketch 53 (72520) - https://sketchapp.com -->
    <title>projects-app-header-illustration</title>
    <desc>Created with Sketch.</desc>
    <defs>
        <rect id="path-1" x="0.54" y="0.16" width="146.31" height="91" rx="8"></rect>
        <filter x="-6.8%" y="-8.8%" width="113.7%" height="122.0%" filterUnits="objectBoundingBox" id="filter-2">
            <feOffset dx="0" dy="2" in="SourceAlpha" result="shadowOffsetOuter1"></feOffset>
            <feGaussianBlur stdDeviation="3" in="shadowOffsetOuter1" result="shadowBlurOuter1"></feGaussianBlur>
            <feColorMatrix values="0 0 0 0 0.11372549   0 0 0 0 0.109803922   0 0 0 0 0.223529412  0 0 0 0.1 0" type="matrix" in="shadowBlurOuter1"></feColorMatrix>
        </filter>
        <path d="M63.84316,42.84788 C61.18506,42.84788 60.1498,40.66544 60.1498,37.86744 C60.1498,35.06944 61.18506,32.887 63.84316,32.887 C66.50126,32.887 67.53652,35.06944 67.53652,37.86744 C67.53652,40.66544 66.50126,42.84788 63.84316,42.84788 Z M63.84316,40.94524 C64.64059,40.94524 65.01832,40.03589 65.01832,37.86744 C65.01832,35.69899 64.65458,34.78964 63.84316,34.78964 C63.04573,34.78964 62.668,35.69899 62.668,37.86744 C62.668,40.03589 63.03174,40.94524 63.84316,40.94524 Z M71.78948,42.84788 C69.13138,42.84788 68.09612,40.66544 68.09612,37.86744 C68.09612,35.06944 69.13138,32.887 71.78948,32.887 C74.44758,32.887 75.48284,35.06944 75.48284,37.86744 C75.48284,40.66544 74.44758,42.84788 71.78948,42.84788 Z M71.78948,40.94524 C72.58691,40.94524 72.96464,40.03589 72.96464,37.86744 C72.96464,35.69899 72.6009,34.78964 71.78948,34.78964 C70.99205,34.78964 70.61432,35.69899 70.61432,37.86744 C70.61432,40.03589 70.97806,40.94524 71.78948,40.94524 Z M77.56735,37.084 C76.92381,37.084 76.60204,36.76223 76.60204,36.11869 L76.60204,35.69899 C76.60204,35.05545 76.92381,34.73368 77.56735,34.73368 L78.21089,34.73368 C78.85443,34.73368 79.1762,35.05545 79.1762,35.69899 L79.1762,36.11869 C79.1762,36.76223 78.85443,37.084 78.21089,37.084 L77.56735,37.084 Z M77.56735,40.88928 C76.92381,40.88928 76.60204,40.56751 76.60204,39.92397 L76.60204,39.50427 C76.60204,38.86073 76.92381,38.53896 77.56735,38.53896 L78.21089,38.53896 C78.85443,38.53896 79.1762,38.86073 79.1762,39.50427 L79.1762,39.92397 C79.1762,40.56751 78.85443,40.88928 78.21089,40.88928 L77.56735,40.88928 Z M80.47727,41.91055 C80.64515,40.03589 81.10682,38.88871 82.58976,38.03532 L83.76492,37.3638 C84.53437,36.93011 84.94008,36.51041 84.94008,35.85288 C84.94008,35.19535 84.64629,34.78964 83.98876,34.78964 C83.54108,34.78964 83.2333,35.01348 83.03744,35.4052 C82.8136,35.85288 82.57577,36.07672 82.03016,36.07672 L81.34465,36.07672 C80.67313,36.07672 80.42131,35.74096 80.60318,35.06944 C81.03687,33.48857 82.49183,32.887 83.98876,32.887 C86.04529,32.887 87.45828,33.96423 87.45828,35.74096 C87.45828,37.18193 86.95464,38.0633 85.44372,38.93068 L84.26856,39.6022 C83.49911,40.03589 83.35921,40.23175 83.30325,40.77736 L86.63287,40.77736 C87.13651,40.77736 87.40232,41.04317 87.40232,41.54681 L87.40232,41.91055 C87.40232,42.41419 87.13651,42.68 86.63287,42.68 L81.24672,42.68 C80.74308,42.68 80.4353,42.41419 80.47727,41.91055 Z M88.9692,40.94524 C88.45157,40.94524 88.18576,40.67943 88.18576,40.1618 L88.18576,39.82604 C88.18576,39.58821 88.31167,39.29442 88.4096,39.15452 L92.21488,33.55852 C92.38276,33.3067 92.73251,33.05488 93.15221,33.05488 L93.66984,33.05488 C94.34136,33.05488 94.67712,33.39064 94.67712,34.06216 L94.67712,39.0426 L94.90096,39.0426 C95.41859,39.0426 95.6844,39.30841 95.6844,39.82604 L95.6844,40.1618 C95.6844,40.67943 95.41859,40.94524 94.90096,40.94524 L94.67712,40.94524 L94.67712,41.67272 C94.67712,42.34424 94.34136,42.68 93.66984,42.68 L93.22216,42.68 C92.55064,42.68 92.21488,42.34424 92.21488,41.67272 L92.21488,40.94524 L88.9692,40.94524 Z M90.49411,39.0426 L92.21488,39.0426 L92.21488,36.51041 L90.49411,39.0426 Z M97.71295,37.084 C97.06941,37.084 96.74764,36.76223 96.74764,36.11869 L96.74764,35.69899 C96.74764,35.05545 97.06941,34.73368 97.71295,34.73368 L98.35649,34.73368 C99.00003,34.73368 99.3218,35.05545 99.3218,35.69899 L99.3218,36.11869 C99.3218,36.76223 99.00003,37.084 98.35649,37.084 L97.71295,37.084 Z M97.71295,40.88928 C97.06941,40.88928 96.74764,40.56751 96.74764,39.92397 L96.74764,39.50427 C96.74764,38.86073 97.06941,38.53896 97.71295,38.53896 L98.35649,38.53896 C99.00003,38.53896 99.3218,38.86073 99.3218,39.50427 L99.3218,39.92397 C99.3218,40.56751 99.00003,40.88928 98.35649,40.88928 L97.71295,40.88928 Z M104.13436,42.84788 C101.47626,42.84788 100.441,40.66544 100.441,37.86744 C100.441,35.06944 101.47626,32.887 104.13436,32.887 C106.79246,32.887 107.82772,35.06944 107.82772,37.86744 C107.82772,40.66544 106.79246,42.84788 104.13436,42.84788 Z M104.13436,40.94524 C104.93179,40.94524 105.30952,40.03589 105.30952,37.86744 C105.30952,35.69899 104.94578,34.78964 104.13436,34.78964 C103.33693,34.78964 102.9592,35.69899 102.9592,37.86744 C102.9592,40.03589 103.32294,40.94524 104.13436,40.94524 Z M108.56919,40.77736 C108.40131,40.10584 108.6951,39.77008 109.31066,39.77008 L109.99617,39.77008 C110.54178,39.77008 110.7936,39.97993 111.00345,40.4416 C111.2133,40.90327 111.57704,41.11312 112.08068,41.11312 C112.69624,41.11312 113.14392,40.7214 113.14392,39.882 C113.14392,39.14053 112.7522,38.65088 112.08068,38.65088 L111.94078,38.65088 C111.4931,38.65088 111.24128,38.39906 111.24128,37.89542 L111.24128,37.55966 C111.24128,37.05602 111.4931,36.8042 111.94078,36.8042 L112.08068,36.8042 C112.64028,36.8042 113.08796,36.41248 113.08796,35.685 C113.08796,35.01348 112.6123,34.62176 112.08068,34.62176 C111.60502,34.62176 111.33921,34.80363 111.03143,35.30727 C110.86355,35.58707 110.70966,35.79692 110.22001,35.79692 L109.46455,35.79692 C108.84899,35.79692 108.62515,35.48914 108.79303,34.88757 C109.17076,33.53054 110.55577,32.887 112.02472,32.887 C113.92736,32.887 115.43828,33.83832 115.43828,35.51712 C115.43828,36.45445 114.87868,37.30784 114.03928,37.6436 L114.03928,37.69956 C115.04656,38.03532 115.66212,38.59492 115.66212,39.99392 C115.66212,41.8406 114.16519,42.84788 112.02472,42.84788 C110.24799,42.84788 108.94692,42.27429 108.56919,40.77736 Z" id="path-3"></path>
        <rect id="path-4" x="0" y="0" width="191" height="130" rx="9"></rect>
        <filter x="-5.2%" y="-6.2%" width="110.5%" height="115.4%" filterUnits="objectBoundingBox" id="filter-5">
            <feOffset dx="0" dy="2" in="SourceAlpha" result="shadowOffsetOuter1"></feOffset>
            <feGaussianBlur stdDeviation="3" in="shadowOffsetOuter1" result="shadowBlurOuter1"></feGaussianBlur>
            <feColorMatrix values="0 0 0 0 0.11372549   0 0 0 0 0.109803922   0 0 0 0 0.223529412  0 0 0 0.1 0" type="matrix" in="shadowBlurOuter1"></feColorMatrix>
        </filter>
        <rect id="path-6" x="0.67" y="0.65" width="157" height="270" rx="9"></rect>
        <filter x="-6.4%" y="-3.0%" width="112.7%" height="107.4%" filterUnits="objectBoundingBox" id="filter-7">
            <feOffset dx="0" dy="2" in="SourceAlpha" result="shadowOffsetOuter1"></feOffset>
            <feGaussianBlur stdDeviation="3" in="shadowOffsetOuter1" result="shadowBlurOuter1"></feGaussianBlur>
            <feColorMatrix values="0 0 0 0 0.11372549   0 0 0 0 0.109803922   0 0 0 0 0.223529412  0 0 0 0.1 0" type="matrix" in="shadowBlurOuter1"></feColorMatrix>
        </filter>
        <polygon id="path-8" points="244.571429 331.416667 228.857143 347.25 244.571429 347.25"></polygon>
    </defs>
    <g id="Page-1" stroke="none" stroke-width="1" fill="none" fill-rule="evenodd">
        <g id="projects-app-page-header" transform="translate(-827.000000, -200.000000)">
            <g id="projects-app-header-illustration" transform="translate(827.000000, 200.000000)">
                <g id="Layer_1-2" transform="translate(32.000000, 1.000000)" fill="#D1F0FF" fill-rule="nonzero">
                    <path d="M185.23,370.41 C207.69,370.41 276.91,355.76 308.8,334.03 C365,295.68 410.21,188.46 389.89,134.6 C382.89,115.95 361.83,81.65 347.18,69.14 C257.83,-7.17 234.49,-23.66 101,36.51 C74,48.75 26,98.83 11,125.53 C-33.92,205.25 65.88,370.2 185.23,370.41 Z" id="Path"></path>
                </g>
                <g id="Isolation_Mode" transform="translate(237.000000, 48.000000)">
                    <g id="Minimized-timer">
                        <g id="Rectangle">
                            <use fill="black" fill-opacity="1" filter="url(#filter-2)" xlink:href="#path-1"></use>
                            <use fill="#484E6A" fill-rule="evenodd" xlink:href="#path-1"></use>
                        </g>
                        <g id="maximize-icon" transform="translate(126.000000, 8.000000)" fill-rule="nonzero">
                            <rect id="Rectangle" fill="#E1E6EE" x="0.86" y="0.16" width="11.66" height="9.03" rx="2"></rect>
                            <rect id="Rectangle" fill="#484E6A" x="2.52" y="3.16" width="8" height="5"></rect>
                        </g>
                        <rect id="Rectangle" fill="#363654" fill-rule="nonzero" x="35.42" y="24.96" width="91.81" height="25.99"></rect>
                        <circle id="Oval" fill="#79E2AA" fill-rule="nonzero" cx="33.92" cy="37.96" r="15.49"></circle>
                        <polygon id="Path" fill="#FFFFFF" points="30.54 32.05 30.54 43.37 39.92 37.71"></polygon>
                        <g id="00:24:03" fill-rule="nonzero">
                            <use fill="#000000" xlink:href="#path-3"></use>
                            <use fill="#FFFFFF" xlink:href="#path-3"></use>
                        </g>
                        <rect id="Rectangle" fill="#9A9EB5" fill-rule="nonzero" x="17.5" y="67.43" width="73.42" height="5.89" rx="2.94"></rect>
                    </g>
                    <g id="Group-2" transform="translate(1.230000, 114.440000)">
                        <g id="Rectangle">
                            <use fill="black" fill-opacity="1" filter="url(#filter-5)" xlink:href="#path-4"></use>
                            <use fill="#F8F9FB" fill-rule="evenodd" xlink:href="#path-4"></use>
                        </g>
                        <rect id="Rectangle" fill="#FFFFFF" fill-rule="nonzero" x="12.5" y="29" width="167" height="92" rx="7"></rect>
                        <circle id="Oval" fill="#4461D7" fill-rule="nonzero" cx="96.38" cy="28.62" r="19.63"></circle>
                        <rect id="Rectangle" fill="#FFFFFF" fill-rule="nonzero" x="88.23" y="24.15" width="15.77" height="10.15" rx="2"></rect>
                        <rect id="Rectangle" fill="#FFFFFF" fill-rule="nonzero" x="88.23" y="22.23" width="8.7" height="10.15" rx="2"></rect>
                        <rect id="Rectangle" fill="#CCD5E2" fill-rule="nonzero" x="52" y="69.5" width="88" height="9" rx="4.5"></rect>
                        <rect id="Rectangle" fill="#E7EBF1" fill-rule="nonzero" x="68.43" y="87" width="56.07" height="6" rx="3"></rect>
                    </g>
                </g>
                <g id="Boards-view-backlog" transform="translate(60.000000, 48.000000)">
                    <g id="Rectangle">
                        <use fill="black" fill-opacity="1" filter="url(#filter-7)" xlink:href="#path-6"></use>
                        <use fill="#F8F9FB" fill-rule="evenodd" xlink:href="#path-6"></use>
                    </g>
                    <path d="M157.67,9.58 L0.67,9.58 L0.67,7.94 C0.7248767,3.83950905 4.07923645,0.552147166 8.18,0.58 L150.18,0.58 C154.282441,0.552096491 157.639683,3.83790759 157.7,7.94 L157.67,9.58 Z" id="Path" fill="#4461D7" fill-rule="nonzero"></path>
                    <rect id="Rectangle" fill="#D6DDE7" fill-rule="nonzero" x="12.46" y="20.75" width="80" height="5" rx="2.3"></rect>
                    <g id="card_2" transform="translate(10.000000, 148.000000)">
                        <rect id="Rectangle" fill="#FFFFFF" fill-rule="nonzero" x="0.58" y="0.71" width="138" height="80" rx="12"></rect>
                        <rect id="Rectangle" fill="#D6DDE7" fill-rule="nonzero" x="37.76" y="17.28" width="80" height="5" rx="2.3"></rect>
                        <rect id="Rectangle" fill="#E7EBF1" fill-rule="nonzero" x="37.78" y="30.68" width="80" height="5" rx="2.3"></rect>
                        <rect id="Rectangle" fill="#FE97DA" fill-rule="nonzero" x="37.61" y="44.9" width="31" height="5" rx="2.3"></rect>
                        <path d="M22,16.93 C21.557329,16.607579 20.937666,16.7011971 20.61,17.14 L18.83,19.55 L18,19 C17.7124012,18.787427 17.3332426,18.7444335 17.0053495,18.8872149 C16.6774565,19.0299962 16.4506438,19.3368605 16.4103495,19.6922149 C16.3700553,20.0475693 16.5224012,20.397427 16.81,20.61 L18.4,21.78 C18.6134045,21.9380723 18.880922,22.0047649 19.1435555,21.9653699 C19.406189,21.9259749 19.6423655,21.7837281 19.8,21.57 L22.16,18.36 C22.3180723,18.1465955 22.3847649,17.879078 22.3453699,17.6164445 C22.3059749,17.353811 22.1637281,17.1176345 21.95,16.96" id="Path" fill="#D6DDE7"></path>
                        <circle id="Oval" stroke="#D6DDE7" stroke-width="2" opacity="0.5" cx="19.37" cy="19.37" r="8"></circle>
                        <circle id="Oval" fill="#FCD56B" fill-rule="nonzero" cx="19.88" cy="62.12" r="11"></circle>
                        <g id="character" transform="translate(11.000000, 52.000000)" fill-rule="nonzero">
                            <path d="M15,13.21 C20.07,6.29 15.35,6.06 15.54,6.07 C16.1,4.21 15.04,3.24 13.22,3.53 C13.22,2.45 12.51,1.94 10.96,2.11 C10.2449449,2.14807598 9.54464399,2.32825047 8.9,2.64 C9.14,1.26 8.5,0.64 7.37,0.64 L7.37,0.64 C3.1,0.48 2.37,5.81 2.37,5.81 C0.37,5.81 -1.07,9.96 2.17,13.25 L15,13.21 Z" id="Path" fill="#383753"></path>
                            <path d="M11.48,6.51 C9.21,6.51 5.7,5.95 3.61,7.12 C2.99,7.46 2.92,8.26 2.61,8.91 C2.18,9.91 0.82,16.91 5.22,18.01 C6.03,18.2 11.13,18.27 12.73,17.51 C13.1992927,17.2966453 13.6158281,16.9825366 13.95,16.59 C15.11,15.21 14.95,12.53 14.87,10.74 C14.67,6.91 13.59,6.51 11.45,6.51 L11.48,6.51 Z" id="Path" fill="#B16D60"></path>
                            <path d="M4.71,6.24 C5.71344548,7.50544892 7.23998799,8.24319684 8.855,8.24319684 C10.470012,8.24319684 11.9965545,7.50544892 13,6.24 L4.71,6.24 Z" id="Path" fill="#383753"></path>
                            <path d="M6.23,12.63 C6.10854014,12.6364279 5.99583149,12.6951943 5.92102528,12.7910997 C5.84621907,12.8870051 5.81666244,13.0106301 5.84,13.13 C5.86358659,13.2330601 5.92800422,13.3221283 6.01849567,13.3768003 C6.10898713,13.4314722 6.21779757,13.4470626 6.32,13.42 C6.46137198,13.3757021 6.57358263,13.2673411 6.62278688,13.127601 C6.67199113,12.9878609 6.65242869,12.833101 6.57,12.71 C6.47636306,12.6297409 6.34960038,12.5999144 6.23,12.63 L6.23,12.63 Z" id="Path" fill="#813F31"></path>
                            <path d="M11.42,12.62 C11.2957684,12.6612062 11.1956336,12.7544597 11.1457018,12.8754483 C11.0957699,12.996437 11.1009896,13.1331701 11.16,13.25 C11.2847599,13.4499366 11.5448985,13.5160736 11.75,13.4 C11.8723932,13.3281879 11.9475772,13.1969052 11.9475772,13.055 C11.9475772,12.9130948 11.8723932,12.7818121 11.75,12.71 C11.6507673,12.6101556 11.503474,12.5752704 11.37,12.62 L11.42,12.62 Z" id="Path" fill="#813F31"></path>
                            <path d="M8.92,14.4 L8.65,14.4 C8.60213832,14.3949809 8.55827947,14.3710054 8.52821657,14.3334267 C8.49815367,14.2958481 8.48439043,14.2477961 8.49,14.2 C8.50051922,14.0989889 8.58861366,14.0241086 8.69,14.03 C8.9911471,14.0751622 9.29891075,14.037124 9.58,13.92 L9.2,11.51 C9.18928203,11.4456922 9.21368603,11.3805514 9.26401924,11.3391154 C9.31435245,11.2976795 9.38296806,11.2862436 9.44401924,11.3091154 C9.50507042,11.3319873 9.54928203,11.3856922 9.56,11.45 L10,14 C10.0091021,14.0680369 9.98267662,14.1359882 9.93,14.18 C9.62229385,14.3510614 9.27097589,14.4275861 8.92,14.4 Z" id="Path" fill="#813F31" opacity="0.4"></path>
                            <path d="M8.81,16.13 C8.31575474,16.127666 7.83283925,15.9817491 7.42,15.71 C7.38015778,15.6835272 7.35249153,15.6422843 7.34311027,15.5953779 C7.33372901,15.5484716 7.3434044,15.4997603 7.37,15.46 C7.4021859,15.4250813 7.44751052,15.4052172 7.495,15.4052172 C7.54248948,15.4052172 7.5878141,15.4250813 7.62,15.46 C8.09011383,15.7647025 8.65985421,15.875784 9.21,15.77 C9.25782903,15.761344 9.30712574,15.7723991 9.34667806,15.8006507 C9.38623038,15.8289024 9.41267596,15.871949 9.42,15.92 C9.43183286,15.9666285 9.42335616,16.0160873 9.39667148,16.0561143 C9.36998681,16.0961413 9.32759279,16.1229886 9.28,16.13 C9.12365711,16.1442443 8.96634289,16.1442443 8.81,16.13 Z" id="Path" fill="#813F31"></path>
                            <path d="M4.87,11.49 C4.76697525,11.4904775 4.6686828,11.4467919 4.6,11.37 C4.45766524,11.2258866 4.45766524,10.9941134 4.6,10.85 C5.09193249,10.4066649 5.71913225,10.1423954 6.38,10.1 C6.52203324,10.0685058 6.66934073,10.123169 6.75644711,10.2396928 C6.84355348,10.3562166 6.85429016,10.5129721 6.78388489,10.6402845 C6.71347962,10.7675968 6.57500095,10.8418343 6.43,10.83 C5.93356196,10.8705626 5.46353212,11.0705007 5.09,11.4 C5.02817768,11.4527539 4.95107072,11.4842977 4.87,11.49 L4.87,11.49 Z" id="Path" fill="#383753"></path>
                            <path d="M13,11.49 C12.9116676,11.4904605 12.826249,11.4584285 12.76,11.4 C12.3837888,11.0685188 11.9099364,10.8684478 11.41,10.83 C11.2654071,10.8388096 11.1289728,10.7624282 11.0608983,10.6345588 C10.9928238,10.5066894 11.0056321,10.3508549 11.0936716,10.2358168 C11.1817111,10.1207787 11.328786,10.0676994 11.47,10.1 C12.1297906,10.1469312 12.7555738,10.4106039 13.25,10.85 C13.3871625,10.9961984 13.3871625,11.2238016 13.25,11.37 C13.184182,11.4392767 13.0952204,11.4819782 13,11.49 L13,11.49 Z" id="Path" fill="#383753"></path>
                        </g>
                    </g>
                    <g id="card_2-2" transform="translate(10.000000, 59.000000)">
                        <rect id="Rectangle" fill="#FFFFFF" fill-rule="nonzero" x="0.58" y="0.99" width="138" height="80" rx="12"></rect>
                        <rect id="Rectangle" fill="#D6DDE7" fill-rule="nonzero" x="37.76" y="17.57" width="80" height="5" rx="2.3"></rect>
                        <rect id="Rectangle" fill="#E7EBF1" fill-rule="nonzero" x="37.78" y="30.96" width="80" height="5" rx="2.3"></rect>
                        <rect id="Rectangle" fill="#A3E0FC" fill-rule="nonzero" x="37.61" y="45.19" width="31" height="5" rx="2.3"></rect>
                        <path d="M22,17.21 C21.557329,16.887579 20.937666,16.9811971 20.61,17.42 L18.83,19.83 L18.05,19.25 C17.7624012,19.037427 17.3832426,18.9944335 17.0553495,19.1372149 C16.7274565,19.2799962 16.5006438,19.5868605 16.4603495,19.9422149 C16.4200553,20.2975693 16.5724012,20.647427 16.86,20.86 L18.41,22 C18.6234045,22.1580723 18.890922,22.2247649 19.1535555,22.1853699 C19.416189,22.1459749 19.6523655,22.0037281 19.81,21.79 L22.17,18.58 C22.3280723,18.3665955 22.3947649,18.099078 22.3553699,17.8364445 C22.3159749,17.573811 22.1737281,17.3376345 21.96,17.18" id="Path" fill="#D6DDE7"></path>
                        <circle id="Oval" stroke="#D6DDE7" stroke-width="2" opacity="0.5" cx="19.37" cy="19.65" r="8"></circle>
                        <circle id="Oval" fill="#AA8DF7" fill-rule="nonzero" cx="19.6" cy="62.18" r="11"></circle>
                        <g id="character-2" transform="translate(10.000000, 52.000000)" fill-rule="nonzero">
                            <path d="M16.1,13.65 C16.39,13.48 20.72,4.65 14.59,5.08 C14.85,2.86 13.59,0.3 11.33,0.3 L11.33,0.3 C8.5,0.3 3.83,4.36 1.13,4.07 C0.19,3.83 0.81,5.26 1.44,6.07 C2.82,7.82 2.94,6.53 1.86,7.67 C1.47645486,8.07282626 1.24338019,8.59547856 1.2,9.15 C0.93,11.37 3.98,13.94 3.93,13.94 L16.1,13.65 Z" id="Path" fill="#FFD46A"></path>
                            <path d="M5.39,17.25 C8.051998,17.8496602 10.8186981,17.8050913 13.46,17.12 C15.94,16.3 16.29,15.07 16.06,11.19 C15.75,5.83 13.8,6.75 6.54,6.95 C4.19,7.02 3.85,9.61 3.89,12 C3.92,13.45 3.76,16.8 5.39,17.25 Z" id="Path" fill="#F9BBA5"></path>
                            <path d="M5.79,6.74 C5.79,6.74 9.17,9.96 13.79,6.55 L5.79,6.74 Z" id="Path" fill="#FFD46A"></path>
                            <path d="M7.25,12.24 C7.11723336,12.249328 6.99464643,12.3145086 6.91267096,12.4193609 C6.83069549,12.5242133 6.79701843,12.6589052 6.82,12.79 C6.88345761,13.0198931 7.118515,13.1573795 7.35,13.1 C7.50304487,13.0515985 7.62437231,12.9339691 7.67748651,12.7824953 C7.73060071,12.6310214 7.70930306,12.4633807 7.62,12.33 C7.51606189,12.2467249 7.38057483,12.2137686 7.25,12.24 L7.25,12.24 Z" id="Path" fill="#C1564D"></path>
                            <path d="M12.49,12.23 C12.3580805,12.2801573 12.2535025,12.3837303 12.2020738,12.5151593 C12.1506451,12.6465883 12.157156,12.7936309 12.22,12.92 C12.3499228,13.1379704 12.631815,13.2095621 12.85,13.08 C12.992428,13.0154056 13.0885557,12.8785752 13.1010272,12.7226822 C13.1134986,12.5667891 13.0403471,12.4164164 12.91,12.33 C12.7971003,12.2255508 12.6378554,12.1876353 12.49,12.23 L12.49,12.23 Z" id="Path" fill="#C1564D"></path>
                            <path d="M8.72,14.62 C9.39,16.36 10.72,16.33 11.13,14.62 C11.1487283,14.5539402 11.1355396,14.4829244 11.0943417,14.4279937 C11.0531437,14.3730631 10.9886613,14.3405176 10.92,14.34 L8.92,14.34 C8.8531168,14.3435234 8.79148112,14.3773224 8.75255215,14.431823 C8.71362318,14.4863235 8.70164109,14.5555894 8.72,14.62 L8.72,14.62 Z" id="Path" fill="#C1564D"></path>
                            <path d="M9.76,13.84 L9.76,13.84 C9.66665267,13.8302248 9.59442946,13.7537532 9.59,13.66 C9.59531286,13.5645141 9.67436656,13.4898523 9.77,13.49 C9.95787472,13.4857602 10.1397098,13.4228173 10.29,13.31 C10.2964002,13.2871056 10.2964002,13.2628944 10.29,13.24 C10.2380032,13.1811104 10.1773006,13.1305249 10.11,13.09 C9.7377808,12.9059071 9.53045775,12.4993913 9.6,12.09 L9.6,11.22 C9.6,11.172261 9.61896423,11.1264773 9.65272078,11.0927208 C9.68647733,11.0589642 9.73226103,11.04 9.78,11.04 C9.87548586,11.0453129 9.95014769,11.1243666 9.95,11.22 L9.95,12.14 C9.88,12.5 10.09,12.65 10.31,12.8 C10.53,12.95 10.65,13.03 10.64,13.24 C10.6320261,13.3588578 10.5782538,13.4699873 10.49,13.55 C10.2860911,13.7258248 10.0289765,13.8279662 9.76,13.84 Z" id="Path" fill="#D26E63" opacity="0.4"></path>
                            <path d="M7.17,14.48 C6.75160719,14.468279 6.34543334,14.3363593 6,14.1 C5.35024041,13.6571443 5.13164921,12.7999239 5.49,12.1 L5.49,12.1 C5.86002393,11.3378318 6.64315647,10.8640366 7.49,10.89 C8.17798929,10.9017683 8.78347974,11.3468639 9,12 C9.17819836,12.5744063 9.07238446,13.1993326 8.71502114,13.6830564 C8.35765782,14.1667803 7.79141074,14.4515498 7.19,14.45 L7.17,14.48 Z M5.75,12.23 C5.45544385,12.7809541 5.62876562,13.4655751 6.15,13.81 C6.78063711,14.2697596 7.64637717,14.2281375 8.23,13.71 C8.6572269,13.309153 8.82001919,12.7006199 8.65,12.14 C8.49049696,11.6064731 8.00664294,11.2355183 7.45,11.22 C6.73617941,11.1907854 6.07128313,11.5819009 5.75,12.22 L5.75,12.23 Z" id="Shape" fill="#4A4F6A"></path>
                            <path d="M12.68,14.48 C12.24734,14.4797723 11.8251077,14.3471704 11.47,14.1 C10.8163096,13.6599065 10.5968757,12.7993813 10.96,12.1 L10.96,12.1 C11.3280436,11.3360287 12.1124784,10.8614456 12.96,10.89 C13.6570695,10.8951065 14.2747402,11.3403107 14.5,12 C14.7409375,12.7069931 14.5452945,13.4895649 14,14 C13.6390865,14.325442 13.1656556,14.4975987 12.68,14.48 L12.68,14.48 Z M11.27,12.23 C10.9754439,12.7809541 11.1487656,13.4655751 11.67,13.81 C12.3006371,14.2697596 13.1663772,14.2281375 13.75,13.71 C14.1730762,13.3066799 14.3351881,12.7006902 14.17,12.14 C14.010497,11.6064731 13.5266429,11.2355183 12.97,11.22 C12.2561794,11.1907854 11.5912831,11.5819009 11.27,12.22 L11.27,12.23 Z" id="Shape" fill="#4A4F6A"></path>
                            <path d="M11,12.67 L10.9,12.67 C10.2705683,12.4588575 9.58943169,12.4588575 8.96,12.67 C8.91758084,12.6861588 8.87046107,12.6846819 8.82913713,12.6658983 C8.78781319,12.6471147 8.7557176,12.6125846 8.74,12.57 C8.72033233,12.5291734 8.71889989,12.4819215 8.7360584,12.4399784 C8.75321691,12.3980354 8.78735677,12.3653358 8.83,12.35 C9.53659737,12.1084741 10.3034026,12.1084741 11.01,12.35 C11.0988667,12.3829387 11.1469691,12.4791435 11.12,12.57 C11.0985889,12.620825 11.0538528,12.658105 11,12.67 Z" id="Path" fill="#4A4F6A"></path>
                            <path d="M3.89,13.2 C3.79988213,13.200156 3.72530092,13.129962 3.72,13.04 C3.71358788,12.9474818 3.77851972,12.8652348 3.87,12.85 L5.42,12.7 C5.51588149,12.6940885 5.59950833,12.7645111 5.61,12.86 C5.61560173,12.9067447 5.60156792,12.9537193 5.57124258,12.9897306 C5.54091724,13.0257419 5.4970161,13.0475651 5.45,13.05 L3.91,13.2 L3.89,13.2 Z" id="Path" fill="#4A4F6A"></path>
                            <path d="M16.12,13.22 L16.12,13.22 L14.41,13.05 C14.3291283,13.0305304 14.2721307,12.9581823 14.2721307,12.875 C14.2721307,12.7918177 14.3291283,12.7194696 14.41,12.7 L16.12,12.87 C16.1652187,12.8750028 16.2065455,12.8979215 16.234736,12.9336295 C16.2629265,12.9693374 16.2756282,13.0148549 16.27,13.06 C16.2656871,13.1427674 16.2023174,13.2103617 16.12,13.22 L16.12,13.22 Z" id="Path" fill="#4A4F6A"></path>
                            <g id="Group" opacity="0.3" transform="translate(2.000000, 2.000000)" fill="#FFFFFF">
                                <path d="M4.26,2.65 C4.17912834,2.63053038 4.12213075,2.55818228 4.12213075,2.475 C4.12213075,2.39181772 4.17912834,2.31946962 4.26,2.3 C6.04680524,2.19554672 7.75791087,1.54253294 9.16,0.43 C9.19037329,0.39555993 9.23407991,0.375830052 9.28,0.375830052 C9.32592009,0.375830052 9.36962671,0.39555993 9.4,0.43 C9.46730888,0.499741877 9.46730888,0.610258123 9.4,0.68 C7.94644326,1.85581915 6.16536136,2.55428263 4.3,2.68 L4.26,2.65 Z" id="Path"></path>
                                <path d="M7.13,4.26 C7.05891354,4.26039277 6.99508864,4.21651315 6.97,4.15 C6.93437529,4.06159681 6.97383804,3.96074754 7.06,3.92 C8.07736735,3.49420605 8.99890607,2.86851186 9.77,2.08 C9.83974188,2.01269112 9.95025812,2.01269112 10.02,2.08 C10.0873089,2.14974188 10.0873089,2.26025812 10.02,2.33 C9.21660852,3.15065489 8.25801077,3.80331719 7.2,4.25 L7.13,4.26 Z" id="Path"></path>
                                <path d="M0.84,7.43 C0.751741301,7.42562585 0.679710232,7.3578319 0.67,7.27 C0.610830412,6.7045178 0.729694086,6.13467136 1.01,5.64 C1.05810571,5.55585575 1.16420131,5.5249112 1.25,5.57 C1.33051559,5.62140504 1.35685256,5.72675292 1.31,5.81 C1.0661434,6.24095922 0.964648371,6.73793487 1.02,7.23 C1.02560957,7.27779606 1.01184633,7.32584812 0.981783426,7.36342674 C0.951720526,7.40100537 0.907861675,7.42498093 0.86,7.43 L0.84,7.43 Z" id="Path"></path>
                                <path d="M14.73,6.69 L14.73,6.69 C14.6345141,6.68468714 14.5598523,6.60563344 14.56,6.51 C14.5645267,5.99888414 14.4658924,5.49210812 14.27,5.02 C14.2523391,4.934281 14.2988938,4.84828163 14.3803226,4.8162036 C14.4617515,4.78412558 14.5544524,4.81526668 14.6,4.89 C14.8073907,5.40479323 14.9126787,5.95500831 14.91,6.51 C14.9050023,6.60726598 14.827266,6.6850023 14.73,6.69 Z" id="Path"></path>
                            </g>
                        </g>
                    </g>
                    <rect id="Rectangle" fill="#D6DDE7" fill-rule="nonzero" x="32.37" y="249.25" width="46" height="5" rx="2.3"></rect>
                    <g id="add-icon" transform="translate(9.000000, 244.000000)" fill-rule="nonzero">
                        <circle id="Oval" fill="#D6DDE7" cx="7.91" cy="7.81" r="7"></circle>
                        <path d="M8.89,6.83 L10.89,6.83 C11.29092,6.73862937 11.706904,6.90199484 11.9385045,7.24176923 C12.170105,7.58154362 12.170105,8.02845638 11.9385045,8.36823077 C11.706904,8.70800516 11.29092,8.87137063 10.89,8.78 L8.89,8.78 L8.89,10.83 C8.89,11.3822847 8.44228475,11.83 7.89,11.83 C7.33771525,11.83 6.89,11.3822847 6.89,10.83 L6.89,8.78 L4.89,8.78 C4.43499206,8.67630259 4.11220486,8.27167481 4.11220486,7.805 C4.11220486,7.33832519 4.43499206,6.93369741 4.89,6.83 L6.89,6.83 L6.89,4.78 C6.89,4.22771525 7.33771525,3.78 7.89,3.78 C8.44228475,3.78 8.89,4.22771525 8.89,4.78 L8.89,6.83 Z" id="Path" fill="#FFFFFF"></path>
                    </g>
                </g>
                <ellipse id="Oval-Copy-8" fill="#FFEAB6" cx="380" cy="9.5" rx="8.64285714" ry="8.70833333"></ellipse>
                <polygon id="Fill-1-Copy" fill="#BAF8DD" points="9.9998515 85.875 0.571428571 95.4993798 9.9998515 105.12376 19.4285714 95.4999862 19.4285714 95.4993798"></polygon>
                <mask id="mask-9" fill="white">
                    <use xlink:href="#path-8"></use>
                </mask>
                <use id="Fill-1-Copy-2" fill="#A6D1FC" transform="translate(236.714286, 339.333333) scale(-1, -1) translate(-236.714286, -339.333333) " xlink:href="#path-8"></use>
            </g>
        </g>
    </g>
</svg>