<svg xmlns="http://www.w3.org/2000/svg" viewBox="0 0 500 400"><defs><style>.cls-1{isolation:isolate;}.cls-2{fill:#d5c8fb;}.cls-3{fill:#aa8df8;}.cls-4{fill:#b26d5f;}.cls-5{fill:#ffd56a;}.cls-6{fill:#2b59ab;}.cls-7{fill:#a7acc5;}.cls-8{fill:#727491;}.cls-9{fill:#a3e0fc;}.cls-10{fill:#fff;}.cls-11{fill:#373753;}.cls-12{fill:#f03063;}.cls-13{fill:#c00839;}.cls-14{opacity:0.4;}.cls-15{fill:#823e30;}.cls-16{fill:#feb51f;}.cls-17{fill:#ffbda6;}.cls-18{fill:#494e6a;}.cls-19{fill:#2c2c2c;}.cls-20{fill:#0390a9;}.cls-21{fill:#005c6f;}.cls-22{fill:#ff7641;}.cls-23{fill:#ff83b6;}.cls-24{fill:#f45721;}.cls-25{fill:#c1564d;}.cls-26{fill:#d36e63;}.cls-27{fill:#63c0f9;}.cls-28{fill:#4da2f8;}.cls-29{fill:#e1e6ee;}.cls-30{opacity:0.3;}.cls-31{fill:#b3b9ce;}.cls-32{fill:#0b0e1f;}.cls-33{fill:#965342;}.cls-34{fill:#d1916d;}.cls-35{fill:#ff9c73;}.cls-36{fill:#ffcfb7;}.cls-37{fill:#935032;}.cls-38{fill:#b57352;}.cls-39{mix-blend-mode:multiply;}.cls-40{fill:#eeebf9;}</style></defs><title>Teamwork-Illustrations-</title><g class="cls-1"><g id="Layer_1" data-name="Layer 1"><path class="cls-2" d="M318.27,140.12c.6-10.39-40.51-3.6-40.92-2-2.14.28-1.62.51-2.53,13.55-.65,3.36,4.78.09,8.53,2.44,3.58,2.69.6,12.1-6.25,9a1.5,1.5,0,0,0-2.17,1.23,1.6,1.6,0,0,0-.08,1.12c.65,2.71.21,7.76.51,8.49.1,1.56,4,1.42,16.81,1.15-2.77,11.26,12.6,10.06,9.35-.35,3.26.51,13.58,1.05,14.51.45C317.32,174.38,318,144.59,318.27,140.12Z"/><path class="cls-3" d="M257.29,137.91c0-1.18-29.29-22.55-38.87-8.6-4.11,6-7.45,17.15-10.22,22.66-1,2.43-2.72,6.56,7.15,10,8.55,2.95,6.09.17,7.2-3,1-2.32,3.35-2.81,5.73-2,5.85,2.5.68,7.43.7,8.31,0,.19,1.65,2.79,11.48,6.4,1.43.91,2.58.39,3.07-.4.6-1,1.15-3.7,3.95-9.22,9.75,9.72,19.23-8.25,5.07-10.37,1.56-3.61,4.14-8.57,5.43-12.29A1.33,1.33,0,0,0,257.29,137.91Z"/><path class="cls-2" d="M255.4,201.33c0-1.08,0-1.61-12.63-1.19,5.81-14.08-20.23-10.61-13.78,1.13-9.42.16-14.5-.67-14.45,1.55.15,7.18,0,14.39.74,21.55.19,1.8,0,7.25.31,9,1.13,6.25,4.49,5.34,10.31,6.59,10.14,2.18,30.83,1.84,30-3,0,0,.13-.12-.65-10.91-.29-4.07-7.62,2.75-8.51-5.2-.36-5.25,4.48-6.75,6.61-4.34C256.71,220.4,256.65,202.23,255.4,201.33Z"/><path class="cls-3" d="M315.77,205.85c.49-11.49-5.21-9.43-9.72-9.09a1.81,1.81,0,0,0-1.66,2c.31,2.83-.16,7.49-6.94,6.22-4.26-.75-3.08-4.6-1.77-7.14a1.86,1.86,0,0,0-1.38-2.67c-7.11-1.09-14.45-2.61-15.12-.23-.77.72-.6,5.53-1.78,14.76-12.53-5.48-14.34,11.5-1.69,10.78-1.52,16.7-2,16.83-.59,17.27.5.86,28.44,9.15,35.71.39C316.89,230.85,315.78,205.89,315.77,205.85Z"/><path class="cls-4" d="M293.37,386.83a3.81,3.81,0,0,1-3.5-5.27A122.71,122.71,0,0,1,299,363.88a3.8,3.8,0,0,1,6.45,4,115.24,115.24,0,0,0-8.58,16.59A3.8,3.8,0,0,1,293.37,386.83Z"/><path class="cls-4" d="M378.67,371.54a3.77,3.77,0,0,1-2.44-.89l-5.16-4.31-9.39-7.86a3.8,3.8,0,1,1,4.87-5.84l9.4,7.87,5.16,4.32a3.8,3.8,0,0,1-2.44,6.71Z"/><path class="cls-4" d="M337.64,263.93a60.6,60.6,0,0,1-25.51-5.63c-11.81-5.57-20.43-14.62-24.25-25.5a3.8,3.8,0,1,1,7.17-2.52c3.14,8.94,10.36,16.45,20.32,21.14a52.27,52.27,0,0,0,31,4.13,3.8,3.8,0,0,1,1.37,7.48A56.49,56.49,0,0,1,337.64,263.93Z"/><path class="cls-5" d="M345.54,270.08c-3.65,1.85-5.15-14.74-2.73-15.41.95-.85.18.65,11.25-1a3.48,3.48,0,0,1,2.51.36Z"/><path class="cls-6" d="M375.13,354.23c.88-1.78-17.54-19.83-14.66-29.57a220.77,220.77,0,0,0,5.38-25.4S332,281.45,331.79,281.77c-3.26,3.05-3.82,5.6-5.84,9.36s-5.5,11.94-7.25,15.9c-.63,1.43-3.06,7-3.74,8.36-3.22,6.62-22,43.66-26.45,49.66-.25.34,0,.9.62,1.16,3.62,3.24,15.49,10,22.95,10.84l29.77-68.54c-.78,7.44-5.6,22.87-5.11,30.68.31,4.92,13.55,25.91,25.22,30.48C366.83,371.57,370,364.65,375.13,354.23Z"/><path class="cls-5" d="M374.86,258.37a1.6,1.6,0,0,1,1.52,1.65A150.34,150.34,0,0,1,373,282.4c-.53,2.1-5.54,20.27-7.58,21.12-1.57,2.63-17.11-2.47-28.12-13.18-1.41-1.36-6.78-6.8-5.52-8.57-.12-1.31.57-.94,10.08-12.14,11.2-13.28,12.16-17.21,14.45-15.74Z"/><path class="cls-7" d="M372.59,319.65a1.35,1.35,0,0,1,.5-1.82c5.09-2.88,10.16-6,15.13-9.06a1.35,1.35,0,0,1,1.83.5,1.22,1.22,0,0,1,.1.24c1.58,1.15,2.22,6.33,1,7.34-.23.43-13.39,6.23-16.5,6.2a1.33,1.33,0,0,1-1.15-.68Z"/><path class="cls-8" d="M369.81,339.6c13.23-11,4.53-31.43-12.54-26.55-12.93,3.68-17.88,23.65-4.51,28.35,5.8,2,12.12,2.3,17.05-1.8Z"/><path class="cls-9" d="M366.87,335.93c9.09-7.58,3.12-21.57-8.61-18.23-8.87,2.53-12.28,16.24-3.09,19.47,4,1.4,8.32,1.58,11.7-1.24Z"/><path class="cls-4" d="M385,323.51a3.8,3.8,0,0,1-2.38-6.76c5.86-4.72,7.78-10,6.2-17-1.44-6.46-5.78-14.49-14.07-26a3.8,3.8,0,0,1,6.17-4.43c12.91,18,25.12,38.44,6.46,53.44A3.8,3.8,0,0,1,385,323.51Z"/><path class="cls-5" d="M381.69,264.64a48.08,48.08,0,0,0-5.77-6.07,1.14,1.14,0,0,0-1.13-.06,1.13,1.13,0,0,0-.65,1c-.06,1.25-3.56,18.93-3.21,19.6a1.14,1.14,0,0,0,1.55.5c2.45-1,4.9-1.93,7.29-3,1.68-.75,8.09-3.6,7.43-5.3C387.18,271.05,387.26,271.38,381.69,264.64Z"/><path class="cls-10" d="M359.17,254.78c-1,.66-5.83,4.23-4.17,5.86,4.46,4.38,7.87,1.77,9.56,4.1,3.9,5.35,10.69,5.4,10.27-4.63l0-1.6Z"/><path class="cls-11" d="M290,383.2a6.41,6.41,0,0,0-1.79-1.34c-.79-.29-.93-.19-10.14.35-3.43.21-7.34.66-9.35,3.45a2.69,2.69,0,0,0-.6,1.72c.27,3.26,19.8,9.1,23,9.76,1.75.37,3.81.56,5.09-.69a5.15,5.15,0,0,0,1.23-3c.35-2.17,1-5.88-.88-7.56S292,384.81,290,383.2Z"/><path class="cls-11" d="M375.77,371.43a5.79,5.79,0,0,0-.62,2.31c-.74,5-3.86,9.35-4.44,14.32a2,2,0,0,0,.08,1.05,1.63,1.63,0,0,0,1.07.8c1.61.46,3.28-.38,4.67-1.3a29.7,29.7,0,0,0,10.94-13.33c.64-1.57,1.14-3.39.4-4.91a6.27,6.27,0,0,0-1.34-1.65c-1-1-4.84-5.1-5.3-3.6C379.45,370.94,376.26,370.67,375.77,371.43Z"/><path class="cls-4" d="M388.45,199.44c-19.11-3.9-27-3.95-33.91,16.15-6.68,19.28-.3,23.45,19.54,28.51,15.28,3.9,25.44,5.29,30.51-12.43,5.83-20.36-.26-29-16.14-32.23Z"/><path class="cls-10" d="M399,221c1.32-5-9.74-14.94-12.49-16.24-8-3.79-32.27,1.58-24.32,6.75C366.83,214.48,389.18,220.8,399,221Z"/><path class="cls-12" d="M352.67,215.22c.08.72.8,1.44,1.1,1.43.56.09,13.48-6.39,28.64-9.87,6.31,7.39,19.9,23.67,22.18,23.41a1.29,1.29,0,0,0,.88-.49c3.38-5,7-12.39,7.22-18.45.5-13.4-10.76-24.23-21.4-26.7-8.55-2-28.59,2.42-36,12.17C351.27,202,351.65,206.48,352.67,215.22Z"/><path class="cls-13" d="M353.78,217.31a.66.66,0,0,1-.29-1.26c13.86-6.64,28-10,46-14.2,2.93-.69,6-1.4,9.08-2.16a.66.66,0,0,1,.31,1.29l-9.09,2.15c-17.86,4.21-32,7.54-45.7,14.11A.58.58,0,0,1,353.78,217.31Z"/><path class="cls-13" d="M407.68,218.56a.65.65,0,0,1-.36-.1,80.37,80.37,0,0,1-15.45-12.68.66.66,0,0,1,0-.94.65.65,0,0,1,.93,0A78.5,78.5,0,0,0,408,217.34a.66.66,0,0,1,.2.92A.64.64,0,0,1,407.68,218.56Z"/><g class="cls-14"><path class="cls-15" d="M374.24,229.73h-.1a7.48,7.48,0,0,1-4.53-2.14.67.67,0,0,1-.1-.69L373,219a.68.68,0,0,1,.88-.34.67.67,0,0,1,.33.88L370.91,227a6.7,6.7,0,0,0,3.42,1.42.66.66,0,0,1-.09,1.32Z"/></g><path class="cls-11" d="M359.26,216.92a1.32,1.32,0,0,1-.6-2.5,11.86,11.86,0,0,1,7.61-1.09,1.32,1.32,0,0,1,1.05,1.55,1.34,1.34,0,0,1-1.55,1.05,9.13,9.13,0,0,0-5.9.84A1.34,1.34,0,0,1,359.26,216.92Z"/><path class="cls-11" d="M390.14,224.57A1.33,1.33,0,0,1,389,224a9.21,9.21,0,0,0-4.72-3.65,1.32,1.32,0,0,1,.85-2.5,11.87,11.87,0,0,1,6.08,4.7,1.32,1.32,0,0,1-1.1,2Z"/><path class="cls-13" d="M402.52,229.27a.66.66,0,0,1-.45-.18,225.24,225.24,0,0,1-19.77-21,.66.66,0,1,1,1-.84A225.14,225.14,0,0,0,403,228.12a.66.66,0,0,1,0,.94A.68.68,0,0,1,402.52,229.27Z"/><path class="cls-4" d="M378.86,242.38c-2.36,8.44-4.29,13.41-6,19.72-.15.57-3.95.16-5.85-.43-5-1.56-8.11-4.26-7.9-4.75,1.53-3.64,5.07-9,9.31-18.5a1.14,1.14,0,0,1,1.35-.77C378.08,241.15,379.22,241.11,378.86,242.38Z"/><path class="cls-13" d="M365.67,197.86c-3.21,0-6.16-.06-8.68-.21a.66.66,0,0,1-.62-.69.67.67,0,0,1,.7-.63c12.24.71,34.94-.42,46.71-2.31a.67.67,0,0,1,.76.55.65.65,0,0,1-.55.75C394.57,196.84,378.18,197.86,365.67,197.86Z"/><path class="cls-13" d="M397.85,188.78h-.06c-3.13-.3-6.05-.49-8.89-.68-4.49-.3-8.73-.59-13.56-1.25a.66.66,0,0,1-.57-.74.67.67,0,0,1,.75-.57c4.79.66,9,.94,13.47,1.24,2.84.19,5.78.38,8.92.69a.66.66,0,0,1-.06,1.31Z"/><path class="cls-13" d="M407.67,213.85a.68.68,0,0,1-.61-.39,68.19,68.19,0,0,1-3.35-10.65.65.65,0,0,1,.54-.75.66.66,0,0,1,.76.54,67.81,67.81,0,0,0,3.26,10.31.67.67,0,0,1-.33.88A.66.66,0,0,1,407.67,213.85Z"/><path class="cls-11" d="M352.94,220.89c6.51,1,5.18,12.51,8.06,13.87,3.85,1.82,14.65-11.09,21.46-.17,1.09,1.75,1.92,5.09,4.28,5.48,3.59.59,6.68-7.51,14-10.53a3.72,3.72,0,0,1,2.59-.08h0a3.66,3.66,0,0,1,2.51,2.9c.44,3-.89,6.29-3.73,9a20.32,20.32,0,0,0-2.48,2.71c-1.32,1.8-2.11,4-3.5,5.72a10.66,10.66,0,0,1-12.63,2.85c-6.16-3-4.37-4.23-11.66-1.61-6.74,2.43-7.92-4.17-9.81-6.11s-4.39-2.75-6.94-3.47C347.54,239.33,345,223,352.94,220.89Z"/><path class="cls-15" d="M374,236.65a10,10,0,0,1-4.2-.91.67.67,0,0,1-.33-.88.66.66,0,0,1,.88-.32,8.79,8.79,0,0,0,6.55.3.66.66,0,1,1,.45,1.24A10.08,10.08,0,0,1,374,236.65Z"/><path class="cls-16" d="M345.59,296.3a.69.69,0,0,1-.34-.09.65.65,0,0,1-.23-.9c3.06-5.21,5.88-10.29,8.37-15.1A157.53,157.53,0,0,1,363,264.12a.67.67,0,0,1,.92-.18.66.66,0,0,1,.17.92,156,156,0,0,0-9.53,16c-2.51,4.83-5.34,9.93-8.41,15.16A.67.67,0,0,1,345.59,296.3Z"/><path class="cls-16" d="M365.32,282.75a.59.59,0,0,1-.29-.07c-.59-.29-.73-.49-2.4-3l-.35-.53a.63.63,0,0,1-.08-.55,24.82,24.82,0,0,1,2.54-5.88.67.67,0,0,1,.78-.28,39.61,39.61,0,0,0,7,1.7.67.67,0,0,1,.45.29.64.64,0,0,1,.09.54,22.61,22.61,0,0,1-3.16,6.13.7.7,0,0,1-.32.24l-2,.69-2,.68A.57.57,0,0,1,365.32,282.75Zm-1.77-4.08.18.28a22.19,22.19,0,0,0,1.69,2.4l1.69-.58,1.78-.61a22.73,22.73,0,0,0,2.62-4.83,40.19,40.19,0,0,1-5.91-1.47A24,24,0,0,0,363.55,278.67Z"/><path class="cls-15" d="M385.81,229.73a.6.6,0,0,1-.22,0,.66.66,0,0,1-.4-.84,2.16,2.16,0,0,0-1.16-2.78c-.88-.4-2.14-.26-3,1.3a.67.67,0,0,1-.9.26.66.66,0,0,1-.26-.9,3.57,3.57,0,0,1,4.69-1.87,3.48,3.48,0,0,1,1.87,4.42A.66.66,0,0,1,385.81,229.73Z"/><path class="cls-15" d="M365.54,224.43h-.12a.66.66,0,0,1-.53-.77,2.17,2.17,0,0,0-1.59-2.56c-.94-.25-2.16.09-2.75,1.77a.66.66,0,0,1-1.25-.44,3.58,3.58,0,0,1,4.33-2.61,3.49,3.49,0,0,1,2.56,4.07A.67.67,0,0,1,365.54,224.43Z"/><path class="cls-17" d="M439.46,193.12a3.78,3.78,0,0,1-2.37-.83A88.62,88.62,0,0,1,421,175.69a3.8,3.8,0,0,1,6.1-4.53,81.3,81.3,0,0,0,14.69,15.19,3.8,3.8,0,0,1-2.36,6.77Z"/><path class="cls-18" d="M439.45,193.5a4.08,4.08,0,0,1-2.59-.91c-1.63-1.29-3.24-2.66-4.77-4.07-1.71-1.56,4-7.72,5.65-6.16,1.39,1.27,2.85,2.51,4.32,3.69a4.18,4.18,0,0,1-2.61,7.45Z"/><path class="cls-17" d="M402.45,177.23a4.2,4.2,0,0,1-.92-.11,74.54,74.54,0,0,1-22.22-9.56,3.8,3.8,0,0,1,4.09-6.4,67.09,67.09,0,0,0,20,8.58,3.8,3.8,0,0,1-.91,7.49Z"/><path class="cls-18" d="M402.45,177.61a4.42,4.42,0,0,1-1-.12c-2.07-.52-4.14-1.13-6.16-1.82-2.19-.74.51-8.66,2.7-7.91,1.8.61,3.64,1.15,5.47,1.61a4.18,4.18,0,0,1-1,8.24Z"/><path class="cls-19" d="M405.85,134.67v0Z"/><path class="cls-20" d="M438.7,168.62c-17.82-12.91-27.13-24.81-30.89-29.84a16.17,16.17,0,0,1-2.73-5.74c-7.73-31-24.06-51.76-27.08-51.4a1.36,1.36,0,0,0-.91.52L352.34,109.1c-2.64,2.47-8.85,32.47-8.77,34.64-2.05,6.12,37.64,38.32,42.74,33.15.75-.45,5.4-5.76,7.52-15.21,3.4,4.69,18.05,23.84,23.73,24.79,4,2.2,18.31-10.17,21.14-15.35a3.23,3.23,0,0,0,.42-1.66A1,1,0,0,0,438.7,168.62ZM389.07,155c-23.53-15.67-22.77-15.33-22.38-16.52,1.42-4.28,5.32-18.31,7.4-21.5,2.54,9.27,10.3,31.81,13.27,35.7.38.5.77,1,1.14,1.51Z"/><path class="cls-21" d="M380.47,93a10.92,10.92,0,0,1-4.61-1.08.66.66,0,1,1,.55-1.19,8.25,8.25,0,0,0,8.69-.61.67.67,0,0,1,.93.13.66.66,0,0,1-.13.92A8.81,8.81,0,0,1,380.47,93Z"/><path class="cls-21" d="M350.56,115.71a.66.66,0,1,1,0-1.32,4.49,4.49,0,0,0,3.08-1.94,3.64,3.64,0,0,0,.68-3.2.66.66,0,1,1,1.26-.4,4.86,4.86,0,0,1-.88,4.38A5.67,5.67,0,0,1,350.56,115.71Z"/><path class="cls-17" d="M311.16,150.53a3.8,3.8,0,0,1-1.53-7.27c10.08-4.44,26.22-16.62,21.11-48.4a3.8,3.8,0,0,1,7.51-1.2c2.32,14.43.83,26.88-4.43,37a42.88,42.88,0,0,1-21.13,19.56A3.72,3.72,0,0,1,311.16,150.53Z"/><path class="cls-22" d="M305.24,30.73c4.95.72.1-25-14.48-21.26h0c-10.95,2.77-27,24.15-8.17,33.41a12.48,12.48,0,0,0,8.8,1Z"/><path class="cls-17" d="M414,108.91a3.8,3.8,0,0,1-3.48-2.27A65.29,65.29,0,0,0,362.2,69.35a3.8,3.8,0,0,1,1.2-7.51,72.64,72.64,0,0,1,54.11,41.74,3.79,3.79,0,0,1-3.47,5.33Z"/><path class="cls-23" d="M332.17,79.26c-1.47,3.08-7.19,16.89-4.78,18.18,1.71,1.88,14.66-1,15.11-4.1C342.51,93.31,333.56,76.34,332.17,79.26Z"/><path class="cls-23" d="M362.91,59.43a.91.91,0,0,0-1-.8,1,1,0,0,0-.23.06c-4.48,1.85-9,3.48-13.6,5.13a.92.92,0,0,0-.5,1.2c.36.9,13.18,7.37,13.6,7.54a.91.91,0,0,0,1.2-.49,22.4,22.4,0,0,0,1-6.29A28.16,28.16,0,0,0,362.91,59.43Z"/><path class="cls-22" d="M290.82,64.42c-1.06.82-.44,5.81.07,7.21,1,2.75,4.75,3.89,7.38,4.55A3.8,3.8,0,0,1,301.15,80c-.07,2.06.34,4.4,4.62,4.82,3.74.38,4.73-.42,4.77,1.8-.06,1.19-.78,3,.91,3.19,2.31.33,2.8-6.06-.77-7.21-2.35-.75-5.66.17-6.77-1.33-.55-1.23.85-3.85-.68-5.79-2-2.57-3-.49-8.67-3.54-1.44-.89-1.64-2.12-1.61-5.78,0-.62.18-1.84-1.12-2a1.31,1.31,0,0,0-1,.26Z"/><path class="cls-17" d="M308.23,27c-36,10.9-20.06,63.66,13.23,44.55C346.54,57.16,334.87,19,308.23,27Zm23.71,15.14Zm-12,27.2Z"/><path class="cls-23" d="M379.12,82.3c.11-1.69-29.57-18.87-30.35-18.32-1.65-.51-2.46,1.89-11.27,10.82-4.11,4.09-5.87,3.66-5.07,5.16-.14,1.54,18.55,29.21,18.88,29.5,1.36,4.24,18-8.32,23.76-16.64C376.29,91.06,380.43,83.86,379.12,82.3Z"/><path class="cls-22" d="M307.55,25.91c-20.79,6.3-23.57,27.68-16.37,40,2,4.9,2.54,2.31,4.94-3.23,2.79-6.44-.78-10.15,2.77-11.12,9.58-2.6,7.65-11.89,11.87-11.46,6.46.66,8.08-3.53,10.28-.81a13.3,13.3,0,0,0,11.84,4.64,4.26,4.26,0,0,0,1.85-1.17C332.26,31.46,321.67,21.64,307.55,25.91Z"/><path class="cls-22" d="M330.4,44c2.69.24,5.83-1.17,7.9.67,1.45,1.65.5,4.06,1.6,6.66,1.43,3.35,5,2.89,6,3.42,1.44,1,.12,4.15,2.4,3.88a1.36,1.36,0,0,0,1.17-1.48c-.4-5.42-3.28-5-5.66-5.57-3.83-1.28.48-8.47-6.43-10.34-2.45-.66-4.28.42-6.27,0C329.15,40.54,327.63,43.72,330.4,44Z"/><path class="cls-7" d="M420.51,100.74c-1.53,0-20.57,10.05-21.18,11.72-7-4-17.18.86-16.46,9.14a1.66,1.66,0,0,0,2.52,1.27l5.93-3.64a3.06,3.06,0,0,1,3.81.49l.06.06a3.06,3.06,0,0,1-.51,4.67c-4.62,3.06-6.72,4.72-6.26,6.14-.85,1.74,5.12,4.47,11,1.19,3.84-2.15,6.42-7.71,6-12.07,18.73-10.35,18.42-9.76,18.42-10.94C424.78,107.78,423.06,99.55,420.51,100.74Z"/><path class="cls-7" d="M391.35,125h0S391.39,124.93,391.35,125Z"/><path class="cls-17" d="M415.39,111.5a3.81,3.81,0,0,1-3.48-2.27c-.6-1.37-2.63-5.35-3.41-6.81a3.8,3.8,0,0,1,6.69-3.6c.75,1.4,2.92,5.63,3.68,7.35a3.81,3.81,0,0,1-1.95,5A4,4,0,0,1,415.39,111.5Z"/><path class="cls-24" d="M292.13,35.67a11.35,11.35,0,0,1-8.21-3.21c-3.16-3.11-4.62-8.23-4.13-14.4a.68.68,0,0,1,.54-.6c8.47-1.53,14.48-.18,20.18,11.23a.66.66,0,0,1-1.19.59c-5.26-10.56-10.32-12-18.25-10.6-.34,5.54,1,10.09,3.78,12.84a10.38,10.38,0,0,0,8.58,2.77.66.66,0,0,1,.13,1.32C293.07,35.65,292.59,35.67,292.13,35.67Z"/><path class="cls-24" d="M288.29,45.55h-.15a.66.66,0,0,1-.49-.8,25.59,25.59,0,0,1,18.48-18.58.66.66,0,0,1,.31,1.29A24.25,24.25,0,0,0,288.93,45,.65.65,0,0,1,288.29,45.55Z"/><path class="cls-24" d="M326.13,34.32a.66.66,0,0,1-.5-.23c-1.32-1.55-2.9-3.09-4.62-2.77a5.48,5.48,0,0,0-1.15.41,4.4,4.4,0,0,1-5.29-.77,9.33,9.33,0,0,0-1.68-1,5.23,5.23,0,0,0-4.16.43,17.27,17.27,0,0,0-3.7,2.82.66.66,0,0,1-.89-1,17.93,17.93,0,0,1,4-3,6.52,6.52,0,0,1,5.22-.48,10,10,0,0,1,1.94,1.09A4.53,4.53,0,0,0,318,31a4.63,4.63,0,0,0,1.34-.43,7.1,7.1,0,0,1,1.43-.5c2.4-.45,4.4,1.48,5.87,3.21a.67.67,0,0,1-.07.94A.68.68,0,0,1,326.13,34.32Z"/><path class="cls-24" d="M294.18,54a.66.66,0,0,1-.65-.57,8.88,8.88,0,0,1,4.15-8.62c.4-.23.82-.44,1.22-.63a9.33,9.33,0,0,0,1.73-1,2.15,2.15,0,0,0,.91-2.27.67.67,0,0,1,.36-.87.66.66,0,0,1,.86.36,3.44,3.44,0,0,1-1.3,3.81,10.78,10.78,0,0,1-2,1.16c-.4.19-.77.37-1.12.58a7.51,7.51,0,0,0-3.52,7.3.66.66,0,0,1-.57.74Z"/><path class="cls-24" d="M295.5,41.74h-.11a.67.67,0,0,1-.54-.77,8.73,8.73,0,0,1,3.57-5.62.66.66,0,1,1,.76,1.08,7.45,7.45,0,0,0-3,4.77A.66.66,0,0,1,295.5,41.74Z"/><path class="cls-25" d="M314.92,50.22a1.74,1.74,0,0,1,2.56.54,1.66,1.66,0,0,1-.78,2.18,1.87,1.87,0,0,1-2.63-1.56,1.55,1.55,0,0,1,.85-1.16Z"/><path class="cls-25" d="M299.38,63.38a1.87,1.87,0,0,1,2.48,1.3,1.77,1.77,0,0,1-1.43,2,1.65,1.65,0,0,1-2-2,1.6,1.6,0,0,1,.95-1.29Z"/><path class="cls-25" d="M317.57,60c2.33,6.65-1.49,9.74-7,5.79a.84.84,0,0,1-.06-1.33l5.77-4.81A.84.84,0,0,1,317.57,60Z"/><g class="cls-14"><path class="cls-26" d="M309.6,60.91h-.16a1.65,1.65,0,0,1-1.2-.53,2.13,2.13,0,0,1-.12-2.08c.27-1,.52-1.89-.56-2.78l-.09-.08-2.18-2.57a.66.66,0,0,1,.08-.93.65.65,0,0,1,.93.07l2.14,2.53a3.53,3.53,0,0,1,.95,4.11,2.81,2.81,0,0,0-.15.87.61.61,0,0,0,.28.07,3.18,3.18,0,0,0,1.93-.73.66.66,0,0,1,.88,1A4.56,4.56,0,0,1,309.6,60.91Z"/></g><path class="cls-18" d="M316.74,57.11h-.42a7.19,7.19,0,0,1-6.22-4.36,6.15,6.15,0,0,1,1.56-7,8.12,8.12,0,0,1,8.82-1.46h0a5.9,5.9,0,0,1,3.45,7.06A7.69,7.69,0,0,1,316.74,57.11Zm.51-12.25a6.91,6.91,0,0,0-4.69,1.81,4.89,4.89,0,0,0-1.23,5.59,5.93,5.93,0,0,0,5.07,3.52,6.32,6.32,0,0,0,6.25-4.8,4.6,4.6,0,0,0-2.74-5.55A6.32,6.32,0,0,0,317.25,44.86Z"/><path class="cls-18" d="M300.82,70.6h-.43a7.16,7.16,0,0,1-6.21-4.36,6.15,6.15,0,0,1,1.55-7,8.12,8.12,0,0,1,8.82-1.46h0A5.89,5.89,0,0,1,308,64.79,7.68,7.68,0,0,1,300.82,70.6Zm.51-12.25a6.93,6.93,0,0,0-4.7,1.81,4.87,4.87,0,0,0-1.22,5.59,5.91,5.91,0,0,0,5.06,3.52,6.3,6.3,0,0,0,6.25-4.8A4.59,4.59,0,0,0,304,58.92,6.36,6.36,0,0,0,301.33,58.35Z"/><path class="cls-18" d="M305.56,59.59a.67.67,0,0,1-.56-1,12.89,12.89,0,0,1,6.3-5.31.66.66,0,0,1,.4,1.26,11.76,11.76,0,0,0-5.58,4.76A.67.67,0,0,1,305.56,59.59Z"/><path class="cls-18" d="M322.42,47.2a.64.64,0,0,1-.54-.29A.66.66,0,0,1,322,46l9.87-6.85a.66.66,0,1,1,.75,1.09l-9.86,6.85A.68.68,0,0,1,322.42,47.2Z"/><path class="cls-18" d="M294.25,71.46a.65.65,0,0,1-.46-.19.66.66,0,0,1,0-.93L296.05,68a.65.65,0,0,1,.93,0,.66.66,0,0,1,0,.93l-2.27,2.33A.67.67,0,0,1,294.25,71.46Z"/><path class="cls-21" d="M415.78,185.57a.68.68,0,0,1-.6-.37.67.67,0,0,1,.31-.89c5.88-2.84,16.65-11.91,20.11-16.34a.66.66,0,0,1,.92-.12.67.67,0,0,1,.12.93c-3.53,4.54-14.56,13.81-20.57,16.72A.65.65,0,0,1,415.78,185.57Z"/><path class="cls-21" d="M382.91,176.65a.61.61,0,0,1-.42-.16.65.65,0,0,1-.08-.93c1.65-1.95,6.34-12.57,7.49-17a.67.67,0,0,1,.81-.47.66.66,0,0,1,.47.81c-1.21,4.6-6,15.38-7.76,17.47A.65.65,0,0,1,382.91,176.65Z"/><path class="cls-21" d="M393.81,163.34a.67.67,0,0,1-.55-.29c-.92-1.35-1.86-2.64-2.77-3.89s-1.86-2.56-2.79-3.93a.66.66,0,1,1,1.09-.74c.92,1.35,1.86,2.64,2.77,3.89s1.86,2.56,2.8,3.93a.67.67,0,0,1-.18.92A.62.62,0,0,1,393.81,163.34Z"/><path class="cls-12" d="M365,102.12a.68.68,0,0,1-.55-.28c-1.36-2-7-8.44-10.43-12.31-1.08-1.23-1.94-2.21-2.4-2.75a.66.66,0,1,1,1-.85c.45.53,1.31,1.51,2.39,2.73,3.41,3.89,9.11,10.39,10.52,12.42a.66.66,0,0,1-.17.92A.63.63,0,0,1,365,102.12Z"/><path class="cls-17" d="M332.2,58.81h0a1.4,1.4,0,0,1,1,.27c13.63,9.12,12.12,8.43,12.2,8.69a1.35,1.35,0,0,1,1,1.47c-.65,6.19-7.47,9.26-9.39,8.68a3.51,3.51,0,0,0-.72-.13c-1.23-.16-2.77-2.32-9.65-10.43a1.34,1.34,0,0,1,.24-1.87S331,59,332.2,58.81Z"/><path class="cls-12" d="M353.34,93.82a.68.68,0,0,1-.58-.33.66.66,0,0,1,.25-.9,18.61,18.61,0,0,0,4.21-3.29.66.66,0,0,1,1,.92,20.23,20.23,0,0,1-4.51,3.52A.8.8,0,0,1,353.34,93.82Z"/><path class="cls-12" d="M358.67,98.42a.63.63,0,0,1-.59-.37.65.65,0,0,1,.3-.88,15.68,15.68,0,0,0,3.48-2.33.66.66,0,1,1,.88,1A16.88,16.88,0,0,1,359,98.36.72.72,0,0,1,358.67,98.42Z"/><path class="cls-12" d="M352.08,87H352c-3.44-.37-14.81-5.94-17.66-8a.66.66,0,0,1,.76-1.08c2.5,1.76,12.2,6.56,16.18,7.55-.72-4.41-3.2-14.15-4.85-16.79a.66.66,0,0,1,1.12-.7c2,3.25,4.72,14.61,5.18,18.23a.66.66,0,0,1-.18.55A.67.67,0,0,1,352.08,87Z"/><path class="cls-12" d="M341.05,95.44a.67.67,0,0,1-.51-.24,10.71,10.71,0,0,1-1.33-2,.66.66,0,0,1,1.18-.6,9.18,9.18,0,0,0,1.16,1.73.66.66,0,0,1-.07.93A.72.72,0,0,1,341.05,95.44Z"/><path class="cls-12" d="M362.23,71.65a.69.69,0,0,1-.24-.05c-.91-.35-1.84-.68-2.78-1a.66.66,0,0,1,.4-1.26c1,.31,1.92.65,2.86,1a.66.66,0,0,1-.24,1.28Z"/><path class="cls-17" d="M123.52,181.33a3.79,3.79,0,0,1-2.42-6.72c3.39-2.81,6.78-5.72,10.07-8.64a3.8,3.8,0,1,1,5.05,5.68c-3.36,3-6.82,5.95-10.28,8.81A3.73,3.73,0,0,1,123.52,181.33Z"/><path class="cls-12" d="M132,196.36c.49,3-5.14.79-6,.52-5-1.46-12.21-14.67-10.72-18.39.74-1.83,4.55-5.39,6.65-4,1.09.73,1.13,2.54,1.85,3.59C125.91,181.29,129.69,182.1,132,196.36Z"/><path class="cls-17" d="M90.4,106a3.71,3.71,0,0,1-.74-.07c-4.26-.84-8.55-1.8-12.76-2.86a3.8,3.8,0,1,1,1.84-7.37c4.09,1,8.26,2,12.39,2.77A3.8,3.8,0,0,1,90.4,106Z"/><path class="cls-27" d="M179.69,100.06a1.34,1.34,0,0,0-1.34-1.33c-30.43-26.38-29-26.29-30.35-25C140.07,81.34,132.25,94,126.18,98.4c-2.36-.12-4.71-.36-7.05-.66-7.35-1-26.46-5.13-27.68-4.38a1.33,1.33,0,0,0-1.56.6c-3.11,5.9-4.89,6.41-5.28,13-.1,1.61.06,7,1.7,7.51.5,1.51,26.89,8.09,49.9,5a5.27,5.27,0,0,0,3-1.09c6.55-5.12,17.51-15.07,17.5-15.33.24,5.59-1.24,22.1-1.46,26.8a10.13,10.13,0,0,1-2.64,6.35c-19.64,21.47-27.39,24.09-26,26-.6,1.6,6.34,15.91,15,18.16a1.81,1.81,0,0,0,2.31-.25c5.25-5,26.11-26.37,32.37-37.11a11.66,11.66,0,0,0,1.57-5.43C178.11,131,179,111.45,179.69,100.06Z"/><path class="cls-12" d="M77.21,96.4a10,10,0,0,0-1.87,6,16.42,16.42,0,0,1-.25,3.43c-2.77,14.63-6.32,18.72-7.93,16.12-7.19-11.6-4.27-33.22.92-31,2.68,1.15,5.72,3.27,8.65,4.08A.87.87,0,0,1,77.21,96.4Z"/><path class="cls-28" d="M178.38,106.34l-.15,0c-12.24-2.92-30.89-22.94-33-28.83a.65.65,0,0,1,.4-.84.66.66,0,0,1,.84.4c2,5.56,20.42,25.21,32,28a.67.67,0,0,1,.49.8A.68.68,0,0,1,178.38,106.34Z"/><path class="cls-28" d="M143.66,83.58a13.93,13.93,0,0,1-3.09-.34.67.67,0,0,1-.5-.8.66.66,0,0,1,.79-.49,12.67,12.67,0,0,0,7.21-.48.67.67,0,0,1,.85.39.65.65,0,0,1-.39.85A13.89,13.89,0,0,1,143.66,83.58Z"/><path class="cls-28" d="M178.19,112.38a.69.69,0,0,1-.36-.11,8.92,8.92,0,0,1-3.93-7.54.65.65,0,0,1,.66-.64h0a.66.66,0,0,1,.65.68,7.55,7.55,0,0,0,3.34,6.39.67.67,0,0,1,.19.92A.68.68,0,0,1,178.19,112.38Z"/><path class="cls-28" d="M149.5,85.64a.68.68,0,0,1-.52-.25.67.67,0,0,1,.11-.93,41.49,41.49,0,0,0,3.31-2.91.66.66,0,0,1,.92,1,44.32,44.32,0,0,1-3.41,3A.7.7,0,0,1,149.5,85.64Z"/><path class="cls-28" d="M170.69,103.91a.67.67,0,0,1-.55-1,14.87,14.87,0,0,0,1.62-3.33A.66.66,0,1,1,173,100a16.38,16.38,0,0,1-1.78,3.64A.68.68,0,0,1,170.69,103.91Z"/><path class="cls-17" d="M226.92,132.51a3.79,3.79,0,0,1-2.41-.86c-11.65-9.53-19.71-22.85-26.82-34.59a3.8,3.8,0,0,1,6.5-3.94c7.13,11.77,14.5,23.95,25.13,32.65a3.8,3.8,0,0,1-2.4,6.74Z"/><path class="cls-17" d="M132.88,100.56a3.79,3.79,0,0,1-3.78-3.49c-.59-7.25-.92-14.95.68-22.17,2.06-9.35,7-15.65,14.64-18.72a3.8,3.8,0,1,1,2.83,7.06c-11.3,4.53-11.76,18.64-10.58,33.22a3.8,3.8,0,0,1-3.48,4.09Z"/><path class="cls-7" d="M238.13,65.41a1.32,1.32,0,0,1-.76-2.4c6.24-4.43,12.85-10,14.53-17.5,1.76-7.89-1.26-21.12-9.21-28.73a1.32,1.32,0,0,1,1.83-1.91c8.61,8.24,11.87,22.62,10,31.22-1.87,8.39-8.93,14.36-15.58,19.08A1.37,1.37,0,0,1,238.13,65.41Z"/><path class="cls-7" d="M238.17,59.71c-1-1.77-3.65,1.7-12.82,6.75-.64.36-.39,2.62.07,3.29,1.72,3.78,12.32,3.76,14.62-6.52C240.34,61.89,238.17,59.71,238.17,59.71Z"/><path class="cls-17" d="M237.72,29c-13.3-14.27-19.65-18.86-37-6.53-16.62,11.82-13.86,18.91-.64,34.56,10.18,12,17.65,19.07,32.07,7.58,16.56-13.19,16.61-23.75,5.56-35.61Z"/><path class="cls-11" d="M193.78,66.26c.07-1.48-5.35-4.14-10.23-10.42a7.83,7.83,0,0,0-1.82-2.19c-3.81-2.72-27.3,14.88-32.62,19.3-.94.77-1.8,1.78-1.1,2.77,17.57,24.7,32.05,27.82,33.1,24.25C181.13,99.93,194.48,67.05,193.78,66.26Z"/><path class="cls-11" d="M161.74,50.86a87.92,87.92,0,0,0-11.7.47c-1.08.13-7.91,1-8.69,1.79-3.71.21,2.21,11.59,3.51,15.15a1.3,1.3,0,0,0,1,.81,1.11,1.11,0,0,0,.62.07c10.81-2.31,14.91-3.71,16.47-4.47,1.73-.84,3.52-1.58,5.33-2.25,5.3-2,14.78-5.55,13.95-8.13S168.24,51,161.74,50.86Z"/><path class="cls-11" d="M208.34,92.39c-13.79-18.23-13.15-27.3-15.88-27-4.76.54-7.34,14.19-7.34,14.19-.54,10.79,8,23,10.33,23.13C197.29,104,209.53,94,208.34,92.39Z"/><polygon class="cls-19" points="195.56 70.49 195.56 70.49 195.56 70.49 195.56 70.49"/><path class="cls-29" d="M194.53,29.75a1.32,1.32,0,0,0-.41.95,19.91,19.91,0,0,0,.76,4.2,23.74,23.74,0,0,0,1.53,3.78c1.23,2.46,2.81,4.73,4.27,7.06A1.34,1.34,0,0,0,203,44.43a61.56,61.56,0,0,1-5-8.69,18.75,18.75,0,0,1-1.13-4.23c0-.27-.05-.53-.07-.8a1.41,1.41,0,0,0-.38-.94,1.33,1.33,0,0,0-1-.4h-.15a1.3,1.3,0,0,0-.78.37Z"/><path class="cls-7" d="M206.33,44.9c-2.24-3.88-8.24-.58-6.05,3.32a9.32,9.32,0,0,0,5.46,4.13C210.84,53.93,208.53,48.68,206.33,44.9Z"/><path class="cls-5" d="M225.85,31.12c2.63,5.44,3.14,12.33,5.88,18.38,10.76,23.69,43.21-5.23,26-18.23-2.13-1.61-7.34-1.12-10.36-1A46.64,46.64,0,0,0,240.87,21c-11.06-11.24-23.17-10.84-35.15-3.82a3.27,3.27,0,0,0,.8,3.24c3.33,3.95-1.7,5.07-3,6.51-1,1.14.15,3.07,2.88,1.21C215.08,22.25,218.56,16.05,225.85,31.12Z"/><path class="cls-7" d="M192.34,31.71c.22.31,1.08.21,1.43.26,1.18.17,11.32-7.2,12.89-8.35s.85-2.21.71-2.71C203.35,6,177.91,25.16,192.34,31.71Z"/><g class="cls-30"><path class="cls-10" d="M246.31,51.06a8.25,8.25,0,0,1-3-.58c-3.59-1.4-5.7-5-5.49-9.48a13.32,13.32,0,0,1,9.6-12.19.67.67,0,0,1,.82.46.66.66,0,0,1-.46.81,12,12,0,0,0-8.64,11c-.18,3.86,1.6,7,4.65,8.19a7.72,7.72,0,0,0,7.76-1.49c2.65-2.14,4.28-5.54,3.88-8.09a3.84,3.84,0,0,0-2.65-3.11,4.72,4.72,0,0,0-5.33,1.87c-1,1.25-1.4,2.7-.94,3.37s1.34.59,2.72.18a.66.66,0,1,1,.37,1.27c-2.56.75-3.69,0-4.19-.71-.8-1.19-.4-3.17,1-4.93s4-3.37,6.84-2.29a5.14,5.14,0,0,1,3.48,4.15c.49,3-1.3,6.87-4.35,9.32A9.61,9.61,0,0,1,246.31,51.06Z"/></g><g class="cls-30"><path class="cls-10" d="M236.26,26.05c-2.28,0-3.75-1.76-5.28-3.61-2.08-2.5-4.44-5.34-9.61-4.86a.66.66,0,0,1-.12-1.32c5.86-.53,8.57,2.72,10.75,5.34,2,2.41,3.26,3.74,5.73,2.84a.66.66,0,1,1,.45,1.24A5.74,5.74,0,0,1,236.26,26.05Z"/></g><g class="cls-30"><path class="cls-10" d="M234.23,36a.74.74,0,0,1-.25,0c-1.85-.76-2.26-2.51-2.65-4.2-.45-1.94-.91-3.94-3.33-5.32a.66.66,0,0,1,.66-1.15c2.91,1.67,3.49,4.16,4,6.17.41,1.77.7,2.8,1.86,3.27a.67.67,0,0,1-.25,1.28Z"/></g><path class="cls-17" d="M201.74,53.6C201.73,55.06,191,65.93,191,66a1.41,1.41,0,0,1-1.32.38c-4.57-1.06-8.49-6.31-7.23-11.09.31-1.19,2.64-2.46,11.53-8.29a1.35,1.35,0,0,1,1.84.48S201.74,52.31,201.74,53.6Z"/><path class="cls-7" d="M205,20.38a1.32,1.32,0,0,1-.64-2.47l2.89-1.64c11.42-6.53,24.37-13.94,38.47-.44a1.32,1.32,0,0,1-1.83,1.91c-12.67-12.13-24.19-5.54-35.33.82l-2.91,1.66A1.39,1.39,0,0,1,205,20.38Z"/><path class="cls-31" d="M190.45,30.22a.67.67,0,0,1-.59-.37.66.66,0,0,1,.3-.88c5.25-2.58,9.87-6,15.17-10.29a.66.66,0,0,1,.84,1c-5.38,4.36-10.06,7.81-15.42,10.44A.66.66,0,0,1,190.45,30.22Z"/><path class="cls-31" d="M196.05,30.31a.66.66,0,0,1-.45-.18A5.71,5.71,0,0,1,194,27.65a.66.66,0,0,1,1.26-.4,4.36,4.36,0,0,0,1.22,1.91.67.67,0,0,1,0,.94A.67.67,0,0,1,196.05,30.31Z"/><path class="cls-31" d="M200.69,27.39a.68.68,0,0,1-.54-.28l-1.55-2.19a.67.67,0,0,1,.15-.92.66.66,0,0,1,.92.16l1.56,2.19a.66.66,0,0,1-.54,1Z"/><path class="cls-31" d="M205,24.72a.65.65,0,0,1-.6-.39l-.28-.57a8.19,8.19,0,0,1-.87-2.2.66.66,0,0,1,.54-.76.67.67,0,0,1,.76.55,7.81,7.81,0,0,0,.75,1.82l.3.61a.67.67,0,0,1-.6.94Z"/><path class="cls-31" d="M227.44,71.11a.66.66,0,0,1-.34-1.22,40.09,40.09,0,0,0,10.62-9.49.67.67,0,0,1,.93-.12.67.67,0,0,1,.11.93,41.07,41.07,0,0,1-11,9.8A.64.64,0,0,1,227.44,71.11Z"/><path class="cls-32" d="M184.17,72.05H184a.67.67,0,0,1-.64-.58,14.35,14.35,0,0,1,.17-3.17,15.58,15.58,0,0,0,.18-3,29.51,29.51,0,0,0-5,.5.66.66,0,0,1-.65-.22,6.76,6.76,0,0,1-1.22-5,10,10,0,0,1,3.58-6.75.67.67,0,0,1,.93.1.66.66,0,0,1-.1.93,8.66,8.66,0,0,0-3.1,5.84,5.94,5.94,0,0,0,.7,3.69,25.41,25.41,0,0,1,5.48-.41.66.66,0,0,1,.56.49,12.11,12.11,0,0,1-.08,4c-.09.78-.19,1.59-.2,2.24,3.26-.3,6.55-3.55,7.52-4.59a.66.66,0,0,1,1,.9C191.71,68.54,188,72.05,184.17,72.05Z"/><path class="cls-32" d="M160.84,90a.69.69,0,0,1-.51-.24.66.66,0,0,1,.09-.93c5.28-4.37,9.9-9.53,18.29-18.89l4.88-5.45a.67.67,0,0,1,1,.89l-4.89,5.44c-8.43,9.41-13.07,14.59-18.43,19A.61.61,0,0,1,160.84,90Z"/><path class="cls-32" d="M180.13,74.27a.67.67,0,0,1-.47-.19.39.39,0,0,1-.08-.1.41.41,0,0,1-.06-.11.5.5,0,0,1,0-.13.53.53,0,0,1,0-.13.62.62,0,0,1,0-.13.56.56,0,0,1,0-.12.72.72,0,0,1,.14-.21.63.63,0,0,1,.6-.18.53.53,0,0,1,.12,0,.41.41,0,0,1,.11.07.38.38,0,0,1,.11.08.66.66,0,0,1,.19.46s0,.09,0,.13a.5.5,0,0,1,0,.13l-.06.11-.08.1A.7.7,0,0,1,180.13,74.27Z"/><path class="cls-32" d="M176,78.92a.53.53,0,0,1-.25,0,.74.74,0,0,1-.22-.14,1.1,1.1,0,0,1-.14-.21.75.75,0,0,1,0-.26.66.66,0,0,1,.19-.46.68.68,0,0,1,.6-.19l.13,0,.11.06.1.09a.66.66,0,0,1,.19.46.75.75,0,0,1,0,.26.8.8,0,0,1-.15.21A.68.68,0,0,1,176,78.92Z"/><path class="cls-32" d="M171.7,83.72a.74.74,0,0,1-.25,0,.6.6,0,0,1-.21-.14.81.81,0,0,1-.09-.1l-.06-.12a.56.56,0,0,1,0-.12s0-.09,0-.13,0-.09,0-.13l0-.13.06-.11.09-.1a.67.67,0,0,1,.59-.18l.13,0a.3.3,0,0,1,.11.06.39.39,0,0,1,.1.08l.08.1a.41.41,0,0,1,.06.11.65.65,0,0,1,0,.13.85.85,0,0,1,0,.26.56.56,0,0,1,0,.12.34.34,0,0,1-.06.12l-.08.1A.67.67,0,0,1,171.7,83.72Z"/><path class="cls-32" d="M166.44,89.36h-.13a.34.34,0,0,1-.12,0l-.12-.06-.1-.08a.64.64,0,0,1-.14-.22.53.53,0,0,1-.05-.25.7.7,0,0,1,.19-.47.39.39,0,0,1,.1-.08l.12-.06a.34.34,0,0,1,.12,0,.53.53,0,0,1,.25,0l.13,0,.11.06.11.08a.68.68,0,0,1,.19.47.7.7,0,0,1,0,.25,1.18,1.18,0,0,1-.14.22A.7.7,0,0,1,166.44,89.36Z"/><path class="cls-32" d="M157.33,67.71a.66.66,0,0,1-.13-1.31,25,25,0,0,1,3.11-.4.67.67,0,0,1,.7.62.66.66,0,0,1-.62.7,21.94,21.94,0,0,0-2.93.38Z"/><path class="cls-32" d="M186.56,88.77a.71.71,0,0,1-.28-.06.67.67,0,0,1-.32-.88l2.37-5a.66.66,0,0,1,1.2.56l-2.37,5A.66.66,0,0,1,186.56,88.77Z"/><path class="cls-28" d="M88.66,115.6a.67.67,0,0,1-.66-.55c-1.45-8.56.85-16.49,5.88-20.2a.66.66,0,0,1,.92.14.65.65,0,0,1-.14.92c-4.63,3.42-6.73,10.84-5.35,18.91a.67.67,0,0,1-.54.77Z"/><path class="cls-28" d="M145.34,178.15a.74.74,0,0,1-.25-.05c-7-2.85-12.46-8.47-16.27-16.69a.66.66,0,0,1,.32-.88.67.67,0,0,1,.88.32c3.66,7.91,8.9,13.31,15.57,16a.65.65,0,0,1,.36.86A.66.66,0,0,1,145.34,178.15Z"/><g class="cls-14"><path class="cls-26" d="M217.66,50h-.09a13.86,13.86,0,0,1-3.39-.95.66.66,0,0,1-.29-.89.65.65,0,0,1,.88-.29,11,11,0,0,0,2.51.74,35.23,35.23,0,0,0,1.94-5.19.66.66,0,0,1,1.29.32,38.61,38.61,0,0,1-2.25,5.89A.68.68,0,0,1,217.66,50Z"/></g><path class="cls-25" d="M209.59,40.32a.64.64,0,0,1-.48-.21.66.66,0,0,1,0-.93,2.15,2.15,0,0,0,.25-3c-.61-.76-1.78-1.22-3.26-.22a.66.66,0,1,1-.74-1.09,3.58,3.58,0,0,1,5,.48,3.48,3.48,0,0,1-.37,4.79A.66.66,0,0,1,209.59,40.32Z"/><path class="cls-33" d="M218.75,33.64a1,1,0,0,1-.61-.2l-7.55-5.8a1,1,0,0,1,1.2-1.58l7.56,5.81a1,1,0,0,1-.6,1.77Z"/><path class="cls-33" d="M235.1,54.65a1,1,0,0,1-.88-.53l-4-7.58a1,1,0,0,1,1.76-.93l4,7.58a1,1,0,0,1-.42,1.34A.93.93,0,0,1,235.1,54.65Z"/><path class="cls-25" d="M225.56,60.14a.64.64,0,0,1-.48-.21.66.66,0,0,1,0-.93,2.15,2.15,0,0,0,.25-3,2.26,2.26,0,0,0-3.26-.22.66.66,0,1,1-.74-1.09,3.58,3.58,0,0,1,5,.48A3.48,3.48,0,0,1,226,60,.66.66,0,0,1,225.56,60.14Z"/><path class="cls-25" d="M214.37,57.76l-.13,0a13.72,13.72,0,0,1-6.69-3.56.66.66,0,0,1,.92-1,12.45,12.45,0,0,0,6,3.22.67.67,0,0,1,.51.78A.66.66,0,0,1,214.37,57.76Z"/><path class="cls-34" d="M273.25,360.88a2.79,2.79,0,0,1-2.31-1.21c-3.11-4.49-6.32-9-9.56-13.4a2.81,2.81,0,1,1,4.52-3.33c3.27,4.44,6.52,9,9.66,13.53a2.81,2.81,0,0,1-2.31,4.41Z"/><path class="cls-34" d="M258.06,382.41a2.79,2.79,0,0,1-1.64-.53l-11.69-8.48a2.81,2.81,0,0,1,3.3-4.55l11.68,8.48a2.81,2.81,0,0,1-1.65,5.08Z"/><path class="cls-12" d="M273.25,361.16a3.07,3.07,0,0,1-2.54-1.33c-1.35-1.95-1-1.43-2.44-3.4-1-1.39,4.05-5,5-3.58,1.41,2,1.12,1.5,2.48,3.46a3.09,3.09,0,0,1-2.54,4.85Z"/><path class="cls-12" d="M258.06,382.69a3.06,3.06,0,0,1-1.81-.59l-2.76-2c-1.39-1,2.24-6,3.62-5l2.77,2a3.09,3.09,0,0,1-1.82,5.59Z"/><path class="cls-18" d="M179.93,243.05C170,206,141.57,195.71,129.46,209.51c-7.74-3.12-16.47,3.57-22.14,9.73-25,27.19-4.44,46.9,8.3,64.29,13.46,18.83-4.75,35.86-.19,53.51,2,7.72,8,15.31,15.09,18.59,10.41,4.85,13.71-1.6,17.18-.64.37.24,1.13,1.49,1.79,2.22,3.2,3.51,15.45,2.31,23.62-17,2.59-5.45,16.44-6.7,16.19-11.42C205.1,303,180,243.07,179.93,243.05Z"/><path class="cls-35" d="M202.89,350.16c-5.26-2.77-10.57-5.44-16-7.87-3.17-1.42-16.06-6.76-17.66-6.4a1.34,1.34,0,0,0-1,.91.13.13,0,0,0,0,.06c-1.45,2-6.22,14.28-5.94,15.32-.39,1.19.93,4.51,1.49,6.16,2.52,7.51,2,7.46,3.13,7.91,2.2.91,4.39,1.86,6.57,2.83,6,2.71,12,5.61,17.93,8.49a3,3,0,0,0,3.21-1.8c1.92-3.67,3.73-7.39,5.34-11.21a67.69,67.69,0,0,0,3.66-11.74A2.35,2.35,0,0,0,202.89,350.16Z"/><path class="cls-11" d="M271,342.66c-3.29-6.13-31.3-41.36-32-41.58-15.88-7-31.12-13.89-45.5-22.85a1.34,1.34,0,0,0-1.84.43L167,307.26a1.36,1.36,0,0,0-1.23,2c7.92,13.26,24.87,25.39,33.07,30.75a65.3,65.3,0,0,1,9.38,7.43c10.12,9.65,32.94,31.34,33.47,31.31,4.82,2.31,15.7-10.91,9.06-16.29-1.84-2.07-22.23-23.34-29.73-31.15a67.81,67.81,0,0,0-5.77-5.34c-5.92-4.84-25-22.76-19.53-18.28,4.69,1.12,23.47,7.45,28.48,9.69,0,.06,31,34.7,34,35.19C261,354.73,272.77,346.06,271,342.66Z"/><path class="cls-34" d="M214.09,252.4a2.81,2.81,0,0,1-.88-5.47c1.62-.54,3.15-1.12,4.56-1.72,5.59-2.38,9.77-5.36,12.78-9.1a2.81,2.81,0,0,1,4.38,3.53c-3.61,4.47-8.5,8-15,10.74-1.55.66-3.23,1.29-5,1.88A2.72,2.72,0,0,1,214.09,252.4Z"/><path class="cls-13" d="M215.34,253.36l-2.5-7.53c.58-.19,2.25-.81,7-2.82l3.11,7.29C219.07,251.94,216.59,252.94,215.34,253.36Z"/><path class="cls-34" d="M122.21,221.44c-15.86,12.6-6.34,34.44,9.63,38.51,18.42,4.7,32.76-21.56,21.6-36.29C143.64,210.74,130.64,214.74,122.21,221.44Z"/><path class="cls-18" d="M114.52,218c-14.21,11.29-8.43,29.85,4.23,37a7.62,7.62,0,0,0,4.88-2.88,12.1,12.1,0,0,0,2.05-4.59,24.22,24.22,0,0,0,.1-10c-.08-.42-.18-.84-.29-1.25,6-.86,8.36-7.09,6.11-12.57,3.36-.31,7.62-3.39,9.22-8.85C131.84,208.61,121.6,212.37,114.52,218Z"/><path class="cls-12" d="M167.4,259.47c-4.64,1-14.84,13.91-14.55,14.58,12.43,29.43,12.07,35.26,13.24,35.62.61,4.94,23.89-12.24,28.27-30.46a1.51,1.51,0,0,0,0-.94C194.7,276.84,168.68,259.18,167.4,259.47Z"/><path class="cls-10" d="M165.7,306.36a.66.66,0,0,1-.15-1.31c4.6-1,20.32-15.34,24.63-28.15a.65.65,0,0,1,.83-.42.66.66,0,0,1,.42.84c-2.62,7.79-9,15.22-12.51,18.95-5.07,5.33-10.44,9.47-13.07,10.07Z"/><path class="cls-36" d="M169,356a29.07,29.07,0,0,0-6.74-3.78c-.39,1.19.93,4.51,1.49,6.16,2.52,7.51,2,7.46,3.13,7.91.39.16,1.91-4.51,3.19-6.91A2.38,2.38,0,0,0,169,356Z"/><path class="cls-10" d="M181.82,291.41a.68.68,0,0,1-.52-.25c-3-3.83-5.67-6.76-8.23-9.59-2-2.19-3.84-4.26-5.79-6.64a.65.65,0,0,1,.09-.93.66.66,0,0,1,.93.09c1.93,2.36,3.79,4.41,5.75,6.59,2.57,2.85,5.23,5.79,8.29,9.66a.67.67,0,0,1-.11.93A.7.7,0,0,1,181.82,291.41Z"/><path class="cls-13" d="M162.76,299a.65.65,0,0,1-.62-.44.66.66,0,0,1,.4-.84c3-1.06,5.32-3.6,7.35-5.84a.67.67,0,0,1,.94-.05.65.65,0,0,1,0,.93c-2.14,2.36-4.57,5-7.89,6.21A.83.83,0,0,1,162.76,299Z"/><path class="cls-13" d="M181.91,280.28a.67.67,0,0,1-.5-.23.66.66,0,0,1,.07-.93,16.18,16.18,0,0,0,4.58-6.47.67.67,0,0,1,.86-.38.65.65,0,0,1,.37.85,17.42,17.42,0,0,1-4.95,7A.64.64,0,0,1,181.91,280.28Z"/><path class="cls-12" d="M171.05,267l-5.44-5.77c6.83-6.46,17.8-8.69,29.41-11.05a154.52,154.52,0,0,0,17.82-4.36l2.5,7.53A162.57,162.57,0,0,1,196.6,258C186.13,260.09,176.24,262.1,171.05,267Z"/><path class="cls-10" d="M166,260.79c2.65,4.52,2.81,11.19,2.9,15.1-3.86.61-10.61-1.77-14.19-3.61C154.74,272.28,157.94,266.43,166,260.79Z"/><path class="cls-10" d="M167.58,276.64c-4.19,0-10.08-2.2-13.14-3.77a.64.64,0,0,1-.33-.39.69.69,0,0,1,0-.51c.14-.25,3.37-6.06,11.49-11.72a.64.64,0,0,1,.52-.1.68.68,0,0,1,.43.31c2.73,4.64,2.89,11.35,3,15.36v.05a.66.66,0,0,1-.55.67A9.75,9.75,0,0,1,167.58,276.64ZM155.68,272c3.45,1.66,9.08,3.55,12.58,3.29-.1-3.73-.34-9.42-2.45-13.54A39.89,39.89,0,0,0,155.68,272Z"/><path class="cls-10" d="M172.11,308.33a.66.66,0,0,1-.45-.18,24.4,24.4,0,0,1-2.95-3.31.65.65,0,0,1,.14-.92.66.66,0,0,1,.92.13,22.45,22.45,0,0,0,2.79,3.13.65.65,0,0,1,0,.93A.68.68,0,0,1,172.11,308.33Z"/><path class="cls-10" d="M176,305.3a.65.65,0,0,1-.41-.15,12.33,12.33,0,0,1-2.85-3.26.66.66,0,1,1,1.13-.69,11.13,11.13,0,0,0,2.55,2.92.66.66,0,0,1-.42,1.18Z"/><path class="cls-10" d="M179.55,301.71a.68.68,0,0,1-.46-.19,15.68,15.68,0,0,1-2.67-3.35.66.66,0,1,1,1.13-.68,14.89,14.89,0,0,0,2.45,3.08.65.65,0,0,1,0,.93A.66.66,0,0,1,179.55,301.71Z"/><path class="cls-10" d="M183.49,297a.66.66,0,0,1-.42-.15q-1.24-1-2.43-2.13a.66.66,0,0,1,0-.93.65.65,0,0,1,.93,0c.76.71,1.55,1.41,2.36,2.07a.66.66,0,0,1,.09.93A.65.65,0,0,1,183.49,297Z"/><path class="cls-10" d="M186.62,293.23a.67.67,0,0,1-.47-.2l-2-2a3.85,3.85,0,0,1-.73-.92.67.67,0,0,1,.29-.89.65.65,0,0,1,.89.29,2.55,2.55,0,0,0,.49.59l2,2a.65.65,0,0,1,0,.93A.63.63,0,0,1,186.62,293.23Z"/><path class="cls-10" d="M189,289.41a.65.65,0,0,1-.48-.2L186,286.6a.66.66,0,1,1,1-.92l2.52,2.62a.65.65,0,0,1-.48,1.11Z"/><path class="cls-10" d="M191.28,284.78a.67.67,0,0,1-.4-.14l-2.52-1.91a.65.65,0,0,1-.13-.92.66.66,0,0,1,.92-.13l2.53,1.91a.66.66,0,0,1-.4,1.19Z"/><path class="cls-10" d="M193,281.4a.66.66,0,0,1-.43-.16,25.34,25.34,0,0,1-2.53-2.44.66.66,0,1,1,1-.89,22.85,22.85,0,0,0,2.4,2.32.67.67,0,0,1,.08.94A.66.66,0,0,1,193,281.4Z"/><path class="cls-34" d="M164.8,348.57a2.81,2.81,0,0,1-2-.83,46.31,46.31,0,0,1-6.75-10.18,2.81,2.81,0,0,1,5-2.6,41,41,0,0,0,5.74,8.82,2.81,2.81,0,0,1-2,4.79Z"/><path class="cls-12" d="M152.58,333a81.45,81.45,0,0,1-7-28.15c-.59-12.14,2.28-22.88,8.54-31.92l6.52,4.51c-5.24,7.58-7.65,16.67-7.14,27a73.56,73.56,0,0,0,6.3,25.35Z"/><path class="cls-13" d="M155,338.09c-.73-1.4-2.83-5.72-3.69-8.08l7.45-2.72c.64,1.76,2.48,5.62,3.27,7.14Z"/><path class="cls-34" d="M152.69,250.65a1.34,1.34,0,0,0-1.89.16,34.48,34.48,0,0,1-4,3.91c-1.8,1.7,1.55,6.46,8.42,16.67,2.07,3.09,9.5-5.69,10.65-7.81C167,260.78,159.66,257.79,152.69,250.65Z"/><path class="cls-10" d="M172.93,364.45a.74.74,0,0,1-.25-.05.65.65,0,0,1-.36-.86c.55-1.38,4.14-9,4.86-10.28a.66.66,0,0,1,.9-.26.67.67,0,0,1,.26.9c-.68,1.24-4.27,8.82-4.8,10.14A.66.66,0,0,1,172.93,364.45Z"/><path class="cls-10" d="M176.58,365.65a.67.67,0,0,1-.31-.07.66.66,0,0,1-.28-.89c2.78-5.41,5.75-10.82,8.83-16.07a.66.66,0,0,1,.9-.24.67.67,0,0,1,.24.91c-3.06,5.23-6,10.61-8.8,16A.64.64,0,0,1,176.58,365.65Z"/><path class="cls-10" d="M182.35,367.15A.67.67,0,0,1,182,367a.66.66,0,0,1-.15-.92,79.75,79.75,0,0,0,7.8-14.22.66.66,0,0,1,1.21.54,80.92,80.92,0,0,1-7.94,14.45A.66.66,0,0,1,182.35,367.15Z"/><path class="cls-10" d="M186.87,369.49a.8.8,0,0,1-.33-.08.66.66,0,0,1-.25-.9l.81-1.43a39.89,39.89,0,0,0,2.79-5.54l.67-1.5a.67.67,0,0,1,.87-.34.66.66,0,0,1,.33.87l-.66,1.5a41.63,41.63,0,0,1-2.85,5.66l-.81,1.43A.65.65,0,0,1,186.87,369.49Z"/><path class="cls-37" d="M148.71,225.21a1.5,1.5,0,0,1,2.23.17,1.41,1.41,0,0,1-.41,1.94,1.6,1.6,0,0,1-2.41-1,1.35,1.35,0,0,1,.59-1.09Z"/><path class="cls-37" d="M136.56,239.05a1.61,1.61,0,0,1,2.25.83,1.5,1.5,0,0,1-1,1.88,1.51,1.51,0,0,1-1.26-2.71Z"/><g class="cls-14"><path class="cls-38" d="M145.48,239a.66.66,0,0,1-.44-1.16,5.85,5.85,0,0,0,1.79-2.58l-5.93-3.88a.65.65,0,0,1-.19-.91.66.66,0,0,1,.91-.2l6.33,4.14a.67.67,0,0,1,.29.64,6.58,6.58,0,0,1-2.33,3.78A.65.65,0,0,1,145.48,239Z"/></g><path class="cls-37" d="M146.81,245.8a3.54,3.54,0,0,1-1.85-.53l-.06,0a.66.66,0,0,1,.15-1.19l.75-.24a5.66,5.66,0,0,0,3.62-2.21.65.65,0,0,1,.8-.11.67.67,0,0,1,.31.75l-.28,1a3.59,3.59,0,0,1-3.44,2.59Z"/><path class="cls-18" d="M129.73,242.05h-.07a.83.83,0,0,1-.76-.88,17.79,17.79,0,0,1,1.67-6.28.83.83,0,0,1,1.1-.39.82.82,0,0,1,.39,1.1,16.12,16.12,0,0,0-1.51,5.69A.83.83,0,0,1,129.73,242.05Z"/><path class="cls-18" d="M141.37,223.46a.83.83,0,0,1-.33-1.59,67.42,67.42,0,0,1,6.45-2.39.82.82,0,1,1,.49,1.57,66.67,66.67,0,0,0-6.28,2.34A.78.78,0,0,1,141.37,223.46Z"/><path class="cls-32" d="M175.09,319.26l-.18,0a.66.66,0,0,1-.46-.81,18.82,18.82,0,0,0,.43-8.44.67.67,0,0,1,.54-.77.65.65,0,0,1,.76.53,20.16,20.16,0,0,1-.45,9A.67.67,0,0,1,175.09,319.26Z"/><path class="cls-32" d="M193.4,287.25h-.13a.66.66,0,0,1,0-1.32h.12a19.31,19.31,0,0,0,7.82-1.67.67.67,0,0,1,.88.33.65.65,0,0,1-.34.87A20.43,20.43,0,0,1,193.4,287.25Z"/><g class="cls-39"><path class="cls-40" d="M90.53,183.14c-3.9-9.17-12.06-15.31-21.3-16-8.39-.63-15.9,3.4-20.61,11.06-5,8.08-5,19.41,0,26.94,3.91,5.93,10.4,9.06,18.57,9.06a36.08,36.08,0,0,0,5.27-.41c9.92-1.46,14.75-6.66,17.06-10.77A23.4,23.4,0,0,0,90.53,183.14Zm-3.32,18.58c-2.89,5.15-8.12,8.42-15.14,9.46-12.27,1.81-18.33-3.08-21.25-7.5-4.43-6.72-4.41-16.85,0-24.1,3.89-6.33,9.91-9.86,16.67-9.86.49,0,1,0,1.49.05,8.25.63,15.56,6.14,19.06,14.41A20.59,20.59,0,0,1,87.21,201.72Z"/><path class="cls-40" d="M70.21,179.05c-2.63-2-5.47-1.28-8.43,2a1.32,1.32,0,1,0,2,1.76c2.63-2.93,3.9-2.39,4.88-1.66,2.27,1.7,3.42,3.16,3.42,4.36s-1.25,2.78-4.19,5a2.2,2.2,0,0,0-1,2.27l.32,2.93a1.32,1.32,0,0,0,1.31,1.17h.15a1.33,1.33,0,0,0,1.17-1.46l-.32-2.84c2.7-2,5.18-4.28,5.18-7C74.69,183.39,73.27,181.34,70.21,179.05Z"/><path class="cls-40" d="M70.64,202.24a1.71,1.71,0,0,0-.13-.23,1.08,1.08,0,0,0-.16-.2l-.2-.17a1,1,0,0,0-.23-.12,1,1,0,0,0-.25-.07,1.14,1.14,0,0,0-.52,0,1.09,1.09,0,0,0-.24.07,1,1,0,0,0-.23.12l-.2.17a.78.78,0,0,0-.16.2,1.71,1.71,0,0,0-.13.23,1.09,1.09,0,0,0-.07.24,1.22,1.22,0,0,0,0,.26,1.09,1.09,0,0,0,0,.26,1.17,1.17,0,0,0,.07.25,1.59,1.59,0,0,0,.13.22.83.83,0,0,0,.16.21,1.56,1.56,0,0,0,.2.16,1,1,0,0,0,.23.12,1.13,1.13,0,0,0,.24.08,1.18,1.18,0,0,0,.26,0,1.1,1.1,0,0,0,.26,0,1,1,0,0,0,.25-.08,1,1,0,0,0,.23-.12,1.56,1.56,0,0,0,.2-.16,1.16,1.16,0,0,0,.16-.21,1.59,1.59,0,0,0,.13-.22,2.33,2.33,0,0,0,.07-.25,1.09,1.09,0,0,0,0-.26,1.22,1.22,0,0,0,0-.26A2.17,2.17,0,0,0,70.64,202.24Z"/><path class="cls-40" d="M481.72,235.93a157.78,157.78,0,0,0-6-19.75c-.44-1.26-.89-2.51-1.32-3.76a4.49,4.49,0,0,0-3.75-3c-.28-.86-.5-1.7-.74-2.61a4.21,4.21,0,0,0-5.14-3l-14,3.7a4.46,4.46,0,0,0-3.87-1c-3.72.76-12.95,2.69-18.42,4.17a4.51,4.51,0,0,0-3.3,4.91c1.15,9.06,5.05,23.67,8,32a4.48,4.48,0,0,0,4.23,3,5,5,0,0,0,.85-.08c14.29-2.69,27.2-5.26,40.41-9.35A4.48,4.48,0,0,0,481.72,235.93Zm-16.29-29.54a1.57,1.57,0,0,1,1.92,1.13c.19.74.41,1.5.64,2.28-3.67.91-6,1.53-9.59,2.5l-2,.54a1.87,1.87,0,0,1-1.91-.61c-.26-.31-.85-1.08-1.41-1.83l-.47-.61Zm12.43,32.25c-13.08,4.05-25.91,6.59-40.12,9.27a1.85,1.85,0,0,1-2.1-1.2c-2.91-8.21-6.75-22.57-7.88-31.46a1.86,1.86,0,0,1,1.36-2c5.41-1.46,14.58-3.37,18.27-4.13a2.33,2.33,0,0,1,.37,0,1.84,1.84,0,0,1,1.36.6c.27.29,1.14,1.43,1.83,2.35s1.19,1.56,1.5,1.93a4.51,4.51,0,0,0,4.61,1.46h0l2-.54c3.93-1.06,6.3-1.69,10.6-2.75a1.85,1.85,0,0,1,2.2,1.19c.44,1.25.88,2.51,1.33,3.77a155.78,155.78,0,0,1,5.91,19.41A1.86,1.86,0,0,1,477.86,238.64Z"/><path class="cls-40" d="M443.57,214.42l-9.82,2.64a1.33,1.33,0,0,0,.69,2.56l9.82-2.65a1.32,1.32,0,0,0-.69-2.55Z"/><path class="cls-40" d="M442,75c-1.54,0-3.73-.16-6.88-.4a2.68,2.68,0,0,1-1.76-.77c-.84-.84-1.89-4.53-2.33-6.24a21.61,21.61,0,0,1-3.6-1.46,30.1,30.1,0,0,1-6.36.61c-1.15-.08-2.36-.87-5.46-9.13l-.08-.2c-.73-1.93.52-3.06,2.26-4.61l.92-.84a18.74,18.74,0,0,1,.13-2.58c-2.82-3-3.37-3.87-3.52-4.28-.56-1.19.09-3.22,4.39-9.5l.16-.24c1.17-1.71,2.73-1.34,5.3-.74l1.48.34.33.07.72.16c.58-.4,1.19-.78,1.81-1.13.13-.45.36-1.09.72-2.07.41-1.14.92-2.56,1.28-3.76.67-2.21,3.1-2.1,6.45-1.95,1.5.07,3.37.16,5.54.1h.09c2.31,0,3,2.45,4.2,6.49l.12.42a24.32,24.32,0,0,1,2.6,1.68c.88-.11,1.64-.22,2.32-.32,2.43-.35,3.77-.54,5,.27s1.7,2.12,2.82,4.82l.5,1.18c.33.8.64,1.43.92,2,1.52,3.11,1.25,4-2.12,7.08-.3.28-.61.55-.92.82,0,.39,0,.79,0,1.18.59.67,1.1,1.22,1.53,1.68,2.57,2.77,2.63,3.41.64,6.87l0,0c-.55,1-1,1.78-1.41,2.51-2.94,5.33-3.53,5.61-9,4.24l-1.52-.38c-.39.19-.75.34-1.13.49a32.87,32.87,0,0,1-2.18,6.1C445.32,74.58,444.49,75,442,75Zm-6.76-3h.08c2.43.19,7.41.58,8.32.27a1.27,1.27,0,0,1,.13-.19,49.21,49.21,0,0,0,2-5.94,1.31,1.31,0,0,1,.85-.92,13.29,13.29,0,0,0,1.9-.8,1.32,1.32,0,0,1,.9-.11l2,.49c1.93.48,3.2.8,3.71.56s1.27-1.55,2.35-3.5c.41-.74.87-1.58,1.43-2.56l0,0a8.72,8.72,0,0,0,1.05-2.13,7.83,7.83,0,0,0-1.34-1.63c-.52-.56-1.16-1.25-1.93-2.14a1.37,1.37,0,0,1-.32-.93,20.73,20.73,0,0,0,0-2.08,1.31,1.31,0,0,1,.45-1.08L457,49c.39-.34.78-.67,1.16-1a10,10,0,0,0,2.13-2.32,3.9,3.9,0,0,0-.62-1.63c-.27-.56-.61-1.26-1-2.13h0c-.18-.42-.34-.82-.5-1.19-.83-2-1.38-3.32-1.85-3.63s-1.48-.09-3.14.15c-.79.11-1.77.25-2.92.39a1.34,1.34,0,0,1-1-.27,20.76,20.76,0,0,0-3.14-2,1.37,1.37,0,0,1-.66-.81l-.28-.95c-.58-2-1.23-4.24-1.7-4.59-2.25.06-4.17,0-5.71-.1a13.28,13.28,0,0,0-3.8.1c-.39,1.27-.91,2.71-1.33,3.86-.3.85-.68,1.9-.74,2.19a1.33,1.33,0,0,1-.71,1,19.69,19.69,0,0,0-2.52,1.57,1.34,1.34,0,0,1-1.18.2,9.42,9.42,0,0,0-1.11-.27l-.37-.08-1.51-.34a10.21,10.21,0,0,0-2.45-.43l-.06.08-.17.24c-3.46,5.06-4,6.63-4.09,7.08A38.57,38.57,0,0,0,421.15,48a1.35,1.35,0,0,1,.36,1.13,14.71,14.71,0,0,0-.17,3.3,1.34,1.34,0,0,1-.42,1l-1.41,1.28a9.79,9.79,0,0,0-1.59,1.6s0,0,0,.1l.08.21c2.18,5.81,3.18,7.17,3.48,7.47a46.54,46.54,0,0,0,5.88-.7,1.31,1.31,0,0,1,.87.15,18.5,18.5,0,0,0,4.16,1.65,1.33,1.33,0,0,1,1,1.1A38.82,38.82,0,0,0,435.2,71.94Zm8.63,0,0,0Zm0,0Zm-22.24-7.72Zm0,0Zm-.4-.09h0Zm-3.43-19.82Zm-.15-.37ZM431.93,35v0Zm7,25.17a8.89,8.89,0,0,1-8.1-4.75,10.89,10.89,0,0,1,0-10.71,8.35,8.35,0,0,1,7.33-4h0c2.59-.64,8.64,1.76,10.72,6.63,2.26,5.26-1,9.71-4.94,11.63A11.57,11.57,0,0,1,438.91,60.15Zm-.79-16.8a5.68,5.68,0,0,0-5.07,2.72,8.23,8.23,0,0,0,.08,8.07c2.11,3.88,6.48,4,9.66,2.45,4.11-2,4.8-5.56,3.66-8.21-1.7-4-6.71-5.41-7.64-5.11a1.22,1.22,0,0,1-.5.08Z"/><path class="cls-40" d="M463.45,323a19.55,19.55,0,0,0-16-10c-8.91-.65-18.89,3.87-24.83,11.24h0c-7.14,8.85-6.53,18.8,1.62,26.63a26.92,26.92,0,0,0,18.9,7.92,30.83,30.83,0,0,0,15.39-4.38A15.94,15.94,0,0,0,466,344.21C468.11,336.23,465.72,326.82,463.45,323Zm0,20.57a13.34,13.34,0,0,1-6.23,8.59,28,28,0,0,1-15.65,4A24.22,24.22,0,0,1,426.08,349c-7.16-6.88-7.67-15.29-1.4-23.07h0c5.43-6.73,14.51-10.85,22.59-10.27a17,17,0,0,1,13.9,8.68C462.89,327.22,465.4,336.12,463.45,343.54Z"/><path class="cls-40" d="M450.07,324.51A102.6,102.6,0,0,0,439,342.11l-5.1-5a1.32,1.32,0,0,0-1.84,1.89l6.41,6.27a1.34,1.34,0,0,0,.92.38l.24,0a1.32,1.32,0,0,0,1-.74,99.09,99.09,0,0,1,11.55-18.76,1.33,1.33,0,0,0-2.09-1.63Z"/><path class="cls-40" d="M71,331.39l-.39,0A191.85,191.85,0,0,1,52,326.89c-3.33-.93-6.46-1.85-8.83-2.59-1.59-.5-2.63-.83-3.32-1.12-.25.19-.52.43-.75.64a11.62,11.62,0,0,1-1.1.89c-.83.56-8.27,5.53-11.07,3.83a2.34,2.34,0,0,1-1.05-2.43,50.38,50.38,0,0,1,1.89-8.33c-2.93-1-9.1-3.54-9.95-5.95-1.72-4.82,5.56-31.05,13.91-37.76.54-.43,1.54-1.24,9.34.35,11.85,2.41,41.37,11.34,44.78,17.7h0c.66,1.22,1.22,5-2.4,16.89-2,6.43-5.16,14.87-8.28,19.3C74.2,329.66,72.76,331.39,71,331.39Zm-30.29-10.7c2.51,1.06,22.7,6.92,30.29,8.06,0,0,1.11-.18,3.34-4.2a94.19,94.19,0,0,0,7.08-18.18c2.31-8.05,2.49-12.19,2-13-1.13-2.11-9.25-6.48-24.82-11.46-14-4.48-23.83-6.21-25.39-5.71-3.21,2.64-6.86,9.47-9.79,18.31-2.85,8.61-3.7,15.09-3.21,16.44s7.33,4.24,9.42,4.68a1.31,1.31,0,0,1,1,1.74,48.61,48.61,0,0,0-2.16,8.92c1.24,0,4.85-1.62,8-3.76.22-.15.52-.42.82-.68a6.89,6.89,0,0,1,2-1.43A1.33,1.33,0,0,1,40.74,320.69Z"/><path class="cls-40" d="M49.23,311.56a2.66,2.66,0,0,1-1.47-.46c-.39-.25-6.2-7.65-6.25-7.71-3.74-5.47-2.28-10.18.81-12.42a7.68,7.68,0,0,1,10,1c3.34-1.91,6.6-2.13,9.08-.59a7.15,7.15,0,0,1,3,7.2c-.29,2.09-2.19,9.2-14.62,12.86A2.18,2.18,0,0,1,49.23,311.56Zm-2.52-19.37a4.86,4.86,0,0,0-2.84.92c-1.91,1.38-3.1,4.51-.17,8.78.26.36,4.55,5.71,5.58,7,5.64-1.69,11.86-5.36,12.58-10.63A4.47,4.47,0,0,0,60,293.66c-1.8-1.13-4.43-.7-7.21,1.16a1.31,1.31,0,0,1-1.78-.3A5.45,5.45,0,0,0,46.71,292.19Z"/><path class="cls-40" d="M62.27,75.26a.93.93,0,0,1-.23,0L20.9,68a1.31,1.31,0,0,1-1.07-1.53l9.73-54.91a1.28,1.28,0,0,1,.54-.85,1.33,1.33,0,0,1,1-.22L61,15.73a1.3,1.3,0,0,1,.85.55L71.07,29.7a1.35,1.35,0,0,1,.21,1L63.57,74.17a1.32,1.32,0,0,1-1.3,1.09ZM22.66,65.58,61.2,72.41l7.38-41.66L59.94,18.24l-28-5Z"/><path class="cls-40" d="M44.62,37.1l-.23,0L33.88,35.22a1.33,1.33,0,0,1,.47-2.61l10.5,1.87a1.32,1.32,0,0,1-.23,2.62Z"/><path class="cls-40" d="M60.17,46.57a.9.9,0,0,1-.23,0L32.73,41.73a1.32,1.32,0,1,1,.46-2.6L60.4,44a1.32,1.32,0,0,1-.23,2.62Z"/><path class="cls-40" d="M58.78,54.41a.9.9,0,0,1-.23,0L31.34,49.57A1.32,1.32,0,0,1,31.8,47L59,51.79a1.32,1.32,0,0,1-.23,2.62Z"/><path class="cls-40" d="M57.63,60.93a1,1,0,0,1-.24,0l-14.6-2.58a1.33,1.33,0,1,1,.46-2.61l14.6,2.59a1.32,1.32,0,0,1-.22,2.62Z"/><path class="cls-40" d="M70,31.77a1.24,1.24,0,0,1-.27,0l-8.86-1.85a3.7,3.7,0,0,1-3-4.3l1.56-8.79a1.32,1.32,0,1,1,2.6.46l-1.56,8.79a1,1,0,0,0,.18.8,1,1,0,0,0,.69.45h0l8.88,1.85A1.32,1.32,0,0,1,70,31.77Z"/></g></g></g></svg>